G04 #@! TF.FileFunction,Legend,Top*
%FSLAX46Y46*%
G04 Gerber Fmt 4.6, Leading zero omitted, Abs format (unit mm)*
G04 Created by KiCad (PCBNEW 4.0.0-rc1-stable) date 15/10/2016 23:53:53*
%MOMM*%
G01*
G04 APERTURE LIST*
%ADD10C,0.100000*%
%ADD11C,0.150000*%
%ADD12C,0.010000*%
%ADD13R,0.800000X0.800000*%
%ADD14R,1.150000X1.450000*%
%ADD15R,3.000000X3.000000*%
G04 APERTURE END LIST*
D10*
D11*
X32400000Y-147075000D02*
X32900000Y-146600000D01*
X32400000Y-146600000D02*
X32400000Y-146900000D01*
X32400000Y-146900000D02*
X32700000Y-146600000D01*
X32400000Y-148000000D02*
X32400000Y-146600000D01*
X32400000Y-146600000D02*
X35600000Y-146600000D01*
X35600000Y-146600000D02*
X35600000Y-149400000D01*
X35600000Y-149400000D02*
X32400000Y-149400000D01*
X32400000Y-149400000D02*
X32400000Y-148000000D01*
X79650000Y-126825000D02*
X80150000Y-126350000D01*
X79650000Y-126350000D02*
X79650000Y-126650000D01*
X79650000Y-126650000D02*
X79950000Y-126350000D01*
X79650000Y-127750000D02*
X79650000Y-126350000D01*
X79650000Y-126350000D02*
X82850000Y-126350000D01*
X82850000Y-126350000D02*
X82850000Y-129150000D01*
X82850000Y-129150000D02*
X79650000Y-129150000D01*
X79650000Y-129150000D02*
X79650000Y-127750000D01*
X43650000Y-114325000D02*
X44150000Y-113850000D01*
X43650000Y-113850000D02*
X43650000Y-114150000D01*
X43650000Y-114150000D02*
X43950000Y-113850000D01*
X43650000Y-115250000D02*
X43650000Y-113850000D01*
X43650000Y-113850000D02*
X46850000Y-113850000D01*
X46850000Y-113850000D02*
X46850000Y-116650000D01*
X46850000Y-116650000D02*
X43650000Y-116650000D01*
X43650000Y-116650000D02*
X43650000Y-115250000D01*
X84400000Y-147075000D02*
X84900000Y-146600000D01*
X84400000Y-146600000D02*
X84400000Y-146900000D01*
X84400000Y-146900000D02*
X84700000Y-146600000D01*
X84400000Y-148000000D02*
X84400000Y-146600000D01*
X84400000Y-146600000D02*
X87600000Y-146600000D01*
X87600000Y-146600000D02*
X87600000Y-149400000D01*
X87600000Y-149400000D02*
X84400000Y-149400000D01*
X84400000Y-149400000D02*
X84400000Y-148000000D01*
X37150000Y-126825000D02*
X37650000Y-126350000D01*
X37150000Y-126350000D02*
X37150000Y-126650000D01*
X37150000Y-126650000D02*
X37450000Y-126350000D01*
X37150000Y-127750000D02*
X37150000Y-126350000D01*
X37150000Y-126350000D02*
X40350000Y-126350000D01*
X40350000Y-126350000D02*
X40350000Y-129150000D01*
X40350000Y-129150000D02*
X37150000Y-129150000D01*
X37150000Y-129150000D02*
X37150000Y-127750000D01*
X73150000Y-114325000D02*
X73650000Y-113850000D01*
X73150000Y-113850000D02*
X73150000Y-114150000D01*
X73150000Y-114150000D02*
X73450000Y-113850000D01*
X73150000Y-115250000D02*
X73150000Y-113850000D01*
X73150000Y-113850000D02*
X76350000Y-113850000D01*
X76350000Y-113850000D02*
X76350000Y-116650000D01*
X76350000Y-116650000D02*
X73150000Y-116650000D01*
X73150000Y-116650000D02*
X73150000Y-115250000D01*
X39875000Y-144450000D02*
X40125000Y-144450000D01*
X40125000Y-144450000D02*
X40125000Y-145550000D01*
X40125000Y-145550000D02*
X39875000Y-145550000D01*
X39875000Y-145550000D02*
X39875000Y-144450000D01*
X75125000Y-127550000D02*
X74875000Y-127550000D01*
X74875000Y-127550000D02*
X74875000Y-126450000D01*
X74875000Y-126450000D02*
X75125000Y-126450000D01*
X75125000Y-126450000D02*
X75125000Y-127550000D01*
X39875000Y-146450000D02*
X40125000Y-146450000D01*
X40125000Y-146450000D02*
X40125000Y-147550000D01*
X40125000Y-147550000D02*
X39875000Y-147550000D01*
X39875000Y-147550000D02*
X39875000Y-146450000D01*
X75125000Y-125550000D02*
X74875000Y-125550000D01*
X74875000Y-125550000D02*
X74875000Y-124450000D01*
X74875000Y-124450000D02*
X75125000Y-124450000D01*
X75125000Y-124450000D02*
X75125000Y-125550000D01*
X39875000Y-148450000D02*
X40125000Y-148450000D01*
X40125000Y-148450000D02*
X40125000Y-149550000D01*
X40125000Y-149550000D02*
X39875000Y-149550000D01*
X39875000Y-149550000D02*
X39875000Y-148450000D01*
X75125000Y-129550000D02*
X74875000Y-129550000D01*
X74875000Y-129550000D02*
X74875000Y-128450000D01*
X74875000Y-128450000D02*
X75125000Y-128450000D01*
X75125000Y-128450000D02*
X75125000Y-129550000D01*
X49875000Y-112450000D02*
X50125000Y-112450000D01*
X50125000Y-112450000D02*
X50125000Y-113550000D01*
X50125000Y-113550000D02*
X49875000Y-113550000D01*
X49875000Y-113550000D02*
X49875000Y-112450000D01*
X49875000Y-114450000D02*
X50125000Y-114450000D01*
X50125000Y-114450000D02*
X50125000Y-115550000D01*
X50125000Y-115550000D02*
X49875000Y-115550000D01*
X49875000Y-115550000D02*
X49875000Y-114450000D01*
X49875000Y-116450000D02*
X50125000Y-116450000D01*
X50125000Y-116450000D02*
X50125000Y-117550000D01*
X50125000Y-117550000D02*
X49875000Y-117550000D01*
X49875000Y-117550000D02*
X49875000Y-116450000D01*
X80125000Y-147550000D02*
X79875000Y-147550000D01*
X79875000Y-147550000D02*
X79875000Y-146450000D01*
X79875000Y-146450000D02*
X80125000Y-146450000D01*
X80125000Y-146450000D02*
X80125000Y-147550000D01*
X44875000Y-126450000D02*
X45125000Y-126450000D01*
X45125000Y-126450000D02*
X45125000Y-127550000D01*
X45125000Y-127550000D02*
X44875000Y-127550000D01*
X44875000Y-127550000D02*
X44875000Y-126450000D01*
X80125000Y-145550000D02*
X79875000Y-145550000D01*
X79875000Y-145550000D02*
X79875000Y-144450000D01*
X79875000Y-144450000D02*
X80125000Y-144450000D01*
X80125000Y-144450000D02*
X80125000Y-145550000D01*
X44875000Y-124450000D02*
X45125000Y-124450000D01*
X45125000Y-124450000D02*
X45125000Y-125550000D01*
X45125000Y-125550000D02*
X44875000Y-125550000D01*
X44875000Y-125550000D02*
X44875000Y-124450000D01*
X80125000Y-149550000D02*
X79875000Y-149550000D01*
X79875000Y-149550000D02*
X79875000Y-148450000D01*
X79875000Y-148450000D02*
X80125000Y-148450000D01*
X80125000Y-148450000D02*
X80125000Y-149550000D01*
X44875000Y-128450000D02*
X45125000Y-128450000D01*
X45125000Y-128450000D02*
X45125000Y-129550000D01*
X45125000Y-129550000D02*
X44875000Y-129550000D01*
X44875000Y-129550000D02*
X44875000Y-128450000D01*
X70125000Y-115550000D02*
X69875000Y-115550000D01*
X69875000Y-115550000D02*
X69875000Y-114450000D01*
X69875000Y-114450000D02*
X70125000Y-114450000D01*
X70125000Y-114450000D02*
X70125000Y-115550000D01*
X70125000Y-113550000D02*
X69875000Y-113550000D01*
X69875000Y-113550000D02*
X69875000Y-112450000D01*
X69875000Y-112450000D02*
X70125000Y-112450000D01*
X70125000Y-112450000D02*
X70125000Y-113550000D01*
X70125000Y-117550000D02*
X69875000Y-117550000D01*
X69875000Y-117550000D02*
X69875000Y-116450000D01*
X69875000Y-116450000D02*
X70125000Y-116450000D01*
X70125000Y-116450000D02*
X70125000Y-117550000D01*
D12*
G36*
X34589986Y-150313925D02*
X35466124Y-150612613D01*
X36658462Y-151112526D01*
X37245833Y-151383003D01*
X42259311Y-153452472D01*
X47461035Y-154988718D01*
X52996209Y-156030349D01*
X56086473Y-156392392D01*
X60704656Y-156548581D01*
X65585484Y-156199166D01*
X70539100Y-155379884D01*
X70772235Y-155319466D01*
X75522222Y-155319466D01*
X75522222Y-164864633D01*
X76668750Y-164646659D01*
X77506597Y-164425622D01*
X78782937Y-164017694D01*
X80279694Y-163494296D01*
X80990278Y-163231366D01*
X84165278Y-162034046D01*
X84262903Y-156883689D01*
X84287685Y-155068764D01*
X84290300Y-153534127D01*
X84271986Y-152403330D01*
X84233979Y-151799921D01*
X84211324Y-151733333D01*
X83843593Y-151870380D01*
X82998243Y-152234593D01*
X81837394Y-152755578D01*
X81467865Y-152924567D01*
X79967073Y-153591703D01*
X78461427Y-154225189D01*
X77261243Y-154694715D01*
X77197916Y-154717633D01*
X75522222Y-155319466D01*
X70772235Y-155319466D01*
X75375645Y-154126474D01*
X79905264Y-152474672D01*
X81979821Y-151518432D01*
X83220845Y-150938312D01*
X84276576Y-150513232D01*
X84941194Y-150325023D01*
X84988497Y-150322222D01*
X85365360Y-150560771D01*
X85918219Y-151305803D01*
X86674372Y-152601389D01*
X87661117Y-154491604D01*
X88039424Y-155248187D01*
X88865505Y-156944504D01*
X89550481Y-158410111D01*
X90044612Y-159533697D01*
X90298152Y-160203948D01*
X90315355Y-160341125D01*
X89845375Y-160623088D01*
X88855980Y-161101661D01*
X87485561Y-161718299D01*
X85872505Y-162414458D01*
X84155203Y-163131595D01*
X82472043Y-163811165D01*
X80961415Y-164394624D01*
X79761708Y-164823428D01*
X79579166Y-164882958D01*
X74255935Y-166310420D01*
X68673751Y-167307539D01*
X63010938Y-167858839D01*
X57445817Y-167948843D01*
X52156711Y-167562073D01*
X50827778Y-167378298D01*
X44969034Y-166230503D01*
X39330994Y-164594149D01*
X33691355Y-162401518D01*
X32013242Y-161647043D01*
X28897318Y-160205523D01*
X30664805Y-156810867D01*
X34952778Y-156810867D01*
X34961204Y-158821950D01*
X34995024Y-160238158D01*
X35067047Y-161170061D01*
X35190082Y-161728228D01*
X35376939Y-162023228D01*
X35570139Y-162139707D01*
X36766682Y-162601440D01*
X38221410Y-163125876D01*
X39767886Y-163657685D01*
X41239675Y-164141538D01*
X42470340Y-164522103D01*
X43293445Y-164744051D01*
X43507639Y-164778454D01*
X43758190Y-164720927D01*
X43930538Y-164468342D01*
X44039015Y-163911645D01*
X44097949Y-162941787D01*
X44121671Y-161449713D01*
X44125000Y-160080237D01*
X44121372Y-158181015D01*
X44107973Y-157478571D01*
X55413889Y-157478571D01*
X55413889Y-166902777D01*
X64233333Y-166902777D01*
X64233333Y-157478571D01*
X55413889Y-157478571D01*
X44107973Y-157478571D01*
X44096289Y-156866094D01*
X44028451Y-156014222D01*
X43896560Y-155504145D01*
X43679315Y-155214608D01*
X43355418Y-155024360D01*
X43226456Y-154964959D01*
X42449556Y-154661524D01*
X41992217Y-154555555D01*
X41543844Y-154418464D01*
X40612181Y-154049868D01*
X39354620Y-153513779D01*
X38522639Y-153144444D01*
X37162400Y-152541433D01*
X36052112Y-152066975D01*
X35342235Y-151784412D01*
X35170767Y-151733333D01*
X35093428Y-152065347D01*
X35028164Y-152978401D01*
X34980320Y-154348009D01*
X34955240Y-156049688D01*
X34952778Y-156810867D01*
X30664805Y-156810867D01*
X31424355Y-155352067D01*
X32309772Y-153665589D01*
X33090980Y-152203983D01*
X33706265Y-151080675D01*
X34093916Y-150409088D01*
X34187501Y-150273579D01*
X34589986Y-150313925D01*
X34589986Y-150313925D01*
G37*
X34589986Y-150313925D02*
X35466124Y-150612613D01*
X36658462Y-151112526D01*
X37245833Y-151383003D01*
X42259311Y-153452472D01*
X47461035Y-154988718D01*
X52996209Y-156030349D01*
X56086473Y-156392392D01*
X60704656Y-156548581D01*
X65585484Y-156199166D01*
X70539100Y-155379884D01*
X70772235Y-155319466D01*
X75522222Y-155319466D01*
X75522222Y-164864633D01*
X76668750Y-164646659D01*
X77506597Y-164425622D01*
X78782937Y-164017694D01*
X80279694Y-163494296D01*
X80990278Y-163231366D01*
X84165278Y-162034046D01*
X84262903Y-156883689D01*
X84287685Y-155068764D01*
X84290300Y-153534127D01*
X84271986Y-152403330D01*
X84233979Y-151799921D01*
X84211324Y-151733333D01*
X83843593Y-151870380D01*
X82998243Y-152234593D01*
X81837394Y-152755578D01*
X81467865Y-152924567D01*
X79967073Y-153591703D01*
X78461427Y-154225189D01*
X77261243Y-154694715D01*
X77197916Y-154717633D01*
X75522222Y-155319466D01*
X70772235Y-155319466D01*
X75375645Y-154126474D01*
X79905264Y-152474672D01*
X81979821Y-151518432D01*
X83220845Y-150938312D01*
X84276576Y-150513232D01*
X84941194Y-150325023D01*
X84988497Y-150322222D01*
X85365360Y-150560771D01*
X85918219Y-151305803D01*
X86674372Y-152601389D01*
X87661117Y-154491604D01*
X88039424Y-155248187D01*
X88865505Y-156944504D01*
X89550481Y-158410111D01*
X90044612Y-159533697D01*
X90298152Y-160203948D01*
X90315355Y-160341125D01*
X89845375Y-160623088D01*
X88855980Y-161101661D01*
X87485561Y-161718299D01*
X85872505Y-162414458D01*
X84155203Y-163131595D01*
X82472043Y-163811165D01*
X80961415Y-164394624D01*
X79761708Y-164823428D01*
X79579166Y-164882958D01*
X74255935Y-166310420D01*
X68673751Y-167307539D01*
X63010938Y-167858839D01*
X57445817Y-167948843D01*
X52156711Y-167562073D01*
X50827778Y-167378298D01*
X44969034Y-166230503D01*
X39330994Y-164594149D01*
X33691355Y-162401518D01*
X32013242Y-161647043D01*
X28897318Y-160205523D01*
X30664805Y-156810867D01*
X34952778Y-156810867D01*
X34961204Y-158821950D01*
X34995024Y-160238158D01*
X35067047Y-161170061D01*
X35190082Y-161728228D01*
X35376939Y-162023228D01*
X35570139Y-162139707D01*
X36766682Y-162601440D01*
X38221410Y-163125876D01*
X39767886Y-163657685D01*
X41239675Y-164141538D01*
X42470340Y-164522103D01*
X43293445Y-164744051D01*
X43507639Y-164778454D01*
X43758190Y-164720927D01*
X43930538Y-164468342D01*
X44039015Y-163911645D01*
X44097949Y-162941787D01*
X44121671Y-161449713D01*
X44125000Y-160080237D01*
X44121372Y-158181015D01*
X44107973Y-157478571D01*
X55413889Y-157478571D01*
X55413889Y-166902777D01*
X64233333Y-166902777D01*
X64233333Y-157478571D01*
X55413889Y-157478571D01*
X44107973Y-157478571D01*
X44096289Y-156866094D01*
X44028451Y-156014222D01*
X43896560Y-155504145D01*
X43679315Y-155214608D01*
X43355418Y-155024360D01*
X43226456Y-154964959D01*
X42449556Y-154661524D01*
X41992217Y-154555555D01*
X41543844Y-154418464D01*
X40612181Y-154049868D01*
X39354620Y-153513779D01*
X38522639Y-153144444D01*
X37162400Y-152541433D01*
X36052112Y-152066975D01*
X35342235Y-151784412D01*
X35170767Y-151733333D01*
X35093428Y-152065347D01*
X35028164Y-152978401D01*
X34980320Y-154348009D01*
X34955240Y-156049688D01*
X34952778Y-156810867D01*
X30664805Y-156810867D01*
X31424355Y-155352067D01*
X32309772Y-153665589D01*
X33090980Y-152203983D01*
X33706265Y-151080675D01*
X34093916Y-150409088D01*
X34187501Y-150273579D01*
X34589986Y-150313925D01*
G36*
X38781009Y-121982278D02*
X39475888Y-122595563D01*
X40259188Y-123368222D01*
X43215721Y-125942753D01*
X46681017Y-128085035D01*
X50694232Y-129818574D01*
X51425480Y-130071538D01*
X53037949Y-130545549D01*
X54669537Y-130865656D01*
X56565742Y-131070697D01*
X58412500Y-131176870D01*
X62850152Y-131103940D01*
X66914380Y-130462563D01*
X70686032Y-129224150D01*
X74245957Y-127360110D01*
X77675003Y-124841852D01*
X78596428Y-124039271D01*
X79668588Y-123099863D01*
X80550256Y-122374623D01*
X81107867Y-121971338D01*
X81218049Y-121923611D01*
X81474140Y-122220850D01*
X81942323Y-123011887D01*
X82548304Y-124145705D01*
X83217785Y-125471283D01*
X83876471Y-126837604D01*
X84450064Y-128093648D01*
X84864269Y-129088397D01*
X85044788Y-129670832D01*
X85047222Y-129706990D01*
X84862810Y-130004888D01*
X84228276Y-130164074D01*
X83021674Y-130213752D01*
X82930555Y-130213888D01*
X81814040Y-130242127D01*
X81047047Y-130315524D01*
X80813889Y-130400337D01*
X80961502Y-130785815D01*
X81349118Y-131620505D01*
X81893903Y-132726256D01*
X81912586Y-132763293D01*
X83011283Y-134939799D01*
X82194099Y-135601515D01*
X80116431Y-137029699D01*
X77480790Y-138436354D01*
X74433370Y-139755706D01*
X71120364Y-140921977D01*
X68995833Y-141539664D01*
X66859046Y-141965176D01*
X64237078Y-142263642D01*
X61339795Y-142429329D01*
X58377063Y-142456506D01*
X55558749Y-142339443D01*
X53094720Y-142072409D01*
X52591666Y-141987621D01*
X50443180Y-141496906D01*
X49740132Y-141290850D01*
X55766666Y-141290850D01*
X56096210Y-141374287D01*
X56992002Y-141442259D01*
X58314782Y-141487492D01*
X59823611Y-141502777D01*
X61420848Y-141484977D01*
X62722047Y-141436592D01*
X63587949Y-141365143D01*
X63880555Y-141283644D01*
X63723957Y-140805854D01*
X63681835Y-140715748D01*
X65658463Y-140715748D01*
X65714237Y-140926048D01*
X65966337Y-141014463D01*
X66516929Y-140965779D01*
X67468179Y-140764780D01*
X68922251Y-140396253D01*
X70335818Y-140019196D01*
X71831241Y-139568408D01*
X72676641Y-139190018D01*
X72921083Y-138861104D01*
X72909749Y-138816670D01*
X72619907Y-138372573D01*
X71970538Y-137523750D01*
X71063215Y-136399511D01*
X70181339Y-135343182D01*
X68974140Y-133918055D01*
X74463889Y-133918055D01*
X74478352Y-135865780D01*
X74545463Y-137194583D01*
X74700801Y-137990890D01*
X74979946Y-138341127D01*
X75418477Y-138331722D01*
X76051976Y-138049100D01*
X76144370Y-138000082D01*
X77518579Y-137238181D01*
X78845846Y-136456482D01*
X79987730Y-135741993D01*
X80805790Y-135181725D01*
X81161586Y-134862684D01*
X81166666Y-134843617D01*
X80904248Y-134528173D01*
X80203369Y-133906381D01*
X79193593Y-133090410D01*
X78720521Y-132725885D01*
X77498669Y-131787402D01*
X76406401Y-130931541D01*
X75632677Y-130306859D01*
X75491543Y-130187281D01*
X74895661Y-129702495D01*
X74586299Y-129508333D01*
X74539926Y-129838840D01*
X74501613Y-130741306D01*
X74475069Y-132082147D01*
X74464002Y-133727780D01*
X74463889Y-133918055D01*
X68974140Y-133918055D01*
X67630094Y-132331377D01*
X66651288Y-136299716D01*
X66261792Y-137911103D01*
X65943225Y-139290282D01*
X65730532Y-140281821D01*
X65658463Y-140715748D01*
X63681835Y-140715748D01*
X63306224Y-139912270D01*
X62705447Y-138743029D01*
X61999719Y-137438268D01*
X61267132Y-136138123D01*
X60585777Y-134982731D01*
X60033748Y-134112228D01*
X59689135Y-133666750D01*
X59622422Y-133642407D01*
X59366806Y-134053675D01*
X58890408Y-134930118D01*
X58271287Y-136116897D01*
X57587502Y-137459170D01*
X56917110Y-138802097D01*
X56338172Y-139990838D01*
X55928745Y-140870551D01*
X55766889Y-141286396D01*
X55766666Y-141290850D01*
X49740132Y-141290850D01*
X48020610Y-140786877D01*
X45559902Y-139939446D01*
X43296999Y-139036526D01*
X43193260Y-138986816D01*
X46594444Y-138986816D01*
X46907885Y-139218824D01*
X47736949Y-139562308D01*
X48914754Y-139949890D01*
X49152083Y-140019474D01*
X51102995Y-140568535D01*
X52472215Y-140918702D01*
X53350042Y-141086115D01*
X53826773Y-141086914D01*
X53992706Y-140937241D01*
X53996462Y-140885416D01*
X53913214Y-140428871D01*
X53697405Y-139472734D01*
X53388958Y-138177415D01*
X53027800Y-136703327D01*
X52653856Y-135210880D01*
X52307049Y-133860487D01*
X52027306Y-132812559D01*
X51854551Y-132227508D01*
X51824599Y-132159250D01*
X51576645Y-132369515D01*
X51014383Y-133020610D01*
X50237680Y-133982168D01*
X49346402Y-135123820D01*
X48440416Y-136315197D01*
X47619588Y-137425932D01*
X46983786Y-138325656D01*
X46632876Y-138884001D01*
X46594444Y-138986816D01*
X43193260Y-138986816D01*
X41467846Y-138160030D01*
X41302778Y-138068478D01*
X39222883Y-136859614D01*
X37775249Y-135938486D01*
X36950722Y-135298899D01*
X36736296Y-134981279D01*
X38191464Y-134981279D01*
X38631491Y-135285568D01*
X39503728Y-135802921D01*
X40636499Y-136440150D01*
X41858125Y-137104068D01*
X42996929Y-137701487D01*
X43881233Y-138139220D01*
X44339359Y-138324081D01*
X44351840Y-138325154D01*
X44811507Y-138043728D01*
X44969201Y-137769758D01*
X45065960Y-137191544D01*
X45132717Y-136154238D01*
X45169893Y-134829016D01*
X45177908Y-133387053D01*
X45157183Y-131999527D01*
X45108140Y-130837614D01*
X45031198Y-130072491D01*
X44949758Y-129861111D01*
X44584600Y-130056724D01*
X43819800Y-130577057D01*
X42787036Y-131322350D01*
X41617986Y-132192841D01*
X40444328Y-133088770D01*
X39397738Y-133910376D01*
X38609896Y-134557899D01*
X38212478Y-134931578D01*
X38191464Y-134981279D01*
X36736296Y-134981279D01*
X36732994Y-134976388D01*
X36867567Y-134486117D01*
X37225545Y-133581697D01*
X37602057Y-132736498D01*
X38071682Y-131705650D01*
X38390449Y-130963760D01*
X38480555Y-130708025D01*
X38161286Y-130630779D01*
X37337333Y-130579435D01*
X36529206Y-130566666D01*
X35200416Y-130485633D01*
X34505220Y-130234281D01*
X34389879Y-130076806D01*
X34471529Y-129611924D01*
X34812211Y-128689316D01*
X35340560Y-127456848D01*
X35985210Y-126062384D01*
X36674796Y-124653791D01*
X37337951Y-123378936D01*
X37903311Y-122385682D01*
X38299509Y-121821897D01*
X38410051Y-121747222D01*
X38781009Y-121982278D01*
X38781009Y-121982278D01*
G37*
X38781009Y-121982278D02*
X39475888Y-122595563D01*
X40259188Y-123368222D01*
X43215721Y-125942753D01*
X46681017Y-128085035D01*
X50694232Y-129818574D01*
X51425480Y-130071538D01*
X53037949Y-130545549D01*
X54669537Y-130865656D01*
X56565742Y-131070697D01*
X58412500Y-131176870D01*
X62850152Y-131103940D01*
X66914380Y-130462563D01*
X70686032Y-129224150D01*
X74245957Y-127360110D01*
X77675003Y-124841852D01*
X78596428Y-124039271D01*
X79668588Y-123099863D01*
X80550256Y-122374623D01*
X81107867Y-121971338D01*
X81218049Y-121923611D01*
X81474140Y-122220850D01*
X81942323Y-123011887D01*
X82548304Y-124145705D01*
X83217785Y-125471283D01*
X83876471Y-126837604D01*
X84450064Y-128093648D01*
X84864269Y-129088397D01*
X85044788Y-129670832D01*
X85047222Y-129706990D01*
X84862810Y-130004888D01*
X84228276Y-130164074D01*
X83021674Y-130213752D01*
X82930555Y-130213888D01*
X81814040Y-130242127D01*
X81047047Y-130315524D01*
X80813889Y-130400337D01*
X80961502Y-130785815D01*
X81349118Y-131620505D01*
X81893903Y-132726256D01*
X81912586Y-132763293D01*
X83011283Y-134939799D01*
X82194099Y-135601515D01*
X80116431Y-137029699D01*
X77480790Y-138436354D01*
X74433370Y-139755706D01*
X71120364Y-140921977D01*
X68995833Y-141539664D01*
X66859046Y-141965176D01*
X64237078Y-142263642D01*
X61339795Y-142429329D01*
X58377063Y-142456506D01*
X55558749Y-142339443D01*
X53094720Y-142072409D01*
X52591666Y-141987621D01*
X50443180Y-141496906D01*
X49740132Y-141290850D01*
X55766666Y-141290850D01*
X56096210Y-141374287D01*
X56992002Y-141442259D01*
X58314782Y-141487492D01*
X59823611Y-141502777D01*
X61420848Y-141484977D01*
X62722047Y-141436592D01*
X63587949Y-141365143D01*
X63880555Y-141283644D01*
X63723957Y-140805854D01*
X63681835Y-140715748D01*
X65658463Y-140715748D01*
X65714237Y-140926048D01*
X65966337Y-141014463D01*
X66516929Y-140965779D01*
X67468179Y-140764780D01*
X68922251Y-140396253D01*
X70335818Y-140019196D01*
X71831241Y-139568408D01*
X72676641Y-139190018D01*
X72921083Y-138861104D01*
X72909749Y-138816670D01*
X72619907Y-138372573D01*
X71970538Y-137523750D01*
X71063215Y-136399511D01*
X70181339Y-135343182D01*
X68974140Y-133918055D01*
X74463889Y-133918055D01*
X74478352Y-135865780D01*
X74545463Y-137194583D01*
X74700801Y-137990890D01*
X74979946Y-138341127D01*
X75418477Y-138331722D01*
X76051976Y-138049100D01*
X76144370Y-138000082D01*
X77518579Y-137238181D01*
X78845846Y-136456482D01*
X79987730Y-135741993D01*
X80805790Y-135181725D01*
X81161586Y-134862684D01*
X81166666Y-134843617D01*
X80904248Y-134528173D01*
X80203369Y-133906381D01*
X79193593Y-133090410D01*
X78720521Y-132725885D01*
X77498669Y-131787402D01*
X76406401Y-130931541D01*
X75632677Y-130306859D01*
X75491543Y-130187281D01*
X74895661Y-129702495D01*
X74586299Y-129508333D01*
X74539926Y-129838840D01*
X74501613Y-130741306D01*
X74475069Y-132082147D01*
X74464002Y-133727780D01*
X74463889Y-133918055D01*
X68974140Y-133918055D01*
X67630094Y-132331377D01*
X66651288Y-136299716D01*
X66261792Y-137911103D01*
X65943225Y-139290282D01*
X65730532Y-140281821D01*
X65658463Y-140715748D01*
X63681835Y-140715748D01*
X63306224Y-139912270D01*
X62705447Y-138743029D01*
X61999719Y-137438268D01*
X61267132Y-136138123D01*
X60585777Y-134982731D01*
X60033748Y-134112228D01*
X59689135Y-133666750D01*
X59622422Y-133642407D01*
X59366806Y-134053675D01*
X58890408Y-134930118D01*
X58271287Y-136116897D01*
X57587502Y-137459170D01*
X56917110Y-138802097D01*
X56338172Y-139990838D01*
X55928745Y-140870551D01*
X55766889Y-141286396D01*
X55766666Y-141290850D01*
X49740132Y-141290850D01*
X48020610Y-140786877D01*
X45559902Y-139939446D01*
X43296999Y-139036526D01*
X43193260Y-138986816D01*
X46594444Y-138986816D01*
X46907885Y-139218824D01*
X47736949Y-139562308D01*
X48914754Y-139949890D01*
X49152083Y-140019474D01*
X51102995Y-140568535D01*
X52472215Y-140918702D01*
X53350042Y-141086115D01*
X53826773Y-141086914D01*
X53992706Y-140937241D01*
X53996462Y-140885416D01*
X53913214Y-140428871D01*
X53697405Y-139472734D01*
X53388958Y-138177415D01*
X53027800Y-136703327D01*
X52653856Y-135210880D01*
X52307049Y-133860487D01*
X52027306Y-132812559D01*
X51854551Y-132227508D01*
X51824599Y-132159250D01*
X51576645Y-132369515D01*
X51014383Y-133020610D01*
X50237680Y-133982168D01*
X49346402Y-135123820D01*
X48440416Y-136315197D01*
X47619588Y-137425932D01*
X46983786Y-138325656D01*
X46632876Y-138884001D01*
X46594444Y-138986816D01*
X43193260Y-138986816D01*
X41467846Y-138160030D01*
X41302778Y-138068478D01*
X39222883Y-136859614D01*
X37775249Y-135938486D01*
X36950722Y-135298899D01*
X36736296Y-134981279D01*
X38191464Y-134981279D01*
X38631491Y-135285568D01*
X39503728Y-135802921D01*
X40636499Y-136440150D01*
X41858125Y-137104068D01*
X42996929Y-137701487D01*
X43881233Y-138139220D01*
X44339359Y-138324081D01*
X44351840Y-138325154D01*
X44811507Y-138043728D01*
X44969201Y-137769758D01*
X45065960Y-137191544D01*
X45132717Y-136154238D01*
X45169893Y-134829016D01*
X45177908Y-133387053D01*
X45157183Y-131999527D01*
X45108140Y-130837614D01*
X45031198Y-130072491D01*
X44949758Y-129861111D01*
X44584600Y-130056724D01*
X43819800Y-130577057D01*
X42787036Y-131322350D01*
X41617986Y-132192841D01*
X40444328Y-133088770D01*
X39397738Y-133910376D01*
X38609896Y-134557899D01*
X38212478Y-134931578D01*
X38191464Y-134981279D01*
X36736296Y-134981279D01*
X36732994Y-134976388D01*
X36867567Y-134486117D01*
X37225545Y-133581697D01*
X37602057Y-132736498D01*
X38071682Y-131705650D01*
X38390449Y-130963760D01*
X38480555Y-130708025D01*
X38161286Y-130630779D01*
X37337333Y-130579435D01*
X36529206Y-130566666D01*
X35200416Y-130485633D01*
X34505220Y-130234281D01*
X34389879Y-130076806D01*
X34471529Y-129611924D01*
X34812211Y-128689316D01*
X35340560Y-127456848D01*
X35985210Y-126062384D01*
X36674796Y-124653791D01*
X37337951Y-123378936D01*
X37903311Y-122385682D01*
X38299509Y-121821897D01*
X38410051Y-121747222D01*
X38781009Y-121982278D01*
G36*
X49948398Y-99485912D02*
X50220660Y-100308784D01*
X50443341Y-101268253D01*
X51227239Y-103644398D01*
X52519835Y-105688076D01*
X54219995Y-107333012D01*
X56226581Y-108512931D01*
X58438456Y-109161557D01*
X60754485Y-109212616D01*
X62139174Y-108932608D01*
X64581994Y-107884640D01*
X66565008Y-106329054D01*
X68036307Y-104324914D01*
X68943980Y-101931283D01*
X69122598Y-100986802D01*
X69329640Y-100013256D01*
X69590034Y-99389725D01*
X69701550Y-99288555D01*
X69938671Y-99553977D01*
X70430477Y-100328058D01*
X71111385Y-101490777D01*
X71915814Y-102922113D01*
X72778180Y-104502046D01*
X73632900Y-106110557D01*
X74414391Y-107627623D01*
X75057072Y-108933226D01*
X75468592Y-109842596D01*
X75283015Y-110195457D01*
X74684917Y-110916025D01*
X73775637Y-111888519D01*
X72986207Y-112678693D01*
X70360277Y-114936403D01*
X67708691Y-116556069D01*
X64889652Y-117595581D01*
X61761363Y-118112825D01*
X59470833Y-118196285D01*
X56769088Y-118041941D01*
X54550952Y-117618996D01*
X54284187Y-117538299D01*
X51186821Y-116224316D01*
X48346811Y-114387905D01*
X47725033Y-113809722D01*
X56825000Y-113809722D01*
X57136966Y-115194756D01*
X57987120Y-116220562D01*
X59246850Y-116758528D01*
X59823611Y-116808333D01*
X61169528Y-116520448D01*
X61956313Y-115942424D01*
X62672739Y-114809320D01*
X62863158Y-113522186D01*
X62530846Y-112307717D01*
X61892702Y-111542271D01*
X60618612Y-110907100D01*
X59317118Y-110853253D01*
X58147666Y-111309390D01*
X57269703Y-112204168D01*
X56842677Y-113466245D01*
X56825000Y-113809722D01*
X47725033Y-113809722D01*
X45938816Y-112148744D01*
X45300340Y-111382526D01*
X44816638Y-110761673D01*
X48005555Y-110761673D01*
X48296001Y-112103076D01*
X49063785Y-113061646D01*
X50153580Y-113566865D01*
X51410060Y-113548219D01*
X52677897Y-112935192D01*
X52720480Y-112902173D01*
X53476360Y-111906890D01*
X53638859Y-110761673D01*
X65997222Y-110761673D01*
X66292141Y-112077474D01*
X67064348Y-113042054D01*
X68145017Y-113581817D01*
X69365325Y-113623170D01*
X70556447Y-113092519D01*
X70825180Y-112866283D01*
X71530484Y-111794035D01*
X71668870Y-110597757D01*
X71311425Y-109454681D01*
X70529237Y-108542038D01*
X69393390Y-108037061D01*
X68868882Y-107988888D01*
X67492736Y-108285867D01*
X66507020Y-109103238D01*
X66026018Y-110330651D01*
X65997222Y-110761673D01*
X53638859Y-110761673D01*
X53649830Y-110684357D01*
X53236242Y-109412294D01*
X52826846Y-108835148D01*
X51796963Y-108087552D01*
X50636354Y-107909886D01*
X49515475Y-108234039D01*
X48604781Y-108991899D01*
X48074727Y-110115354D01*
X48005555Y-110761673D01*
X44816638Y-110761673D01*
X44085379Y-109823070D01*
X46753231Y-104496257D01*
X47650705Y-102738533D01*
X48456096Y-101225253D01*
X49111622Y-100059963D01*
X49559503Y-99346206D01*
X49725754Y-99169444D01*
X49948398Y-99485912D01*
X49948398Y-99485912D01*
G37*
X49948398Y-99485912D02*
X50220660Y-100308784D01*
X50443341Y-101268253D01*
X51227239Y-103644398D01*
X52519835Y-105688076D01*
X54219995Y-107333012D01*
X56226581Y-108512931D01*
X58438456Y-109161557D01*
X60754485Y-109212616D01*
X62139174Y-108932608D01*
X64581994Y-107884640D01*
X66565008Y-106329054D01*
X68036307Y-104324914D01*
X68943980Y-101931283D01*
X69122598Y-100986802D01*
X69329640Y-100013256D01*
X69590034Y-99389725D01*
X69701550Y-99288555D01*
X69938671Y-99553977D01*
X70430477Y-100328058D01*
X71111385Y-101490777D01*
X71915814Y-102922113D01*
X72778180Y-104502046D01*
X73632900Y-106110557D01*
X74414391Y-107627623D01*
X75057072Y-108933226D01*
X75468592Y-109842596D01*
X75283015Y-110195457D01*
X74684917Y-110916025D01*
X73775637Y-111888519D01*
X72986207Y-112678693D01*
X70360277Y-114936403D01*
X67708691Y-116556069D01*
X64889652Y-117595581D01*
X61761363Y-118112825D01*
X59470833Y-118196285D01*
X56769088Y-118041941D01*
X54550952Y-117618996D01*
X54284187Y-117538299D01*
X51186821Y-116224316D01*
X48346811Y-114387905D01*
X47725033Y-113809722D01*
X56825000Y-113809722D01*
X57136966Y-115194756D01*
X57987120Y-116220562D01*
X59246850Y-116758528D01*
X59823611Y-116808333D01*
X61169528Y-116520448D01*
X61956313Y-115942424D01*
X62672739Y-114809320D01*
X62863158Y-113522186D01*
X62530846Y-112307717D01*
X61892702Y-111542271D01*
X60618612Y-110907100D01*
X59317118Y-110853253D01*
X58147666Y-111309390D01*
X57269703Y-112204168D01*
X56842677Y-113466245D01*
X56825000Y-113809722D01*
X47725033Y-113809722D01*
X45938816Y-112148744D01*
X45300340Y-111382526D01*
X44816638Y-110761673D01*
X48005555Y-110761673D01*
X48296001Y-112103076D01*
X49063785Y-113061646D01*
X50153580Y-113566865D01*
X51410060Y-113548219D01*
X52677897Y-112935192D01*
X52720480Y-112902173D01*
X53476360Y-111906890D01*
X53638859Y-110761673D01*
X65997222Y-110761673D01*
X66292141Y-112077474D01*
X67064348Y-113042054D01*
X68145017Y-113581817D01*
X69365325Y-113623170D01*
X70556447Y-113092519D01*
X70825180Y-112866283D01*
X71530484Y-111794035D01*
X71668870Y-110597757D01*
X71311425Y-109454681D01*
X70529237Y-108542038D01*
X69393390Y-108037061D01*
X68868882Y-107988888D01*
X67492736Y-108285867D01*
X66507020Y-109103238D01*
X66026018Y-110330651D01*
X65997222Y-110761673D01*
X53638859Y-110761673D01*
X53649830Y-110684357D01*
X53236242Y-109412294D01*
X52826846Y-108835148D01*
X51796963Y-108087552D01*
X50636354Y-107909886D01*
X49515475Y-108234039D01*
X48604781Y-108991899D01*
X48074727Y-110115354D01*
X48005555Y-110761673D01*
X44816638Y-110761673D01*
X44085379Y-109823070D01*
X46753231Y-104496257D01*
X47650705Y-102738533D01*
X48456096Y-101225253D01*
X49111622Y-100059963D01*
X49559503Y-99346206D01*
X49725754Y-99169444D01*
X49948398Y-99485912D01*
%LPC*%
D13*
X35375000Y-147250000D03*
X32625000Y-147250000D03*
X32625000Y-148750000D03*
X35375000Y-148750000D03*
X82625000Y-127000000D03*
X79875000Y-127000000D03*
X79875000Y-128500000D03*
X82625000Y-128500000D03*
X46625000Y-114500000D03*
X43875000Y-114500000D03*
X43875000Y-116000000D03*
X46625000Y-116000000D03*
X87375000Y-147250000D03*
X84625000Y-147250000D03*
X84625000Y-148750000D03*
X87375000Y-148750000D03*
X40125000Y-127000000D03*
X37375000Y-127000000D03*
X37375000Y-128500000D03*
X40125000Y-128500000D03*
X76125000Y-114500000D03*
X73375000Y-114500000D03*
X73375000Y-116000000D03*
X76125000Y-116000000D03*
D14*
X39100000Y-145000000D03*
X40900000Y-145000000D03*
X75900000Y-127000000D03*
X74100000Y-127000000D03*
X39100000Y-147000000D03*
X40900000Y-147000000D03*
X75900000Y-125000000D03*
X74100000Y-125000000D03*
X39100000Y-149000000D03*
X40900000Y-149000000D03*
X75900000Y-129000000D03*
X74100000Y-129000000D03*
X49100000Y-113000000D03*
X50900000Y-113000000D03*
X49100000Y-115000000D03*
X50900000Y-115000000D03*
X49100000Y-117000000D03*
X50900000Y-117000000D03*
X80900000Y-147000000D03*
X79100000Y-147000000D03*
X44100000Y-127000000D03*
X45900000Y-127000000D03*
X80900000Y-145000000D03*
X79100000Y-145000000D03*
X44100000Y-125000000D03*
X45900000Y-125000000D03*
X80900000Y-149000000D03*
X79100000Y-149000000D03*
X44100000Y-129000000D03*
X45900000Y-129000000D03*
X70900000Y-115000000D03*
X69100000Y-115000000D03*
X70900000Y-113000000D03*
X69100000Y-113000000D03*
X70900000Y-117000000D03*
X69100000Y-117000000D03*
D15*
X62500000Y-103500000D03*
X62500000Y-110500000D03*
X62500000Y-117500000D03*
X62500000Y-124500000D03*
X57500000Y-124500000D03*
X57500000Y-117500000D03*
X57500000Y-110500000D03*
X57500000Y-103500000D03*
M02*
