  0
SECTION
  2
HEADER
  9
$ANGBASE
  50
0.0
  9
$ANGDIR
  70
  1
  9
$MEASUREMENT
  70
0
  0
ENDSEC
  0
SECTION
  2
TABLES
  0
TABLE
  2
LTYPE
  70
1
  0
LTYPE
  2
CONTINUOUS
  70
0
  3
Solid line
  72
65
  73
0
  40
0.0
  0
ENDTAB
  0
TABLE
  2
STYLE
  70
4
  0
STYLE
  2
KICAD
  70
0
  40
0
  41
1
  42
1
  50
0
  71
0
  3
isocp.shx
  0
STYLE
  2
KICADB
  70
0
  40
0
  41
1
  42
1
  50
0
  71
0
  3
isocp.shx
  0
STYLE
  2
KICADI
  70
0
  40
0
  41
1
  42
1
  50
15
  71
0
  3
isocp.shx
  0
STYLE
  2
KICADBI
  70
0
  40
0
  41
1
  42
1
  50
15
  71
0
  3
isocp.shx
  0
ENDTAB
  0
TABLE
  2
LAYER
  70
30
  0
LAYER
  2
BLACK
  70
0
  62
7
  6
CONTINUOUS
  0
LAYER
  2
GRAY1
  70
0
  62
251
  6
CONTINUOUS
  0
LAYER
  2
GRAY2
  70
0
  62
8
  6
CONTINUOUS
  0
LAYER
  2
GRAY3
  70
0
  62
9
  6
CONTINUOUS
  0
LAYER
  2
WHITE
  70
0
  62
7
  6
CONTINUOUS
  0
LAYER
  2
LYELLOW
  70
0
  62
51
  6
CONTINUOUS
  0
LAYER
  2
BLUE1
  70
0
  62
178
  6
CONTINUOUS
  0
LAYER
  2
GREEN1
  70
0
  62
98
  6
CONTINUOUS
  0
LAYER
  2
CYAN1
  70
0
  62
138
  6
CONTINUOUS
  0
LAYER
  2
RED1
  70
0
  62
18
  6
CONTINUOUS
  0
LAYER
  2
MAGENTA1
  70
0
  62
228
  6
CONTINUOUS
  0
LAYER
  2
BROWN1
  70
0
  62
58
  6
CONTINUOUS
  0
LAYER
  2
BLUE2
  70
0
  62
5
  6
CONTINUOUS
  0
LAYER
  2
GREEN2
  70
0
  62
3
  6
CONTINUOUS
  0
LAYER
  2
CYAN2
  70
0
  62
4
  6
CONTINUOUS
  0
LAYER
  2
RED2
  70
0
  62
1
  6
CONTINUOUS
  0
LAYER
  2
MAGENTA2
  70
0
  62
6
  6
CONTINUOUS
  0
LAYER
  2
BROWN2
  70
0
  62
54
  6
CONTINUOUS
  0
LAYER
  2
BLUE3
  70
0
  62
171
  6
CONTINUOUS
  0
LAYER
  2
GREEN3
  70
0
  62
91
  6
CONTINUOUS
  0
LAYER
  2
CYAN3
  70
0
  62
131
  6
CONTINUOUS
  0
LAYER
  2
RED3
  70
0
  62
11
  6
CONTINUOUS
  0
LAYER
  2
MAGENTA3
  70
0
  62
221
  6
CONTINUOUS
  0
LAYER
  2
YELLOW3
  70
0
  62
2
  6
CONTINUOUS
  0
LAYER
  2
BLUE4
  70
0
  62
5
  6
CONTINUOUS
  0
LAYER
  2
GREEN4
  70
0
  62
3
  6
CONTINUOUS
  0
LAYER
  2
CYAN4
  70
0
  62
4
  6
CONTINUOUS
  0
LAYER
  2
RED4
  70
0
  62
1
  6
CONTINUOUS
  0
LAYER
  2
MAGENTA4
  70
0
  62
6
  6
CONTINUOUS
  0
LAYER
  2
YELLOW4
  70
0
  62
2
  6
CONTINUOUS
  0
ENDTAB
  0
ENDSEC
  0
SECTION
  2
ENTITIES
0
LINE
8
Black
10
125.975
20
-123.375
11
124.825
21
-123.375
0
LINE
8
Black
10
124.825
20
-123.375
11
124.825
21
-121.925
0
LINE
8
Black
10
124.825
20
-121.925
11
125.975
21
-121.925
0
LINE
8
Black
10
125.975
20
-121.925
11
125.975
21
-123.375
0
LINE
8
Black
10
130.375
20
-123.375
11
129.225
21
-123.375
0
LINE
8
Black
10
129.225
20
-123.375
11
129.225
21
-121.925
0
LINE
8
Black
10
129.225
20
-121.925
11
130.375
21
-121.925
0
LINE
8
Black
10
130.375
20
-121.925
11
130.375
21
-123.375
0
LINE
8
Black
10
128.575
20
-123.375
11
127.425
21
-123.375
0
LINE
8
Black
10
127.425
20
-123.375
11
127.425
21
-121.925
0
LINE
8
Black
10
127.425
20
-121.925
11
128.575
21
-121.925
0
LINE
8
Black
10
128.575
20
-121.925
11
128.575
21
-123.375
0
LINE
8
Black
10
124.175
20
-123.375
11
123.025
21
-123.375
0
LINE
8
Black
10
123.025
20
-123.375
11
123.025
21
-121.925
0
LINE
8
Black
10
123.025
20
-121.925
11
124.175
21
-121.925
0
LINE
8
Black
10
124.175
20
-121.925
11
124.175
21
-123.375
0
LINE
8
Black
10
149.916
20
-122.674
11
148.754
21
-123.256
0
LINE
8
Black
10
148.754
20
-123.256
11
148.317
21
-122.384
0
LINE
8
Black
10
148.317
20
-122.384
11
149.48
21
-121.802
0
LINE
8
Black
10
149.48
20
-121.802
11
149.916
21
-122.674
0
LINE
8
Black
10
100.725
20
-122.875
11
99.275
21
-122.875
0
LINE
8
Black
10
99.275
20
-122.875
11
99.275
21
-121.725
0
LINE
8
Black
10
99.275
20
-121.725
11
100.725
21
-121.725
0
LINE
8
Black
10
100.725
20
-121.725
11
100.725
21
-122.875
0
LINE
8
Black
10
96.35
20
-122.85
11
95.75
21
-122.85
0
LINE
8
Black
10
95.75
20
-122.85
11
95.75
21
-121.75
0
LINE
8
Black
10
95.75
20
-121.75
11
96.35
21
-121.75
0
LINE
8
Black
10
96.35
20
-121.75
11
96.35
21
-122.85
0
LINE
8
Black
10
97.3
20
-122.85
11
96.7
21
-122.85
0
LINE
8
Black
10
96.7
20
-122.85
11
96.7
21
-121.75
0
LINE
8
Black
10
96.7
20
-121.75
11
97.3
21
-121.75
0
LINE
8
Black
10
97.3
20
-121.75
11
97.3
21
-122.85
0
LINE
8
Black
10
98.25
20
-122.85
11
97.65
21
-122.85
0
LINE
8
Black
10
97.65
20
-122.85
11
97.65
21
-121.75
0
LINE
8
Black
10
97.65
20
-121.75
11
98.25
21
-121.75
0
LINE
8
Black
10
98.25
20
-121.75
11
98.25
21
-122.85
0
LINE
8
Black
10
146.483
20
-121.737
11
145.276
21
-122.341
0
LINE
8
Black
10
145.276
20
-122.341
11
145.097
21
-121.984
0
LINE
8
Black
10
145.097
20
-121.984
11
146.304
21
-121.379
0
LINE
8
Black
10
146.304
20
-121.379
11
146.483
21
-121.737
0
LINE
8
Black
10
94.725
20
-122.075
11
93.275
21
-122.075
0
LINE
8
Black
10
93.275
20
-122.075
11
93.275
21
-120.925
0
LINE
8
Black
10
93.275
20
-120.925
11
94.725
21
-120.925
0
LINE
8
Black
10
94.725
20
-120.925
11
94.725
21
-122.075
0
LINE
8
Black
10
133.125
20
-121.875
11
131.675
21
-121.875
0
LINE
8
Black
10
131.675
20
-121.875
11
131.675
21
-120.725
0
LINE
8
Black
10
131.675
20
-120.725
11
133.125
21
-120.725
0
LINE
8
Black
10
133.125
20
-120.725
11
133.125
21
-121.875
0
LINE
8
Black
10
135.125
20
-121.875
11
133.675
21
-121.875
0
LINE
8
Black
10
133.675
20
-121.875
11
133.675
21
-120.725
0
LINE
8
Black
10
133.675
20
-120.725
11
135.125
21
-120.725
0
LINE
8
Black
10
135.125
20
-120.725
11
135.125
21
-121.875
0
LINE
8
Black
10
146.192
20
-121.156
11
144.985
21
-121.76
0
LINE
8
Black
10
144.985
20
-121.76
11
144.806
21
-121.402
0
LINE
8
Black
10
144.806
20
-121.402
11
146.013
21
-120.798
0
LINE
8
Black
10
146.013
20
-120.798
11
146.192
21
-121.156
0
LINE
8
Black
10
149.032
20
-120.796
11
147.78
21
-121.423
0
LINE
8
Black
10
147.78
20
-121.423
11
147.198
21
-120.261
0
LINE
8
Black
10
147.198
20
-120.261
11
148.45
21
-119.634
0
LINE
8
Black
10
148.45
20
-119.634
11
149.032
21
-120.796
0
LINE
8
Black
10
145.901
20
-120.574
11
144.694
21
-121.179
0
LINE
8
Black
10
144.694
20
-121.179
11
144.515
21
-120.821
0
LINE
8
Black
10
144.515
20
-120.821
11
145.722
21
-120.217
0
LINE
8
Black
10
145.722
20
-120.217
11
145.901
21
-120.574
0
LINE
8
Black
10
100.725
20
-121.075
11
99.275
21
-121.075
0
LINE
8
Black
10
99.275
20
-121.075
11
99.275
21
-119.925
0
LINE
8
Black
10
99.275
20
-119.925
11
100.725
21
-119.925
0
LINE
8
Black
10
100.725
20
-119.925
11
100.725
21
-121.075
0
LINE
8
Black
10
125.2
20
-120.9
11
123.85
21
-120.9
0
LINE
8
Black
10
123.85
20
-120.9
11
123.85
21
-120.45
0
LINE
8
Black
10
123.85
20
-120.45
11
125.2
21
-120.45
0
LINE
8
Black
10
125.2
20
-120.45
11
125.2
21
-120.9
0
LINE
8
Black
10
130.95
20
-120.9
11
129.6
21
-120.9
0
LINE
8
Black
10
129.6
20
-120.9
11
129.6
21
-120.45
0
LINE
8
Black
10
129.6
20
-120.45
11
130.95
21
-120.45
0
LINE
8
Black
10
130.95
20
-120.45
11
130.95
21
-120.9
0
LINE
8
Black
10
145.61
20
-119.993
11
144.403
21
-120.598
0
LINE
8
Black
10
144.403
20
-120.598
11
144.224
21
-120.24
0
LINE
8
Black
10
144.224
20
-120.24
11
145.431
21
-119.635
0
LINE
8
Black
10
145.431
20
-119.635
11
145.61
21
-119.993
0
LINE
8
Black
10
94.725
20
-120.275
11
93.275
21
-120.275
0
LINE
8
Black
10
93.275
20
-120.275
11
93.275
21
-119.125
0
LINE
8
Black
10
93.275
20
-119.125
11
94.725
21
-119.125
0
LINE
8
Black
10
94.725
20
-119.125
11
94.725
21
-120.275
0
LINE
8
Black
10
130.95
20
-120.25
11
129.6
21
-120.25
0
LINE
8
Black
10
129.6
20
-120.25
11
129.6
21
-119.8
0
LINE
8
Black
10
129.6
20
-119.8
11
130.95
21
-119.8
0
LINE
8
Black
10
130.95
20
-119.8
11
130.95
21
-120.25
0
LINE
8
Black
10
98.25
20
-120.25
11
97.65
21
-120.25
0
LINE
8
Black
10
97.65
20
-120.25
11
97.65
21
-119.15
0
LINE
8
Black
10
97.65
20
-119.15
11
98.25
21
-119.15
0
LINE
8
Black
10
98.25
20
-119.15
11
98.25
21
-120.25
0
LINE
8
Black
10
96.35
20
-120.25
11
95.75
21
-120.25
0
LINE
8
Black
10
95.75
20
-120.25
11
95.75
21
-119.15
0
LINE
8
Black
10
95.75
20
-119.15
11
96.35
21
-119.15
0
LINE
8
Black
10
96.35
20
-119.15
11
96.35
21
-120.25
0
LINE
8
Black
10
125.2
20
-120.25
11
123.85
21
-120.25
0
LINE
8
Black
10
123.85
20
-120.25
11
123.85
21
-119.8
0
LINE
8
Black
10
123.85
20
-119.8
11
125.2
21
-119.8
0
LINE
8
Black
10
125.2
20
-119.8
11
125.2
21
-120.25
0
LINE
8
Black
10
133.125
20
-120.075
11
131.675
21
-120.075
0
LINE
8
Black
10
131.675
20
-120.075
11
131.675
21
-118.925
0
LINE
8
Black
10
131.675
20
-118.925
11
133.125
21
-118.925
0
LINE
8
Black
10
133.125
20
-118.925
11
133.125
21
-120.075
0
LINE
8
Black
10
135.125
20
-120.075
11
133.675
21
-120.075
0
LINE
8
Black
10
133.675
20
-120.075
11
133.675
21
-118.925
0
LINE
8
Black
10
133.675
20
-118.925
11
135.125
21
-118.925
0
LINE
8
Black
10
135.125
20
-118.925
11
135.125
21
-120.075
0
LINE
8
Black
10
145.319
20
-119.412
11
144.112
21
-120.016
0
LINE
8
Black
10
144.112
20
-120.016
11
143.933
21
-119.659
0
LINE
8
Black
10
143.933
20
-119.659
11
145.14
21
-119.054
0
LINE
8
Black
10
145.14
20
-119.054
11
145.319
21
-119.412
0
LINE
8
Black
10
130.95
20
-119.6
11
129.6
21
-119.6
0
LINE
8
Black
10
129.6
20
-119.6
11
129.6
21
-119.15
0
LINE
8
Black
10
129.6
20
-119.15
11
130.95
21
-119.15
0
LINE
8
Black
10
130.95
20
-119.15
11
130.95
21
-119.6
0
LINE
8
Black
10
125.2
20
-119.6
11
123.85
21
-119.6
0
LINE
8
Black
10
123.85
20
-119.6
11
123.85
21
-119.15
0
LINE
8
Black
10
123.85
20
-119.15
11
125.2
21
-119.15
0
LINE
8
Black
10
125.2
20
-119.15
11
125.2
21
-119.6
0
LINE
8
Black
10
148.002
20
-118.739
11
146.75
21
-119.366
0
LINE
8
Black
10
146.75
20
-119.366
11
146.168
21
-118.204
0
LINE
8
Black
10
146.168
20
-118.204
11
147.42
21
-117.577
0
LINE
8
Black
10
147.42
20
-117.577
11
148.002
21
-118.739
0
LINE
8
Black
10
125.2
20
-118.95
11
123.85
21
-118.95
0
LINE
8
Black
10
123.85
20
-118.95
11
123.85
21
-118.5
0
LINE
8
Black
10
123.85
20
-118.5
11
125.2
21
-118.5
0
LINE
8
Black
10
125.2
20
-118.5
11
125.2
21
-118.95
0
LINE
8
Black
10
130.95
20
-118.95
11
129.6
21
-118.95
0
LINE
8
Black
10
129.6
20
-118.95
11
129.6
21
-118.5
0
LINE
8
Black
10
129.6
20
-118.5
11
130.95
21
-118.5
0
LINE
8
Black
10
130.95
20
-118.5
11
130.95
21
-118.95
0
LINE
8
Black
10
130.95
20
-118.3
11
129.6
21
-118.3
0
LINE
8
Black
10
129.6
20
-118.3
11
129.6
21
-117.85
0
LINE
8
Black
10
129.6
20
-117.85
11
130.95
21
-117.85
0
LINE
8
Black
10
130.95
20
-117.85
11
130.95
21
-118.3
0
LINE
8
Black
10
125.2
20
-118.3
11
123.85
21
-118.3
0
LINE
8
Black
10
123.85
20
-118.3
11
123.85
21
-117.85
0
LINE
8
Black
10
123.85
20
-117.85
11
125.2
21
-117.85
0
LINE
8
Black
10
125.2
20
-117.85
11
125.2
21
-118.3
0
LINE
8
Black
10
105.995
20
-117.875
11
105.395
21
-117.875
0
LINE
8
Black
10
105.395
20
-117.875
11
105.395
21
-116.325
0
LINE
8
Black
10
105.395
20
-116.325
11
105.995
21
-116.325
0
LINE
8
Black
10
105.995
20
-116.325
11
105.995
21
-117.875
0
LINE
8
Black
10
112.345
20
-117.875
11
111.745
21
-117.875
0
LINE
8
Black
10
111.745
20
-117.875
11
111.745
21
-116.325
0
LINE
8
Black
10
111.745
20
-116.325
11
112.345
21
-116.325
0
LINE
8
Black
10
112.345
20
-116.325
11
112.345
21
-117.875
0
LINE
8
Black
10
103.455
20
-117.875
11
102.855
21
-117.875
0
LINE
8
Black
10
102.855
20
-117.875
11
102.855
21
-116.325
0
LINE
8
Black
10
102.855
20
-116.325
11
103.455
21
-116.325
0
LINE
8
Black
10
103.455
20
-116.325
11
103.455
21
-117.875
0
LINE
8
Black
10
104.725
20
-117.875
11
104.125
21
-117.875
0
LINE
8
Black
10
104.125
20
-117.875
11
104.125
21
-116.325
0
LINE
8
Black
10
104.125
20
-116.325
11
104.725
21
-116.325
0
LINE
8
Black
10
104.725
20
-116.325
11
104.725
21
-117.875
0
LINE
8
Black
10
111.075
20
-117.875
11
110.475
21
-117.875
0
LINE
8
Black
10
110.475
20
-117.875
11
110.475
21
-116.325
0
LINE
8
Black
10
110.475
20
-116.325
11
111.075
21
-116.325
0
LINE
8
Black
10
111.075
20
-116.325
11
111.075
21
-117.875
0
LINE
8
Black
10
109.805
20
-117.875
11
109.205
21
-117.875
0
LINE
8
Black
10
109.205
20
-117.875
11
109.205
21
-116.325
0
LINE
8
Black
10
109.205
20
-116.325
11
109.805
21
-116.325
0
LINE
8
Black
10
109.805
20
-116.325
11
109.805
21
-117.875
0
LINE
8
Black
10
108.535
20
-117.875
11
107.935
21
-117.875
0
LINE
8
Black
10
107.935
20
-117.875
11
107.935
21
-116.325
0
LINE
8
Black
10
107.935
20
-116.325
11
108.535
21
-116.325
0
LINE
8
Black
10
108.535
20
-116.325
11
108.535
21
-117.875
0
LINE
8
Black
10
107.265
20
-117.875
11
106.665
21
-117.875
0
LINE
8
Black
10
106.665
20
-117.875
11
106.665
21
-116.325
0
LINE
8
Black
10
106.665
20
-116.325
11
107.265
21
-116.325
0
LINE
8
Black
10
107.265
20
-116.325
11
107.265
21
-117.875
0
LINE
8
Black
10
130.95
20
-117.65
11
129.6
21
-117.65
0
LINE
8
Black
10
129.6
20
-117.65
11
129.6
21
-117.2
0
LINE
8
Black
10
129.6
20
-117.2
11
130.95
21
-117.2
0
LINE
8
Black
10
130.95
20
-117.2
11
130.95
21
-117.65
0
LINE
8
Black
10
125.2
20
-117.65
11
123.85
21
-117.65
0
LINE
8
Black
10
123.85
20
-117.65
11
123.85
21
-117.2
0
LINE
8
Black
10
123.85
20
-117.2
11
125.2
21
-117.2
0
LINE
8
Black
10
125.2
20
-117.2
11
125.2
21
-117.65
0
LINE
8
Black
10
146.883
20
-116.616
11
145.72
21
-117.198
0
LINE
8
Black
10
145.72
20
-117.198
11
145.284
21
-116.326
0
LINE
8
Black
10
145.284
20
-116.326
11
146.446
21
-115.744
0
LINE
8
Black
10
146.446
20
-115.744
11
146.883
21
-116.616
0
LINE
8
Black
10
130.95
20
-117
11
129.6
21
-117
0
LINE
8
Black
10
129.6
20
-117
11
129.6
21
-116.55
0
LINE
8
Black
10
129.6
20
-116.55
11
130.95
21
-116.55
0
LINE
8
Black
10
130.95
20
-116.55
11
130.95
21
-117
0
LINE
8
Black
10
125.2
20
-117
11
123.85
21
-117
0
LINE
8
Black
10
123.85
20
-117
11
123.85
21
-116.55
0
LINE
8
Black
10
123.85
20
-116.55
11
125.2
21
-116.55
0
LINE
8
Black
10
125.2
20
-116.55
11
125.2
21
-117
0
LINE
8
Black
10
125.2
20
-116.35
11
123.85
21
-116.35
0
LINE
8
Black
10
123.85
20
-116.35
11
123.85
21
-115.9
0
LINE
8
Black
10
123.85
20
-115.9
11
125.2
21
-115.9
0
LINE
8
Black
10
125.2
20
-115.9
11
125.2
21
-116.35
0
LINE
8
Black
10
130.95
20
-116.35
11
129.6
21
-116.35
0
LINE
8
Black
10
129.6
20
-116.35
11
129.6
21
-115.9
0
LINE
8
Black
10
129.6
20
-115.9
11
130.95
21
-115.9
0
LINE
8
Black
10
130.95
20
-115.9
11
130.95
21
-116.35
0
LINE
8
Black
10
125.2
20
-115.7
11
123.85
21
-115.7
0
LINE
8
Black
10
123.85
20
-115.7
11
123.85
21
-115.25
0
LINE
8
Black
10
123.85
20
-115.25
11
125.2
21
-115.25
0
LINE
8
Black
10
125.2
20
-115.25
11
125.2
21
-115.7
0
LINE
8
Black
10
130.95
20
-115.7
11
129.6
21
-115.7
0
LINE
8
Black
10
129.6
20
-115.7
11
129.6
21
-115.25
0
LINE
8
Black
10
129.6
20
-115.25
11
130.95
21
-115.25
0
LINE
8
Black
10
130.95
20
-115.25
11
130.95
21
-115.7
0
LINE
8
Black
10
125.2
20
-115.05
11
123.85
21
-115.05
0
LINE
8
Black
10
123.85
20
-115.05
11
123.85
21
-114.6
0
LINE
8
Black
10
123.85
20
-114.6
11
125.2
21
-114.6
0
LINE
8
Black
10
125.2
20
-114.6
11
125.2
21
-115.05
0
LINE
8
Black
10
130.95
20
-115.05
11
129.6
21
-115.05
0
LINE
8
Black
10
129.6
20
-115.05
11
129.6
21
-114.6
0
LINE
8
Black
10
129.6
20
-114.6
11
130.95
21
-114.6
0
LINE
8
Black
10
130.95
20
-114.6
11
130.95
21
-115.05
0
LINE
8
Black
10
124.675
20
-113.725
11
123.525
21
-113.725
0
LINE
8
Black
10
123.525
20
-113.725
11
123.525
21
-112.275
0
LINE
8
Black
10
123.525
20
-112.275
11
124.675
21
-112.275
0
LINE
8
Black
10
124.675
20
-112.275
11
124.675
21
-113.725
0
LINE
8
Black
10
126.475
20
-113.725
11
125.325
21
-113.725
0
LINE
8
Black
10
125.325
20
-113.725
11
125.325
21
-112.275
0
LINE
8
Black
10
125.325
20
-112.275
11
126.475
21
-112.275
0
LINE
8
Black
10
126.475
20
-112.275
11
126.475
21
-113.725
0
LINE
8
Black
10
105.995
20
-112.475
11
105.395
21
-112.475
0
LINE
8
Black
10
105.395
20
-112.475
11
105.395
21
-110.925
0
LINE
8
Black
10
105.395
20
-110.925
11
105.995
21
-110.925
0
LINE
8
Black
10
105.995
20
-110.925
11
105.995
21
-112.475
0
LINE
8
Black
10
103.455
20
-112.475
11
102.855
21
-112.475
0
LINE
8
Black
10
102.855
20
-112.475
11
102.855
21
-110.925
0
LINE
8
Black
10
102.855
20
-110.925
11
103.455
21
-110.925
0
LINE
8
Black
10
103.455
20
-110.925
11
103.455
21
-112.475
0
LINE
8
Black
10
111.075
20
-112.475
11
110.475
21
-112.475
0
LINE
8
Black
10
110.475
20
-112.475
11
110.475
21
-110.925
0
LINE
8
Black
10
110.475
20
-110.925
11
111.075
21
-110.925
0
LINE
8
Black
10
111.075
20
-110.925
11
111.075
21
-112.475
0
LINE
8
Black
10
112.345
20
-112.475
11
111.745
21
-112.475
0
LINE
8
Black
10
111.745
20
-112.475
11
111.745
21
-110.925
0
LINE
8
Black
10
111.745
20
-110.925
11
112.345
21
-110.925
0
LINE
8
Black
10
112.345
20
-110.925
11
112.345
21
-112.475
0
LINE
8
Black
10
104.725
20
-112.475
11
104.125
21
-112.475
0
LINE
8
Black
10
104.125
20
-112.475
11
104.125
21
-110.925
0
LINE
8
Black
10
104.125
20
-110.925
11
104.725
21
-110.925
0
LINE
8
Black
10
104.725
20
-110.925
11
104.725
21
-112.475
0
LINE
8
Black
10
109.805
20
-112.475
11
109.205
21
-112.475
0
LINE
8
Black
10
109.205
20
-112.475
11
109.205
21
-110.925
0
LINE
8
Black
10
109.205
20
-110.925
11
109.805
21
-110.925
0
LINE
8
Black
10
109.805
20
-110.925
11
109.805
21
-112.475
0
LINE
8
Black
10
108.535
20
-112.475
11
107.935
21
-112.475
0
LINE
8
Black
10
107.935
20
-112.475
11
107.935
21
-110.925
0
LINE
8
Black
10
107.935
20
-110.925
11
108.535
21
-110.925
0
LINE
8
Black
10
108.535
20
-110.925
11
108.535
21
-112.475
0
LINE
8
Black
10
107.265
20
-112.475
11
106.665
21
-112.475
0
LINE
8
Black
10
106.665
20
-112.475
11
106.665
21
-110.925
0
LINE
8
Black
10
106.665
20
-110.925
11
107.265
21
-110.925
0
LINE
8
Black
10
107.265
20
-110.925
11
107.265
21
-112.475
0
LINE
8
Black
10
100.725
20
-112.075
11
99.275
21
-112.075
0
LINE
8
Black
10
99.275
20
-112.075
11
99.275
21
-110.925
0
LINE
8
Black
10
99.275
20
-110.925
11
100.725
21
-110.925
0
LINE
8
Black
10
100.725
20
-110.925
11
100.725
21
-112.075
0
LINE
8
Black
10
94.45
20
-111.2
11
92.75
21
-111.2
0
LINE
8
Black
10
92.75
20
-111.2
11
92.75
21
-110.4
0
LINE
8
Black
10
92.75
20
-110.4
11
94.45
21
-110.4
0
LINE
8
Black
10
94.45
20
-110.4
11
94.45
21
-111.2
0
LINE
8
Black
10
98.475
20
-111
11
97.525
21
-111
0
LINE
8
Black
10
97.525
20
-111
11
97.525
21
-110.6
0
LINE
8
Black
10
97.525
20
-110.6
11
98.475
21
-110.6
0
LINE
8
Black
10
98.475
20
-110.6
11
98.475
21
-111
0
LINE
8
Black
10
96.275
20
-111
11
95.325
21
-111
0
LINE
8
Black
10
95.325
20
-111
11
95.325
21
-110.6
0
LINE
8
Black
10
95.325
20
-110.6
11
96.275
21
-110.6
0
LINE
8
Black
10
96.275
20
-110.6
11
96.275
21
-111
0
LINE
8
Black
10
98.475
20
-110.35
11
97.525
21
-110.35
0
LINE
8
Black
10
97.525
20
-110.35
11
97.525
21
-109.95
0
LINE
8
Black
10
97.525
20
-109.95
11
98.475
21
-109.95
0
LINE
8
Black
10
98.475
20
-109.95
11
98.475
21
-110.35
0
LINE
8
Black
10
96.275
20
-110.35
11
95.325
21
-110.35
0
LINE
8
Black
10
95.325
20
-110.35
11
95.325
21
-109.95
0
LINE
8
Black
10
95.325
20
-109.95
11
96.275
21
-109.95
0
LINE
8
Black
10
96.275
20
-109.95
11
96.275
21
-110.35
0
LINE
8
Black
10
100.725
20
-110.275
11
99.275
21
-110.275
0
LINE
8
Black
10
99.275
20
-110.275
11
99.275
21
-109.125
0
LINE
8
Black
10
99.275
20
-109.125
11
100.725
21
-109.125
0
LINE
8
Black
10
100.725
20
-109.125
11
100.725
21
-110.275
0
LINE
8
Black
10
98.475
20
-109.7
11
97.525
21
-109.7
0
LINE
8
Black
10
97.525
20
-109.7
11
97.525
21
-109.3
0
LINE
8
Black
10
97.525
20
-109.3
11
98.475
21
-109.3
0
LINE
8
Black
10
98.475
20
-109.3
11
98.475
21
-109.7
0
LINE
8
Black
10
96.275
20
-109.7
11
95.325
21
-109.7
0
LINE
8
Black
10
95.325
20
-109.7
11
95.325
21
-109.3
0
LINE
8
Black
10
95.325
20
-109.3
11
96.275
21
-109.3
0
LINE
8
Black
10
96.275
20
-109.3
11
96.275
21
-109.7
0
LINE
8
Black
10
94.45
20
-109.7
11
92.75
21
-109.7
0
LINE
8
Black
10
92.75
20
-109.7
11
92.75
21
-108.9
0
LINE
8
Black
10
92.75
20
-108.9
11
94.45
21
-108.9
0
LINE
8
Black
10
94.45
20
-108.9
11
94.45
21
-109.7
0
LINE
8
Black
10
96.575
20
-108.325
11
95.425
21
-108.325
0
LINE
8
Black
10
95.425
20
-108.325
11
95.425
21
-106.875
0
LINE
8
Black
10
95.425
20
-106.875
11
96.575
21
-106.875
0
LINE
8
Black
10
96.575
20
-106.875
11
96.575
21
-108.325
0
LINE
8
Black
10
98.375
20
-108.325
11
97.225
21
-108.325
0
LINE
8
Black
10
97.225
20
-108.325
11
97.225
21
-106.875
0
LINE
8
Black
10
97.225
20
-106.875
11
98.375
21
-106.875
0
LINE
8
Black
10
98.375
20
-106.875
11
98.375
21
-108.325
0
LINE
8
Black
10
137.675
20
-105.725
11
136.525
21
-105.725
0
LINE
8
Black
10
136.525
20
-105.725
11
136.525
21
-104.275
0
LINE
8
Black
10
136.525
20
-104.275
11
137.675
21
-104.275
0
LINE
8
Black
10
137.675
20
-104.275
11
137.675
21
-105.725
0
LINE
8
Black
10
95.675
20
-105.725
11
94.525
21
-105.725
0
LINE
8
Black
10
94.525
20
-105.725
11
94.525
21
-104.275
0
LINE
8
Black
10
94.525
20
-104.275
11
95.675
21
-104.275
0
LINE
8
Black
10
95.675
20
-104.275
11
95.675
21
-105.725
0
LINE
8
Black
10
97.475
20
-105.725
11
96.325
21
-105.725
0
LINE
8
Black
10
96.325
20
-105.725
11
96.325
21
-104.275
0
LINE
8
Black
10
96.325
20
-104.275
11
97.475
21
-104.275
0
LINE
8
Black
10
97.475
20
-104.275
11
97.475
21
-105.725
0
LINE
8
Black
10
139.475
20
-105.725
11
138.325
21
-105.725
0
LINE
8
Black
10
138.325
20
-105.725
11
138.325
21
-104.275
0
LINE
8
Black
10
138.325
20
-104.275
11
139.475
21
-104.275
0
LINE
8
Black
10
139.475
20
-104.275
11
139.475
21
-105.725
0
LINE
8
Black
10
144.775
20
-104.05
11
143.975
21
-104.05
0
LINE
8
Black
10
143.975
20
-104.05
11
143.975
21
-103.25
0
LINE
8
Black
10
143.975
20
-103.25
11
144.775
21
-103.25
0
LINE
8
Black
10
144.775
20
-103.25
11
144.775
21
-104.05
0
LINE
8
Black
10
142.025
20
-104.05
11
141.225
21
-104.05
0
LINE
8
Black
10
141.225
20
-104.05
11
141.225
21
-103.25
0
LINE
8
Black
10
141.225
20
-103.25
11
142.025
21
-103.25
0
LINE
8
Black
10
142.025
20
-103.25
11
142.025
21
-104.05
0
LINE
8
Black
10
92.975
20
-104.05
11
92.175
21
-104.05
0
LINE
8
Black
10
92.175
20
-104.05
11
92.175
21
-103.25
0
LINE
8
Black
10
92.175
20
-103.25
11
92.975
21
-103.25
0
LINE
8
Black
10
92.975
20
-103.25
11
92.975
21
-104.05
0
LINE
8
Black
10
90.225
20
-104.05
11
89.425
21
-104.05
0
LINE
8
Black
10
89.425
20
-104.05
11
89.425
21
-103.25
0
LINE
8
Black
10
89.425
20
-103.25
11
90.225
21
-103.25
0
LINE
8
Black
10
90.225
20
-103.25
11
90.225
21
-104.05
0
LINE
8
Black
10
97.475
20
-103.725
11
96.325
21
-103.725
0
LINE
8
Black
10
96.325
20
-103.725
11
96.325
21
-102.275
0
LINE
8
Black
10
96.325
20
-102.275
11
97.475
21
-102.275
0
LINE
8
Black
10
97.475
20
-102.275
11
97.475
21
-103.725
0
LINE
8
Black
10
137.675
20
-103.725
11
136.525
21
-103.725
0
LINE
8
Black
10
136.525
20
-103.725
11
136.525
21
-102.275
0
LINE
8
Black
10
136.525
20
-102.275
11
137.675
21
-102.275
0
LINE
8
Black
10
137.675
20
-102.275
11
137.675
21
-103.725
0
LINE
8
Black
10
139.475
20
-103.725
11
138.325
21
-103.725
0
LINE
8
Black
10
138.325
20
-103.725
11
138.325
21
-102.275
0
LINE
8
Black
10
138.325
20
-102.275
11
139.475
21
-102.275
0
LINE
8
Black
10
139.475
20
-102.275
11
139.475
21
-103.725
0
LINE
8
Black
10
95.675
20
-103.725
11
94.525
21
-103.725
0
LINE
8
Black
10
94.525
20
-103.725
11
94.525
21
-102.275
0
LINE
8
Black
10
94.525
20
-102.275
11
95.675
21
-102.275
0
LINE
8
Black
10
95.675
20
-102.275
11
95.675
21
-103.725
0
LINE
8
Black
10
90.225
20
-102.55
11
89.425
21
-102.55
0
LINE
8
Black
10
89.425
20
-102.55
11
89.425
21
-101.75
0
LINE
8
Black
10
89.425
20
-101.75
11
90.225
21
-101.75
0
LINE
8
Black
10
90.225
20
-101.75
11
90.225
21
-102.55
0
LINE
8
Black
10
144.775
20
-102.55
11
143.975
21
-102.55
0
LINE
8
Black
10
143.975
20
-102.55
11
143.975
21
-101.75
0
LINE
8
Black
10
143.975
20
-101.75
11
144.775
21
-101.75
0
LINE
8
Black
10
144.775
20
-101.75
11
144.775
21
-102.55
0
LINE
8
Black
10
92.975
20
-102.55
11
92.175
21
-102.55
0
LINE
8
Black
10
92.175
20
-102.55
11
92.175
21
-101.75
0
LINE
8
Black
10
92.175
20
-101.75
11
92.975
21
-101.75
0
LINE
8
Black
10
92.975
20
-101.75
11
92.975
21
-102.55
0
LINE
8
Black
10
142.025
20
-102.55
11
141.225
21
-102.55
0
LINE
8
Black
10
141.225
20
-102.55
11
141.225
21
-101.75
0
LINE
8
Black
10
141.225
20
-101.75
11
142.025
21
-101.75
0
LINE
8
Black
10
142.025
20
-101.75
11
142.025
21
-102.55
0
LINE
8
Black
10
95.675
20
-101.725
11
94.525
21
-101.725
0
LINE
8
Black
10
94.525
20
-101.725
11
94.525
21
-100.275
0
LINE
8
Black
10
94.525
20
-100.275
11
95.675
21
-100.275
0
LINE
8
Black
10
95.675
20
-100.275
11
95.675
21
-101.725
0
LINE
8
Black
10
137.675
20
-101.725
11
136.525
21
-101.725
0
LINE
8
Black
10
136.525
20
-101.725
11
136.525
21
-100.275
0
LINE
8
Black
10
136.525
20
-100.275
11
137.675
21
-100.275
0
LINE
8
Black
10
137.675
20
-100.275
11
137.675
21
-101.725
0
LINE
8
Black
10
139.475
20
-101.725
11
138.325
21
-101.725
0
LINE
8
Black
10
138.325
20
-101.725
11
138.325
21
-100.275
0
LINE
8
Black
10
138.325
20
-100.275
11
139.475
21
-100.275
0
LINE
8
Black
10
139.475
20
-100.275
11
139.475
21
-101.725
0
LINE
8
Black
10
97.475
20
-101.725
11
96.325
21
-101.725
0
LINE
8
Black
10
96.325
20
-101.725
11
96.325
21
-100.275
0
LINE
8
Black
10
96.325
20
-100.275
11
97.475
21
-100.275
0
LINE
8
Black
10
97.475
20
-100.275
11
97.475
21
-101.725
0
LINE
8
Black
10
137.675
20
-98.925
11
136.525
21
-98.925
0
LINE
8
Black
10
136.525
20
-98.925
11
136.525
21
-97.475
0
LINE
8
Black
10
136.525
20
-97.475
11
137.675
21
-97.475
0
LINE
8
Black
10
137.675
20
-97.475
11
137.675
21
-98.925
0
LINE
8
Black
10
139.475
20
-98.925
11
138.325
21
-98.925
0
LINE
8
Black
10
138.325
20
-98.925
11
138.325
21
-97.475
0
LINE
8
Black
10
138.325
20
-97.475
11
139.475
21
-97.475
0
LINE
8
Black
10
139.475
20
-97.475
11
139.475
21
-98.925
0
LINE
8
Black
10
107.725
20
-98.675
11
106.275
21
-98.675
0
LINE
8
Black
10
106.275
20
-98.675
11
106.275
21
-97.525
0
LINE
8
Black
10
106.275
20
-97.525
11
107.725
21
-97.525
0
LINE
8
Black
10
107.725
20
-97.525
11
107.725
21
-98.675
0
LINE
8
Black
10
107.725
20
-96.875
11
106.275
21
-96.875
0
LINE
8
Black
10
106.275
20
-96.875
11
106.275
21
-95.725
0
LINE
8
Black
10
106.275
20
-95.725
11
107.725
21
-95.725
0
LINE
8
Black
10
107.725
20
-95.725
11
107.725
21
-96.875
0
LINE
8
Black
10
131.675
20
-85.725
11
130.525
21
-85.725
0
LINE
8
Black
10
130.525
20
-85.725
11
130.525
21
-84.275
0
LINE
8
Black
10
130.525
20
-84.275
11
131.675
21
-84.275
0
LINE
8
Black
10
131.675
20
-84.275
11
131.675
21
-85.725
0
LINE
8
Black
10
133.475
20
-85.725
11
132.325
21
-85.725
0
LINE
8
Black
10
132.325
20
-85.725
11
132.325
21
-84.275
0
LINE
8
Black
10
132.325
20
-84.275
11
133.475
21
-84.275
0
LINE
8
Black
10
133.475
20
-84.275
11
133.475
21
-85.725
0
LINE
8
Black
10
101.475
20
-85.725
11
100.325
21
-85.725
0
LINE
8
Black
10
100.325
20
-85.725
11
100.325
21
-84.275
0
LINE
8
Black
10
100.325
20
-84.275
11
101.475
21
-84.275
0
LINE
8
Black
10
101.475
20
-84.275
11
101.475
21
-85.725
0
LINE
8
Black
10
99.675
20
-85.725
11
98.525
21
-85.725
0
LINE
8
Black
10
98.525
20
-85.725
11
98.525
21
-84.275
0
LINE
8
Black
10
98.525
20
-84.275
11
99.675
21
-84.275
0
LINE
8
Black
10
99.675
20
-84.275
11
99.675
21
-85.725
0
LINE
8
Black
10
140.025
20
-83.9
11
139.225
21
-83.9
0
LINE
8
Black
10
139.225
20
-83.9
11
139.225
21
-83.1
0
LINE
8
Black
10
139.225
20
-83.1
11
140.025
21
-83.1
0
LINE
8
Black
10
140.025
20
-83.1
11
140.025
21
-83.9
0
LINE
8
Black
10
137.275
20
-83.9
11
136.475
21
-83.9
0
LINE
8
Black
10
136.475
20
-83.9
11
136.475
21
-83.1
0
LINE
8
Black
10
136.475
20
-83.1
11
137.275
21
-83.1
0
LINE
8
Black
10
137.275
20
-83.1
11
137.275
21
-83.9
0
LINE
8
Black
10
94.775
20
-83.9
11
93.975
21
-83.9
0
LINE
8
Black
10
93.975
20
-83.9
11
93.975
21
-83.1
0
LINE
8
Black
10
93.975
20
-83.1
11
94.775
21
-83.1
0
LINE
8
Black
10
94.775
20
-83.1
11
94.775
21
-83.9
0
LINE
8
Black
10
97.525
20
-83.9
11
96.725
21
-83.9
0
LINE
8
Black
10
96.725
20
-83.9
11
96.725
21
-83.1
0
LINE
8
Black
10
96.725
20
-83.1
11
97.525
21
-83.1
0
LINE
8
Black
10
97.525
20
-83.1
11
97.525
21
-83.9
0
LINE
8
Black
10
101.475
20
-83.725
11
100.325
21
-83.725
0
LINE
8
Black
10
100.325
20
-83.725
11
100.325
21
-82.275
0
LINE
8
Black
10
100.325
20
-82.275
11
101.475
21
-82.275
0
LINE
8
Black
10
101.475
20
-82.275
11
101.475
21
-83.725
0
LINE
8
Black
10
99.675
20
-83.725
11
98.525
21
-83.725
0
LINE
8
Black
10
98.525
20
-83.725
11
98.525
21
-82.275
0
LINE
8
Black
10
98.525
20
-82.275
11
99.675
21
-82.275
0
LINE
8
Black
10
99.675
20
-82.275
11
99.675
21
-83.725
0
LINE
8
Black
10
131.675
20
-83.725
11
130.525
21
-83.725
0
LINE
8
Black
10
130.525
20
-83.725
11
130.525
21
-82.275
0
LINE
8
Black
10
130.525
20
-82.275
11
131.675
21
-82.275
0
LINE
8
Black
10
131.675
20
-82.275
11
131.675
21
-83.725
0
LINE
8
Black
10
133.475
20
-83.725
11
132.325
21
-83.725
0
LINE
8
Black
10
132.325
20
-83.725
11
132.325
21
-82.275
0
LINE
8
Black
10
132.325
20
-82.275
11
133.475
21
-82.275
0
LINE
8
Black
10
133.475
20
-82.275
11
133.475
21
-83.725
0
LINE
8
Black
10
94.775
20
-82.4
11
93.975
21
-82.4
0
LINE
8
Black
10
93.975
20
-82.4
11
93.975
21
-81.6
0
LINE
8
Black
10
93.975
20
-81.6
11
94.775
21
-81.6
0
LINE
8
Black
10
94.775
20
-81.6
11
94.775
21
-82.4
0
LINE
8
Black
10
140.025
20
-82.4
11
139.225
21
-82.4
0
LINE
8
Black
10
139.225
20
-82.4
11
139.225
21
-81.6
0
LINE
8
Black
10
139.225
20
-81.6
11
140.025
21
-81.6
0
LINE
8
Black
10
140.025
20
-81.6
11
140.025
21
-82.4
0
LINE
8
Black
10
137.275
20
-82.4
11
136.475
21
-82.4
0
LINE
8
Black
10
136.475
20
-82.4
11
136.475
21
-81.6
0
LINE
8
Black
10
136.475
20
-81.6
11
137.275
21
-81.6
0
LINE
8
Black
10
137.275
20
-81.6
11
137.275
21
-82.4
0
LINE
8
Black
10
97.525
20
-82.4
11
96.725
21
-82.4
0
LINE
8
Black
10
96.725
20
-82.4
11
96.725
21
-81.6
0
LINE
8
Black
10
96.725
20
-81.6
11
97.525
21
-81.6
0
LINE
8
Black
10
97.525
20
-81.6
11
97.525
21
-82.4
0
LINE
8
Black
10
101.475
20
-81.725
11
100.325
21
-81.725
0
LINE
8
Black
10
100.325
20
-81.725
11
100.325
21
-80.275
0
LINE
8
Black
10
100.325
20
-80.275
11
101.475
21
-80.275
0
LINE
8
Black
10
101.475
20
-80.275
11
101.475
21
-81.725
0
LINE
8
Black
10
99.675
20
-81.725
11
98.525
21
-81.725
0
LINE
8
Black
10
98.525
20
-81.725
11
98.525
21
-80.275
0
LINE
8
Black
10
98.525
20
-80.275
11
99.675
21
-80.275
0
LINE
8
Black
10
99.675
20
-80.275
11
99.675
21
-81.725
0
LINE
8
Black
10
131.675
20
-81.725
11
130.525
21
-81.725
0
LINE
8
Black
10
130.525
20
-81.725
11
130.525
21
-80.275
0
LINE
8
Black
10
130.525
20
-80.275
11
131.675
21
-80.275
0
LINE
8
Black
10
131.675
20
-80.275
11
131.675
21
-81.725
0
LINE
8
Black
10
133.475
20
-81.725
11
132.325
21
-81.725
0
LINE
8
Black
10
132.325
20
-81.725
11
132.325
21
-80.275
0
LINE
8
Black
10
132.325
20
-80.275
11
133.475
21
-80.275
0
LINE
8
Black
10
133.475
20
-80.275
11
133.475
21
-81.725
0
LINE
8
Black
10
125.675
20
-72.725
11
124.525
21
-72.725
0
LINE
8
Black
10
124.525
20
-72.725
11
124.525
21
-71.275
0
LINE
8
Black
10
124.525
20
-71.275
11
125.675
21
-71.275
0
LINE
8
Black
10
125.675
20
-71.275
11
125.675
21
-72.725
0
LINE
8
Black
10
127.475
20
-72.725
11
126.325
21
-72.725
0
LINE
8
Black
10
126.325
20
-72.725
11
126.325
21
-71.275
0
LINE
8
Black
10
126.325
20
-71.275
11
127.475
21
-71.275
0
LINE
8
Black
10
127.475
20
-71.275
11
127.475
21
-72.725
0
LINE
8
Black
10
109.475
20
-72.725
11
108.325
21
-72.725
0
LINE
8
Black
10
108.325
20
-72.725
11
108.325
21
-71.275
0
LINE
8
Black
10
108.325
20
-71.275
11
109.475
21
-71.275
0
LINE
8
Black
10
109.475
20
-71.275
11
109.475
21
-72.725
0
LINE
8
Black
10
107.675
20
-72.725
11
106.525
21
-72.725
0
LINE
8
Black
10
106.525
20
-72.725
11
106.525
21
-71.275
0
LINE
8
Black
10
106.525
20
-71.275
11
107.675
21
-71.275
0
LINE
8
Black
10
107.675
20
-71.275
11
107.675
21
-72.725
0
LINE
8
Black
10
101.275
20
-71.3
11
100.475
21
-71.3
0
LINE
8
Black
10
100.475
20
-71.3
11
100.475
21
-70.5
0
LINE
8
Black
10
100.475
20
-70.5
11
101.275
21
-70.5
0
LINE
8
Black
10
101.275
20
-70.5
11
101.275
21
-71.3
0
LINE
8
Black
10
104.025
20
-71.3
11
103.225
21
-71.3
0
LINE
8
Black
10
103.225
20
-71.3
11
103.225
21
-70.5
0
LINE
8
Black
10
103.225
20
-70.5
11
104.025
21
-70.5
0
LINE
8
Black
10
104.025
20
-70.5
11
104.025
21
-71.3
0
LINE
8
Black
10
130.775
20
-71.3
11
129.975
21
-71.3
0
LINE
8
Black
10
129.975
20
-71.3
11
129.975
21
-70.5
0
LINE
8
Black
10
129.975
20
-70.5
11
130.775
21
-70.5
0
LINE
8
Black
10
130.775
20
-70.5
11
130.775
21
-71.3
0
LINE
8
Black
10
133.525
20
-71.3
11
132.725
21
-71.3
0
LINE
8
Black
10
132.725
20
-71.3
11
132.725
21
-70.5
0
LINE
8
Black
10
132.725
20
-70.5
11
133.525
21
-70.5
0
LINE
8
Black
10
133.525
20
-70.5
11
133.525
21
-71.3
0
LINE
8
Black
10
125.675
20
-70.725
11
124.525
21
-70.725
0
LINE
8
Black
10
124.525
20
-70.725
11
124.525
21
-69.275
0
LINE
8
Black
10
124.525
20
-69.275
11
125.675
21
-69.275
0
LINE
8
Black
10
125.675
20
-69.275
11
125.675
21
-70.725
0
LINE
8
Black
10
107.675
20
-70.725
11
106.525
21
-70.725
0
LINE
8
Black
10
106.525
20
-70.725
11
106.525
21
-69.275
0
LINE
8
Black
10
106.525
20
-69.275
11
107.675
21
-69.275
0
LINE
8
Black
10
107.675
20
-69.275
11
107.675
21
-70.725
0
LINE
8
Black
10
109.475
20
-70.725
11
108.325
21
-70.725
0
LINE
8
Black
10
108.325
20
-70.725
11
108.325
21
-69.275
0
LINE
8
Black
10
108.325
20
-69.275
11
109.475
21
-69.275
0
LINE
8
Black
10
109.475
20
-69.275
11
109.475
21
-70.725
0
LINE
8
Black
10
127.475
20
-70.725
11
126.325
21
-70.725
0
LINE
8
Black
10
126.325
20
-70.725
11
126.325
21
-69.275
0
LINE
8
Black
10
126.325
20
-69.275
11
127.475
21
-69.275
0
LINE
8
Black
10
127.475
20
-69.275
11
127.475
21
-70.725
0
LINE
8
Black
10
130.775
20
-69.8
11
129.975
21
-69.8
0
LINE
8
Black
10
129.975
20
-69.8
11
129.975
21
-69
0
LINE
8
Black
10
129.975
20
-69
11
130.775
21
-69
0
LINE
8
Black
10
130.775
20
-69
11
130.775
21
-69.8
0
LINE
8
Black
10
133.525
20
-69.8
11
132.725
21
-69.8
0
LINE
8
Black
10
132.725
20
-69.8
11
132.725
21
-69
0
LINE
8
Black
10
132.725
20
-69
11
133.525
21
-69
0
LINE
8
Black
10
133.525
20
-69
11
133.525
21
-69.8
0
LINE
8
Black
10
101.275
20
-69.8
11
100.475
21
-69.8
0
LINE
8
Black
10
100.475
20
-69.8
11
100.475
21
-69
0
LINE
8
Black
10
100.475
20
-69
11
101.275
21
-69
0
LINE
8
Black
10
101.275
20
-69
11
101.275
21
-69.8
0
LINE
8
Black
10
104.025
20
-69.8
11
103.225
21
-69.8
0
LINE
8
Black
10
103.225
20
-69.8
11
103.225
21
-69
0
LINE
8
Black
10
103.225
20
-69
11
104.025
21
-69
0
LINE
8
Black
10
104.025
20
-69
11
104.025
21
-69.8
0
LINE
8
Black
10
107.675
20
-68.725
11
106.525
21
-68.725
0
LINE
8
Black
10
106.525
20
-68.725
11
106.525
21
-67.275
0
LINE
8
Black
10
106.525
20
-67.275
11
107.675
21
-67.275
0
LINE
8
Black
10
107.675
20
-67.275
11
107.675
21
-68.725
0
LINE
8
Black
10
109.475
20
-68.725
11
108.325
21
-68.725
0
LINE
8
Black
10
108.325
20
-68.725
11
108.325
21
-67.275
0
LINE
8
Black
10
108.325
20
-67.275
11
109.475
21
-67.275
0
LINE
8
Black
10
109.475
20
-67.275
11
109.475
21
-68.725
0
LINE
8
Black
10
127.475
20
-68.725
11
126.325
21
-68.725
0
LINE
8
Black
10
126.325
20
-68.725
11
126.325
21
-67.275
0
LINE
8
Black
10
126.325
20
-67.275
11
127.475
21
-67.275
0
LINE
8
Black
10
127.475
20
-67.275
11
127.475
21
-68.725
0
LINE
8
Black
10
125.675
20
-68.725
11
124.525
21
-68.725
0
LINE
8
Black
10
124.525
20
-68.725
11
124.525
21
-67.275
0
LINE
8
Black
10
124.525
20
-67.275
11
125.675
21
-67.275
0
LINE
8
Black
10
125.675
20
-67.275
11
125.675
21
-68.725
0
LINE
8
Black
10
110.675
20
-59.225
11
109.525
21
-59.225
0
LINE
8
Black
10
109.525
20
-59.225
11
109.525
21
-57.775
0
LINE
8
Black
10
109.525
20
-57.775
11
110.675
21
-57.775
0
LINE
8
Black
10
110.675
20
-57.775
11
110.675
21
-59.225
0
LINE
8
Black
10
112.475
20
-59.225
11
111.325
21
-59.225
0
LINE
8
Black
10
111.325
20
-59.225
11
111.325
21
-57.775
0
LINE
8
Black
10
111.325
20
-57.775
11
112.475
21
-57.775
0
LINE
8
Black
10
112.475
20
-57.775
11
112.475
21
-59.225
0
LINE
8
Black
10
124.475
20
-59.225
11
123.325
21
-59.225
0
LINE
8
Black
10
123.325
20
-59.225
11
123.325
21
-57.775
0
LINE
8
Black
10
123.325
20
-57.775
11
124.475
21
-57.775
0
LINE
8
Black
10
124.475
20
-57.775
11
124.475
21
-59.225
0
LINE
8
Black
10
122.675
20
-59.225
11
121.525
21
-59.225
0
LINE
8
Black
10
121.525
20
-59.225
11
121.525
21
-57.775
0
LINE
8
Black
10
121.525
20
-57.775
11
122.675
21
-57.775
0
LINE
8
Black
10
122.675
20
-57.775
11
122.675
21
-59.225
0
LINE
8
Black
10
110.675
20
-57.025
11
109.525
21
-57.025
0
LINE
8
Black
10
109.525
20
-57.025
11
109.525
21
-55.575
0
LINE
8
Black
10
109.525
20
-55.575
11
110.675
21
-55.575
0
LINE
8
Black
10
110.675
20
-55.575
11
110.675
21
-57.025
0
LINE
8
Black
10
112.475
20
-57.025
11
111.325
21
-57.025
0
LINE
8
Black
10
111.325
20
-57.025
11
111.325
21
-55.575
0
LINE
8
Black
10
111.325
20
-55.575
11
112.475
21
-55.575
0
LINE
8
Black
10
112.475
20
-55.575
11
112.475
21
-57.025
0
LINE
8
Black
10
124.475
20
-57.025
11
123.325
21
-57.025
0
LINE
8
Black
10
123.325
20
-57.025
11
123.325
21
-55.575
0
LINE
8
Black
10
123.325
20
-55.575
11
124.475
21
-55.575
0
LINE
8
Black
10
124.475
20
-55.575
11
124.475
21
-57.025
0
LINE
8
Black
10
122.675
20
-57.025
11
121.525
21
-57.025
0
LINE
8
Black
10
121.525
20
-57.025
11
121.525
21
-55.575
0
LINE
8
Black
10
121.525
20
-55.575
11
122.675
21
-55.575
0
LINE
8
Black
10
122.675
20
-55.575
11
122.675
21
-57.025
  0
ENDSEC
  0
EOF
