  0
SECTION
  2
HEADER
  9
$ANGBASE
  50
0.0
  9
$ANGDIR
  70
  1
  9
$MEASUREMENT
  70
0
  0
ENDSEC
  0
SECTION
  2
TABLES
  0
TABLE
  2
LTYPE
  70
1
  0
LTYPE
  2
CONTINUOUS
  70
0
  3
Solid line
  72
65
  73
0
  40
0.0
  0
ENDTAB
  0
TABLE
  2
STYLE
  70
4
  0
STYLE
  2
KICAD
  70
0
  40
0
  41
1
  42
1
  50
0
  71
0
  3
isocp.shx
  0
STYLE
  2
KICADB
  70
0
  40
0
  41
1
  42
1
  50
0
  71
0
  3
isocp.shx
  0
STYLE
  2
KICADI
  70
0
  40
0
  41
1
  42
1
  50
15
  71
0
  3
isocp.shx
  0
STYLE
  2
KICADBI
  70
0
  40
0
  41
1
  42
1
  50
15
  71
0
  3
isocp.shx
  0
ENDTAB
  0
TABLE
  2
LAYER
  70
30
  0
LAYER
  2
BLACK
  70
0
  62
7
  6
CONTINUOUS
  0
LAYER
  2
GRAY1
  70
0
  62
251
  6
CONTINUOUS
  0
LAYER
  2
GRAY2
  70
0
  62
8
  6
CONTINUOUS
  0
LAYER
  2
GRAY3
  70
0
  62
9
  6
CONTINUOUS
  0
LAYER
  2
WHITE
  70
0
  62
7
  6
CONTINUOUS
  0
LAYER
  2
LYELLOW
  70
0
  62
51
  6
CONTINUOUS
  0
LAYER
  2
BLUE1
  70
0
  62
178
  6
CONTINUOUS
  0
LAYER
  2
GREEN1
  70
0
  62
98
  6
CONTINUOUS
  0
LAYER
  2
CYAN1
  70
0
  62
138
  6
CONTINUOUS
  0
LAYER
  2
RED1
  70
0
  62
18
  6
CONTINUOUS
  0
LAYER
  2
MAGENTA1
  70
0
  62
228
  6
CONTINUOUS
  0
LAYER
  2
BROWN1
  70
0
  62
58
  6
CONTINUOUS
  0
LAYER
  2
BLUE2
  70
0
  62
5
  6
CONTINUOUS
  0
LAYER
  2
GREEN2
  70
0
  62
3
  6
CONTINUOUS
  0
LAYER
  2
CYAN2
  70
0
  62
4
  6
CONTINUOUS
  0
LAYER
  2
RED2
  70
0
  62
1
  6
CONTINUOUS
  0
LAYER
  2
MAGENTA2
  70
0
  62
6
  6
CONTINUOUS
  0
LAYER
  2
BROWN2
  70
0
  62
54
  6
CONTINUOUS
  0
LAYER
  2
BLUE3
  70
0
  62
171
  6
CONTINUOUS
  0
LAYER
  2
GREEN3
  70
0
  62
91
  6
CONTINUOUS
  0
LAYER
  2
CYAN3
  70
0
  62
131
  6
CONTINUOUS
  0
LAYER
  2
RED3
  70
0
  62
11
  6
CONTINUOUS
  0
LAYER
  2
MAGENTA3
  70
0
  62
221
  6
CONTINUOUS
  0
LAYER
  2
YELLOW3
  70
0
  62
2
  6
CONTINUOUS
  0
LAYER
  2
BLUE4
  70
0
  62
5
  6
CONTINUOUS
  0
LAYER
  2
GREEN4
  70
0
  62
3
  6
CONTINUOUS
  0
LAYER
  2
CYAN4
  70
0
  62
4
  6
CONTINUOUS
  0
LAYER
  2
RED4
  70
0
  62
1
  6
CONTINUOUS
  0
LAYER
  2
MAGENTA4
  70
0
  62
6
  6
CONTINUOUS
  0
LAYER
  2
YELLOW4
  70
0
  62
2
  6
CONTINUOUS
  0
ENDTAB
  0
ENDSEC
  0
SECTION
  2
ENTITIES
0
LINE
8
Black
10
150.319
20
-122.808
11
150.315
21
-122.809
0
LINE
8
Black
10
150.315
20
-122.809
11
150.354
21
-122.887
0
LINE
8
Black
10
150.354
20
-122.887
11
150.374
21
-123.06
0
LINE
8
Black
10
150.374
20
-123.06
11
150.334
21
-123.229
0
LINE
8
Black
10
150.334
20
-123.229
11
150.238
21
-123.374
0
LINE
8
Black
10
150.238
20
-123.374
11
150.099
21
-123.477
0
LINE
8
Black
10
150.099
20
-123.477
11
149.288
21
-123.883
0
LINE
8
Black
10
149.288
20
-123.883
11
149.121
21
-123.933
0
LINE
8
Black
10
149.121
20
-123.933
11
148.948
21
-123.923
0
LINE
8
Black
10
148.948
20
-123.923
11
148.789
21
-123.854
0
LINE
8
Black
10
148.789
20
-123.854
11
148.662
21
-123.734
0
LINE
8
Black
10
148.662
20
-123.734
11
148.623
21
-123.657
0
LINE
8
Black
10
148.623
20
-123.657
11
148.62
21
-123.658
0
LINE
8
Black
10
148.62
20
-123.658
11
147.915
21
-122.25
0
LINE
8
Black
10
147.915
20
-122.25
11
149.614
21
-121.399
0
LINE
8
Black
10
149.614
20
-121.399
11
150.319
21
-122.808
0
LINE
8
Black
10
146.144
20
-122.289
11
146.303
21
-122.358
0
LINE
8
Black
10
146.303
20
-122.358
11
146.429
21
-122.478
0
LINE
8
Black
10
146.429
20
-122.478
11
146.507
21
-122.633
0
LINE
8
Black
10
146.507
20
-122.633
11
146.527
21
-122.805
0
LINE
8
Black
10
146.527
20
-122.805
11
146.487
21
-122.974
0
LINE
8
Black
10
146.487
20
-122.974
11
146.391
21
-123.119
0
LINE
8
Black
10
146.391
20
-123.119
11
146.252
21
-123.223
0
LINE
8
Black
10
146.252
20
-123.223
11
146.024
21
-123.337
0
LINE
8
Black
10
146.024
20
-123.337
11
145.857
21
-123.386
0
LINE
8
Black
10
145.857
20
-123.386
11
145.684
21
-123.376
0
LINE
8
Black
10
145.684
20
-123.376
11
145.525
21
-123.307
0
LINE
8
Black
10
145.525
20
-123.307
11
145.398
21
-123.188
0
LINE
8
Black
10
145.398
20
-123.188
11
145.321
21
-123.033
0
LINE
8
Black
10
145.321
20
-123.033
11
145.301
21
-122.86
0
LINE
8
Black
10
145.301
20
-122.86
11
145.341
21
-122.691
0
LINE
8
Black
10
145.341
20
-122.691
11
145.437
21
-122.546
0
LINE
8
Black
10
145.437
20
-122.546
11
145.576
21
-122.443
0
LINE
8
Black
10
145.576
20
-122.443
11
145.804
21
-122.329
0
LINE
8
Black
10
145.804
20
-122.329
11
145.97
21
-122.279
0
LINE
8
Black
10
145.97
20
-122.279
11
146.144
21
-122.289
0
LINE
8
Black
10
128.575
20
-123.375
11
127.425
21
-123.375
0
LINE
8
Black
10
127.425
20
-123.375
11
127.425
21
-121.925
0
LINE
8
Black
10
127.425
20
-121.925
11
128.575
21
-121.925
0
LINE
8
Black
10
128.575
20
-121.925
11
128.575
21
-123.375
0
LINE
8
Black
10
130.375
20
-123.375
11
129.225
21
-123.375
0
LINE
8
Black
10
129.225
20
-123.375
11
129.225
21
-121.925
0
LINE
8
Black
10
129.225
20
-121.925
11
130.375
21
-121.925
0
LINE
8
Black
10
130.375
20
-121.925
11
130.375
21
-123.375
0
LINE
8
Black
10
125.975
20
-123.375
11
124.825
21
-123.375
0
LINE
8
Black
10
124.825
20
-123.375
11
124.825
21
-121.925
0
LINE
8
Black
10
124.825
20
-121.925
11
125.975
21
-121.925
0
LINE
8
Black
10
125.975
20
-121.925
11
125.975
21
-123.375
0
LINE
8
Black
10
124.175
20
-123.375
11
123.025
21
-123.375
0
LINE
8
Black
10
123.025
20
-123.375
11
123.025
21
-121.925
0
LINE
8
Black
10
123.025
20
-121.925
11
124.175
21
-121.925
0
LINE
8
Black
10
124.175
20
-121.925
11
124.175
21
-123.375
0
LINE
8
Black
10
100.725
20
-122.875
11
99.275
21
-122.875
0
LINE
8
Black
10
99.275
20
-122.875
11
99.275
21
-121.725
0
LINE
8
Black
10
99.275
20
-121.725
11
100.725
21
-121.725
0
LINE
8
Black
10
100.725
20
-121.725
11
100.725
21
-122.875
0
LINE
8
Black
10
97.3
20
-122.85
11
96.7
21
-122.85
0
LINE
8
Black
10
96.7
20
-122.85
11
96.7
21
-121.75
0
LINE
8
Black
10
96.7
20
-121.75
11
97.3
21
-121.75
0
LINE
8
Black
10
97.3
20
-121.75
11
97.3
21
-122.85
0
LINE
8
Black
10
98.25
20
-122.85
11
97.65
21
-122.85
0
LINE
8
Black
10
97.65
20
-122.85
11
97.65
21
-121.75
0
LINE
8
Black
10
97.65
20
-121.75
11
98.25
21
-121.75
0
LINE
8
Black
10
98.25
20
-121.75
11
98.25
21
-122.85
0
LINE
8
Black
10
96.35
20
-122.85
11
95.75
21
-122.85
0
LINE
8
Black
10
95.75
20
-122.85
11
95.75
21
-121.75
0
LINE
8
Black
10
95.75
20
-121.75
11
96.35
21
-121.75
0
LINE
8
Black
10
96.35
20
-121.75
11
96.35
21
-122.85
0
LINE
8
Black
10
146.483
20
-121.737
11
145.276
21
-122.341
0
LINE
8
Black
10
145.276
20
-122.341
11
145.097
21
-121.984
0
LINE
8
Black
10
145.097
20
-121.984
11
146.304
21
-121.379
0
LINE
8
Black
10
146.304
20
-121.379
11
146.483
21
-121.737
0
LINE
8
Black
10
94.725
20
-122.075
11
93.275
21
-122.075
0
LINE
8
Black
10
93.275
20
-122.075
11
93.275
21
-120.925
0
LINE
8
Black
10
93.275
20
-120.925
11
94.725
21
-120.925
0
LINE
8
Black
10
94.725
20
-120.925
11
94.725
21
-122.075
0
LINE
8
Black
10
133.125
20
-121.875
11
131.675
21
-121.875
0
LINE
8
Black
10
131.675
20
-121.875
11
131.675
21
-120.725
0
LINE
8
Black
10
131.675
20
-120.725
11
133.125
21
-120.725
0
LINE
8
Black
10
133.125
20
-120.725
11
133.125
21
-121.875
0
LINE
8
Black
10
135.125
20
-121.875
11
133.675
21
-121.875
0
LINE
8
Black
10
133.675
20
-121.875
11
133.675
21
-120.725
0
LINE
8
Black
10
133.675
20
-120.725
11
135.125
21
-120.725
0
LINE
8
Black
10
135.125
20
-120.725
11
135.125
21
-121.875
0
LINE
8
Black
10
146.192
20
-121.156
11
144.985
21
-121.76
0
LINE
8
Black
10
144.985
20
-121.76
11
144.806
21
-121.402
0
LINE
8
Black
10
144.806
20
-121.402
11
146.013
21
-120.798
0
LINE
8
Black
10
146.013
20
-120.798
11
146.192
21
-121.156
0
LINE
8
Black
10
149.367
20
-120.908
11
147.668
21
-121.758
0
LINE
8
Black
10
147.668
20
-121.758
11
146.862
21
-120.149
0
LINE
8
Black
10
146.862
20
-120.149
11
148.561
21
-119.298
0
LINE
8
Black
10
148.561
20
-119.298
11
149.367
21
-120.908
0
LINE
8
Black
10
145.901
20
-120.574
11
144.694
21
-121.179
0
LINE
8
Black
10
144.694
20
-121.179
11
144.515
21
-120.821
0
LINE
8
Black
10
144.515
20
-120.821
11
145.722
21
-120.217
0
LINE
8
Black
10
145.722
20
-120.217
11
145.901
21
-120.574
0
LINE
8
Black
10
100.725
20
-121.075
11
99.275
21
-121.075
0
LINE
8
Black
10
99.275
20
-121.075
11
99.275
21
-119.925
0
LINE
8
Black
10
99.275
20
-119.925
11
100.725
21
-119.925
0
LINE
8
Black
10
100.725
20
-119.925
11
100.725
21
-121.075
0
LINE
8
Black
10
125.2
20
-120.9
11
123.85
21
-120.9
0
LINE
8
Black
10
123.85
20
-120.9
11
123.85
21
-120.45
0
LINE
8
Black
10
123.85
20
-120.45
11
125.2
21
-120.45
0
LINE
8
Black
10
125.2
20
-120.45
11
125.2
21
-120.9
0
LINE
8
Black
10
130.95
20
-120.9
11
129.6
21
-120.9
0
LINE
8
Black
10
129.6
20
-120.9
11
129.6
21
-120.45
0
LINE
8
Black
10
129.6
20
-120.45
11
130.95
21
-120.45
0
LINE
8
Black
10
130.95
20
-120.45
11
130.95
21
-120.9
0
LINE
8
Black
10
145.61
20
-119.993
11
144.403
21
-120.598
0
LINE
8
Black
10
144.403
20
-120.598
11
144.224
21
-120.24
0
LINE
8
Black
10
144.224
20
-120.24
11
145.431
21
-119.635
0
LINE
8
Black
10
145.431
20
-119.635
11
145.61
21
-119.993
0
LINE
8
Black
10
94.725
20
-120.275
11
93.275
21
-120.275
0
LINE
8
Black
10
93.275
20
-120.275
11
93.275
21
-119.125
0
LINE
8
Black
10
93.275
20
-119.125
11
94.725
21
-119.125
0
LINE
8
Black
10
94.725
20
-119.125
11
94.725
21
-120.275
0
LINE
8
Black
10
125.2
20
-120.25
11
123.85
21
-120.25
0
LINE
8
Black
10
123.85
20
-120.25
11
123.85
21
-119.8
0
LINE
8
Black
10
123.85
20
-119.8
11
125.2
21
-119.8
0
LINE
8
Black
10
125.2
20
-119.8
11
125.2
21
-120.25
0
LINE
8
Black
10
98.25
20
-120.25
11
97.65
21
-120.25
0
LINE
8
Black
10
97.65
20
-120.25
11
97.65
21
-119.15
0
LINE
8
Black
10
97.65
20
-119.15
11
98.25
21
-119.15
0
LINE
8
Black
10
98.25
20
-119.15
11
98.25
21
-120.25
0
LINE
8
Black
10
130.95
20
-120.25
11
129.6
21
-120.25
0
LINE
8
Black
10
129.6
20
-120.25
11
129.6
21
-119.8
0
LINE
8
Black
10
129.6
20
-119.8
11
130.95
21
-119.8
0
LINE
8
Black
10
130.95
20
-119.8
11
130.95
21
-120.25
0
LINE
8
Black
10
96.35
20
-120.25
11
95.75
21
-120.25
0
LINE
8
Black
10
95.75
20
-120.25
11
95.75
21
-119.15
0
LINE
8
Black
10
95.75
20
-119.15
11
96.35
21
-119.15
0
LINE
8
Black
10
96.35
20
-119.15
11
96.35
21
-120.25
0
LINE
8
Black
10
135.125
20
-120.075
11
133.675
21
-120.075
0
LINE
8
Black
10
133.675
20
-120.075
11
133.675
21
-118.925
0
LINE
8
Black
10
133.675
20
-118.925
11
135.125
21
-118.925
0
LINE
8
Black
10
135.125
20
-118.925
11
135.125
21
-120.075
0
LINE
8
Black
10
133.125
20
-120.075
11
131.675
21
-120.075
0
LINE
8
Black
10
131.675
20
-120.075
11
131.675
21
-118.925
0
LINE
8
Black
10
131.675
20
-118.925
11
133.125
21
-118.925
0
LINE
8
Black
10
133.125
20
-118.925
11
133.125
21
-120.075
0
LINE
8
Black
10
145.319
20
-119.412
11
144.112
21
-120.016
0
LINE
8
Black
10
144.112
20
-120.016
11
143.933
21
-119.659
0
LINE
8
Black
10
143.933
20
-119.659
11
145.14
21
-119.054
0
LINE
8
Black
10
145.14
20
-119.054
11
145.319
21
-119.412
0
LINE
8
Black
10
148.338
20
-118.851
11
146.639
21
-119.702
0
LINE
8
Black
10
146.639
20
-119.702
11
145.833
21
-118.092
0
LINE
8
Black
10
145.833
20
-118.092
11
147.532
21
-117.242
0
LINE
8
Black
10
147.532
20
-117.242
11
148.338
21
-118.851
0
LINE
8
Black
10
125.2
20
-119.6
11
123.85
21
-119.6
0
LINE
8
Black
10
123.85
20
-119.6
11
123.85
21
-119.15
0
LINE
8
Black
10
123.85
20
-119.15
11
125.2
21
-119.15
0
LINE
8
Black
10
125.2
20
-119.15
11
125.2
21
-119.6
0
LINE
8
Black
10
130.95
20
-119.6
11
129.6
21
-119.6
0
LINE
8
Black
10
129.6
20
-119.6
11
129.6
21
-119.15
0
LINE
8
Black
10
129.6
20
-119.15
11
130.95
21
-119.15
0
LINE
8
Black
10
130.95
20
-119.15
11
130.95
21
-119.6
0
LINE
8
Black
10
144.151
20
-118.31
11
144.31
21
-118.379
0
LINE
8
Black
10
144.31
20
-118.379
11
144.437
21
-118.499
0
LINE
8
Black
10
144.437
20
-118.499
11
144.514
21
-118.654
0
LINE
8
Black
10
144.514
20
-118.654
11
144.534
21
-118.826
0
LINE
8
Black
10
144.534
20
-118.826
11
144.494
21
-118.995
0
LINE
8
Black
10
144.494
20
-118.995
11
144.398
21
-119.14
0
LINE
8
Black
10
144.398
20
-119.14
11
144.259
21
-119.244
0
LINE
8
Black
10
144.259
20
-119.244
11
144.031
21
-119.358
0
LINE
8
Black
10
144.031
20
-119.358
11
143.865
21
-119.408
0
LINE
8
Black
10
143.865
20
-119.408
11
143.691
21
-119.397
0
LINE
8
Black
10
143.691
20
-119.397
11
143.532
21
-119.328
0
LINE
8
Black
10
143.532
20
-119.328
11
143.406
21
-119.209
0
LINE
8
Black
10
143.406
20
-119.209
11
143.328
21
-119.054
0
LINE
8
Black
10
143.328
20
-119.054
11
143.308
21
-118.881
0
LINE
8
Black
10
143.308
20
-118.881
11
143.348
21
-118.712
0
LINE
8
Black
10
143.348
20
-118.712
11
143.444
21
-118.567
0
LINE
8
Black
10
143.444
20
-118.567
11
143.583
21
-118.464
0
LINE
8
Black
10
143.583
20
-118.464
11
143.811
21
-118.35
0
LINE
8
Black
10
143.811
20
-118.35
11
143.978
21
-118.3
0
LINE
8
Black
10
143.978
20
-118.3
11
144.151
21
-118.31
0
LINE
8
Black
10
125.2
20
-118.95
11
123.85
21
-118.95
0
LINE
8
Black
10
123.85
20
-118.95
11
123.85
21
-118.5
0
LINE
8
Black
10
123.85
20
-118.5
11
125.2
21
-118.5
0
LINE
8
Black
10
125.2
20
-118.5
11
125.2
21
-118.95
0
LINE
8
Black
10
130.95
20
-118.95
11
129.6
21
-118.95
0
LINE
8
Black
10
129.6
20
-118.95
11
129.6
21
-118.5
0
LINE
8
Black
10
129.6
20
-118.5
11
130.95
21
-118.5
0
LINE
8
Black
10
130.95
20
-118.5
11
130.95
21
-118.95
0
LINE
8
Black
10
130.95
20
-118.3
11
129.6
21
-118.3
0
LINE
8
Black
10
129.6
20
-118.3
11
129.6
21
-117.85
0
LINE
8
Black
10
129.6
20
-117.85
11
130.95
21
-117.85
0
LINE
8
Black
10
130.95
20
-117.85
11
130.95
21
-118.3
0
LINE
8
Black
10
125.2
20
-118.3
11
123.85
21
-118.3
0
LINE
8
Black
10
123.85
20
-118.3
11
123.85
21
-117.85
0
LINE
8
Black
10
123.85
20
-117.85
11
125.2
21
-117.85
0
LINE
8
Black
10
125.2
20
-117.85
11
125.2
21
-118.3
0
LINE
8
Black
10
112.345
20
-117.875
11
111.745
21
-117.875
0
LINE
8
Black
10
111.745
20
-117.875
11
111.745
21
-116.325
0
LINE
8
Black
10
111.745
20
-116.325
11
112.345
21
-116.325
0
LINE
8
Black
10
112.345
20
-116.325
11
112.345
21
-117.875
0
LINE
8
Black
10
111.075
20
-117.875
11
110.475
21
-117.875
0
LINE
8
Black
10
110.475
20
-117.875
11
110.475
21
-116.325
0
LINE
8
Black
10
110.475
20
-116.325
11
111.075
21
-116.325
0
LINE
8
Black
10
111.075
20
-116.325
11
111.075
21
-117.875
0
LINE
8
Black
10
107.265
20
-117.875
11
106.665
21
-117.875
0
LINE
8
Black
10
106.665
20
-117.875
11
106.665
21
-116.325
0
LINE
8
Black
10
106.665
20
-116.325
11
107.265
21
-116.325
0
LINE
8
Black
10
107.265
20
-116.325
11
107.265
21
-117.875
0
LINE
8
Black
10
108.535
20
-117.875
11
107.935
21
-117.875
0
LINE
8
Black
10
107.935
20
-117.875
11
107.935
21
-116.325
0
LINE
8
Black
10
107.935
20
-116.325
11
108.535
21
-116.325
0
LINE
8
Black
10
108.535
20
-116.325
11
108.535
21
-117.875
0
LINE
8
Black
10
109.805
20
-117.875
11
109.205
21
-117.875
0
LINE
8
Black
10
109.205
20
-117.875
11
109.205
21
-116.325
0
LINE
8
Black
10
109.205
20
-116.325
11
109.805
21
-116.325
0
LINE
8
Black
10
109.805
20
-116.325
11
109.805
21
-117.875
0
LINE
8
Black
10
105.995
20
-117.875
11
105.395
21
-117.875
0
LINE
8
Black
10
105.395
20
-117.875
11
105.395
21
-116.325
0
LINE
8
Black
10
105.395
20
-116.325
11
105.995
21
-116.325
0
LINE
8
Black
10
105.995
20
-116.325
11
105.995
21
-117.875
0
LINE
8
Black
10
104.725
20
-117.875
11
104.125
21
-117.875
0
LINE
8
Black
10
104.125
20
-117.875
11
104.125
21
-116.325
0
LINE
8
Black
10
104.125
20
-116.325
11
104.725
21
-116.325
0
LINE
8
Black
10
104.725
20
-116.325
11
104.725
21
-117.875
0
LINE
8
Black
10
103.455
20
-117.875
11
102.855
21
-117.875
0
LINE
8
Black
10
102.855
20
-117.875
11
102.855
21
-116.325
0
LINE
8
Black
10
102.855
20
-116.325
11
103.455
21
-116.325
0
LINE
8
Black
10
103.455
20
-116.325
11
103.455
21
-117.875
0
LINE
8
Black
10
125.2
20
-117.65
11
123.85
21
-117.65
0
LINE
8
Black
10
123.85
20
-117.65
11
123.85
21
-117.2
0
LINE
8
Black
10
123.85
20
-117.2
11
125.2
21
-117.2
0
LINE
8
Black
10
125.2
20
-117.2
11
125.2
21
-117.65
0
LINE
8
Black
10
130.95
20
-117.65
11
129.6
21
-117.65
0
LINE
8
Black
10
129.6
20
-117.65
11
129.6
21
-117.2
0
LINE
8
Black
10
129.6
20
-117.2
11
130.95
21
-117.2
0
LINE
8
Black
10
130.95
20
-117.2
11
130.95
21
-117.65
0
LINE
8
Black
10
146.252
20
-115.077
11
146.411
21
-115.146
0
LINE
8
Black
10
146.411
20
-115.146
11
146.538
21
-115.266
0
LINE
8
Black
10
146.538
20
-115.266
11
146.577
21
-115.343
0
LINE
8
Black
10
146.577
20
-115.343
11
146.58
21
-115.342
0
LINE
8
Black
10
146.58
20
-115.342
11
147.285
21
-116.75
0
LINE
8
Black
10
147.285
20
-116.75
11
145.586
21
-117.601
0
LINE
8
Black
10
145.586
20
-117.601
11
144.881
21
-116.192
0
LINE
8
Black
10
144.881
20
-116.192
11
144.885
21
-116.191
0
LINE
8
Black
10
144.885
20
-116.191
11
144.846
21
-116.113
0
LINE
8
Black
10
144.846
20
-116.113
11
144.826
21
-115.94
0
LINE
8
Black
10
144.826
20
-115.94
11
144.866
21
-115.771
0
LINE
8
Black
10
144.866
20
-115.771
11
144.962
21
-115.626
0
LINE
8
Black
10
144.962
20
-115.626
11
145.101
21
-115.523
0
LINE
8
Black
10
145.101
20
-115.523
11
145.912
21
-115.117
0
LINE
8
Black
10
145.912
20
-115.117
11
146.079
21
-115.067
0
LINE
8
Black
10
146.079
20
-115.067
11
146.252
21
-115.077
0
LINE
8
Black
10
125.2
20
-117
11
123.85
21
-117
0
LINE
8
Black
10
123.85
20
-117
11
123.85
21
-116.55
0
LINE
8
Black
10
123.85
20
-116.55
11
125.2
21
-116.55
0
LINE
8
Black
10
125.2
20
-116.55
11
125.2
21
-117
0
LINE
8
Black
10
130.95
20
-117
11
129.6
21
-117
0
LINE
8
Black
10
129.6
20
-117
11
129.6
21
-116.55
0
LINE
8
Black
10
129.6
20
-116.55
11
130.95
21
-116.55
0
LINE
8
Black
10
130.95
20
-116.55
11
130.95
21
-117
0
LINE
8
Black
10
125.2
20
-116.35
11
123.85
21
-116.35
0
LINE
8
Black
10
123.85
20
-116.35
11
123.85
21
-115.9
0
LINE
8
Black
10
123.85
20
-115.9
11
125.2
21
-115.9
0
LINE
8
Black
10
125.2
20
-115.9
11
125.2
21
-116.35
0
LINE
8
Black
10
130.95
20
-116.35
11
129.6
21
-116.35
0
LINE
8
Black
10
129.6
20
-116.35
11
129.6
21
-115.9
0
LINE
8
Black
10
129.6
20
-115.9
11
130.95
21
-115.9
0
LINE
8
Black
10
130.95
20
-115.9
11
130.95
21
-116.35
0
LINE
8
Black
10
94.9933
20
-113.957
11
95.2952
21
-114.131
0
LINE
8
Black
10
95.2952
20
-114.131
11
95.5193
21
-114.398
0
LINE
8
Black
10
95.5193
20
-114.398
11
95.6386
21
-114.726
0
LINE
8
Black
10
95.6386
20
-114.726
11
95.6386
21
-115.074
0
LINE
8
Black
10
95.6386
20
-115.074
11
95.5193
21
-115.402
0
LINE
8
Black
10
95.5193
20
-115.402
11
95.2952
21
-115.669
0
LINE
8
Black
10
95.2952
20
-115.669
11
94.9933
21
-115.843
0
LINE
8
Black
10
94.9933
20
-115.843
11
94.65
21
-115.904
0
LINE
8
Black
10
94.65
20
-115.904
11
94.3067
21
-115.843
0
LINE
8
Black
10
94.3067
20
-115.843
11
94.0048
21
-115.669
0
LINE
8
Black
10
94.0048
20
-115.669
11
93.7807
21
-115.402
0
LINE
8
Black
10
93.7807
20
-115.402
11
93.6614
21
-115.074
0
LINE
8
Black
10
93.6614
20
-115.074
11
93.6614
21
-114.726
0
LINE
8
Black
10
93.6614
20
-114.726
11
93.7807
21
-114.398
0
LINE
8
Black
10
93.7807
20
-114.398
11
94.0048
21
-114.131
0
LINE
8
Black
10
94.0048
20
-114.131
11
94.3067
21
-113.957
0
LINE
8
Black
10
94.3067
20
-113.957
11
94.65
21
-113.896
0
LINE
8
Black
10
94.65
20
-113.896
11
94.9933
21
-113.957
0
LINE
8
Black
10
139.693
20
-113.957
11
139.995
21
-114.131
0
LINE
8
Black
10
139.995
20
-114.131
11
140.219
21
-114.398
0
LINE
8
Black
10
140.219
20
-114.398
11
140.339
21
-114.726
0
LINE
8
Black
10
140.339
20
-114.726
11
140.339
21
-115.074
0
LINE
8
Black
10
140.339
20
-115.074
11
140.219
21
-115.402
0
LINE
8
Black
10
140.219
20
-115.402
11
139.995
21
-115.669
0
LINE
8
Black
10
139.995
20
-115.669
11
139.693
21
-115.843
0
LINE
8
Black
10
139.693
20
-115.843
11
139.35
21
-115.904
0
LINE
8
Black
10
139.35
20
-115.904
11
139.007
21
-115.843
0
LINE
8
Black
10
139.007
20
-115.843
11
138.705
21
-115.669
0
LINE
8
Black
10
138.705
20
-115.669
11
138.481
21
-115.402
0
LINE
8
Black
10
138.481
20
-115.402
11
138.361
21
-115.074
0
LINE
8
Black
10
138.361
20
-115.074
11
138.361
21
-114.726
0
LINE
8
Black
10
138.361
20
-114.726
11
138.481
21
-114.398
0
LINE
8
Black
10
138.481
20
-114.398
11
138.705
21
-114.131
0
LINE
8
Black
10
138.705
20
-114.131
11
139.007
21
-113.957
0
LINE
8
Black
10
139.007
20
-113.957
11
139.35
21
-113.896
0
LINE
8
Black
10
139.35
20
-113.896
11
139.693
21
-113.957
0
LINE
8
Black
10
125.2
20
-115.7
11
123.85
21
-115.7
0
LINE
8
Black
10
123.85
20
-115.7
11
123.85
21
-115.25
0
LINE
8
Black
10
123.85
20
-115.25
11
125.2
21
-115.25
0
LINE
8
Black
10
125.2
20
-115.25
11
125.2
21
-115.7
0
LINE
8
Black
10
130.95
20
-115.7
11
129.6
21
-115.7
0
LINE
8
Black
10
129.6
20
-115.7
11
129.6
21
-115.25
0
LINE
8
Black
10
129.6
20
-115.25
11
130.95
21
-115.25
0
LINE
8
Black
10
130.95
20
-115.25
11
130.95
21
-115.7
0
LINE
8
Black
10
130.95
20
-115.05
11
129.6
21
-115.05
0
LINE
8
Black
10
129.6
20
-115.05
11
129.6
21
-114.6
0
LINE
8
Black
10
129.6
20
-114.6
11
130.95
21
-114.6
0
LINE
8
Black
10
130.95
20
-114.6
11
130.95
21
-115.05
0
LINE
8
Black
10
125.2
20
-115.05
11
123.85
21
-115.05
0
LINE
8
Black
10
123.85
20
-115.05
11
123.85
21
-114.6
0
LINE
8
Black
10
123.85
20
-114.6
11
125.2
21
-114.6
0
LINE
8
Black
10
125.2
20
-114.6
11
125.2
21
-115.05
0
LINE
8
Black
10
126.475
20
-113.725
11
125.325
21
-113.725
0
LINE
8
Black
10
125.325
20
-113.725
11
125.325
21
-112.275
0
LINE
8
Black
10
125.325
20
-112.275
11
126.475
21
-112.275
0
LINE
8
Black
10
126.475
20
-112.275
11
126.475
21
-113.725
0
LINE
8
Black
10
124.675
20
-113.725
11
123.525
21
-113.725
0
LINE
8
Black
10
123.525
20
-113.725
11
123.525
21
-112.275
0
LINE
8
Black
10
123.525
20
-112.275
11
124.675
21
-112.275
0
LINE
8
Black
10
124.675
20
-112.275
11
124.675
21
-113.725
0
LINE
8
Black
10
111.075
20
-112.475
11
110.475
21
-112.475
0
LINE
8
Black
10
110.475
20
-112.475
11
110.475
21
-110.925
0
LINE
8
Black
10
110.475
20
-110.925
11
111.075
21
-110.925
0
LINE
8
Black
10
111.075
20
-110.925
11
111.075
21
-112.475
0
LINE
8
Black
10
112.345
20
-112.475
11
111.745
21
-112.475
0
LINE
8
Black
10
111.745
20
-112.475
11
111.745
21
-110.925
0
LINE
8
Black
10
111.745
20
-110.925
11
112.345
21
-110.925
0
LINE
8
Black
10
112.345
20
-110.925
11
112.345
21
-112.475
0
LINE
8
Black
10
104.725
20
-112.475
11
104.125
21
-112.475
0
LINE
8
Black
10
104.125
20
-112.475
11
104.125
21
-110.925
0
LINE
8
Black
10
104.125
20
-110.925
11
104.725
21
-110.925
0
LINE
8
Black
10
104.725
20
-110.925
11
104.725
21
-112.475
0
LINE
8
Black
10
103.455
20
-112.475
11
102.855
21
-112.475
0
LINE
8
Black
10
102.855
20
-112.475
11
102.855
21
-110.925
0
LINE
8
Black
10
102.855
20
-110.925
11
103.455
21
-110.925
0
LINE
8
Black
10
103.455
20
-110.925
11
103.455
21
-112.475
0
LINE
8
Black
10
109.805
20
-112.475
11
109.205
21
-112.475
0
LINE
8
Black
10
109.205
20
-112.475
11
109.205
21
-110.925
0
LINE
8
Black
10
109.205
20
-110.925
11
109.805
21
-110.925
0
LINE
8
Black
10
109.805
20
-110.925
11
109.805
21
-112.475
0
LINE
8
Black
10
108.535
20
-112.475
11
107.935
21
-112.475
0
LINE
8
Black
10
107.935
20
-112.475
11
107.935
21
-110.925
0
LINE
8
Black
10
107.935
20
-110.925
11
108.535
21
-110.925
0
LINE
8
Black
10
108.535
20
-110.925
11
108.535
21
-112.475
0
LINE
8
Black
10
107.265
20
-112.475
11
106.665
21
-112.475
0
LINE
8
Black
10
106.665
20
-112.475
11
106.665
21
-110.925
0
LINE
8
Black
10
106.665
20
-110.925
11
107.265
21
-110.925
0
LINE
8
Black
10
107.265
20
-110.925
11
107.265
21
-112.475
0
LINE
8
Black
10
105.995
20
-112.475
11
105.395
21
-112.475
0
LINE
8
Black
10
105.395
20
-112.475
11
105.395
21
-110.925
0
LINE
8
Black
10
105.395
20
-110.925
11
105.995
21
-110.925
0
LINE
8
Black
10
105.995
20
-110.925
11
105.995
21
-112.475
0
LINE
8
Black
10
131.537
20
-111.468
11
131.688
21
-111.556
0
LINE
8
Black
10
131.688
20
-111.556
11
131.8
21
-111.689
0
LINE
8
Black
10
131.8
20
-111.689
11
131.859
21
-111.853
0
LINE
8
Black
10
131.859
20
-111.853
11
131.859
21
-112.027
0
LINE
8
Black
10
131.859
20
-112.027
11
131.8
21
-112.191
0
LINE
8
Black
10
131.8
20
-112.191
11
131.688
21
-112.324
0
LINE
8
Black
10
131.688
20
-112.324
11
131.537
21
-112.412
0
LINE
8
Black
10
131.537
20
-112.412
11
131.365
21
-112.442
0
LINE
8
Black
10
131.365
20
-112.442
11
131.193
21
-112.412
0
LINE
8
Black
10
131.193
20
-112.412
11
131.042
21
-112.324
0
LINE
8
Black
10
131.042
20
-112.324
11
130.93
21
-112.191
0
LINE
8
Black
10
130.93
20
-112.191
11
130.871
21
-112.027
0
LINE
8
Black
10
130.871
20
-112.027
11
130.871
21
-111.853
0
LINE
8
Black
10
130.871
20
-111.853
11
130.93
21
-111.689
0
LINE
8
Black
10
130.93
20
-111.689
11
131.042
21
-111.556
0
LINE
8
Black
10
131.042
20
-111.556
11
131.193
21
-111.468
0
LINE
8
Black
10
131.193
20
-111.468
11
131.365
21
-111.438
0
LINE
8
Black
10
131.365
20
-111.438
11
131.537
21
-111.468
0
LINE
8
Black
10
100.725
20
-112.075
11
99.275
21
-112.075
0
LINE
8
Black
10
99.275
20
-112.075
11
99.275
21
-110.925
0
LINE
8
Black
10
99.275
20
-110.925
11
100.725
21
-110.925
0
LINE
8
Black
10
100.725
20
-110.925
11
100.725
21
-112.075
0
LINE
8
Black
10
94.45
20
-111.2
11
92.75
21
-111.2
0
LINE
8
Black
10
92.75
20
-111.2
11
92.75
21
-110.4
0
LINE
8
Black
10
92.75
20
-110.4
11
94.45
21
-110.4
0
LINE
8
Black
10
94.45
20
-110.4
11
94.45
21
-111.2
0
LINE
8
Black
10
132.135
20
-110.299
11
132.254
21
-110.367
0
LINE
8
Black
10
132.254
20
-110.367
11
132.342
21
-110.472
0
LINE
8
Black
10
132.342
20
-110.472
11
132.389
21
-110.601
0
LINE
8
Black
10
132.389
20
-110.601
11
132.389
21
-110.739
0
LINE
8
Black
10
132.389
20
-110.739
11
132.342
21
-110.868
0
LINE
8
Black
10
132.342
20
-110.868
11
132.254
21
-110.973
0
LINE
8
Black
10
132.254
20
-110.973
11
132.135
21
-111.041
0
LINE
8
Black
10
132.135
20
-111.041
11
132
21
-111.065
0
LINE
8
Black
10
132
20
-111.065
11
131.865
21
-111.041
0
LINE
8
Black
10
131.865
20
-111.041
11
131.746
21
-110.973
0
LINE
8
Black
10
131.746
20
-110.973
11
131.658
21
-110.868
0
LINE
8
Black
10
131.658
20
-110.868
11
131.611
21
-110.739
0
LINE
8
Black
10
131.611
20
-110.739
11
131.611
21
-110.601
0
LINE
8
Black
10
131.611
20
-110.601
11
131.658
21
-110.472
0
LINE
8
Black
10
131.658
20
-110.472
11
131.746
21
-110.367
0
LINE
8
Black
10
131.746
20
-110.367
11
131.865
21
-110.299
0
LINE
8
Black
10
131.865
20
-110.299
11
132
21
-110.275
0
LINE
8
Black
10
132
20
-110.275
11
132.135
21
-110.299
0
LINE
8
Black
10
130.865
20
-110.299
11
130.984
21
-110.367
0
LINE
8
Black
10
130.984
20
-110.367
11
131.072
21
-110.472
0
LINE
8
Black
10
131.072
20
-110.472
11
131.119
21
-110.601
0
LINE
8
Black
10
131.119
20
-110.601
11
131.119
21
-110.739
0
LINE
8
Black
10
131.119
20
-110.739
11
131.072
21
-110.868
0
LINE
8
Black
10
131.072
20
-110.868
11
130.984
21
-110.973
0
LINE
8
Black
10
130.984
20
-110.973
11
130.865
21
-111.041
0
LINE
8
Black
10
130.865
20
-111.041
11
130.73
21
-111.065
0
LINE
8
Black
10
130.73
20
-111.065
11
130.595
21
-111.041
0
LINE
8
Black
10
130.595
20
-111.041
11
130.476
21
-110.973
0
LINE
8
Black
10
130.476
20
-110.973
11
130.388
21
-110.868
0
LINE
8
Black
10
130.388
20
-110.868
11
130.341
21
-110.739
0
LINE
8
Black
10
130.341
20
-110.739
11
130.341
21
-110.601
0
LINE
8
Black
10
130.341
20
-110.601
11
130.388
21
-110.472
0
LINE
8
Black
10
130.388
20
-110.472
11
130.476
21
-110.367
0
LINE
8
Black
10
130.476
20
-110.367
11
130.595
21
-110.299
0
LINE
8
Black
10
130.595
20
-110.299
11
130.73
21
-110.275
0
LINE
8
Black
10
130.73
20
-110.275
11
130.865
21
-110.299
0
LINE
8
Black
10
98.475
20
-111
11
97.525
21
-111
0
LINE
8
Black
10
97.525
20
-111
11
97.525
21
-110.6
0
LINE
8
Black
10
97.525
20
-110.6
11
98.475
21
-110.6
0
LINE
8
Black
10
98.475
20
-110.6
11
98.475
21
-111
0
LINE
8
Black
10
96.275
20
-111
11
95.325
21
-111
0
LINE
8
Black
10
95.325
20
-111
11
95.325
21
-110.6
0
LINE
8
Black
10
95.325
20
-110.6
11
96.275
21
-110.6
0
LINE
8
Black
10
96.275
20
-110.6
11
96.275
21
-111
0
LINE
8
Black
10
96.275
20
-110.35
11
95.325
21
-110.35
0
LINE
8
Black
10
95.325
20
-110.35
11
95.325
21
-109.95
0
LINE
8
Black
10
95.325
20
-109.95
11
96.275
21
-109.95
0
LINE
8
Black
10
96.275
20
-109.95
11
96.275
21
-110.35
0
LINE
8
Black
10
98.475
20
-110.35
11
97.525
21
-110.35
0
LINE
8
Black
10
97.525
20
-110.35
11
97.525
21
-109.95
0
LINE
8
Black
10
97.525
20
-109.95
11
98.475
21
-109.95
0
LINE
8
Black
10
98.475
20
-109.95
11
98.475
21
-110.35
0
LINE
8
Black
10
100.725
20
-110.275
11
99.275
21
-110.275
0
LINE
8
Black
10
99.275
20
-110.275
11
99.275
21
-109.125
0
LINE
8
Black
10
99.275
20
-109.125
11
100.725
21
-109.125
0
LINE
8
Black
10
100.725
20
-109.125
11
100.725
21
-110.275
0
LINE
8
Black
10
130.865
20
-109.029
11
130.984
21
-109.097
0
LINE
8
Black
10
130.984
20
-109.097
11
131.072
21
-109.202
0
LINE
8
Black
10
131.072
20
-109.202
11
131.119
21
-109.331
0
LINE
8
Black
10
131.119
20
-109.331
11
131.119
21
-109.469
0
LINE
8
Black
10
131.119
20
-109.469
11
131.072
21
-109.598
0
LINE
8
Black
10
131.072
20
-109.598
11
130.984
21
-109.703
0
LINE
8
Black
10
130.984
20
-109.703
11
130.865
21
-109.771
0
LINE
8
Black
10
130.865
20
-109.771
11
130.73
21
-109.795
0
LINE
8
Black
10
130.73
20
-109.795
11
130.595
21
-109.771
0
LINE
8
Black
10
130.595
20
-109.771
11
130.476
21
-109.703
0
LINE
8
Black
10
130.476
20
-109.703
11
130.388
21
-109.598
0
LINE
8
Black
10
130.388
20
-109.598
11
130.341
21
-109.469
0
LINE
8
Black
10
130.341
20
-109.469
11
130.341
21
-109.331
0
LINE
8
Black
10
130.341
20
-109.331
11
130.388
21
-109.202
0
LINE
8
Black
10
130.388
20
-109.202
11
130.476
21
-109.097
0
LINE
8
Black
10
130.476
20
-109.097
11
130.595
21
-109.029
0
LINE
8
Black
10
130.595
20
-109.029
11
130.73
21
-109.005
0
LINE
8
Black
10
130.73
20
-109.005
11
130.865
21
-109.029
0
LINE
8
Black
10
132.135
20
-109.029
11
132.254
21
-109.097
0
LINE
8
Black
10
132.254
20
-109.097
11
132.342
21
-109.202
0
LINE
8
Black
10
132.342
20
-109.202
11
132.389
21
-109.331
0
LINE
8
Black
10
132.389
20
-109.331
11
132.389
21
-109.469
0
LINE
8
Black
10
132.389
20
-109.469
11
132.342
21
-109.598
0
LINE
8
Black
10
132.342
20
-109.598
11
132.254
21
-109.703
0
LINE
8
Black
10
132.254
20
-109.703
11
132.135
21
-109.771
0
LINE
8
Black
10
132.135
20
-109.771
11
132
21
-109.795
0
LINE
8
Black
10
132
20
-109.795
11
131.865
21
-109.771
0
LINE
8
Black
10
131.865
20
-109.771
11
131.746
21
-109.703
0
LINE
8
Black
10
131.746
20
-109.703
11
131.658
21
-109.598
0
LINE
8
Black
10
131.658
20
-109.598
11
131.611
21
-109.469
0
LINE
8
Black
10
131.611
20
-109.469
11
131.611
21
-109.331
0
LINE
8
Black
10
131.611
20
-109.331
11
131.658
21
-109.202
0
LINE
8
Black
10
131.658
20
-109.202
11
131.746
21
-109.097
0
LINE
8
Black
10
131.746
20
-109.097
11
131.865
21
-109.029
0
LINE
8
Black
10
131.865
20
-109.029
11
132
21
-109.005
0
LINE
8
Black
10
132
20
-109.005
11
132.135
21
-109.029
0
LINE
8
Black
10
96.275
20
-109.7
11
95.325
21
-109.7
0
LINE
8
Black
10
95.325
20
-109.7
11
95.325
21
-109.3
0
LINE
8
Black
10
95.325
20
-109.3
11
96.275
21
-109.3
0
LINE
8
Black
10
96.275
20
-109.3
11
96.275
21
-109.7
0
LINE
8
Black
10
98.475
20
-109.7
11
97.525
21
-109.7
0
LINE
8
Black
10
97.525
20
-109.7
11
97.525
21
-109.3
0
LINE
8
Black
10
97.525
20
-109.3
11
98.475
21
-109.3
0
LINE
8
Black
10
98.475
20
-109.3
11
98.475
21
-109.7
0
LINE
8
Black
10
94.45
20
-109.7
11
92.75
21
-109.7
0
LINE
8
Black
10
92.75
20
-109.7
11
92.75
21
-108.9
0
LINE
8
Black
10
92.75
20
-108.9
11
94.45
21
-108.9
0
LINE
8
Black
10
94.45
20
-108.9
11
94.45
21
-109.7
0
LINE
8
Black
10
130.865
20
-107.759
11
130.984
21
-107.827
0
LINE
8
Black
10
130.984
20
-107.827
11
131.072
21
-107.932
0
LINE
8
Black
10
131.072
20
-107.932
11
131.119
21
-108.061
0
LINE
8
Black
10
131.119
20
-108.061
11
131.119
21
-108.199
0
LINE
8
Black
10
131.119
20
-108.199
11
131.072
21
-108.328
0
LINE
8
Black
10
131.072
20
-108.328
11
130.984
21
-108.433
0
LINE
8
Black
10
130.984
20
-108.433
11
130.865
21
-108.501
0
LINE
8
Black
10
130.865
20
-108.501
11
130.73
21
-108.525
0
LINE
8
Black
10
130.73
20
-108.525
11
130.595
21
-108.501
0
LINE
8
Black
10
130.595
20
-108.501
11
130.476
21
-108.433
0
LINE
8
Black
10
130.476
20
-108.433
11
130.388
21
-108.328
0
LINE
8
Black
10
130.388
20
-108.328
11
130.341
21
-108.199
0
LINE
8
Black
10
130.341
20
-108.199
11
130.341
21
-108.061
0
LINE
8
Black
10
130.341
20
-108.061
11
130.388
21
-107.932
0
LINE
8
Black
10
130.388
20
-107.932
11
130.476
21
-107.827
0
LINE
8
Black
10
130.476
20
-107.827
11
130.595
21
-107.759
0
LINE
8
Black
10
130.595
20
-107.759
11
130.73
21
-107.735
0
LINE
8
Black
10
130.73
20
-107.735
11
130.865
21
-107.759
0
LINE
8
Black
10
132.135
20
-107.759
11
132.254
21
-107.827
0
LINE
8
Black
10
132.254
20
-107.827
11
132.342
21
-107.932
0
LINE
8
Black
10
132.342
20
-107.932
11
132.389
21
-108.061
0
LINE
8
Black
10
132.389
20
-108.061
11
132.389
21
-108.199
0
LINE
8
Black
10
132.389
20
-108.199
11
132.342
21
-108.328
0
LINE
8
Black
10
132.342
20
-108.328
11
132.254
21
-108.433
0
LINE
8
Black
10
132.254
20
-108.433
11
132.135
21
-108.501
0
LINE
8
Black
10
132.135
20
-108.501
11
132
21
-108.525
0
LINE
8
Black
10
132
20
-108.525
11
131.865
21
-108.501
0
LINE
8
Black
10
131.865
20
-108.501
11
131.746
21
-108.433
0
LINE
8
Black
10
131.746
20
-108.433
11
131.658
21
-108.328
0
LINE
8
Black
10
131.658
20
-108.328
11
131.611
21
-108.199
0
LINE
8
Black
10
131.611
20
-108.199
11
131.611
21
-108.061
0
LINE
8
Black
10
131.611
20
-108.061
11
131.658
21
-107.932
0
LINE
8
Black
10
131.658
20
-107.932
11
131.746
21
-107.827
0
LINE
8
Black
10
131.746
20
-107.827
11
131.865
21
-107.759
0
LINE
8
Black
10
131.865
20
-107.759
11
132
21
-107.735
0
LINE
8
Black
10
132
20
-107.735
11
132.135
21
-107.759
0
LINE
8
Black
10
96.575
20
-108.325
11
95.425
21
-108.325
0
LINE
8
Black
10
95.425
20
-108.325
11
95.425
21
-106.875
0
LINE
8
Black
10
95.425
20
-106.875
11
96.575
21
-106.875
0
LINE
8
Black
10
96.575
20
-106.875
11
96.575
21
-108.325
0
LINE
8
Black
10
98.375
20
-108.325
11
97.225
21
-108.325
0
LINE
8
Black
10
97.225
20
-108.325
11
97.225
21
-106.875
0
LINE
8
Black
10
97.225
20
-106.875
11
98.375
21
-106.875
0
LINE
8
Black
10
98.375
20
-106.875
11
98.375
21
-108.325
0
LINE
8
Black
10
132.553
20
-106.388
11
132.704
21
-106.476
0
LINE
8
Black
10
132.704
20
-106.476
11
132.816
21
-106.609
0
LINE
8
Black
10
132.816
20
-106.609
11
132.875
21
-106.773
0
LINE
8
Black
10
132.875
20
-106.773
11
132.875
21
-106.947
0
LINE
8
Black
10
132.875
20
-106.947
11
132.816
21
-107.111
0
LINE
8
Black
10
132.816
20
-107.111
11
132.704
21
-107.244
0
LINE
8
Black
10
132.704
20
-107.244
11
132.553
21
-107.332
0
LINE
8
Black
10
132.553
20
-107.332
11
132.381
21
-107.362
0
LINE
8
Black
10
132.381
20
-107.362
11
132.209
21
-107.332
0
LINE
8
Black
10
132.209
20
-107.332
11
132.058
21
-107.244
0
LINE
8
Black
10
132.058
20
-107.244
11
131.946
21
-107.111
0
LINE
8
Black
10
131.946
20
-107.111
11
131.887
21
-106.947
0
LINE
8
Black
10
131.887
20
-106.947
11
131.887
21
-106.773
0
LINE
8
Black
10
131.887
20
-106.773
11
131.946
21
-106.609
0
LINE
8
Black
10
131.946
20
-106.609
11
132.058
21
-106.476
0
LINE
8
Black
10
132.058
20
-106.476
11
132.209
21
-106.388
0
LINE
8
Black
10
132.209
20
-106.388
11
132.381
21
-106.358
0
LINE
8
Black
10
132.381
20
-106.358
11
132.553
21
-106.388
0
LINE
8
Black
10
130.521
20
-106.388
11
130.672
21
-106.476
0
LINE
8
Black
10
130.672
20
-106.476
11
130.784
21
-106.609
0
LINE
8
Black
10
130.784
20
-106.609
11
130.843
21
-106.773
0
LINE
8
Black
10
130.843
20
-106.773
11
130.843
21
-106.947
0
LINE
8
Black
10
130.843
20
-106.947
11
130.784
21
-107.111
0
LINE
8
Black
10
130.784
20
-107.111
11
130.672
21
-107.244
0
LINE
8
Black
10
130.672
20
-107.244
11
130.521
21
-107.332
0
LINE
8
Black
10
130.521
20
-107.332
11
130.349
21
-107.362
0
LINE
8
Black
10
130.349
20
-107.362
11
130.177
21
-107.332
0
LINE
8
Black
10
130.177
20
-107.332
11
130.026
21
-107.244
0
LINE
8
Black
10
130.026
20
-107.244
11
129.914
21
-107.111
0
LINE
8
Black
10
129.914
20
-107.111
11
129.855
21
-106.947
0
LINE
8
Black
10
129.855
20
-106.947
11
129.855
21
-106.773
0
LINE
8
Black
10
129.855
20
-106.773
11
129.914
21
-106.609
0
LINE
8
Black
10
129.914
20
-106.609
11
130.026
21
-106.476
0
LINE
8
Black
10
130.026
20
-106.476
11
130.177
21
-106.388
0
LINE
8
Black
10
130.177
20
-106.388
11
130.349
21
-106.358
0
LINE
8
Black
10
130.349
20
-106.358
11
130.521
21
-106.388
0
LINE
8
Black
10
101.643
20
-104.357
11
101.945
21
-104.531
0
LINE
8
Black
10
101.945
20
-104.531
11
102.169
21
-104.798
0
LINE
8
Black
10
102.169
20
-104.798
11
102.289
21
-105.126
0
LINE
8
Black
10
102.289
20
-105.126
11
102.289
21
-105.474
0
LINE
8
Black
10
102.289
20
-105.474
11
102.169
21
-105.802
0
LINE
8
Black
10
102.169
20
-105.802
11
101.945
21
-106.069
0
LINE
8
Black
10
101.945
20
-106.069
11
101.643
21
-106.243
0
LINE
8
Black
10
101.643
20
-106.243
11
101.3
21
-106.304
0
LINE
8
Black
10
101.3
20
-106.304
11
100.957
21
-106.243
0
LINE
8
Black
10
100.957
20
-106.243
11
100.655
21
-106.069
0
LINE
8
Black
10
100.655
20
-106.069
11
100.431
21
-105.802
0
LINE
8
Black
10
100.431
20
-105.802
11
100.311
21
-105.474
0
LINE
8
Black
10
100.311
20
-105.474
11
100.311
21
-105.126
0
LINE
8
Black
10
100.311
20
-105.126
11
100.431
21
-104.798
0
LINE
8
Black
10
100.431
20
-104.798
11
100.655
21
-104.531
0
LINE
8
Black
10
100.655
20
-104.531
11
100.957
21
-104.357
0
LINE
8
Black
10
100.957
20
-104.357
11
101.3
21
-104.296
0
LINE
8
Black
10
101.3
20
-104.296
11
101.643
21
-104.357
0
LINE
8
Black
10
109.843
20
-104.357
11
110.145
21
-104.531
0
LINE
8
Black
10
110.145
20
-104.531
11
110.369
21
-104.798
0
LINE
8
Black
10
110.369
20
-104.798
11
110.489
21
-105.126
0
LINE
8
Black
10
110.489
20
-105.126
11
110.489
21
-105.474
0
LINE
8
Black
10
110.489
20
-105.474
11
110.369
21
-105.802
0
LINE
8
Black
10
110.369
20
-105.802
11
110.145
21
-106.069
0
LINE
8
Black
10
110.145
20
-106.069
11
109.843
21
-106.243
0
LINE
8
Black
10
109.843
20
-106.243
11
109.5
21
-106.304
0
LINE
8
Black
10
109.5
20
-106.304
11
109.157
21
-106.243
0
LINE
8
Black
10
109.157
20
-106.243
11
108.855
21
-106.069
0
LINE
8
Black
10
108.855
20
-106.069
11
108.631
21
-105.802
0
LINE
8
Black
10
108.631
20
-105.802
11
108.511
21
-105.474
0
LINE
8
Black
10
108.511
20
-105.474
11
108.511
21
-105.126
0
LINE
8
Black
10
108.511
20
-105.126
11
108.631
21
-104.798
0
LINE
8
Black
10
108.631
20
-104.798
11
108.855
21
-104.531
0
LINE
8
Black
10
108.855
20
-104.531
11
109.157
21
-104.357
0
LINE
8
Black
10
109.157
20
-104.357
11
109.5
21
-104.296
0
LINE
8
Black
10
109.5
20
-104.296
11
109.843
21
-104.357
0
LINE
8
Black
10
107.675
20
-104.545
11
107.916
21
-104.685
0
LINE
8
Black
10
107.916
20
-104.685
11
108.095
21
-104.898
0
LINE
8
Black
10
108.095
20
-104.898
11
108.191
21
-105.161
0
LINE
8
Black
10
108.191
20
-105.161
11
108.191
21
-105.439
0
LINE
8
Black
10
108.191
20
-105.439
11
108.095
21
-105.702
0
LINE
8
Black
10
108.095
20
-105.702
11
107.916
21
-105.915
0
LINE
8
Black
10
107.916
20
-105.915
11
107.675
21
-106.055
0
LINE
8
Black
10
107.675
20
-106.055
11
107.4
21
-106.103
0
LINE
8
Black
10
107.4
20
-106.103
11
107.125
21
-106.055
0
LINE
8
Black
10
107.125
20
-106.055
11
106.884
21
-105.915
0
LINE
8
Black
10
106.884
20
-105.915
11
106.705
21
-105.702
0
LINE
8
Black
10
106.705
20
-105.702
11
106.609
21
-105.439
0
LINE
8
Black
10
106.609
20
-105.439
11
106.609
21
-105.161
0
LINE
8
Black
10
106.609
20
-105.161
11
106.705
21
-104.898
0
LINE
8
Black
10
106.705
20
-104.898
11
106.884
21
-104.685
0
LINE
8
Black
10
106.884
20
-104.685
11
107.125
21
-104.545
0
LINE
8
Black
10
107.125
20
-104.545
11
107.4
21
-104.497
0
LINE
8
Black
10
107.4
20
-104.497
11
107.675
21
-104.545
0
LINE
8
Black
10
103.675
20
-104.545
11
103.916
21
-104.685
0
LINE
8
Black
10
103.916
20
-104.685
11
104.095
21
-104.898
0
LINE
8
Black
10
104.095
20
-104.898
11
104.191
21
-105.161
0
LINE
8
Black
10
104.191
20
-105.161
11
104.191
21
-105.439
0
LINE
8
Black
10
104.191
20
-105.439
11
104.095
21
-105.702
0
LINE
8
Black
10
104.095
20
-105.702
11
103.916
21
-105.915
0
LINE
8
Black
10
103.916
20
-105.915
11
103.675
21
-106.055
0
LINE
8
Black
10
103.675
20
-106.055
11
103.4
21
-106.103
0
LINE
8
Black
10
103.4
20
-106.103
11
103.125
21
-106.055
0
LINE
8
Black
10
103.125
20
-106.055
11
102.884
21
-105.915
0
LINE
8
Black
10
102.884
20
-105.915
11
102.705
21
-105.702
0
LINE
8
Black
10
102.705
20
-105.702
11
102.609
21
-105.439
0
LINE
8
Black
10
102.609
20
-105.439
11
102.609
21
-105.161
0
LINE
8
Black
10
102.609
20
-105.161
11
102.705
21
-104.898
0
LINE
8
Black
10
102.705
20
-104.898
11
102.884
21
-104.685
0
LINE
8
Black
10
102.884
20
-104.685
11
103.125
21
-104.545
0
LINE
8
Black
10
103.125
20
-104.545
11
103.4
21
-104.497
0
LINE
8
Black
10
103.4
20
-104.497
11
103.675
21
-104.545
0
LINE
8
Black
10
105.675
20
-104.545
11
105.916
21
-104.685
0
LINE
8
Black
10
105.916
20
-104.685
11
106.095
21
-104.898
0
LINE
8
Black
10
106.095
20
-104.898
11
106.191
21
-105.161
0
LINE
8
Black
10
106.191
20
-105.161
11
106.191
21
-105.439
0
LINE
8
Black
10
106.191
20
-105.439
11
106.095
21
-105.702
0
LINE
8
Black
10
106.095
20
-105.702
11
105.916
21
-105.915
0
LINE
8
Black
10
105.916
20
-105.915
11
105.675
21
-106.055
0
LINE
8
Black
10
105.675
20
-106.055
11
105.4
21
-106.103
0
LINE
8
Black
10
105.4
20
-106.103
11
105.125
21
-106.055
0
LINE
8
Black
10
105.125
20
-106.055
11
104.884
21
-105.915
0
LINE
8
Black
10
104.884
20
-105.915
11
104.705
21
-105.702
0
LINE
8
Black
10
104.705
20
-105.702
11
104.609
21
-105.439
0
LINE
8
Black
10
104.609
20
-105.439
11
104.609
21
-105.161
0
LINE
8
Black
10
104.609
20
-105.161
11
104.705
21
-104.898
0
LINE
8
Black
10
104.705
20
-104.898
11
104.884
21
-104.685
0
LINE
8
Black
10
104.884
20
-104.685
11
105.125
21
-104.545
0
LINE
8
Black
10
105.125
20
-104.545
11
105.4
21
-104.497
0
LINE
8
Black
10
105.4
20
-104.497
11
105.675
21
-104.545
0
LINE
8
Black
10
137.675
20
-105.725
11
136.525
21
-105.725
0
LINE
8
Black
10
136.525
20
-105.725
11
136.525
21
-104.275
0
LINE
8
Black
10
136.525
20
-104.275
11
137.675
21
-104.275
0
LINE
8
Black
10
137.675
20
-104.275
11
137.675
21
-105.725
0
LINE
8
Black
10
139.475
20
-105.725
11
138.325
21
-105.725
0
LINE
8
Black
10
138.325
20
-105.725
11
138.325
21
-104.275
0
LINE
8
Black
10
138.325
20
-104.275
11
139.475
21
-104.275
0
LINE
8
Black
10
139.475
20
-104.275
11
139.475
21
-105.725
0
LINE
8
Black
10
97.475
20
-105.725
11
96.325
21
-105.725
0
LINE
8
Black
10
96.325
20
-105.725
11
96.325
21
-104.275
0
LINE
8
Black
10
96.325
20
-104.275
11
97.475
21
-104.275
0
LINE
8
Black
10
97.475
20
-104.275
11
97.475
21
-105.725
0
LINE
8
Black
10
95.675
20
-105.725
11
94.525
21
-105.725
0
LINE
8
Black
10
94.525
20
-105.725
11
94.525
21
-104.275
0
LINE
8
Black
10
94.525
20
-104.275
11
95.675
21
-104.275
0
LINE
8
Black
10
95.675
20
-104.275
11
95.675
21
-105.725
0
LINE
8
Black
10
92.975
20
-104.05
11
92.175
21
-104.05
0
LINE
8
Black
10
92.175
20
-104.05
11
92.175
21
-103.25
0
LINE
8
Black
10
92.175
20
-103.25
11
92.975
21
-103.25
0
LINE
8
Black
10
92.975
20
-103.25
11
92.975
21
-104.05
0
LINE
8
Black
10
144.775
20
-104.05
11
143.975
21
-104.05
0
LINE
8
Black
10
143.975
20
-104.05
11
143.975
21
-103.25
0
LINE
8
Black
10
143.975
20
-103.25
11
144.775
21
-103.25
0
LINE
8
Black
10
144.775
20
-103.25
11
144.775
21
-104.05
0
LINE
8
Black
10
142.025
20
-104.05
11
141.225
21
-104.05
0
LINE
8
Black
10
141.225
20
-104.05
11
141.225
21
-103.25
0
LINE
8
Black
10
141.225
20
-103.25
11
142.025
21
-103.25
0
LINE
8
Black
10
142.025
20
-103.25
11
142.025
21
-104.05
0
LINE
8
Black
10
90.225
20
-104.05
11
89.425
21
-104.05
0
LINE
8
Black
10
89.425
20
-104.05
11
89.425
21
-103.25
0
LINE
8
Black
10
89.425
20
-103.25
11
90.225
21
-103.25
0
LINE
8
Black
10
90.225
20
-103.25
11
90.225
21
-104.05
0
LINE
8
Black
10
139.475
20
-103.725
11
138.325
21
-103.725
0
LINE
8
Black
10
138.325
20
-103.725
11
138.325
21
-102.275
0
LINE
8
Black
10
138.325
20
-102.275
11
139.475
21
-102.275
0
LINE
8
Black
10
139.475
20
-102.275
11
139.475
21
-103.725
0
LINE
8
Black
10
137.675
20
-103.725
11
136.525
21
-103.725
0
LINE
8
Black
10
136.525
20
-103.725
11
136.525
21
-102.275
0
LINE
8
Black
10
136.525
20
-102.275
11
137.675
21
-102.275
0
LINE
8
Black
10
137.675
20
-102.275
11
137.675
21
-103.725
0
LINE
8
Black
10
97.475
20
-103.725
11
96.325
21
-103.725
0
LINE
8
Black
10
96.325
20
-103.725
11
96.325
21
-102.275
0
LINE
8
Black
10
96.325
20
-102.275
11
97.475
21
-102.275
0
LINE
8
Black
10
97.475
20
-102.275
11
97.475
21
-103.725
0
LINE
8
Black
10
95.675
20
-103.725
11
94.525
21
-103.725
0
LINE
8
Black
10
94.525
20
-103.725
11
94.525
21
-102.275
0
LINE
8
Black
10
94.525
20
-102.275
11
95.675
21
-102.275
0
LINE
8
Black
10
95.675
20
-102.275
11
95.675
21
-103.725
0
LINE
8
Black
10
144.775
20
-102.55
11
143.975
21
-102.55
0
LINE
8
Black
10
143.975
20
-102.55
11
143.975
21
-101.75
0
LINE
8
Black
10
143.975
20
-101.75
11
144.775
21
-101.75
0
LINE
8
Black
10
144.775
20
-101.75
11
144.775
21
-102.55
0
LINE
8
Black
10
142.025
20
-102.55
11
141.225
21
-102.55
0
LINE
8
Black
10
141.225
20
-102.55
11
141.225
21
-101.75
0
LINE
8
Black
10
141.225
20
-101.75
11
142.025
21
-101.75
0
LINE
8
Black
10
142.025
20
-101.75
11
142.025
21
-102.55
0
LINE
8
Black
10
92.975
20
-102.55
11
92.175
21
-102.55
0
LINE
8
Black
10
92.175
20
-102.55
11
92.175
21
-101.75
0
LINE
8
Black
10
92.175
20
-101.75
11
92.975
21
-101.75
0
LINE
8
Black
10
92.975
20
-101.75
11
92.975
21
-102.55
0
LINE
8
Black
10
90.225
20
-102.55
11
89.425
21
-102.55
0
LINE
8
Black
10
89.425
20
-102.55
11
89.425
21
-101.75
0
LINE
8
Black
10
89.425
20
-101.75
11
90.225
21
-101.75
0
LINE
8
Black
10
90.225
20
-101.75
11
90.225
21
-102.55
0
LINE
8
Black
10
139.475
20
-101.725
11
138.325
21
-101.725
0
LINE
8
Black
10
138.325
20
-101.725
11
138.325
21
-100.275
0
LINE
8
Black
10
138.325
20
-100.275
11
139.475
21
-100.275
0
LINE
8
Black
10
139.475
20
-100.275
11
139.475
21
-101.725
0
LINE
8
Black
10
97.475
20
-101.725
11
96.325
21
-101.725
0
LINE
8
Black
10
96.325
20
-101.725
11
96.325
21
-100.275
0
LINE
8
Black
10
96.325
20
-100.275
11
97.475
21
-100.275
0
LINE
8
Black
10
97.475
20
-100.275
11
97.475
21
-101.725
0
LINE
8
Black
10
95.675
20
-101.725
11
94.525
21
-101.725
0
LINE
8
Black
10
94.525
20
-101.725
11
94.525
21
-100.275
0
LINE
8
Black
10
94.525
20
-100.275
11
95.675
21
-100.275
0
LINE
8
Black
10
95.675
20
-100.275
11
95.675
21
-101.725
0
LINE
8
Black
10
137.675
20
-101.725
11
136.525
21
-101.725
0
LINE
8
Black
10
136.525
20
-101.725
11
136.525
21
-100.275
0
LINE
8
Black
10
136.525
20
-100.275
11
137.675
21
-100.275
0
LINE
8
Black
10
137.675
20
-100.275
11
137.675
21
-101.725
0
LINE
8
Black
10
104.593
20
-97.2067
11
104.895
21
-97.381
0
LINE
8
Black
10
104.895
20
-97.381
11
105.119
21
-97.6481
0
LINE
8
Black
10
105.119
20
-97.6481
11
105.239
21
-97.9757
0
LINE
8
Black
10
105.239
20
-97.9757
11
105.239
21
-98.3243
0
LINE
8
Black
10
105.239
20
-98.3243
11
105.119
21
-98.6519
0
LINE
8
Black
10
105.119
20
-98.6519
11
104.895
21
-98.919
0
LINE
8
Black
10
104.895
20
-98.919
11
104.593
21
-99.0933
0
LINE
8
Black
10
104.593
20
-99.0933
11
104.25
21
-99.1538
0
LINE
8
Black
10
104.25
20
-99.1538
11
103.907
21
-99.0933
0
LINE
8
Black
10
103.907
20
-99.0933
11
103.605
21
-98.919
0
LINE
8
Black
10
103.605
20
-98.919
11
103.381
21
-98.6519
0
LINE
8
Black
10
103.381
20
-98.6519
11
103.261
21
-98.3243
0
LINE
8
Black
10
103.261
20
-98.3243
11
103.261
21
-97.9757
0
LINE
8
Black
10
103.261
20
-97.9757
11
103.381
21
-97.6481
0
LINE
8
Black
10
103.381
20
-97.6481
11
103.605
21
-97.381
0
LINE
8
Black
10
103.605
20
-97.381
11
103.907
21
-97.2067
0
LINE
8
Black
10
103.907
20
-97.2067
11
104.25
21
-97.1462
0
LINE
8
Black
10
104.25
20
-97.1462
11
104.593
21
-97.2067
0
LINE
8
Black
10
100.093
20
-97.2067
11
100.395
21
-97.381
0
LINE
8
Black
10
100.395
20
-97.381
11
100.619
21
-97.6481
0
LINE
8
Black
10
100.619
20
-97.6481
11
100.739
21
-97.9757
0
LINE
8
Black
10
100.739
20
-97.9757
11
100.739
21
-98.3243
0
LINE
8
Black
10
100.739
20
-98.3243
11
100.619
21
-98.6519
0
LINE
8
Black
10
100.619
20
-98.6519
11
100.395
21
-98.919
0
LINE
8
Black
10
100.395
20
-98.919
11
100.093
21
-99.0933
0
LINE
8
Black
10
100.093
20
-99.0933
11
99.75
21
-99.1538
0
LINE
8
Black
10
99.75
20
-99.1538
11
99.4067
21
-99.0933
0
LINE
8
Black
10
99.4067
20
-99.0933
11
99.1048
21
-98.919
0
LINE
8
Black
10
99.1048
20
-98.919
11
98.8807
21
-98.6519
0
LINE
8
Black
10
98.8807
20
-98.6519
11
98.7614
21
-98.3243
0
LINE
8
Black
10
98.7614
20
-98.3243
11
98.7614
21
-97.9757
0
LINE
8
Black
10
98.7614
20
-97.9757
11
98.8807
21
-97.6481
0
LINE
8
Black
10
98.8807
20
-97.6481
11
99.1048
21
-97.381
0
LINE
8
Black
10
99.1048
20
-97.381
11
99.4067
21
-97.2067
0
LINE
8
Black
10
99.4067
20
-97.2067
11
99.75
21
-97.1462
0
LINE
8
Black
10
99.75
20
-97.1462
11
100.093
21
-97.2067
0
LINE
8
Black
10
134.593
20
-97.2067
11
134.895
21
-97.381
0
LINE
8
Black
10
134.895
20
-97.381
11
135.119
21
-97.6481
0
LINE
8
Black
10
135.119
20
-97.6481
11
135.239
21
-97.9757
0
LINE
8
Black
10
135.239
20
-97.9757
11
135.239
21
-98.3243
0
LINE
8
Black
10
135.239
20
-98.3243
11
135.119
21
-98.6519
0
LINE
8
Black
10
135.119
20
-98.6519
11
134.895
21
-98.919
0
LINE
8
Black
10
134.895
20
-98.919
11
134.593
21
-99.0933
0
LINE
8
Black
10
134.593
20
-99.0933
11
134.25
21
-99.1538
0
LINE
8
Black
10
134.25
20
-99.1538
11
133.907
21
-99.0933
0
LINE
8
Black
10
133.907
20
-99.0933
11
133.605
21
-98.919
0
LINE
8
Black
10
133.605
20
-98.919
11
133.381
21
-98.6519
0
LINE
8
Black
10
133.381
20
-98.6519
11
133.261
21
-98.3243
0
LINE
8
Black
10
133.261
20
-98.3243
11
133.261
21
-97.9757
0
LINE
8
Black
10
133.261
20
-97.9757
11
133.381
21
-97.6481
0
LINE
8
Black
10
133.381
20
-97.6481
11
133.605
21
-97.381
0
LINE
8
Black
10
133.605
20
-97.381
11
133.907
21
-97.2067
0
LINE
8
Black
10
133.907
20
-97.2067
11
134.25
21
-97.1462
0
LINE
8
Black
10
134.25
20
-97.1462
11
134.593
21
-97.2067
0
LINE
8
Black
10
130.093
20
-97.2067
11
130.395
21
-97.381
0
LINE
8
Black
10
130.395
20
-97.381
11
130.619
21
-97.6481
0
LINE
8
Black
10
130.619
20
-97.6481
11
130.739
21
-97.9757
0
LINE
8
Black
10
130.739
20
-97.9757
11
130.739
21
-98.3243
0
LINE
8
Black
10
130.739
20
-98.3243
11
130.619
21
-98.6519
0
LINE
8
Black
10
130.619
20
-98.6519
11
130.395
21
-98.919
0
LINE
8
Black
10
130.395
20
-98.919
11
130.093
21
-99.0933
0
LINE
8
Black
10
130.093
20
-99.0933
11
129.75
21
-99.1538
0
LINE
8
Black
10
129.75
20
-99.1538
11
129.407
21
-99.0933
0
LINE
8
Black
10
129.407
20
-99.0933
11
129.105
21
-98.919
0
LINE
8
Black
10
129.105
20
-98.919
11
128.881
21
-98.6519
0
LINE
8
Black
10
128.881
20
-98.6519
11
128.761
21
-98.3243
0
LINE
8
Black
10
128.761
20
-98.3243
11
128.761
21
-97.9757
0
LINE
8
Black
10
128.761
20
-97.9757
11
128.881
21
-97.6481
0
LINE
8
Black
10
128.881
20
-97.6481
11
129.105
21
-97.381
0
LINE
8
Black
10
129.105
20
-97.381
11
129.407
21
-97.2067
0
LINE
8
Black
10
129.407
20
-97.2067
11
129.75
21
-97.1462
0
LINE
8
Black
10
129.75
20
-97.1462
11
130.093
21
-97.2067
0
LINE
8
Black
10
137.675
20
-98.925
11
136.525
21
-98.925
0
LINE
8
Black
10
136.525
20
-98.925
11
136.525
21
-97.475
0
LINE
8
Black
10
136.525
20
-97.475
11
137.675
21
-97.475
0
LINE
8
Black
10
137.675
20
-97.475
11
137.675
21
-98.925
0
LINE
8
Black
10
139.475
20
-98.925
11
138.325
21
-98.925
0
LINE
8
Black
10
138.325
20
-98.925
11
138.325
21
-97.475
0
LINE
8
Black
10
138.325
20
-97.475
11
139.475
21
-97.475
0
LINE
8
Black
10
139.475
20
-97.475
11
139.475
21
-98.925
0
LINE
8
Black
10
107.725
20
-98.675
11
106.275
21
-98.675
0
LINE
8
Black
10
106.275
20
-98.675
11
106.275
21
-97.525
0
LINE
8
Black
10
106.275
20
-97.525
11
107.725
21
-97.525
0
LINE
8
Black
10
107.725
20
-97.525
11
107.725
21
-98.675
0
LINE
8
Black
10
107.725
20
-96.875
11
106.275
21
-96.875
0
LINE
8
Black
10
106.275
20
-96.875
11
106.275
21
-95.725
0
LINE
8
Black
10
106.275
20
-95.725
11
107.725
21
-95.725
0
LINE
8
Black
10
107.725
20
-95.725
11
107.725
21
-96.875
0
LINE
8
Black
10
134.593
20
-90.7067
11
134.895
21
-90.881
0
LINE
8
Black
10
134.895
20
-90.881
11
135.119
21
-91.1481
0
LINE
8
Black
10
135.119
20
-91.1481
11
135.239
21
-91.4757
0
LINE
8
Black
10
135.239
20
-91.4757
11
135.239
21
-91.8243
0
LINE
8
Black
10
135.239
20
-91.8243
11
135.119
21
-92.1519
0
LINE
8
Black
10
135.119
20
-92.1519
11
134.895
21
-92.419
0
LINE
8
Black
10
134.895
20
-92.419
11
134.593
21
-92.5933
0
LINE
8
Black
10
134.593
20
-92.5933
11
134.25
21
-92.6538
0
LINE
8
Black
10
134.25
20
-92.6538
11
133.907
21
-92.5933
0
LINE
8
Black
10
133.907
20
-92.5933
11
133.605
21
-92.419
0
LINE
8
Black
10
133.605
20
-92.419
11
133.381
21
-92.1519
0
LINE
8
Black
10
133.381
20
-92.1519
11
133.261
21
-91.8243
0
LINE
8
Black
10
133.261
20
-91.8243
11
133.261
21
-91.4757
0
LINE
8
Black
10
133.261
20
-91.4757
11
133.381
21
-91.1481
0
LINE
8
Black
10
133.381
20
-91.1481
11
133.605
21
-90.881
0
LINE
8
Black
10
133.605
20
-90.881
11
133.907
21
-90.7067
0
LINE
8
Black
10
133.907
20
-90.7067
11
134.25
21
-90.6462
0
LINE
8
Black
10
134.25
20
-90.6462
11
134.593
21
-90.7067
0
LINE
8
Black
10
130.093
20
-90.7067
11
130.395
21
-90.881
0
LINE
8
Black
10
130.395
20
-90.881
11
130.619
21
-91.1481
0
LINE
8
Black
10
130.619
20
-91.1481
11
130.739
21
-91.4757
0
LINE
8
Black
10
130.739
20
-91.4757
11
130.739
21
-91.8243
0
LINE
8
Black
10
130.739
20
-91.8243
11
130.619
21
-92.1519
0
LINE
8
Black
10
130.619
20
-92.1519
11
130.395
21
-92.419
0
LINE
8
Black
10
130.395
20
-92.419
11
130.093
21
-92.5933
0
LINE
8
Black
10
130.093
20
-92.5933
11
129.75
21
-92.6538
0
LINE
8
Black
10
129.75
20
-92.6538
11
129.407
21
-92.5933
0
LINE
8
Black
10
129.407
20
-92.5933
11
129.105
21
-92.419
0
LINE
8
Black
10
129.105
20
-92.419
11
128.881
21
-92.1519
0
LINE
8
Black
10
128.881
20
-92.1519
11
128.761
21
-91.8243
0
LINE
8
Black
10
128.761
20
-91.8243
11
128.761
21
-91.4757
0
LINE
8
Black
10
128.761
20
-91.4757
11
128.881
21
-91.1481
0
LINE
8
Black
10
128.881
20
-91.1481
11
129.105
21
-90.881
0
LINE
8
Black
10
129.105
20
-90.881
11
129.407
21
-90.7067
0
LINE
8
Black
10
129.407
20
-90.7067
11
129.75
21
-90.6462
0
LINE
8
Black
10
129.75
20
-90.6462
11
130.093
21
-90.7067
0
LINE
8
Black
10
104.593
20
-90.7067
11
104.895
21
-90.881
0
LINE
8
Black
10
104.895
20
-90.881
11
105.119
21
-91.1481
0
LINE
8
Black
10
105.119
20
-91.1481
11
105.239
21
-91.4757
0
LINE
8
Black
10
105.239
20
-91.4757
11
105.239
21
-91.8243
0
LINE
8
Black
10
105.239
20
-91.8243
11
105.119
21
-92.1519
0
LINE
8
Black
10
105.119
20
-92.1519
11
104.895
21
-92.419
0
LINE
8
Black
10
104.895
20
-92.419
11
104.593
21
-92.5933
0
LINE
8
Black
10
104.593
20
-92.5933
11
104.25
21
-92.6538
0
LINE
8
Black
10
104.25
20
-92.6538
11
103.907
21
-92.5933
0
LINE
8
Black
10
103.907
20
-92.5933
11
103.605
21
-92.419
0
LINE
8
Black
10
103.605
20
-92.419
11
103.381
21
-92.1519
0
LINE
8
Black
10
103.381
20
-92.1519
11
103.261
21
-91.8243
0
LINE
8
Black
10
103.261
20
-91.8243
11
103.261
21
-91.4757
0
LINE
8
Black
10
103.261
20
-91.4757
11
103.381
21
-91.1481
0
LINE
8
Black
10
103.381
20
-91.1481
11
103.605
21
-90.881
0
LINE
8
Black
10
103.605
20
-90.881
11
103.907
21
-90.7067
0
LINE
8
Black
10
103.907
20
-90.7067
11
104.25
21
-90.6462
0
LINE
8
Black
10
104.25
20
-90.6462
11
104.593
21
-90.7067
0
LINE
8
Black
10
100.093
20
-90.7067
11
100.395
21
-90.881
0
LINE
8
Black
10
100.395
20
-90.881
11
100.619
21
-91.1481
0
LINE
8
Black
10
100.619
20
-91.1481
11
100.739
21
-91.4757
0
LINE
8
Black
10
100.739
20
-91.4757
11
100.739
21
-91.8243
0
LINE
8
Black
10
100.739
20
-91.8243
11
100.619
21
-92.1519
0
LINE
8
Black
10
100.619
20
-92.1519
11
100.395
21
-92.419
0
LINE
8
Black
10
100.395
20
-92.419
11
100.093
21
-92.5933
0
LINE
8
Black
10
100.093
20
-92.5933
11
99.75
21
-92.6538
0
LINE
8
Black
10
99.75
20
-92.6538
11
99.4067
21
-92.5933
0
LINE
8
Black
10
99.4067
20
-92.5933
11
99.1048
21
-92.419
0
LINE
8
Black
10
99.1048
20
-92.419
11
98.8807
21
-92.1519
0
LINE
8
Black
10
98.8807
20
-92.1519
11
98.7614
21
-91.8243
0
LINE
8
Black
10
98.7614
20
-91.8243
11
98.7614
21
-91.4757
0
LINE
8
Black
10
98.7614
20
-91.4757
11
98.8807
21
-91.1481
0
LINE
8
Black
10
98.8807
20
-91.1481
11
99.1048
21
-90.881
0
LINE
8
Black
10
99.1048
20
-90.881
11
99.4067
21
-90.7067
0
LINE
8
Black
10
99.4067
20
-90.7067
11
99.75
21
-90.6462
0
LINE
8
Black
10
99.75
20
-90.6462
11
100.093
21
-90.7067
0
LINE
8
Black
10
99.675
20
-85.725
11
98.525
21
-85.725
0
LINE
8
Black
10
98.525
20
-85.725
11
98.525
21
-84.275
0
LINE
8
Black
10
98.525
20
-84.275
11
99.675
21
-84.275
0
LINE
8
Black
10
99.675
20
-84.275
11
99.675
21
-85.725
0
LINE
8
Black
10
101.475
20
-85.725
11
100.325
21
-85.725
0
LINE
8
Black
10
100.325
20
-85.725
11
100.325
21
-84.275
0
LINE
8
Black
10
100.325
20
-84.275
11
101.475
21
-84.275
0
LINE
8
Black
10
101.475
20
-84.275
11
101.475
21
-85.725
0
LINE
8
Black
10
131.675
20
-85.725
11
130.525
21
-85.725
0
LINE
8
Black
10
130.525
20
-85.725
11
130.525
21
-84.275
0
LINE
8
Black
10
130.525
20
-84.275
11
131.675
21
-84.275
0
LINE
8
Black
10
131.675
20
-84.275
11
131.675
21
-85.725
0
LINE
8
Black
10
133.475
20
-85.725
11
132.325
21
-85.725
0
LINE
8
Black
10
132.325
20
-85.725
11
132.325
21
-84.275
0
LINE
8
Black
10
132.325
20
-84.275
11
133.475
21
-84.275
0
LINE
8
Black
10
133.475
20
-84.275
11
133.475
21
-85.725
0
LINE
8
Black
10
137.275
20
-83.9
11
136.475
21
-83.9
0
LINE
8
Black
10
136.475
20
-83.9
11
136.475
21
-83.1
0
LINE
8
Black
10
136.475
20
-83.1
11
137.275
21
-83.1
0
LINE
8
Black
10
137.275
20
-83.1
11
137.275
21
-83.9
0
LINE
8
Black
10
140.025
20
-83.9
11
139.225
21
-83.9
0
LINE
8
Black
10
139.225
20
-83.9
11
139.225
21
-83.1
0
LINE
8
Black
10
139.225
20
-83.1
11
140.025
21
-83.1
0
LINE
8
Black
10
140.025
20
-83.1
11
140.025
21
-83.9
0
LINE
8
Black
10
94.775
20
-83.9
11
93.975
21
-83.9
0
LINE
8
Black
10
93.975
20
-83.9
11
93.975
21
-83.1
0
LINE
8
Black
10
93.975
20
-83.1
11
94.775
21
-83.1
0
LINE
8
Black
10
94.775
20
-83.1
11
94.775
21
-83.9
0
LINE
8
Black
10
97.525
20
-83.9
11
96.725
21
-83.9
0
LINE
8
Black
10
96.725
20
-83.9
11
96.725
21
-83.1
0
LINE
8
Black
10
96.725
20
-83.1
11
97.525
21
-83.1
0
LINE
8
Black
10
97.525
20
-83.1
11
97.525
21
-83.9
0
LINE
8
Black
10
99.675
20
-83.725
11
98.525
21
-83.725
0
LINE
8
Black
10
98.525
20
-83.725
11
98.525
21
-82.275
0
LINE
8
Black
10
98.525
20
-82.275
11
99.675
21
-82.275
0
LINE
8
Black
10
99.675
20
-82.275
11
99.675
21
-83.725
0
LINE
8
Black
10
133.475
20
-83.725
11
132.325
21
-83.725
0
LINE
8
Black
10
132.325
20
-83.725
11
132.325
21
-82.275
0
LINE
8
Black
10
132.325
20
-82.275
11
133.475
21
-82.275
0
LINE
8
Black
10
133.475
20
-82.275
11
133.475
21
-83.725
0
LINE
8
Black
10
101.475
20
-83.725
11
100.325
21
-83.725
0
LINE
8
Black
10
100.325
20
-83.725
11
100.325
21
-82.275
0
LINE
8
Black
10
100.325
20
-82.275
11
101.475
21
-82.275
0
LINE
8
Black
10
101.475
20
-82.275
11
101.475
21
-83.725
0
LINE
8
Black
10
131.675
20
-83.725
11
130.525
21
-83.725
0
LINE
8
Black
10
130.525
20
-83.725
11
130.525
21
-82.275
0
LINE
8
Black
10
130.525
20
-82.275
11
131.675
21
-82.275
0
LINE
8
Black
10
131.675
20
-82.275
11
131.675
21
-83.725
0
LINE
8
Black
10
94.775
20
-82.4
11
93.975
21
-82.4
0
LINE
8
Black
10
93.975
20
-82.4
11
93.975
21
-81.6
0
LINE
8
Black
10
93.975
20
-81.6
11
94.775
21
-81.6
0
LINE
8
Black
10
94.775
20
-81.6
11
94.775
21
-82.4
0
LINE
8
Black
10
97.525
20
-82.4
11
96.725
21
-82.4
0
LINE
8
Black
10
96.725
20
-82.4
11
96.725
21
-81.6
0
LINE
8
Black
10
96.725
20
-81.6
11
97.525
21
-81.6
0
LINE
8
Black
10
97.525
20
-81.6
11
97.525
21
-82.4
0
LINE
8
Black
10
137.275
20
-82.4
11
136.475
21
-82.4
0
LINE
8
Black
10
136.475
20
-82.4
11
136.475
21
-81.6
0
LINE
8
Black
10
136.475
20
-81.6
11
137.275
21
-81.6
0
LINE
8
Black
10
137.275
20
-81.6
11
137.275
21
-82.4
0
LINE
8
Black
10
140.025
20
-82.4
11
139.225
21
-82.4
0
LINE
8
Black
10
139.225
20
-82.4
11
139.225
21
-81.6
0
LINE
8
Black
10
139.225
20
-81.6
11
140.025
21
-81.6
0
LINE
8
Black
10
140.025
20
-81.6
11
140.025
21
-82.4
0
LINE
8
Black
10
101.475
20
-81.725
11
100.325
21
-81.725
0
LINE
8
Black
10
100.325
20
-81.725
11
100.325
21
-80.275
0
LINE
8
Black
10
100.325
20
-80.275
11
101.475
21
-80.275
0
LINE
8
Black
10
101.475
20
-80.275
11
101.475
21
-81.725
0
LINE
8
Black
10
133.475
20
-81.725
11
132.325
21
-81.725
0
LINE
8
Black
10
132.325
20
-81.725
11
132.325
21
-80.275
0
LINE
8
Black
10
132.325
20
-80.275
11
133.475
21
-80.275
0
LINE
8
Black
10
133.475
20
-80.275
11
133.475
21
-81.725
0
LINE
8
Black
10
131.675
20
-81.725
11
130.525
21
-81.725
0
LINE
8
Black
10
130.525
20
-81.725
11
130.525
21
-80.275
0
LINE
8
Black
10
130.525
20
-80.275
11
131.675
21
-80.275
0
LINE
8
Black
10
131.675
20
-80.275
11
131.675
21
-81.725
0
LINE
8
Black
10
99.675
20
-81.725
11
98.525
21
-81.725
0
LINE
8
Black
10
98.525
20
-81.725
11
98.525
21
-80.275
0
LINE
8
Black
10
98.525
20
-80.275
11
99.675
21
-80.275
0
LINE
8
Black
10
99.675
20
-80.275
11
99.675
21
-81.725
0
LINE
8
Black
10
109.475
20
-72.725
11
108.325
21
-72.725
0
LINE
8
Black
10
108.325
20
-72.725
11
108.325
21
-71.275
0
LINE
8
Black
10
108.325
20
-71.275
11
109.475
21
-71.275
0
LINE
8
Black
10
109.475
20
-71.275
11
109.475
21
-72.725
0
LINE
8
Black
10
125.675
20
-72.725
11
124.525
21
-72.725
0
LINE
8
Black
10
124.525
20
-72.725
11
124.525
21
-71.275
0
LINE
8
Black
10
124.525
20
-71.275
11
125.675
21
-71.275
0
LINE
8
Black
10
125.675
20
-71.275
11
125.675
21
-72.725
0
LINE
8
Black
10
127.475
20
-72.725
11
126.325
21
-72.725
0
LINE
8
Black
10
126.325
20
-72.725
11
126.325
21
-71.275
0
LINE
8
Black
10
126.325
20
-71.275
11
127.475
21
-71.275
0
LINE
8
Black
10
127.475
20
-71.275
11
127.475
21
-72.725
0
LINE
8
Black
10
107.675
20
-72.725
11
106.525
21
-72.725
0
LINE
8
Black
10
106.525
20
-72.725
11
106.525
21
-71.275
0
LINE
8
Black
10
106.525
20
-71.275
11
107.675
21
-71.275
0
LINE
8
Black
10
107.675
20
-71.275
11
107.675
21
-72.725
0
LINE
8
Black
10
133.525
20
-71.3
11
132.725
21
-71.3
0
LINE
8
Black
10
132.725
20
-71.3
11
132.725
21
-70.5
0
LINE
8
Black
10
132.725
20
-70.5
11
133.525
21
-70.5
0
LINE
8
Black
10
133.525
20
-70.5
11
133.525
21
-71.3
0
LINE
8
Black
10
101.275
20
-71.3
11
100.475
21
-71.3
0
LINE
8
Black
10
100.475
20
-71.3
11
100.475
21
-70.5
0
LINE
8
Black
10
100.475
20
-70.5
11
101.275
21
-70.5
0
LINE
8
Black
10
101.275
20
-70.5
11
101.275
21
-71.3
0
LINE
8
Black
10
104.025
20
-71.3
11
103.225
21
-71.3
0
LINE
8
Black
10
103.225
20
-71.3
11
103.225
21
-70.5
0
LINE
8
Black
10
103.225
20
-70.5
11
104.025
21
-70.5
0
LINE
8
Black
10
104.025
20
-70.5
11
104.025
21
-71.3
0
LINE
8
Black
10
130.775
20
-71.3
11
129.975
21
-71.3
0
LINE
8
Black
10
129.975
20
-71.3
11
129.975
21
-70.5
0
LINE
8
Black
10
129.975
20
-70.5
11
130.775
21
-70.5
0
LINE
8
Black
10
130.775
20
-70.5
11
130.775
21
-71.3
0
LINE
8
Black
10
125.675
20
-70.725
11
124.525
21
-70.725
0
LINE
8
Black
10
124.525
20
-70.725
11
124.525
21
-69.275
0
LINE
8
Black
10
124.525
20
-69.275
11
125.675
21
-69.275
0
LINE
8
Black
10
125.675
20
-69.275
11
125.675
21
-70.725
0
LINE
8
Black
10
127.475
20
-70.725
11
126.325
21
-70.725
0
LINE
8
Black
10
126.325
20
-70.725
11
126.325
21
-69.275
0
LINE
8
Black
10
126.325
20
-69.275
11
127.475
21
-69.275
0
LINE
8
Black
10
127.475
20
-69.275
11
127.475
21
-70.725
0
LINE
8
Black
10
109.475
20
-70.725
11
108.325
21
-70.725
0
LINE
8
Black
10
108.325
20
-70.725
11
108.325
21
-69.275
0
LINE
8
Black
10
108.325
20
-69.275
11
109.475
21
-69.275
0
LINE
8
Black
10
109.475
20
-69.275
11
109.475
21
-70.725
0
LINE
8
Black
10
107.675
20
-70.725
11
106.525
21
-70.725
0
LINE
8
Black
10
106.525
20
-70.725
11
106.525
21
-69.275
0
LINE
8
Black
10
106.525
20
-69.275
11
107.675
21
-69.275
0
LINE
8
Black
10
107.675
20
-69.275
11
107.675
21
-70.725
0
LINE
8
Black
10
101.275
20
-69.8
11
100.475
21
-69.8
0
LINE
8
Black
10
100.475
20
-69.8
11
100.475
21
-69
0
LINE
8
Black
10
100.475
20
-69
11
101.275
21
-69
0
LINE
8
Black
10
101.275
20
-69
11
101.275
21
-69.8
0
LINE
8
Black
10
104.025
20
-69.8
11
103.225
21
-69.8
0
LINE
8
Black
10
103.225
20
-69.8
11
103.225
21
-69
0
LINE
8
Black
10
103.225
20
-69
11
104.025
21
-69
0
LINE
8
Black
10
104.025
20
-69
11
104.025
21
-69.8
0
LINE
8
Black
10
130.775
20
-69.8
11
129.975
21
-69.8
0
LINE
8
Black
10
129.975
20
-69.8
11
129.975
21
-69
0
LINE
8
Black
10
129.975
20
-69
11
130.775
21
-69
0
LINE
8
Black
10
130.775
20
-69
11
130.775
21
-69.8
0
LINE
8
Black
10
133.525
20
-69.8
11
132.725
21
-69.8
0
LINE
8
Black
10
132.725
20
-69.8
11
132.725
21
-69
0
LINE
8
Black
10
132.725
20
-69
11
133.525
21
-69
0
LINE
8
Black
10
133.525
20
-69
11
133.525
21
-69.8
0
LINE
8
Black
10
125.675
20
-68.725
11
124.525
21
-68.725
0
LINE
8
Black
10
124.525
20
-68.725
11
124.525
21
-67.275
0
LINE
8
Black
10
124.525
20
-67.275
11
125.675
21
-67.275
0
LINE
8
Black
10
125.675
20
-67.275
11
125.675
21
-68.725
0
LINE
8
Black
10
109.475
20
-68.725
11
108.325
21
-68.725
0
LINE
8
Black
10
108.325
20
-68.725
11
108.325
21
-67.275
0
LINE
8
Black
10
108.325
20
-67.275
11
109.475
21
-67.275
0
LINE
8
Black
10
109.475
20
-67.275
11
109.475
21
-68.725
0
LINE
8
Black
10
107.675
20
-68.725
11
106.525
21
-68.725
0
LINE
8
Black
10
106.525
20
-68.725
11
106.525
21
-67.275
0
LINE
8
Black
10
106.525
20
-67.275
11
107.675
21
-67.275
0
LINE
8
Black
10
107.675
20
-67.275
11
107.675
21
-68.725
0
LINE
8
Black
10
127.475
20
-68.725
11
126.325
21
-68.725
0
LINE
8
Black
10
126.325
20
-68.725
11
126.325
21
-67.275
0
LINE
8
Black
10
126.325
20
-67.275
11
127.475
21
-67.275
0
LINE
8
Black
10
127.475
20
-67.275
11
127.475
21
-68.725
0
LINE
8
Black
10
110.675
20
-59.225
11
109.525
21
-59.225
0
LINE
8
Black
10
109.525
20
-59.225
11
109.525
21
-57.775
0
LINE
8
Black
10
109.525
20
-57.775
11
110.675
21
-57.775
0
LINE
8
Black
10
110.675
20
-57.775
11
110.675
21
-59.225
0
LINE
8
Black
10
112.475
20
-59.225
11
111.325
21
-59.225
0
LINE
8
Black
10
111.325
20
-59.225
11
111.325
21
-57.775
0
LINE
8
Black
10
111.325
20
-57.775
11
112.475
21
-57.775
0
LINE
8
Black
10
112.475
20
-57.775
11
112.475
21
-59.225
0
LINE
8
Black
10
124.475
20
-59.225
11
123.325
21
-59.225
0
LINE
8
Black
10
123.325
20
-59.225
11
123.325
21
-57.775
0
LINE
8
Black
10
123.325
20
-57.775
11
124.475
21
-57.775
0
LINE
8
Black
10
124.475
20
-57.775
11
124.475
21
-59.225
0
LINE
8
Black
10
122.675
20
-59.225
11
121.525
21
-59.225
0
LINE
8
Black
10
121.525
20
-59.225
11
121.525
21
-57.775
0
LINE
8
Black
10
121.525
20
-57.775
11
122.675
21
-57.775
0
LINE
8
Black
10
122.675
20
-57.775
11
122.675
21
-59.225
0
LINE
8
Black
10
110.675
20
-57.025
11
109.525
21
-57.025
0
LINE
8
Black
10
109.525
20
-57.025
11
109.525
21
-55.575
0
LINE
8
Black
10
109.525
20
-55.575
11
110.675
21
-55.575
0
LINE
8
Black
10
110.675
20
-55.575
11
110.675
21
-57.025
0
LINE
8
Black
10
112.475
20
-57.025
11
111.325
21
-57.025
0
LINE
8
Black
10
111.325
20
-57.025
11
111.325
21
-55.575
0
LINE
8
Black
10
111.325
20
-55.575
11
112.475
21
-55.575
0
LINE
8
Black
10
112.475
20
-55.575
11
112.475
21
-57.025
0
LINE
8
Black
10
124.475
20
-57.025
11
123.325
21
-57.025
0
LINE
8
Black
10
123.325
20
-57.025
11
123.325
21
-55.575
0
LINE
8
Black
10
123.325
20
-55.575
11
124.475
21
-55.575
0
LINE
8
Black
10
124.475
20
-55.575
11
124.475
21
-57.025
0
LINE
8
Black
10
122.675
20
-57.025
11
121.525
21
-57.025
0
LINE
8
Black
10
121.525
20
-57.025
11
121.525
21
-55.575
0
LINE
8
Black
10
121.525
20
-55.575
11
122.675
21
-55.575
0
LINE
8
Black
10
122.675
20
-55.575
11
122.675
21
-57.025
  0
ENDSEC
  0
EOF
