M48
;DRILL file {KiCad 4.0.0-rc1-stable} date 15/10/2016 23:54:12
;FORMAT={-:-/ absolute / inch / decimal}
FMAT,2
INCH,TZ
T1C0.016
%
G90
G05
M72
T1
X1.3268Y-5.8583
X1.5197Y-5.063
X1.5748Y-4.9213
X1.6198Y-4.9663
X1.7244Y-4.622
X1.9685Y-4.3701
X2.0472Y-4.5669
X2.0866Y-4.3701
X2.0866Y-4.6063
X2.126Y-4.0945
X2.126Y-4.9213
X2.1575Y-4.8819
X2.2638Y-5.0079
X2.3228Y-4.7244
X2.4606Y-5.0079
X2.5602Y-4.487
X2.5965Y-4.765
X2.6378Y-4.5276
X2.6772Y-4.5669
X2.7165Y-4.685
X2.7552Y-4.922
X2.7559Y-4.7638
X2.9409Y-4.5394
X3.189Y-5.0315
X3.2953Y-5.8346
T0
M30
