G04 #@! TF.FileFunction,Legend,Bot*
%FSLAX46Y46*%
G04 Gerber Fmt 4.6, Leading zero omitted, Abs format (unit mm)*
G04 Created by KiCad (PCBNEW 4.0.0-rc1-stable) date 15/10/2016 23:53:53*
%MOMM*%
G01*
G04 APERTURE LIST*
%ADD10C,0.100000*%
%ADD11C,0.010000*%
%ADD12R,3.000000X3.000000*%
G04 APERTURE END LIST*
D10*
D11*
G36*
X85310014Y-150513925D02*
X84433876Y-150812613D01*
X83241538Y-151312526D01*
X82654167Y-151583003D01*
X77640689Y-153652472D01*
X72438965Y-155188718D01*
X66903791Y-156230349D01*
X63813527Y-156592392D01*
X59195344Y-156748581D01*
X54314516Y-156399166D01*
X49360900Y-155579884D01*
X49127765Y-155519466D01*
X44377778Y-155519466D01*
X44377778Y-165064633D01*
X43231250Y-164846659D01*
X42393403Y-164625622D01*
X41117063Y-164217694D01*
X39620306Y-163694296D01*
X38909722Y-163431366D01*
X35734722Y-162234046D01*
X35637097Y-157083689D01*
X35612315Y-155268764D01*
X35609700Y-153734127D01*
X35628014Y-152603330D01*
X35666021Y-151999921D01*
X35688676Y-151933333D01*
X36056407Y-152070380D01*
X36901757Y-152434593D01*
X38062606Y-152955578D01*
X38432135Y-153124567D01*
X39932927Y-153791703D01*
X41438573Y-154425189D01*
X42638757Y-154894715D01*
X42702084Y-154917633D01*
X44377778Y-155519466D01*
X49127765Y-155519466D01*
X44524355Y-154326474D01*
X39994736Y-152674672D01*
X37920179Y-151718432D01*
X36679155Y-151138312D01*
X35623424Y-150713232D01*
X34958806Y-150525023D01*
X34911503Y-150522222D01*
X34534640Y-150760771D01*
X33981781Y-151505803D01*
X33225628Y-152801389D01*
X32238883Y-154691604D01*
X31860576Y-155448187D01*
X31034495Y-157144504D01*
X30349519Y-158610111D01*
X29855388Y-159733697D01*
X29601848Y-160403948D01*
X29584645Y-160541125D01*
X30054625Y-160823088D01*
X31044020Y-161301661D01*
X32414439Y-161918299D01*
X34027495Y-162614458D01*
X35744797Y-163331595D01*
X37427957Y-164011165D01*
X38938585Y-164594624D01*
X40138292Y-165023428D01*
X40320834Y-165082958D01*
X45644065Y-166510420D01*
X51226249Y-167507539D01*
X56889062Y-168058839D01*
X62454183Y-168148843D01*
X67743289Y-167762073D01*
X69072222Y-167578298D01*
X74930966Y-166430503D01*
X80569006Y-164794149D01*
X86208645Y-162601518D01*
X87886758Y-161847043D01*
X91002682Y-160405523D01*
X89235195Y-157010867D01*
X84947222Y-157010867D01*
X84938796Y-159021950D01*
X84904976Y-160438158D01*
X84832953Y-161370061D01*
X84709918Y-161928228D01*
X84523061Y-162223228D01*
X84329861Y-162339707D01*
X83133318Y-162801440D01*
X81678590Y-163325876D01*
X80132114Y-163857685D01*
X78660325Y-164341538D01*
X77429660Y-164722103D01*
X76606555Y-164944051D01*
X76392361Y-164978454D01*
X76141810Y-164920927D01*
X75969462Y-164668342D01*
X75860985Y-164111645D01*
X75802051Y-163141787D01*
X75778329Y-161649713D01*
X75775000Y-160280237D01*
X75778628Y-158381015D01*
X75792027Y-157678571D01*
X64486111Y-157678571D01*
X64486111Y-167102777D01*
X55666667Y-167102777D01*
X55666667Y-157678571D01*
X64486111Y-157678571D01*
X75792027Y-157678571D01*
X75803711Y-157066094D01*
X75871549Y-156214222D01*
X76003440Y-155704145D01*
X76220685Y-155414608D01*
X76544582Y-155224360D01*
X76673544Y-155164959D01*
X77450444Y-154861524D01*
X77907783Y-154755555D01*
X78356156Y-154618464D01*
X79287819Y-154249868D01*
X80545380Y-153713779D01*
X81377361Y-153344444D01*
X82737600Y-152741433D01*
X83847888Y-152266975D01*
X84557765Y-151984412D01*
X84729233Y-151933333D01*
X84806572Y-152265347D01*
X84871836Y-153178401D01*
X84919680Y-154548009D01*
X84944760Y-156249688D01*
X84947222Y-157010867D01*
X89235195Y-157010867D01*
X88475645Y-155552067D01*
X87590228Y-153865589D01*
X86809020Y-152403983D01*
X86193735Y-151280675D01*
X85806084Y-150609088D01*
X85712499Y-150473579D01*
X85310014Y-150513925D01*
X85310014Y-150513925D01*
G37*
X85310014Y-150513925D02*
X84433876Y-150812613D01*
X83241538Y-151312526D01*
X82654167Y-151583003D01*
X77640689Y-153652472D01*
X72438965Y-155188718D01*
X66903791Y-156230349D01*
X63813527Y-156592392D01*
X59195344Y-156748581D01*
X54314516Y-156399166D01*
X49360900Y-155579884D01*
X49127765Y-155519466D01*
X44377778Y-155519466D01*
X44377778Y-165064633D01*
X43231250Y-164846659D01*
X42393403Y-164625622D01*
X41117063Y-164217694D01*
X39620306Y-163694296D01*
X38909722Y-163431366D01*
X35734722Y-162234046D01*
X35637097Y-157083689D01*
X35612315Y-155268764D01*
X35609700Y-153734127D01*
X35628014Y-152603330D01*
X35666021Y-151999921D01*
X35688676Y-151933333D01*
X36056407Y-152070380D01*
X36901757Y-152434593D01*
X38062606Y-152955578D01*
X38432135Y-153124567D01*
X39932927Y-153791703D01*
X41438573Y-154425189D01*
X42638757Y-154894715D01*
X42702084Y-154917633D01*
X44377778Y-155519466D01*
X49127765Y-155519466D01*
X44524355Y-154326474D01*
X39994736Y-152674672D01*
X37920179Y-151718432D01*
X36679155Y-151138312D01*
X35623424Y-150713232D01*
X34958806Y-150525023D01*
X34911503Y-150522222D01*
X34534640Y-150760771D01*
X33981781Y-151505803D01*
X33225628Y-152801389D01*
X32238883Y-154691604D01*
X31860576Y-155448187D01*
X31034495Y-157144504D01*
X30349519Y-158610111D01*
X29855388Y-159733697D01*
X29601848Y-160403948D01*
X29584645Y-160541125D01*
X30054625Y-160823088D01*
X31044020Y-161301661D01*
X32414439Y-161918299D01*
X34027495Y-162614458D01*
X35744797Y-163331595D01*
X37427957Y-164011165D01*
X38938585Y-164594624D01*
X40138292Y-165023428D01*
X40320834Y-165082958D01*
X45644065Y-166510420D01*
X51226249Y-167507539D01*
X56889062Y-168058839D01*
X62454183Y-168148843D01*
X67743289Y-167762073D01*
X69072222Y-167578298D01*
X74930966Y-166430503D01*
X80569006Y-164794149D01*
X86208645Y-162601518D01*
X87886758Y-161847043D01*
X91002682Y-160405523D01*
X89235195Y-157010867D01*
X84947222Y-157010867D01*
X84938796Y-159021950D01*
X84904976Y-160438158D01*
X84832953Y-161370061D01*
X84709918Y-161928228D01*
X84523061Y-162223228D01*
X84329861Y-162339707D01*
X83133318Y-162801440D01*
X81678590Y-163325876D01*
X80132114Y-163857685D01*
X78660325Y-164341538D01*
X77429660Y-164722103D01*
X76606555Y-164944051D01*
X76392361Y-164978454D01*
X76141810Y-164920927D01*
X75969462Y-164668342D01*
X75860985Y-164111645D01*
X75802051Y-163141787D01*
X75778329Y-161649713D01*
X75775000Y-160280237D01*
X75778628Y-158381015D01*
X75792027Y-157678571D01*
X64486111Y-157678571D01*
X64486111Y-167102777D01*
X55666667Y-167102777D01*
X55666667Y-157678571D01*
X64486111Y-157678571D01*
X75792027Y-157678571D01*
X75803711Y-157066094D01*
X75871549Y-156214222D01*
X76003440Y-155704145D01*
X76220685Y-155414608D01*
X76544582Y-155224360D01*
X76673544Y-155164959D01*
X77450444Y-154861524D01*
X77907783Y-154755555D01*
X78356156Y-154618464D01*
X79287819Y-154249868D01*
X80545380Y-153713779D01*
X81377361Y-153344444D01*
X82737600Y-152741433D01*
X83847888Y-152266975D01*
X84557765Y-151984412D01*
X84729233Y-151933333D01*
X84806572Y-152265347D01*
X84871836Y-153178401D01*
X84919680Y-154548009D01*
X84944760Y-156249688D01*
X84947222Y-157010867D01*
X89235195Y-157010867D01*
X88475645Y-155552067D01*
X87590228Y-153865589D01*
X86809020Y-152403983D01*
X86193735Y-151280675D01*
X85806084Y-150609088D01*
X85712499Y-150473579D01*
X85310014Y-150513925D01*
G36*
X81118991Y-122182278D02*
X80424112Y-122795563D01*
X79640812Y-123568222D01*
X76684279Y-126142753D01*
X73218983Y-128285035D01*
X69205768Y-130018574D01*
X68474520Y-130271538D01*
X66862051Y-130745549D01*
X65230463Y-131065656D01*
X63334258Y-131270697D01*
X61487500Y-131376870D01*
X57049848Y-131303940D01*
X52985620Y-130662563D01*
X49213968Y-129424150D01*
X45654043Y-127560110D01*
X42224997Y-125041852D01*
X41303572Y-124239271D01*
X40231412Y-123299863D01*
X39349744Y-122574623D01*
X38792133Y-122171338D01*
X38681951Y-122123611D01*
X38425860Y-122420850D01*
X37957677Y-123211887D01*
X37351696Y-124345705D01*
X36682215Y-125671283D01*
X36023529Y-127037604D01*
X35449936Y-128293648D01*
X35035731Y-129288397D01*
X34855212Y-129870832D01*
X34852778Y-129906990D01*
X35037190Y-130204888D01*
X35671724Y-130364074D01*
X36878326Y-130413752D01*
X36969445Y-130413888D01*
X38085960Y-130442127D01*
X38852953Y-130515524D01*
X39086111Y-130600337D01*
X38938498Y-130985815D01*
X38550882Y-131820505D01*
X38006097Y-132926256D01*
X37987414Y-132963293D01*
X36888717Y-135139799D01*
X37705901Y-135801515D01*
X39783569Y-137229699D01*
X42419210Y-138636354D01*
X45466630Y-139955706D01*
X48779636Y-141121977D01*
X50904167Y-141739664D01*
X53040954Y-142165176D01*
X55662922Y-142463642D01*
X58560205Y-142629329D01*
X61522937Y-142656506D01*
X64341251Y-142539443D01*
X66805280Y-142272409D01*
X67308334Y-142187621D01*
X69456820Y-141696906D01*
X70159868Y-141490850D01*
X64133334Y-141490850D01*
X63803790Y-141574287D01*
X62907998Y-141642259D01*
X61585218Y-141687492D01*
X60076389Y-141702777D01*
X58479152Y-141684977D01*
X57177953Y-141636592D01*
X56312051Y-141565143D01*
X56019445Y-141483644D01*
X56176043Y-141005854D01*
X56218165Y-140915748D01*
X54241537Y-140915748D01*
X54185763Y-141126048D01*
X53933663Y-141214463D01*
X53383071Y-141165779D01*
X52431821Y-140964780D01*
X50977749Y-140596253D01*
X49564182Y-140219196D01*
X48068759Y-139768408D01*
X47223359Y-139390018D01*
X46978917Y-139061104D01*
X46990251Y-139016670D01*
X47280093Y-138572573D01*
X47929462Y-137723750D01*
X48836785Y-136599511D01*
X49718661Y-135543182D01*
X50925860Y-134118055D01*
X45436111Y-134118055D01*
X45421648Y-136065780D01*
X45354537Y-137394583D01*
X45199199Y-138190890D01*
X44920054Y-138541127D01*
X44481523Y-138531722D01*
X43848024Y-138249100D01*
X43755630Y-138200082D01*
X42381421Y-137438181D01*
X41054154Y-136656482D01*
X39912270Y-135941993D01*
X39094210Y-135381725D01*
X38738414Y-135062684D01*
X38733334Y-135043617D01*
X38995752Y-134728173D01*
X39696631Y-134106381D01*
X40706407Y-133290410D01*
X41179479Y-132925885D01*
X42401331Y-131987402D01*
X43493599Y-131131541D01*
X44267323Y-130506859D01*
X44408457Y-130387281D01*
X45004339Y-129902495D01*
X45313701Y-129708333D01*
X45360074Y-130038840D01*
X45398387Y-130941306D01*
X45424931Y-132282147D01*
X45435998Y-133927780D01*
X45436111Y-134118055D01*
X50925860Y-134118055D01*
X52269906Y-132531377D01*
X53248712Y-136499716D01*
X53638208Y-138111103D01*
X53956775Y-139490282D01*
X54169468Y-140481821D01*
X54241537Y-140915748D01*
X56218165Y-140915748D01*
X56593776Y-140112270D01*
X57194553Y-138943029D01*
X57900281Y-137638268D01*
X58632868Y-136338123D01*
X59314223Y-135182731D01*
X59866252Y-134312228D01*
X60210865Y-133866750D01*
X60277578Y-133842407D01*
X60533194Y-134253675D01*
X61009592Y-135130118D01*
X61628713Y-136316897D01*
X62312498Y-137659170D01*
X62982890Y-139002097D01*
X63561828Y-140190838D01*
X63971255Y-141070551D01*
X64133111Y-141486396D01*
X64133334Y-141490850D01*
X70159868Y-141490850D01*
X71879390Y-140986877D01*
X74340098Y-140139446D01*
X76603001Y-139236526D01*
X76706740Y-139186816D01*
X73305556Y-139186816D01*
X72992115Y-139418824D01*
X72163051Y-139762308D01*
X70985246Y-140149890D01*
X70747917Y-140219474D01*
X68797005Y-140768535D01*
X67427785Y-141118702D01*
X66549958Y-141286115D01*
X66073227Y-141286914D01*
X65907294Y-141137241D01*
X65903538Y-141085416D01*
X65986786Y-140628871D01*
X66202595Y-139672734D01*
X66511042Y-138377415D01*
X66872200Y-136903327D01*
X67246144Y-135410880D01*
X67592951Y-134060487D01*
X67872694Y-133012559D01*
X68045449Y-132427508D01*
X68075401Y-132359250D01*
X68323355Y-132569515D01*
X68885617Y-133220610D01*
X69662320Y-134182168D01*
X70553598Y-135323820D01*
X71459584Y-136515197D01*
X72280412Y-137625932D01*
X72916214Y-138525656D01*
X73267124Y-139084001D01*
X73305556Y-139186816D01*
X76706740Y-139186816D01*
X78432154Y-138360030D01*
X78597222Y-138268478D01*
X80677117Y-137059614D01*
X82124751Y-136138486D01*
X82949278Y-135498899D01*
X83163704Y-135181279D01*
X81708536Y-135181279D01*
X81268509Y-135485568D01*
X80396272Y-136002921D01*
X79263501Y-136640150D01*
X78041875Y-137304068D01*
X76903071Y-137901487D01*
X76018767Y-138339220D01*
X75560641Y-138524081D01*
X75548160Y-138525154D01*
X75088493Y-138243728D01*
X74930799Y-137969758D01*
X74834040Y-137391544D01*
X74767283Y-136354238D01*
X74730107Y-135029016D01*
X74722092Y-133587053D01*
X74742817Y-132199527D01*
X74791860Y-131037614D01*
X74868802Y-130272491D01*
X74950242Y-130061111D01*
X75315400Y-130256724D01*
X76080200Y-130777057D01*
X77112964Y-131522350D01*
X78282014Y-132392841D01*
X79455672Y-133288770D01*
X80502262Y-134110376D01*
X81290104Y-134757899D01*
X81687522Y-135131578D01*
X81708536Y-135181279D01*
X83163704Y-135181279D01*
X83167006Y-135176388D01*
X83032433Y-134686117D01*
X82674455Y-133781697D01*
X82297943Y-132936498D01*
X81828318Y-131905650D01*
X81509551Y-131163760D01*
X81419445Y-130908025D01*
X81738714Y-130830779D01*
X82562667Y-130779435D01*
X83370794Y-130766666D01*
X84699584Y-130685633D01*
X85394780Y-130434281D01*
X85510121Y-130276806D01*
X85428471Y-129811924D01*
X85087789Y-128889316D01*
X84559440Y-127656848D01*
X83914790Y-126262384D01*
X83225204Y-124853791D01*
X82562049Y-123578936D01*
X81996689Y-122585682D01*
X81600491Y-122021897D01*
X81489949Y-121947222D01*
X81118991Y-122182278D01*
X81118991Y-122182278D01*
G37*
X81118991Y-122182278D02*
X80424112Y-122795563D01*
X79640812Y-123568222D01*
X76684279Y-126142753D01*
X73218983Y-128285035D01*
X69205768Y-130018574D01*
X68474520Y-130271538D01*
X66862051Y-130745549D01*
X65230463Y-131065656D01*
X63334258Y-131270697D01*
X61487500Y-131376870D01*
X57049848Y-131303940D01*
X52985620Y-130662563D01*
X49213968Y-129424150D01*
X45654043Y-127560110D01*
X42224997Y-125041852D01*
X41303572Y-124239271D01*
X40231412Y-123299863D01*
X39349744Y-122574623D01*
X38792133Y-122171338D01*
X38681951Y-122123611D01*
X38425860Y-122420850D01*
X37957677Y-123211887D01*
X37351696Y-124345705D01*
X36682215Y-125671283D01*
X36023529Y-127037604D01*
X35449936Y-128293648D01*
X35035731Y-129288397D01*
X34855212Y-129870832D01*
X34852778Y-129906990D01*
X35037190Y-130204888D01*
X35671724Y-130364074D01*
X36878326Y-130413752D01*
X36969445Y-130413888D01*
X38085960Y-130442127D01*
X38852953Y-130515524D01*
X39086111Y-130600337D01*
X38938498Y-130985815D01*
X38550882Y-131820505D01*
X38006097Y-132926256D01*
X37987414Y-132963293D01*
X36888717Y-135139799D01*
X37705901Y-135801515D01*
X39783569Y-137229699D01*
X42419210Y-138636354D01*
X45466630Y-139955706D01*
X48779636Y-141121977D01*
X50904167Y-141739664D01*
X53040954Y-142165176D01*
X55662922Y-142463642D01*
X58560205Y-142629329D01*
X61522937Y-142656506D01*
X64341251Y-142539443D01*
X66805280Y-142272409D01*
X67308334Y-142187621D01*
X69456820Y-141696906D01*
X70159868Y-141490850D01*
X64133334Y-141490850D01*
X63803790Y-141574287D01*
X62907998Y-141642259D01*
X61585218Y-141687492D01*
X60076389Y-141702777D01*
X58479152Y-141684977D01*
X57177953Y-141636592D01*
X56312051Y-141565143D01*
X56019445Y-141483644D01*
X56176043Y-141005854D01*
X56218165Y-140915748D01*
X54241537Y-140915748D01*
X54185763Y-141126048D01*
X53933663Y-141214463D01*
X53383071Y-141165779D01*
X52431821Y-140964780D01*
X50977749Y-140596253D01*
X49564182Y-140219196D01*
X48068759Y-139768408D01*
X47223359Y-139390018D01*
X46978917Y-139061104D01*
X46990251Y-139016670D01*
X47280093Y-138572573D01*
X47929462Y-137723750D01*
X48836785Y-136599511D01*
X49718661Y-135543182D01*
X50925860Y-134118055D01*
X45436111Y-134118055D01*
X45421648Y-136065780D01*
X45354537Y-137394583D01*
X45199199Y-138190890D01*
X44920054Y-138541127D01*
X44481523Y-138531722D01*
X43848024Y-138249100D01*
X43755630Y-138200082D01*
X42381421Y-137438181D01*
X41054154Y-136656482D01*
X39912270Y-135941993D01*
X39094210Y-135381725D01*
X38738414Y-135062684D01*
X38733334Y-135043617D01*
X38995752Y-134728173D01*
X39696631Y-134106381D01*
X40706407Y-133290410D01*
X41179479Y-132925885D01*
X42401331Y-131987402D01*
X43493599Y-131131541D01*
X44267323Y-130506859D01*
X44408457Y-130387281D01*
X45004339Y-129902495D01*
X45313701Y-129708333D01*
X45360074Y-130038840D01*
X45398387Y-130941306D01*
X45424931Y-132282147D01*
X45435998Y-133927780D01*
X45436111Y-134118055D01*
X50925860Y-134118055D01*
X52269906Y-132531377D01*
X53248712Y-136499716D01*
X53638208Y-138111103D01*
X53956775Y-139490282D01*
X54169468Y-140481821D01*
X54241537Y-140915748D01*
X56218165Y-140915748D01*
X56593776Y-140112270D01*
X57194553Y-138943029D01*
X57900281Y-137638268D01*
X58632868Y-136338123D01*
X59314223Y-135182731D01*
X59866252Y-134312228D01*
X60210865Y-133866750D01*
X60277578Y-133842407D01*
X60533194Y-134253675D01*
X61009592Y-135130118D01*
X61628713Y-136316897D01*
X62312498Y-137659170D01*
X62982890Y-139002097D01*
X63561828Y-140190838D01*
X63971255Y-141070551D01*
X64133111Y-141486396D01*
X64133334Y-141490850D01*
X70159868Y-141490850D01*
X71879390Y-140986877D01*
X74340098Y-140139446D01*
X76603001Y-139236526D01*
X76706740Y-139186816D01*
X73305556Y-139186816D01*
X72992115Y-139418824D01*
X72163051Y-139762308D01*
X70985246Y-140149890D01*
X70747917Y-140219474D01*
X68797005Y-140768535D01*
X67427785Y-141118702D01*
X66549958Y-141286115D01*
X66073227Y-141286914D01*
X65907294Y-141137241D01*
X65903538Y-141085416D01*
X65986786Y-140628871D01*
X66202595Y-139672734D01*
X66511042Y-138377415D01*
X66872200Y-136903327D01*
X67246144Y-135410880D01*
X67592951Y-134060487D01*
X67872694Y-133012559D01*
X68045449Y-132427508D01*
X68075401Y-132359250D01*
X68323355Y-132569515D01*
X68885617Y-133220610D01*
X69662320Y-134182168D01*
X70553598Y-135323820D01*
X71459584Y-136515197D01*
X72280412Y-137625932D01*
X72916214Y-138525656D01*
X73267124Y-139084001D01*
X73305556Y-139186816D01*
X76706740Y-139186816D01*
X78432154Y-138360030D01*
X78597222Y-138268478D01*
X80677117Y-137059614D01*
X82124751Y-136138486D01*
X82949278Y-135498899D01*
X83163704Y-135181279D01*
X81708536Y-135181279D01*
X81268509Y-135485568D01*
X80396272Y-136002921D01*
X79263501Y-136640150D01*
X78041875Y-137304068D01*
X76903071Y-137901487D01*
X76018767Y-138339220D01*
X75560641Y-138524081D01*
X75548160Y-138525154D01*
X75088493Y-138243728D01*
X74930799Y-137969758D01*
X74834040Y-137391544D01*
X74767283Y-136354238D01*
X74730107Y-135029016D01*
X74722092Y-133587053D01*
X74742817Y-132199527D01*
X74791860Y-131037614D01*
X74868802Y-130272491D01*
X74950242Y-130061111D01*
X75315400Y-130256724D01*
X76080200Y-130777057D01*
X77112964Y-131522350D01*
X78282014Y-132392841D01*
X79455672Y-133288770D01*
X80502262Y-134110376D01*
X81290104Y-134757899D01*
X81687522Y-135131578D01*
X81708536Y-135181279D01*
X83163704Y-135181279D01*
X83167006Y-135176388D01*
X83032433Y-134686117D01*
X82674455Y-133781697D01*
X82297943Y-132936498D01*
X81828318Y-131905650D01*
X81509551Y-131163760D01*
X81419445Y-130908025D01*
X81738714Y-130830779D01*
X82562667Y-130779435D01*
X83370794Y-130766666D01*
X84699584Y-130685633D01*
X85394780Y-130434281D01*
X85510121Y-130276806D01*
X85428471Y-129811924D01*
X85087789Y-128889316D01*
X84559440Y-127656848D01*
X83914790Y-126262384D01*
X83225204Y-124853791D01*
X82562049Y-123578936D01*
X81996689Y-122585682D01*
X81600491Y-122021897D01*
X81489949Y-121947222D01*
X81118991Y-122182278D01*
G36*
X69951602Y-99685912D02*
X69679340Y-100508784D01*
X69456659Y-101468253D01*
X68672761Y-103844398D01*
X67380165Y-105888076D01*
X65680005Y-107533012D01*
X63673419Y-108712931D01*
X61461544Y-109361557D01*
X59145515Y-109412616D01*
X57760826Y-109132608D01*
X55318006Y-108084640D01*
X53334992Y-106529054D01*
X51863693Y-104524914D01*
X50956020Y-102131283D01*
X50777402Y-101186802D01*
X50570360Y-100213256D01*
X50309966Y-99589725D01*
X50198450Y-99488555D01*
X49961329Y-99753977D01*
X49469523Y-100528058D01*
X48788615Y-101690777D01*
X47984186Y-103122113D01*
X47121820Y-104702046D01*
X46267100Y-106310557D01*
X45485609Y-107827623D01*
X44842928Y-109133226D01*
X44431408Y-110042596D01*
X44616985Y-110395457D01*
X45215083Y-111116025D01*
X46124363Y-112088519D01*
X46913793Y-112878693D01*
X49539723Y-115136403D01*
X52191309Y-116756069D01*
X55010348Y-117795581D01*
X58138637Y-118312825D01*
X60429167Y-118396285D01*
X63130912Y-118241941D01*
X65349048Y-117818996D01*
X65615813Y-117738299D01*
X68713179Y-116424316D01*
X71553189Y-114587905D01*
X72174967Y-114009722D01*
X63075000Y-114009722D01*
X62763034Y-115394756D01*
X61912880Y-116420562D01*
X60653150Y-116958528D01*
X60076389Y-117008333D01*
X58730472Y-116720448D01*
X57943687Y-116142424D01*
X57227261Y-115009320D01*
X57036842Y-113722186D01*
X57369154Y-112507717D01*
X58007298Y-111742271D01*
X59281388Y-111107100D01*
X60582882Y-111053253D01*
X61752334Y-111509390D01*
X62630297Y-112404168D01*
X63057323Y-113666245D01*
X63075000Y-114009722D01*
X72174967Y-114009722D01*
X73961184Y-112348744D01*
X74599660Y-111582526D01*
X75083362Y-110961673D01*
X71894445Y-110961673D01*
X71603999Y-112303076D01*
X70836215Y-113261646D01*
X69746420Y-113766865D01*
X68489940Y-113748219D01*
X67222103Y-113135192D01*
X67179520Y-113102173D01*
X66423640Y-112106890D01*
X66261141Y-110961673D01*
X53902778Y-110961673D01*
X53607859Y-112277474D01*
X52835652Y-113242054D01*
X51754983Y-113781817D01*
X50534675Y-113823170D01*
X49343553Y-113292519D01*
X49074820Y-113066283D01*
X48369516Y-111994035D01*
X48231130Y-110797757D01*
X48588575Y-109654681D01*
X49370763Y-108742038D01*
X50506610Y-108237061D01*
X51031118Y-108188888D01*
X52407264Y-108485867D01*
X53392980Y-109303238D01*
X53873982Y-110530651D01*
X53902778Y-110961673D01*
X66261141Y-110961673D01*
X66250170Y-110884357D01*
X66663758Y-109612294D01*
X67073154Y-109035148D01*
X68103037Y-108287552D01*
X69263646Y-108109886D01*
X70384525Y-108434039D01*
X71295219Y-109191899D01*
X71825273Y-110315354D01*
X71894445Y-110961673D01*
X75083362Y-110961673D01*
X75814621Y-110023070D01*
X73146769Y-104696257D01*
X72249295Y-102938533D01*
X71443904Y-101425253D01*
X70788378Y-100259963D01*
X70340497Y-99546206D01*
X70174246Y-99369444D01*
X69951602Y-99685912D01*
X69951602Y-99685912D01*
G37*
X69951602Y-99685912D02*
X69679340Y-100508784D01*
X69456659Y-101468253D01*
X68672761Y-103844398D01*
X67380165Y-105888076D01*
X65680005Y-107533012D01*
X63673419Y-108712931D01*
X61461544Y-109361557D01*
X59145515Y-109412616D01*
X57760826Y-109132608D01*
X55318006Y-108084640D01*
X53334992Y-106529054D01*
X51863693Y-104524914D01*
X50956020Y-102131283D01*
X50777402Y-101186802D01*
X50570360Y-100213256D01*
X50309966Y-99589725D01*
X50198450Y-99488555D01*
X49961329Y-99753977D01*
X49469523Y-100528058D01*
X48788615Y-101690777D01*
X47984186Y-103122113D01*
X47121820Y-104702046D01*
X46267100Y-106310557D01*
X45485609Y-107827623D01*
X44842928Y-109133226D01*
X44431408Y-110042596D01*
X44616985Y-110395457D01*
X45215083Y-111116025D01*
X46124363Y-112088519D01*
X46913793Y-112878693D01*
X49539723Y-115136403D01*
X52191309Y-116756069D01*
X55010348Y-117795581D01*
X58138637Y-118312825D01*
X60429167Y-118396285D01*
X63130912Y-118241941D01*
X65349048Y-117818996D01*
X65615813Y-117738299D01*
X68713179Y-116424316D01*
X71553189Y-114587905D01*
X72174967Y-114009722D01*
X63075000Y-114009722D01*
X62763034Y-115394756D01*
X61912880Y-116420562D01*
X60653150Y-116958528D01*
X60076389Y-117008333D01*
X58730472Y-116720448D01*
X57943687Y-116142424D01*
X57227261Y-115009320D01*
X57036842Y-113722186D01*
X57369154Y-112507717D01*
X58007298Y-111742271D01*
X59281388Y-111107100D01*
X60582882Y-111053253D01*
X61752334Y-111509390D01*
X62630297Y-112404168D01*
X63057323Y-113666245D01*
X63075000Y-114009722D01*
X72174967Y-114009722D01*
X73961184Y-112348744D01*
X74599660Y-111582526D01*
X75083362Y-110961673D01*
X71894445Y-110961673D01*
X71603999Y-112303076D01*
X70836215Y-113261646D01*
X69746420Y-113766865D01*
X68489940Y-113748219D01*
X67222103Y-113135192D01*
X67179520Y-113102173D01*
X66423640Y-112106890D01*
X66261141Y-110961673D01*
X53902778Y-110961673D01*
X53607859Y-112277474D01*
X52835652Y-113242054D01*
X51754983Y-113781817D01*
X50534675Y-113823170D01*
X49343553Y-113292519D01*
X49074820Y-113066283D01*
X48369516Y-111994035D01*
X48231130Y-110797757D01*
X48588575Y-109654681D01*
X49370763Y-108742038D01*
X50506610Y-108237061D01*
X51031118Y-108188888D01*
X52407264Y-108485867D01*
X53392980Y-109303238D01*
X53873982Y-110530651D01*
X53902778Y-110961673D01*
X66261141Y-110961673D01*
X66250170Y-110884357D01*
X66663758Y-109612294D01*
X67073154Y-109035148D01*
X68103037Y-108287552D01*
X69263646Y-108109886D01*
X70384525Y-108434039D01*
X71295219Y-109191899D01*
X71825273Y-110315354D01*
X71894445Y-110961673D01*
X75083362Y-110961673D01*
X75814621Y-110023070D01*
X73146769Y-104696257D01*
X72249295Y-102938533D01*
X71443904Y-101425253D01*
X70788378Y-100259963D01*
X70340497Y-99546206D01*
X70174246Y-99369444D01*
X69951602Y-99685912D01*
%LPC*%
D12*
X57500000Y-103500000D03*
X57500000Y-110500000D03*
X57500000Y-117500000D03*
X57500000Y-124500000D03*
X62500000Y-124500000D03*
X62500000Y-117500000D03*
X62500000Y-110500000D03*
X62500000Y-103500000D03*
M02*
