G04 #@! TF.FileFunction,Copper,L1,Top,Signal*
%FSLAX46Y46*%
G04 Gerber Fmt 4.6, Leading zero omitted, Abs format (unit mm)*
G04 Created by KiCad (PCBNEW 4.0.0-rc1-stable) date 19/10/2016 22:39:26*
%MOMM*%
G01*
G04 APERTURE LIST*
%ADD10C,0.100000*%
%ADD11R,0.800000X0.800000*%
%ADD12R,1.150000X1.450000*%
%ADD13R,3.000000X3.000000*%
%ADD14C,0.600000*%
%ADD15C,0.500000*%
%ADD16C,1.000000*%
G04 APERTURE END LIST*
D10*
D11*
X35375000Y-147250000D03*
X32625000Y-147250000D03*
X32625000Y-148750000D03*
X35375000Y-148750000D03*
X82625000Y-127000000D03*
X79875000Y-127000000D03*
X79875000Y-128500000D03*
X82625000Y-128500000D03*
X46625000Y-114500000D03*
X43875000Y-114500000D03*
X43875000Y-116000000D03*
X46625000Y-116000000D03*
X87375000Y-147250000D03*
X84625000Y-147250000D03*
X84625000Y-148750000D03*
X87375000Y-148750000D03*
X40125000Y-127000000D03*
X37375000Y-127000000D03*
X37375000Y-128500000D03*
X40125000Y-128500000D03*
X76125000Y-114500000D03*
X73375000Y-114500000D03*
X73375000Y-116000000D03*
X76125000Y-116000000D03*
D12*
X39100000Y-145000000D03*
X40900000Y-145000000D03*
X75900000Y-127000000D03*
X74100000Y-127000000D03*
X39100000Y-147000000D03*
X40900000Y-147000000D03*
X75900000Y-125000000D03*
X74100000Y-125000000D03*
X39100000Y-149000000D03*
X40900000Y-149000000D03*
X75900000Y-129000000D03*
X74100000Y-129000000D03*
X49100000Y-113000000D03*
X50900000Y-113000000D03*
X49100000Y-115000000D03*
X50900000Y-115000000D03*
X49100000Y-117000000D03*
X50900000Y-117000000D03*
X80900000Y-147000000D03*
X79100000Y-147000000D03*
X44100000Y-127000000D03*
X45900000Y-127000000D03*
X80900000Y-145000000D03*
X79100000Y-145000000D03*
X44100000Y-125000000D03*
X45900000Y-125000000D03*
X80900000Y-149000000D03*
X79100000Y-149000000D03*
X44100000Y-129000000D03*
X45900000Y-129000000D03*
X70900000Y-115000000D03*
X69100000Y-115000000D03*
X70900000Y-113000000D03*
X69100000Y-113000000D03*
X70900000Y-117000000D03*
X69100000Y-117000000D03*
D13*
X62500000Y-103500000D03*
X62500000Y-110500000D03*
X62500000Y-117500000D03*
X62500000Y-124500000D03*
X57500000Y-124500000D03*
X57500000Y-117500000D03*
X57500000Y-110500000D03*
X57500000Y-103500000D03*
D14*
X57500000Y-127200000D03*
X62500000Y-127200000D03*
X38600000Y-128600000D03*
X43800000Y-117400000D03*
X33700000Y-148800000D03*
X83700000Y-148200000D03*
X81000000Y-127800000D03*
X74700000Y-115300000D03*
X41142837Y-126142837D03*
X40000000Y-125000000D03*
X50000000Y-111000000D03*
X54000000Y-125000000D03*
X68000000Y-116000000D03*
X54000000Y-104000000D03*
X52000000Y-116000000D03*
X54799989Y-124000000D03*
X69000000Y-119000000D03*
X53000000Y-111000000D03*
X59000000Y-120000000D03*
X69982163Y-125017837D03*
X53000000Y-117000000D03*
X65030337Y-113969663D03*
X67000000Y-115000000D03*
X65950000Y-121030337D03*
X70000000Y-121000000D03*
D15*
X35375000Y-147250000D02*
X38850000Y-147250000D01*
X38850000Y-147250000D02*
X39100000Y-147000000D01*
X32625000Y-147250000D02*
X33525000Y-147250000D01*
X33525000Y-147250000D02*
X35775000Y-145000000D01*
X35775000Y-145000000D02*
X38025000Y-145000000D01*
X38025000Y-145000000D02*
X39100000Y-145000000D01*
X57500000Y-126700000D02*
X57500000Y-127200000D01*
X62500000Y-126600000D02*
X62500000Y-127200000D01*
X57500000Y-126700000D02*
X57500000Y-124500000D01*
X62500000Y-124500000D02*
X62500000Y-126600000D01*
X37375000Y-128500000D02*
X38500000Y-128500000D01*
X38500000Y-128500000D02*
X38600000Y-128600000D01*
X43875000Y-116000000D02*
X43875000Y-117325000D01*
X43875000Y-117325000D02*
X43800000Y-117400000D01*
X32625000Y-148750000D02*
X33650000Y-148750000D01*
X33650000Y-148750000D02*
X33700000Y-148800000D01*
X84625000Y-148750000D02*
X84250000Y-148750000D01*
X84250000Y-148750000D02*
X83700000Y-148200000D01*
X79875000Y-128500000D02*
X80300000Y-128500000D01*
X80300000Y-128500000D02*
X81000000Y-127800000D01*
X73375000Y-116000000D02*
X74000000Y-116000000D01*
X74000000Y-116000000D02*
X74700000Y-115300000D01*
D16*
X57500000Y-124500000D02*
X62500000Y-124500000D01*
D15*
X35375000Y-148750000D02*
X38850000Y-148750000D01*
X38850000Y-148750000D02*
X39100000Y-149000000D01*
X75900000Y-125000000D02*
X81525000Y-125000000D01*
X81525000Y-125000000D02*
X82625000Y-126100000D01*
X82625000Y-126100000D02*
X82625000Y-127000000D01*
X79875000Y-127000000D02*
X75900000Y-127000000D01*
X75900000Y-129000000D02*
X78764998Y-129000000D01*
X78764998Y-129000000D02*
X79114999Y-129350001D01*
X79114999Y-129350001D02*
X80874999Y-129350001D01*
X80874999Y-129350001D02*
X81725000Y-128500000D01*
X81725000Y-128500000D02*
X82625000Y-128500000D01*
X46625000Y-114500000D02*
X47525000Y-114500000D01*
X47525000Y-114500000D02*
X48025000Y-115000000D01*
X48025000Y-115000000D02*
X49100000Y-115000000D01*
X46400000Y-113000000D02*
X44900000Y-114500000D01*
X44900000Y-114500000D02*
X43875000Y-114500000D01*
X49100000Y-113000000D02*
X46400000Y-113000000D01*
X46625000Y-116625000D02*
X47000000Y-117000000D01*
X47000000Y-117000000D02*
X49100000Y-117000000D01*
X46625000Y-116000000D02*
X46625000Y-116625000D01*
X87375000Y-147250000D02*
X86475000Y-147250000D01*
X86475000Y-147250000D02*
X84225000Y-145000000D01*
X84225000Y-145000000D02*
X81975000Y-145000000D01*
X81975000Y-145000000D02*
X80900000Y-145000000D01*
X80900000Y-147000000D02*
X84375000Y-147000000D01*
X84375000Y-147000000D02*
X84625000Y-147250000D01*
X80900000Y-149000000D02*
X80900000Y-149150000D01*
X80900000Y-149150000D02*
X81350001Y-149600001D01*
X81350001Y-149600001D02*
X85624999Y-149600001D01*
X85624999Y-149600001D02*
X86475000Y-148750000D01*
X86475000Y-148750000D02*
X87375000Y-148750000D01*
X40125000Y-127000000D02*
X40125000Y-126100000D01*
X40125000Y-126100000D02*
X41225000Y-125000000D01*
X43025000Y-125000000D02*
X44100000Y-125000000D01*
X41225000Y-125000000D02*
X43025000Y-125000000D01*
X42000000Y-127000000D02*
X44100000Y-127000000D01*
X41142837Y-126142837D02*
X42000000Y-127000000D01*
X38000000Y-127000000D02*
X40000000Y-125000000D01*
X37375000Y-127000000D02*
X38000000Y-127000000D01*
X42500000Y-128500000D02*
X43000000Y-129000000D01*
X43000000Y-129000000D02*
X44100000Y-129000000D01*
X40125000Y-128500000D02*
X42500000Y-128500000D01*
X70900000Y-113000000D02*
X75525000Y-113000000D01*
X75525000Y-113000000D02*
X76125000Y-113600000D01*
X76125000Y-113600000D02*
X76125000Y-114500000D01*
X70900000Y-115000000D02*
X72875000Y-115000000D01*
X72875000Y-115000000D02*
X73375000Y-114500000D01*
X70900000Y-117000000D02*
X76025000Y-117000000D01*
X76025000Y-117000000D02*
X76125000Y-116900000D01*
X76125000Y-116900000D02*
X76125000Y-116000000D01*
X50000000Y-111000000D02*
X50800000Y-111000000D01*
X50800000Y-111000000D02*
X50900000Y-111100000D01*
X50916489Y-107083511D02*
X54000000Y-104000000D01*
X50900000Y-111100000D02*
X50900000Y-107100000D01*
X50900000Y-107100000D02*
X50916489Y-107083511D01*
X50900000Y-113000000D02*
X50900000Y-111100000D01*
X54000000Y-133985038D02*
X54000000Y-125000000D01*
X42985038Y-145000000D02*
X54000000Y-133985038D01*
X40900000Y-145000000D02*
X42985038Y-145000000D01*
X74100000Y-127000000D02*
X73025000Y-127000000D01*
X73025000Y-127000000D02*
X68164999Y-122139999D01*
X68164999Y-122139999D02*
X68164999Y-118175001D01*
X68164999Y-118175001D02*
X68000000Y-118010002D01*
X68000000Y-118010002D02*
X68000000Y-116000000D01*
X52000000Y-116000000D02*
X52000000Y-115025000D01*
X52000000Y-115025000D02*
X51975000Y-115000000D01*
X40900000Y-147000000D02*
X41975000Y-147000000D01*
X41975000Y-147000000D02*
X54799989Y-134175011D01*
X54799989Y-134175011D02*
X54799989Y-124000000D01*
X69000000Y-119000000D02*
X69000000Y-121985038D01*
X69000000Y-121985038D02*
X72014962Y-125000000D01*
X72014962Y-125000000D02*
X74100000Y-125000000D01*
X74100000Y-125000000D02*
X74100000Y-124850000D01*
X50900000Y-115000000D02*
X51975000Y-115000000D01*
X51975000Y-115000000D02*
X53000000Y-113975000D01*
X53000000Y-113975000D02*
X53000000Y-111000000D01*
X40900000Y-149000000D02*
X41975000Y-149000000D01*
X41975000Y-149000000D02*
X55549999Y-135425001D01*
X55549999Y-135425001D02*
X55549999Y-122639999D01*
X58189998Y-120000000D02*
X59000000Y-120000000D01*
X55549999Y-122639999D02*
X58189998Y-120000000D01*
X73025000Y-129000000D02*
X73025000Y-128060674D01*
X73025000Y-128060674D02*
X69982163Y-125017837D01*
X74100000Y-129000000D02*
X73025000Y-129000000D01*
X50900000Y-117000000D02*
X53000000Y-117000000D01*
X65030337Y-113969663D02*
X65030337Y-114969663D01*
X65030337Y-114969663D02*
X65000000Y-115000000D01*
X45900000Y-127000000D02*
X46975000Y-127000000D01*
X46975000Y-127000000D02*
X55549999Y-118425001D01*
X55549999Y-118425001D02*
X55549999Y-114450001D01*
X55549999Y-114450001D02*
X57500000Y-112500000D01*
X57500000Y-112500000D02*
X57500000Y-110500000D01*
X65000000Y-115000000D02*
X64882145Y-114882145D01*
X64882145Y-114882145D02*
X62500000Y-112500000D01*
X69100000Y-115000000D02*
X67000000Y-115000000D01*
X65000000Y-119000000D02*
X65000000Y-115000000D01*
X62500000Y-112500000D02*
X62500000Y-110500000D01*
X66700010Y-120700010D02*
X65000000Y-119000000D01*
X79100000Y-147000000D02*
X78025000Y-147000000D01*
X78025000Y-147000000D02*
X66700010Y-135675010D01*
X66700010Y-135675010D02*
X66700010Y-120700010D01*
D16*
X57500000Y-110500000D02*
X62500000Y-110500000D01*
D15*
X54000000Y-118000000D02*
X54000000Y-109000000D01*
X54000000Y-109000000D02*
X57500000Y-105500000D01*
X57500000Y-105500000D02*
X57500000Y-103500000D01*
X47000000Y-125000000D02*
X54000000Y-118000000D01*
X45900000Y-125000000D02*
X47000000Y-125000000D01*
X65980216Y-118980216D02*
X65980216Y-113002016D01*
X65980216Y-113002016D02*
X65980216Y-108980216D01*
X67612322Y-113000000D02*
X65982232Y-113000000D01*
X65982232Y-113000000D02*
X65980216Y-113002016D01*
X62500000Y-105500000D02*
X65980216Y-108980216D01*
X67400020Y-120400020D02*
X65980216Y-118980216D01*
X67400020Y-134382584D02*
X67400020Y-120400020D01*
X69100000Y-113000000D02*
X67612322Y-113000000D01*
X62500000Y-103500000D02*
X62500000Y-105500000D01*
X67400020Y-134382584D02*
X78017436Y-145000000D01*
X78017436Y-145000000D02*
X79100000Y-145000000D01*
D16*
X57500000Y-103500000D02*
X62500000Y-103500000D01*
D15*
X66000000Y-123000000D02*
X64814855Y-121814855D01*
X64814855Y-121814855D02*
X62500000Y-119500000D01*
X65950000Y-121030337D02*
X65165482Y-121814855D01*
X65165482Y-121814855D02*
X64814855Y-121814855D01*
X69100000Y-117000000D02*
X69100000Y-117150000D01*
X69100000Y-117150000D02*
X70000000Y-118050000D01*
X70000000Y-118050000D02*
X70000000Y-121000000D01*
X45900000Y-129000000D02*
X48000000Y-129000000D01*
X48000000Y-129000000D02*
X57500000Y-119500000D01*
X57500000Y-119500000D02*
X57500000Y-117500000D01*
X66000000Y-136975000D02*
X66000000Y-123000000D01*
X62500000Y-119500000D02*
X62500000Y-117500000D01*
X79100000Y-149000000D02*
X78025000Y-149000000D01*
X78025000Y-149000000D02*
X66000000Y-136975000D01*
X63000000Y-117000000D02*
X62500000Y-117500000D01*
D16*
X57500000Y-117500000D02*
X62500000Y-117500000D01*
M02*
