G04 #@! TF.FileFunction,Copper,L2,Bot,Signal*
%FSLAX46Y46*%
G04 Gerber Fmt 4.6, Leading zero omitted, Abs format (unit mm)*
G04 Created by KiCad (PCBNEW 4.0.0-rc1-stable) date 19/10/2016 22:40:48*
%MOMM*%
G01*
G04 APERTURE LIST*
%ADD10C,0.100000*%
%ADD11C,2.000000*%
%ADD12C,1.600000*%
%ADD13C,1.000000*%
%ADD14R,3.000000X3.000000*%
%ADD15C,0.600000*%
%ADD16C,0.500000*%
%ADD17C,0.300000*%
%ADD18C,0.254000*%
G04 APERTURE END LIST*
D10*
D11*
X139350000Y-114900000D03*
X94650000Y-114900000D03*
D12*
X105400000Y-105300000D03*
X103400000Y-105300000D03*
X107400000Y-105300000D03*
D11*
X109500000Y-105300000D03*
X101300000Y-105300000D03*
D13*
X143809504Y-118909754D02*
X144033042Y-118797814D01*
X145802032Y-122888740D02*
X146025570Y-122776800D01*
X145328237Y-115968398D02*
X146132975Y-115565414D01*
X149067025Y-123434586D02*
X149871763Y-123031602D01*
D11*
X99750000Y-91650000D03*
X104250000Y-91650000D03*
X104250000Y-98150000D03*
X99750000Y-98150000D03*
X129750000Y-91650000D03*
X134250000Y-91650000D03*
X134250000Y-98150000D03*
X129750000Y-98150000D03*
D14*
X114500000Y-58500000D03*
X114500000Y-65500000D03*
X114500000Y-72500000D03*
X114500000Y-79500000D03*
X119500000Y-79500000D03*
X119500000Y-72500000D03*
X119500000Y-65500000D03*
X119500000Y-58500000D03*
D15*
X102392307Y-68880003D03*
X103000000Y-67300000D03*
X125100000Y-76000000D03*
X109800000Y-79100000D03*
X113000000Y-94600000D03*
X121600000Y-94600000D03*
X118200000Y-94600000D03*
X116000030Y-94600000D03*
X102000000Y-100000000D03*
X129800000Y-101400000D03*
X129800000Y-104700000D03*
X97600000Y-80300000D03*
X95700000Y-83600000D03*
X97400000Y-86600000D03*
X138100000Y-83200000D03*
X135700000Y-86100000D03*
X112000000Y-115800000D03*
X99600000Y-108600000D03*
X97000000Y-121000000D03*
X125500000Y-57600000D03*
X108600000Y-57600000D03*
X129200000Y-118025010D03*
X140400000Y-98200000D03*
X124200000Y-111600000D03*
X122000000Y-122600000D03*
X135800000Y-121200000D03*
X143400000Y-120400000D03*
X108800000Y-96400000D03*
X133800000Y-108600000D03*
X113800000Y-111200000D03*
X111100000Y-100299990D03*
X114400000Y-60800000D03*
X118300000Y-91700000D03*
X122000000Y-91700000D03*
X116000000Y-101000000D03*
X113000000Y-101000000D03*
X110300000Y-69600000D03*
X122000000Y-90500000D03*
X113900000Y-90600000D03*
X115400000Y-103000000D03*
X113000000Y-103000000D03*
X109600000Y-73800000D03*
X122000000Y-89300000D03*
X113000000Y-89100000D03*
X125800000Y-73600000D03*
X121000000Y-85100000D03*
X113000000Y-85100000D03*
X120900000Y-102700000D03*
X118600000Y-101900000D03*
X123700000Y-69900000D03*
X116000030Y-87000000D03*
X113000000Y-87000000D03*
X122000000Y-102100000D03*
X122000000Y-104400000D03*
X124300010Y-73800000D03*
X122200000Y-73800000D03*
X122000000Y-88000000D03*
X113000000Y-88100000D03*
X131080013Y-101480013D03*
X129000000Y-106800000D03*
X127300000Y-116800000D03*
X126300000Y-119500000D03*
X125800000Y-118300000D03*
X122700000Y-117400000D03*
D16*
X103000000Y-67300000D02*
X103000000Y-68272310D01*
X103000000Y-68272310D02*
X102392307Y-68880003D01*
X119500000Y-79500000D02*
X119500000Y-77500000D01*
X119500000Y-77500000D02*
X121000000Y-76000000D01*
X121000000Y-76000000D02*
X125100000Y-76000000D01*
X109800000Y-79100000D02*
X114100000Y-79100000D01*
X114100000Y-79100000D02*
X114500000Y-79500000D01*
X113600000Y-94600000D02*
X113000000Y-94600000D01*
X118200000Y-94600000D02*
X121600000Y-94600000D01*
X113600000Y-94600000D02*
X116000030Y-94600000D01*
X102000000Y-100000000D02*
X105400000Y-103400000D01*
X105400000Y-103400000D02*
X105400000Y-105300000D01*
X129800000Y-104700000D02*
X129800000Y-101400000D01*
X97700000Y-83600000D02*
X97700000Y-80400000D01*
X97700000Y-80400000D02*
X97600000Y-80300000D01*
X98300000Y-84200000D02*
X97700000Y-83600000D01*
X97700000Y-83600000D02*
X95700000Y-83600000D01*
X98300000Y-85700000D02*
X98300000Y-84200000D01*
X97400000Y-86600000D02*
X98300000Y-85700000D01*
X135700000Y-84400000D02*
X136900000Y-83200000D01*
X136900000Y-83200000D02*
X138100000Y-83200000D01*
X135700000Y-85675736D02*
X135700000Y-84400000D01*
X135700000Y-86100000D02*
X135700000Y-85675736D01*
X112299999Y-103499999D02*
X113800000Y-105000000D01*
X113800000Y-105000000D02*
X113800000Y-111200000D01*
X111100000Y-100299990D02*
X112299999Y-101499989D01*
X112299999Y-101499989D02*
X112299999Y-103499999D01*
X114500000Y-58500000D02*
X114500000Y-60700000D01*
X114500000Y-60700000D02*
X114400000Y-60800000D01*
X114000000Y-59000000D02*
X114500000Y-58500000D01*
X122000000Y-91700000D02*
X118300000Y-91700000D01*
X113000000Y-101000000D02*
X116000000Y-101000000D01*
X111600000Y-68300000D02*
X111600000Y-66400000D01*
X111600000Y-66400000D02*
X112500000Y-65500000D01*
X112500000Y-65500000D02*
X114500000Y-65500000D01*
X110300000Y-69600000D02*
X111600000Y-68300000D01*
X113900000Y-90600000D02*
X121900000Y-90600000D01*
X121900000Y-90600000D02*
X122000000Y-90500000D01*
X113000000Y-103000000D02*
X115400000Y-103000000D01*
X114500000Y-72500000D02*
X110900000Y-72500000D01*
X110900000Y-72500000D02*
X109600000Y-73800000D01*
X122000000Y-89300000D02*
X113200000Y-89300000D01*
X113200000Y-89300000D02*
X113000000Y-89100000D01*
X119500000Y-65500000D02*
X119500000Y-67500000D01*
X119500000Y-67500000D02*
X125600000Y-73600000D01*
X125600000Y-73600000D02*
X125800000Y-73600000D01*
X113000000Y-85100000D02*
X113900000Y-86000000D01*
X113900000Y-86000000D02*
X120100000Y-86000000D01*
X120100000Y-86000000D02*
X121000000Y-85100000D01*
X118600000Y-101900000D02*
X120100000Y-101900000D01*
X120100000Y-101900000D02*
X120900000Y-102700000D01*
X122500000Y-68700000D02*
X122500000Y-63500000D01*
X122500000Y-63500000D02*
X119500000Y-60500000D01*
X119500000Y-60500000D02*
X119500000Y-58500000D01*
X123700000Y-69900000D02*
X122500000Y-68700000D01*
X113000000Y-87000000D02*
X116000030Y-87000000D01*
X122000000Y-104400000D02*
X122000000Y-102100000D01*
X122200000Y-73800000D02*
X123316178Y-73800000D01*
X123316178Y-73800000D02*
X124300010Y-73800000D01*
X119500000Y-72500000D02*
X122016178Y-72500000D01*
X122016178Y-72500000D02*
X123316178Y-73800000D01*
X113000000Y-88100000D02*
X121900000Y-88100000D01*
X121900000Y-88100000D02*
X122000000Y-88000000D01*
D17*
X129000000Y-106800000D02*
X131080013Y-104719987D01*
X131080013Y-104719987D02*
X131080013Y-101480013D01*
X126300000Y-119500000D02*
X127300000Y-118500000D01*
X127300000Y-118500000D02*
X127300000Y-116800000D01*
D16*
X122700000Y-117400000D02*
X124900000Y-117400000D01*
X124900000Y-117400000D02*
X125800000Y-118300000D01*
D18*
G36*
X114873000Y-56360717D02*
X113000000Y-56360717D01*
X112767648Y-56404437D01*
X112554247Y-56541757D01*
X112411083Y-56751283D01*
X112360717Y-57000000D01*
X112360717Y-60000000D01*
X112404437Y-60232352D01*
X112541757Y-60445753D01*
X112751283Y-60588917D01*
X113000000Y-60639283D01*
X113473140Y-60639283D01*
X113472839Y-60983583D01*
X113613669Y-61324417D01*
X113874211Y-61585414D01*
X114214799Y-61726839D01*
X114583583Y-61727161D01*
X114873000Y-61607576D01*
X114873000Y-63360717D01*
X113000000Y-63360717D01*
X112767648Y-63404437D01*
X112554247Y-63541757D01*
X112411083Y-63751283D01*
X112360717Y-64000000D01*
X112360717Y-64650705D01*
X112164386Y-64689758D01*
X111879867Y-64879867D01*
X110979867Y-65779867D01*
X110789758Y-66064387D01*
X110723000Y-66400000D01*
X110723000Y-67936735D01*
X109895694Y-68764040D01*
X109775583Y-68813669D01*
X109514586Y-69074211D01*
X109373161Y-69414799D01*
X109372839Y-69783583D01*
X109513669Y-70124417D01*
X109774211Y-70385414D01*
X110114799Y-70526839D01*
X110483583Y-70527161D01*
X110824417Y-70386331D01*
X111085414Y-70125789D01*
X111135786Y-70004480D01*
X112220130Y-68920135D01*
X112220133Y-68920133D01*
X112410242Y-68635613D01*
X112415750Y-68607923D01*
X112477001Y-68300000D01*
X112477000Y-68299995D01*
X112477000Y-67345118D01*
X112541757Y-67445753D01*
X112751283Y-67588917D01*
X113000000Y-67639283D01*
X114873000Y-67639283D01*
X114873000Y-70360717D01*
X113000000Y-70360717D01*
X112767648Y-70404437D01*
X112554247Y-70541757D01*
X112411083Y-70751283D01*
X112360717Y-71000000D01*
X112360717Y-71623000D01*
X110900005Y-71623000D01*
X110900000Y-71622999D01*
X110564387Y-71689758D01*
X110279867Y-71879867D01*
X110279865Y-71879870D01*
X109195694Y-72964040D01*
X109075583Y-73013669D01*
X108814586Y-73274211D01*
X108673161Y-73614799D01*
X108672839Y-73983583D01*
X108813669Y-74324417D01*
X109074211Y-74585414D01*
X109414799Y-74726839D01*
X109783583Y-74727161D01*
X110124417Y-74586331D01*
X110385414Y-74325789D01*
X110435786Y-74204480D01*
X111263265Y-73377000D01*
X112360717Y-73377000D01*
X112360717Y-74000000D01*
X112404437Y-74232352D01*
X112541757Y-74445753D01*
X112751283Y-74588917D01*
X113000000Y-74639283D01*
X114873000Y-74639283D01*
X114873000Y-77360717D01*
X113000000Y-77360717D01*
X112767648Y-77404437D01*
X112554247Y-77541757D01*
X112411083Y-77751283D01*
X112360717Y-78000000D01*
X112360717Y-78223000D01*
X110105226Y-78223000D01*
X109985201Y-78173161D01*
X109616417Y-78172839D01*
X109275583Y-78313669D01*
X109014586Y-78574211D01*
X108873161Y-78914799D01*
X108872839Y-79283583D01*
X109013669Y-79624417D01*
X109274211Y-79885414D01*
X109614799Y-80026839D01*
X109983583Y-80027161D01*
X110104982Y-79977000D01*
X112360717Y-79977000D01*
X112360717Y-81000000D01*
X112404437Y-81232352D01*
X112541757Y-81445753D01*
X112751283Y-81588917D01*
X113000000Y-81639283D01*
X114873000Y-81639283D01*
X114873000Y-85123000D01*
X114263266Y-85123000D01*
X113835960Y-84695694D01*
X113786331Y-84575583D01*
X113525789Y-84314586D01*
X113185201Y-84173161D01*
X112816417Y-84172839D01*
X112475583Y-84313669D01*
X112214586Y-84574211D01*
X112073161Y-84914799D01*
X112072839Y-85283583D01*
X112213669Y-85624417D01*
X112474211Y-85885414D01*
X112595520Y-85935786D01*
X112757087Y-86097353D01*
X112475583Y-86213669D01*
X112214586Y-86474211D01*
X112073161Y-86814799D01*
X112072839Y-87183583D01*
X112213669Y-87524417D01*
X112239024Y-87549816D01*
X112214586Y-87574211D01*
X112073161Y-87914799D01*
X112072839Y-88283583D01*
X112203728Y-88600359D01*
X112073161Y-88914799D01*
X112072839Y-89283583D01*
X112213669Y-89624417D01*
X112474211Y-89885414D01*
X112616055Y-89944313D01*
X112864387Y-90110242D01*
X113081677Y-90153465D01*
X112973161Y-90414799D01*
X112972839Y-90783583D01*
X113113669Y-91124417D01*
X113374211Y-91385414D01*
X113714799Y-91526839D01*
X114083583Y-91527161D01*
X114204982Y-91477000D01*
X117388857Y-91477000D01*
X117373161Y-91514799D01*
X117372839Y-91883583D01*
X117513669Y-92224417D01*
X117774211Y-92485414D01*
X118114799Y-92626839D01*
X118483583Y-92627161D01*
X118604982Y-92577000D01*
X121694774Y-92577000D01*
X121814799Y-92626839D01*
X122183583Y-92627161D01*
X122524417Y-92486331D01*
X122785414Y-92225789D01*
X122890709Y-91972211D01*
X128122718Y-91972211D01*
X128369892Y-92570418D01*
X128827175Y-93028499D01*
X129424950Y-93276717D01*
X130072211Y-93277282D01*
X130670418Y-93030108D01*
X131128499Y-92572825D01*
X131376717Y-91975050D01*
X131376719Y-91972211D01*
X132622718Y-91972211D01*
X132869892Y-92570418D01*
X133327175Y-93028499D01*
X133924950Y-93276717D01*
X134572211Y-93277282D01*
X135170418Y-93030108D01*
X135628499Y-92572825D01*
X135876717Y-91975050D01*
X135877282Y-91327789D01*
X135630108Y-90729582D01*
X135172825Y-90271501D01*
X134575050Y-90023283D01*
X133927789Y-90022718D01*
X133329582Y-90269892D01*
X132871501Y-90727175D01*
X132623283Y-91324950D01*
X132622718Y-91972211D01*
X131376719Y-91972211D01*
X131377282Y-91327789D01*
X131130108Y-90729582D01*
X130672825Y-90271501D01*
X130075050Y-90023283D01*
X129427789Y-90022718D01*
X128829582Y-90269892D01*
X128371501Y-90727175D01*
X128123283Y-91324950D01*
X128122718Y-91972211D01*
X122890709Y-91972211D01*
X122926839Y-91885201D01*
X122927161Y-91516417D01*
X122786331Y-91175583D01*
X122710976Y-91100097D01*
X122785414Y-91025789D01*
X122926839Y-90685201D01*
X122927161Y-90316417D01*
X122786331Y-89975583D01*
X122710976Y-89900097D01*
X122785414Y-89825789D01*
X122926839Y-89485201D01*
X122927161Y-89116417D01*
X122786331Y-88775583D01*
X122660976Y-88650010D01*
X122785414Y-88525789D01*
X122926839Y-88185201D01*
X122927161Y-87816417D01*
X122786331Y-87475583D01*
X122525789Y-87214586D01*
X122185201Y-87073161D01*
X121816417Y-87072839D01*
X121475583Y-87213669D01*
X121466236Y-87223000D01*
X116911173Y-87223000D01*
X116926869Y-87185201D01*
X116927138Y-86877000D01*
X120100000Y-86877000D01*
X120435613Y-86810242D01*
X120720133Y-86620133D01*
X121404306Y-85935960D01*
X121524417Y-85886331D01*
X121785414Y-85625789D01*
X121926839Y-85285201D01*
X121927161Y-84916417D01*
X121786331Y-84575583D01*
X121525789Y-84314586D01*
X121185201Y-84173161D01*
X120816417Y-84172839D01*
X120475583Y-84313669D01*
X120214586Y-84574211D01*
X120164214Y-84695520D01*
X119736734Y-85123000D01*
X119127000Y-85123000D01*
X119127000Y-81639283D01*
X121000000Y-81639283D01*
X121232352Y-81595563D01*
X121445753Y-81458243D01*
X121588917Y-81248717D01*
X121639283Y-81000000D01*
X121639283Y-78000000D01*
X121595563Y-77767648D01*
X121458243Y-77554247D01*
X121248717Y-77411083D01*
X121000000Y-77360717D01*
X120879548Y-77360717D01*
X121363265Y-76877000D01*
X124794774Y-76877000D01*
X124914799Y-76926839D01*
X125283583Y-76927161D01*
X125624417Y-76786331D01*
X125885414Y-76525789D01*
X126026839Y-76185201D01*
X126027161Y-75816417D01*
X125886331Y-75475583D01*
X125625789Y-75214586D01*
X125285201Y-75073161D01*
X124916417Y-75072839D01*
X124795018Y-75123000D01*
X121000000Y-75123000D01*
X120664386Y-75189758D01*
X120550424Y-75265905D01*
X120379867Y-75379867D01*
X120379865Y-75379870D01*
X119127000Y-76632734D01*
X119127000Y-74639283D01*
X121000000Y-74639283D01*
X121232352Y-74595563D01*
X121445753Y-74458243D01*
X121487000Y-74397876D01*
X121674211Y-74585414D01*
X122014799Y-74726839D01*
X122383583Y-74727161D01*
X122504982Y-74677000D01*
X123316173Y-74677000D01*
X123316178Y-74677001D01*
X123316183Y-74677000D01*
X123994784Y-74677000D01*
X124114809Y-74726839D01*
X124483593Y-74727161D01*
X124824427Y-74586331D01*
X125085424Y-74325789D01*
X125096842Y-74298292D01*
X125264387Y-74410242D01*
X125398018Y-74436824D01*
X125614799Y-74526839D01*
X125983583Y-74527161D01*
X126324417Y-74386331D01*
X126585414Y-74125789D01*
X126726839Y-73785201D01*
X126727161Y-73416417D01*
X126586331Y-73075583D01*
X126325789Y-72814586D01*
X125985201Y-72673161D01*
X125913363Y-72673098D01*
X124013674Y-70773408D01*
X124224417Y-70686331D01*
X124485414Y-70425789D01*
X124626839Y-70085201D01*
X124627161Y-69716417D01*
X124486331Y-69375583D01*
X124225789Y-69114586D01*
X124104478Y-69064213D01*
X123377000Y-68336734D01*
X123377000Y-63500005D01*
X123377001Y-63500000D01*
X123310242Y-63164387D01*
X123120133Y-62879867D01*
X123120130Y-62879865D01*
X120879549Y-60639283D01*
X121000000Y-60639283D01*
X121232352Y-60595563D01*
X121445753Y-60458243D01*
X121588917Y-60248717D01*
X121639283Y-60000000D01*
X121639283Y-57000000D01*
X121595563Y-56767648D01*
X121458243Y-56554247D01*
X121248717Y-56411083D01*
X121000000Y-56360717D01*
X119127000Y-56360717D01*
X119127000Y-55627000D01*
X126550689Y-55627000D01*
X140823689Y-84173000D01*
X137167265Y-84173000D01*
X137263265Y-84077000D01*
X137794774Y-84077000D01*
X137914799Y-84126839D01*
X138283583Y-84127161D01*
X138624417Y-83986331D01*
X138885414Y-83725789D01*
X139026839Y-83385201D01*
X139027161Y-83016417D01*
X138886331Y-82675583D01*
X138625789Y-82414586D01*
X138285201Y-82273161D01*
X137916417Y-82272839D01*
X137795018Y-82323000D01*
X136900000Y-82323000D01*
X136564386Y-82389758D01*
X136450424Y-82465905D01*
X136279867Y-82579867D01*
X136279865Y-82579870D01*
X135079867Y-83779867D01*
X134889758Y-84064387D01*
X134823000Y-84400000D01*
X134823000Y-85794774D01*
X134773161Y-85914799D01*
X134772839Y-86283583D01*
X134913669Y-86624417D01*
X135174211Y-86885414D01*
X135514799Y-87026839D01*
X135883583Y-87027161D01*
X136224417Y-86886331D01*
X136485414Y-86625789D01*
X136626839Y-86285201D01*
X136627161Y-85916417D01*
X136577000Y-85795018D01*
X136577000Y-85679622D01*
X145823690Y-104173000D01*
X142000000Y-104173000D01*
X141974380Y-104178096D01*
X141948464Y-104174829D01*
X141836072Y-104205608D01*
X141721789Y-104228340D01*
X141700071Y-104242851D01*
X141674876Y-104249751D01*
X141582825Y-104321192D01*
X141485933Y-104385933D01*
X141471419Y-104407655D01*
X141450785Y-104423669D01*
X141393078Y-104524900D01*
X141328340Y-104621789D01*
X141323244Y-104647407D01*
X141310307Y-104670102D01*
X141295732Y-104785718D01*
X141273000Y-104900000D01*
X141278096Y-104925620D01*
X141274829Y-104951536D01*
X141305608Y-105063928D01*
X141328340Y-105178211D01*
X141342851Y-105199929D01*
X141349751Y-105225124D01*
X145966503Y-114458627D01*
X145655975Y-114543869D01*
X144795987Y-114974519D01*
X144448765Y-115244338D01*
X144231229Y-115626495D01*
X144176497Y-116062809D01*
X144292900Y-116486856D01*
X144562719Y-116834078D01*
X144944876Y-117051614D01*
X145381190Y-117106346D01*
X145805237Y-116989943D01*
X146665224Y-116559293D01*
X146918448Y-116362518D01*
X149700285Y-121926190D01*
X149394763Y-122010057D01*
X148534775Y-122440707D01*
X148187553Y-122710526D01*
X147970017Y-123092683D01*
X147915285Y-123528997D01*
X148031688Y-123953044D01*
X148202611Y-124173000D01*
X83176311Y-124173000D01*
X83772658Y-122980304D01*
X144655985Y-122980304D01*
X144772390Y-123404351D01*
X145042210Y-123751572D01*
X145424367Y-123969107D01*
X145860681Y-124023838D01*
X146284728Y-123907433D01*
X146552129Y-123773527D01*
X146899351Y-123503707D01*
X147116886Y-123121550D01*
X147171617Y-122685236D01*
X147055212Y-122261189D01*
X146785392Y-121913968D01*
X146403235Y-121696433D01*
X145966921Y-121641702D01*
X145542874Y-121758107D01*
X145275472Y-121892013D01*
X144928251Y-122161833D01*
X144710716Y-122543990D01*
X144655985Y-122980304D01*
X83772658Y-122980304D01*
X86471019Y-117583583D01*
X121772839Y-117583583D01*
X121913669Y-117924417D01*
X122174211Y-118185414D01*
X122514799Y-118326839D01*
X122883583Y-118327161D01*
X123004982Y-118277000D01*
X124536734Y-118277000D01*
X124964040Y-118704306D01*
X125013669Y-118824417D01*
X125274211Y-119085414D01*
X125439850Y-119154194D01*
X125373161Y-119314799D01*
X125372839Y-119683583D01*
X125513669Y-120024417D01*
X125774211Y-120285414D01*
X126114799Y-120426839D01*
X126483583Y-120427161D01*
X126824417Y-120286331D01*
X127085414Y-120025789D01*
X127226839Y-119685201D01*
X127226851Y-119671993D01*
X127849422Y-119049422D01*
X127881564Y-119001318D01*
X142663457Y-119001318D01*
X142779862Y-119425365D01*
X143049682Y-119772586D01*
X143431839Y-119990121D01*
X143868153Y-120044852D01*
X144292200Y-119928447D01*
X144559601Y-119794541D01*
X144906823Y-119524721D01*
X145124358Y-119142564D01*
X145179089Y-118706250D01*
X145062684Y-118282203D01*
X144792864Y-117934982D01*
X144410707Y-117717447D01*
X143974393Y-117662716D01*
X143550346Y-117779121D01*
X143282944Y-117913027D01*
X142935723Y-118182847D01*
X142718188Y-118565004D01*
X142663457Y-119001318D01*
X127881564Y-119001318D01*
X128017854Y-118797345D01*
X128077000Y-118500000D01*
X128077000Y-117334188D01*
X128085414Y-117325789D01*
X128226839Y-116985201D01*
X128227161Y-116616417D01*
X128086331Y-116275583D01*
X127863669Y-116052532D01*
X138377073Y-116052532D01*
X138475736Y-116319387D01*
X139085461Y-116545908D01*
X139735460Y-116521856D01*
X140224264Y-116319387D01*
X140322927Y-116052532D01*
X139350000Y-115079605D01*
X138377073Y-116052532D01*
X127863669Y-116052532D01*
X127825789Y-116014586D01*
X127485201Y-115873161D01*
X127116417Y-115872839D01*
X126775583Y-116013669D01*
X126514586Y-116274211D01*
X126373161Y-116614799D01*
X126372839Y-116983583D01*
X126513669Y-117324417D01*
X126523000Y-117333764D01*
X126523000Y-117712141D01*
X126325789Y-117514586D01*
X126204480Y-117464214D01*
X125520133Y-116779867D01*
X125235613Y-116589758D01*
X124900000Y-116523000D01*
X123005226Y-116523000D01*
X122885201Y-116473161D01*
X122516417Y-116472839D01*
X122175583Y-116613669D01*
X121914586Y-116874211D01*
X121773161Y-117214799D01*
X121772839Y-117583583D01*
X86471019Y-117583583D01*
X87651705Y-115222211D01*
X93022718Y-115222211D01*
X93269892Y-115820418D01*
X93727175Y-116278499D01*
X94324950Y-116526717D01*
X94972211Y-116527282D01*
X95570418Y-116280108D01*
X96028499Y-115822825D01*
X96276717Y-115225050D01*
X96277231Y-114635461D01*
X137704092Y-114635461D01*
X137728144Y-115285460D01*
X137930613Y-115774264D01*
X138197468Y-115872927D01*
X139170395Y-114900000D01*
X139529605Y-114900000D01*
X140502532Y-115872927D01*
X140769387Y-115774264D01*
X140995908Y-115164539D01*
X140971856Y-114514540D01*
X140769387Y-114025736D01*
X140502532Y-113927073D01*
X139529605Y-114900000D01*
X139170395Y-114900000D01*
X138197468Y-113927073D01*
X137930613Y-114025736D01*
X137704092Y-114635461D01*
X96277231Y-114635461D01*
X96277282Y-114577789D01*
X96030108Y-113979582D01*
X95798399Y-113747468D01*
X138377073Y-113747468D01*
X139350000Y-114720395D01*
X140322927Y-113747468D01*
X140224264Y-113480613D01*
X139614539Y-113254092D01*
X138964540Y-113278144D01*
X138475736Y-113480613D01*
X138377073Y-113747468D01*
X95798399Y-113747468D01*
X95572825Y-113521501D01*
X94975050Y-113273283D01*
X94327789Y-113272718D01*
X93729582Y-113519892D01*
X93271501Y-113977175D01*
X93023283Y-114574950D01*
X93022718Y-115222211D01*
X87651705Y-115222211D01*
X89181215Y-112163191D01*
X130237805Y-112163191D01*
X130409019Y-112577560D01*
X130725772Y-112894867D01*
X131139842Y-113066804D01*
X131588191Y-113067195D01*
X132002560Y-112895981D01*
X132319867Y-112579228D01*
X132491804Y-112165158D01*
X132492195Y-111716809D01*
X132320981Y-111302440D01*
X132004228Y-110985133D01*
X131590158Y-110813196D01*
X131141809Y-110812805D01*
X130727440Y-110984019D01*
X130410133Y-111300772D01*
X130238196Y-111714842D01*
X130237805Y-112163191D01*
X89181215Y-112163191D01*
X92451705Y-105622211D01*
X99672718Y-105622211D01*
X99919892Y-106220418D01*
X100377175Y-106678499D01*
X100974950Y-106926717D01*
X101622211Y-106927282D01*
X102220418Y-106680108D01*
X102491369Y-106409629D01*
X102590614Y-106509047D01*
X103114907Y-106726752D01*
X103682603Y-106727248D01*
X104207275Y-106510457D01*
X104399984Y-106318084D01*
X104590614Y-106509047D01*
X105114907Y-106726752D01*
X105682603Y-106727248D01*
X106207275Y-106510457D01*
X106399984Y-106318084D01*
X106590614Y-106509047D01*
X107114907Y-106726752D01*
X107682603Y-106727248D01*
X108207275Y-106510457D01*
X108308527Y-106409382D01*
X108577175Y-106678499D01*
X109174950Y-106926717D01*
X109822211Y-106927282D01*
X110420418Y-106680108D01*
X110878499Y-106222825D01*
X111126717Y-105625050D01*
X111127282Y-104977789D01*
X110880108Y-104379582D01*
X110422825Y-103921501D01*
X109825050Y-103673283D01*
X109177789Y-103672718D01*
X108579582Y-103919892D01*
X108308631Y-104190371D01*
X108209386Y-104090953D01*
X107685093Y-103873248D01*
X107117397Y-103872752D01*
X106592725Y-104089543D01*
X106400016Y-104281916D01*
X106277000Y-104158685D01*
X106277000Y-103400000D01*
X106210242Y-103064387D01*
X106020133Y-102779867D01*
X103723839Y-100483573D01*
X110172839Y-100483573D01*
X110313669Y-100824407D01*
X110574211Y-101085404D01*
X110695520Y-101135776D01*
X111422999Y-101863255D01*
X111422999Y-103499999D01*
X111489757Y-103835612D01*
X111679866Y-104120132D01*
X112923000Y-105363265D01*
X112923000Y-110894774D01*
X112873161Y-111014799D01*
X112872839Y-111383583D01*
X113013669Y-111724417D01*
X113274211Y-111985414D01*
X113614799Y-112126839D01*
X113983583Y-112127161D01*
X114324417Y-111986331D01*
X114585414Y-111725789D01*
X114726839Y-111385201D01*
X114727161Y-111016417D01*
X114677000Y-110895018D01*
X114677000Y-106983583D01*
X128072839Y-106983583D01*
X128213669Y-107324417D01*
X128474211Y-107585414D01*
X128814799Y-107726839D01*
X129183583Y-107727161D01*
X129494128Y-107598846D01*
X129709772Y-107814867D01*
X130123842Y-107986804D01*
X130572191Y-107987195D01*
X130986560Y-107815981D01*
X131303867Y-107499228D01*
X131364938Y-107352153D01*
X131425019Y-107497560D01*
X131741772Y-107814867D01*
X132155842Y-107986804D01*
X132604191Y-107987195D01*
X133018560Y-107815981D01*
X133335867Y-107499228D01*
X133507804Y-107085158D01*
X133508195Y-106636809D01*
X133336981Y-106222440D01*
X133020228Y-105905133D01*
X132606158Y-105733196D01*
X132157809Y-105732805D01*
X131743440Y-105904019D01*
X131426133Y-106220772D01*
X131365062Y-106367847D01*
X131304981Y-106222440D01*
X130990967Y-105907877D01*
X131629435Y-105269409D01*
X131659025Y-105225124D01*
X131797867Y-105017332D01*
X131857013Y-104719987D01*
X131857013Y-102014201D01*
X131865427Y-102005802D01*
X132006852Y-101665214D01*
X132007174Y-101296430D01*
X131866344Y-100955596D01*
X131605802Y-100694599D01*
X131265214Y-100553174D01*
X130896430Y-100552852D01*
X130555596Y-100693682D01*
X130480040Y-100769106D01*
X130325789Y-100614586D01*
X129985201Y-100473161D01*
X129616417Y-100472839D01*
X129275583Y-100613669D01*
X129014586Y-100874211D01*
X128873161Y-101214799D01*
X128872839Y-101583583D01*
X128923000Y-101704982D01*
X128923000Y-104394774D01*
X128873161Y-104514799D01*
X128872839Y-104883583D01*
X129013669Y-105224417D01*
X129245002Y-105456154D01*
X128828307Y-105872849D01*
X128816417Y-105872839D01*
X128475583Y-106013669D01*
X128214586Y-106274211D01*
X128073161Y-106614799D01*
X128072839Y-106983583D01*
X114677000Y-106983583D01*
X114677000Y-105000005D01*
X114677001Y-105000000D01*
X114610242Y-104664387D01*
X114510291Y-104514799D01*
X114420133Y-104379867D01*
X114420130Y-104379865D01*
X113917265Y-103877000D01*
X115094774Y-103877000D01*
X115214799Y-103926839D01*
X115583583Y-103927161D01*
X115924417Y-103786331D01*
X116185414Y-103525789D01*
X116326839Y-103185201D01*
X116327161Y-102816417D01*
X116186331Y-102475583D01*
X115925789Y-102214586D01*
X115610300Y-102083583D01*
X117672839Y-102083583D01*
X117813669Y-102424417D01*
X118074211Y-102685414D01*
X118414799Y-102826839D01*
X118783583Y-102827161D01*
X118904982Y-102777000D01*
X119736734Y-102777000D01*
X120064040Y-103104306D01*
X120113669Y-103224417D01*
X120374211Y-103485414D01*
X120714799Y-103626839D01*
X121083583Y-103627161D01*
X121123000Y-103610874D01*
X121123000Y-104094774D01*
X121073161Y-104214799D01*
X121072839Y-104583583D01*
X121213669Y-104924417D01*
X121474211Y-105185414D01*
X121814799Y-105326839D01*
X122183583Y-105327161D01*
X122524417Y-105186331D01*
X122785414Y-104925789D01*
X122926839Y-104585201D01*
X122927161Y-104216417D01*
X122877000Y-104095018D01*
X122877000Y-102405226D01*
X122926839Y-102285201D01*
X122927161Y-101916417D01*
X122786331Y-101575583D01*
X122525789Y-101314586D01*
X122185201Y-101173161D01*
X121816417Y-101172839D01*
X121475583Y-101313669D01*
X121214586Y-101574211D01*
X121155873Y-101715607D01*
X120720133Y-101279867D01*
X120435613Y-101089758D01*
X120100000Y-101023000D01*
X118905226Y-101023000D01*
X118785201Y-100973161D01*
X118416417Y-100972839D01*
X118075583Y-101113669D01*
X117814586Y-101374211D01*
X117673161Y-101714799D01*
X117672839Y-102083583D01*
X115610300Y-102083583D01*
X115585201Y-102073161D01*
X115216417Y-102072839D01*
X115095018Y-102123000D01*
X113305226Y-102123000D01*
X113185201Y-102073161D01*
X113176999Y-102073154D01*
X113176999Y-101927155D01*
X113183583Y-101927161D01*
X113304982Y-101877000D01*
X115694774Y-101877000D01*
X115814799Y-101926839D01*
X116183583Y-101927161D01*
X116524417Y-101786331D01*
X116785414Y-101525789D01*
X116926839Y-101185201D01*
X116927161Y-100816417D01*
X116786331Y-100475583D01*
X116525789Y-100214586D01*
X116185201Y-100073161D01*
X115816417Y-100072839D01*
X115695018Y-100123000D01*
X113305226Y-100123000D01*
X113185201Y-100073161D01*
X112816417Y-100072839D01*
X112475583Y-100213669D01*
X112364667Y-100324391D01*
X111935960Y-99895684D01*
X111886331Y-99775573D01*
X111625789Y-99514576D01*
X111285201Y-99373151D01*
X110916417Y-99372829D01*
X110575583Y-99513659D01*
X110314586Y-99774201D01*
X110173161Y-100114789D01*
X110172839Y-100483573D01*
X103723839Y-100483573D01*
X102835960Y-99595694D01*
X102786331Y-99475583D01*
X102525789Y-99214586D01*
X102185201Y-99073161D01*
X101816417Y-99072839D01*
X101475583Y-99213669D01*
X101214586Y-99474211D01*
X101073161Y-99814799D01*
X101072839Y-100183583D01*
X101213669Y-100524417D01*
X101474211Y-100785414D01*
X101595520Y-100835786D01*
X104523000Y-103763266D01*
X104523000Y-104159146D01*
X104400016Y-104281916D01*
X104209386Y-104090953D01*
X103685093Y-103873248D01*
X103117397Y-103872752D01*
X102592725Y-104089543D01*
X102491473Y-104190618D01*
X102222825Y-103921501D01*
X101625050Y-103673283D01*
X100977789Y-103672718D01*
X100379582Y-103919892D01*
X99921501Y-104377175D01*
X99673283Y-104974950D01*
X99672718Y-105622211D01*
X92451705Y-105622211D01*
X92650249Y-105225124D01*
X92657149Y-105199929D01*
X92671660Y-105178211D01*
X92694392Y-105063928D01*
X92725171Y-104951536D01*
X92721904Y-104925620D01*
X92727000Y-104900000D01*
X92704268Y-104785718D01*
X92689693Y-104670102D01*
X92676756Y-104647407D01*
X92671660Y-104621789D01*
X92606922Y-104524900D01*
X92549215Y-104423669D01*
X92528581Y-104407655D01*
X92514067Y-104385933D01*
X92417175Y-104321192D01*
X92325124Y-104249751D01*
X92299929Y-104242851D01*
X92278211Y-104228340D01*
X92163928Y-104205608D01*
X92051536Y-104174829D01*
X92025620Y-104178096D01*
X92000000Y-104173000D01*
X88176311Y-104173000D01*
X91026705Y-98472211D01*
X98122718Y-98472211D01*
X98369892Y-99070418D01*
X98827175Y-99528499D01*
X99424950Y-99776717D01*
X100072211Y-99777282D01*
X100670418Y-99530108D01*
X101128499Y-99072825D01*
X101376717Y-98475050D01*
X101376719Y-98472211D01*
X102622718Y-98472211D01*
X102869892Y-99070418D01*
X103327175Y-99528499D01*
X103924950Y-99776717D01*
X104572211Y-99777282D01*
X105170418Y-99530108D01*
X105628499Y-99072825D01*
X105876717Y-98475050D01*
X105876719Y-98472211D01*
X128122718Y-98472211D01*
X128369892Y-99070418D01*
X128827175Y-99528499D01*
X129424950Y-99776717D01*
X130072211Y-99777282D01*
X130670418Y-99530108D01*
X131128499Y-99072825D01*
X131376717Y-98475050D01*
X131376719Y-98472211D01*
X132622718Y-98472211D01*
X132869892Y-99070418D01*
X133327175Y-99528499D01*
X133924950Y-99776717D01*
X134572211Y-99777282D01*
X135170418Y-99530108D01*
X135628499Y-99072825D01*
X135876717Y-98475050D01*
X135877282Y-97827789D01*
X135630108Y-97229582D01*
X135172825Y-96771501D01*
X134575050Y-96523283D01*
X133927789Y-96522718D01*
X133329582Y-96769892D01*
X132871501Y-97227175D01*
X132623283Y-97824950D01*
X132622718Y-98472211D01*
X131376719Y-98472211D01*
X131377282Y-97827789D01*
X131130108Y-97229582D01*
X130672825Y-96771501D01*
X130075050Y-96523283D01*
X129427789Y-96522718D01*
X128829582Y-96769892D01*
X128371501Y-97227175D01*
X128123283Y-97824950D01*
X128122718Y-98472211D01*
X105876719Y-98472211D01*
X105877282Y-97827789D01*
X105630108Y-97229582D01*
X105172825Y-96771501D01*
X104575050Y-96523283D01*
X103927789Y-96522718D01*
X103329582Y-96769892D01*
X102871501Y-97227175D01*
X102623283Y-97824950D01*
X102622718Y-98472211D01*
X101376719Y-98472211D01*
X101377282Y-97827789D01*
X101130108Y-97229582D01*
X100672825Y-96771501D01*
X100075050Y-96523283D01*
X99427789Y-96522718D01*
X98829582Y-96769892D01*
X98371501Y-97227175D01*
X98123283Y-97824950D01*
X98122718Y-98472211D01*
X91026705Y-98472211D01*
X92871019Y-94783583D01*
X112072839Y-94783583D01*
X112213669Y-95124417D01*
X112474211Y-95385414D01*
X112814799Y-95526839D01*
X113183583Y-95527161D01*
X113304982Y-95477000D01*
X115694804Y-95477000D01*
X115814829Y-95526839D01*
X116183613Y-95527161D01*
X116524447Y-95386331D01*
X116785444Y-95125789D01*
X116926869Y-94785201D01*
X116926870Y-94783583D01*
X117272839Y-94783583D01*
X117413669Y-95124417D01*
X117674211Y-95385414D01*
X118014799Y-95526839D01*
X118383583Y-95527161D01*
X118504982Y-95477000D01*
X121294774Y-95477000D01*
X121414799Y-95526839D01*
X121783583Y-95527161D01*
X122124417Y-95386331D01*
X122385414Y-95125789D01*
X122526839Y-94785201D01*
X122527161Y-94416417D01*
X122386331Y-94075583D01*
X122125789Y-93814586D01*
X121785201Y-93673161D01*
X121416417Y-93672839D01*
X121295018Y-93723000D01*
X118505226Y-93723000D01*
X118385201Y-93673161D01*
X118016417Y-93672839D01*
X117675583Y-93813669D01*
X117414586Y-94074211D01*
X117273161Y-94414799D01*
X117272839Y-94783583D01*
X116926870Y-94783583D01*
X116927191Y-94416417D01*
X116786361Y-94075583D01*
X116525819Y-93814586D01*
X116185231Y-93673161D01*
X115816447Y-93672839D01*
X115695048Y-93723000D01*
X113305226Y-93723000D01*
X113185201Y-93673161D01*
X112816417Y-93672839D01*
X112475583Y-93813669D01*
X112214586Y-94074211D01*
X112073161Y-94414799D01*
X112072839Y-94783583D01*
X92871019Y-94783583D01*
X94276705Y-91972211D01*
X98122718Y-91972211D01*
X98369892Y-92570418D01*
X98827175Y-93028499D01*
X99424950Y-93276717D01*
X100072211Y-93277282D01*
X100670418Y-93030108D01*
X101128499Y-92572825D01*
X101376717Y-91975050D01*
X101376719Y-91972211D01*
X102622718Y-91972211D01*
X102869892Y-92570418D01*
X103327175Y-93028499D01*
X103924950Y-93276717D01*
X104572211Y-93277282D01*
X105170418Y-93030108D01*
X105628499Y-92572825D01*
X105876717Y-91975050D01*
X105877282Y-91327789D01*
X105630108Y-90729582D01*
X105172825Y-90271501D01*
X104575050Y-90023283D01*
X103927789Y-90022718D01*
X103329582Y-90269892D01*
X102871501Y-90727175D01*
X102623283Y-91324950D01*
X102622718Y-91972211D01*
X101376719Y-91972211D01*
X101377282Y-91327789D01*
X101130108Y-90729582D01*
X100672825Y-90271501D01*
X100075050Y-90023283D01*
X99427789Y-90022718D01*
X98829582Y-90269892D01*
X98371501Y-90727175D01*
X98123283Y-91324950D01*
X98122718Y-91972211D01*
X94276705Y-91972211D01*
X96671591Y-87182440D01*
X96874211Y-87385414D01*
X97214799Y-87526839D01*
X97583583Y-87527161D01*
X97924417Y-87386331D01*
X98185414Y-87125789D01*
X98235786Y-87004480D01*
X98920133Y-86320133D01*
X99110242Y-86035614D01*
X99177000Y-85700000D01*
X99177000Y-84200000D01*
X99110242Y-83864387D01*
X98920133Y-83579867D01*
X98577000Y-83236734D01*
X98577000Y-80400000D01*
X98527132Y-80149300D01*
X98527161Y-80116417D01*
X98514493Y-80085759D01*
X98510242Y-80064386D01*
X98498241Y-80046425D01*
X98386331Y-79775583D01*
X98125789Y-79514586D01*
X97785201Y-79373161D01*
X97416417Y-79372839D01*
X97075583Y-79513669D01*
X96814586Y-79774211D01*
X96673161Y-80114799D01*
X96672839Y-80483583D01*
X96813669Y-80824417D01*
X96823000Y-80833764D01*
X96823000Y-82723000D01*
X96005226Y-82723000D01*
X95885201Y-82673161D01*
X95516417Y-82672839D01*
X95175583Y-82813669D01*
X94914586Y-83074211D01*
X94773161Y-83414799D01*
X94772839Y-83783583D01*
X94913669Y-84124417D01*
X94962167Y-84173000D01*
X93176311Y-84173000D01*
X100731018Y-69063586D01*
X101465146Y-69063586D01*
X101605976Y-69404420D01*
X101866518Y-69665417D01*
X102207106Y-69806842D01*
X102575890Y-69807164D01*
X102916724Y-69666334D01*
X103177721Y-69405792D01*
X103228093Y-69284482D01*
X103620130Y-68892445D01*
X103620133Y-68892443D01*
X103810242Y-68607923D01*
X103858685Y-68364387D01*
X103877001Y-68272310D01*
X103877000Y-68272305D01*
X103877000Y-67605226D01*
X103926839Y-67485201D01*
X103927161Y-67116417D01*
X103786331Y-66775583D01*
X103525789Y-66514586D01*
X103185201Y-66373161D01*
X102816417Y-66372839D01*
X102475583Y-66513669D01*
X102214586Y-66774211D01*
X102073161Y-67114799D01*
X102072839Y-67483583D01*
X102123000Y-67604982D01*
X102123000Y-67909045D01*
X101988002Y-68044043D01*
X101867890Y-68093672D01*
X101606893Y-68354214D01*
X101465468Y-68694802D01*
X101465146Y-69063586D01*
X100731018Y-69063586D01*
X107449311Y-55627000D01*
X114873000Y-55627000D01*
X114873000Y-56360717D01*
X114873000Y-56360717D01*
G37*
X114873000Y-56360717D02*
X113000000Y-56360717D01*
X112767648Y-56404437D01*
X112554247Y-56541757D01*
X112411083Y-56751283D01*
X112360717Y-57000000D01*
X112360717Y-60000000D01*
X112404437Y-60232352D01*
X112541757Y-60445753D01*
X112751283Y-60588917D01*
X113000000Y-60639283D01*
X113473140Y-60639283D01*
X113472839Y-60983583D01*
X113613669Y-61324417D01*
X113874211Y-61585414D01*
X114214799Y-61726839D01*
X114583583Y-61727161D01*
X114873000Y-61607576D01*
X114873000Y-63360717D01*
X113000000Y-63360717D01*
X112767648Y-63404437D01*
X112554247Y-63541757D01*
X112411083Y-63751283D01*
X112360717Y-64000000D01*
X112360717Y-64650705D01*
X112164386Y-64689758D01*
X111879867Y-64879867D01*
X110979867Y-65779867D01*
X110789758Y-66064387D01*
X110723000Y-66400000D01*
X110723000Y-67936735D01*
X109895694Y-68764040D01*
X109775583Y-68813669D01*
X109514586Y-69074211D01*
X109373161Y-69414799D01*
X109372839Y-69783583D01*
X109513669Y-70124417D01*
X109774211Y-70385414D01*
X110114799Y-70526839D01*
X110483583Y-70527161D01*
X110824417Y-70386331D01*
X111085414Y-70125789D01*
X111135786Y-70004480D01*
X112220130Y-68920135D01*
X112220133Y-68920133D01*
X112410242Y-68635613D01*
X112415750Y-68607923D01*
X112477001Y-68300000D01*
X112477000Y-68299995D01*
X112477000Y-67345118D01*
X112541757Y-67445753D01*
X112751283Y-67588917D01*
X113000000Y-67639283D01*
X114873000Y-67639283D01*
X114873000Y-70360717D01*
X113000000Y-70360717D01*
X112767648Y-70404437D01*
X112554247Y-70541757D01*
X112411083Y-70751283D01*
X112360717Y-71000000D01*
X112360717Y-71623000D01*
X110900005Y-71623000D01*
X110900000Y-71622999D01*
X110564387Y-71689758D01*
X110279867Y-71879867D01*
X110279865Y-71879870D01*
X109195694Y-72964040D01*
X109075583Y-73013669D01*
X108814586Y-73274211D01*
X108673161Y-73614799D01*
X108672839Y-73983583D01*
X108813669Y-74324417D01*
X109074211Y-74585414D01*
X109414799Y-74726839D01*
X109783583Y-74727161D01*
X110124417Y-74586331D01*
X110385414Y-74325789D01*
X110435786Y-74204480D01*
X111263265Y-73377000D01*
X112360717Y-73377000D01*
X112360717Y-74000000D01*
X112404437Y-74232352D01*
X112541757Y-74445753D01*
X112751283Y-74588917D01*
X113000000Y-74639283D01*
X114873000Y-74639283D01*
X114873000Y-77360717D01*
X113000000Y-77360717D01*
X112767648Y-77404437D01*
X112554247Y-77541757D01*
X112411083Y-77751283D01*
X112360717Y-78000000D01*
X112360717Y-78223000D01*
X110105226Y-78223000D01*
X109985201Y-78173161D01*
X109616417Y-78172839D01*
X109275583Y-78313669D01*
X109014586Y-78574211D01*
X108873161Y-78914799D01*
X108872839Y-79283583D01*
X109013669Y-79624417D01*
X109274211Y-79885414D01*
X109614799Y-80026839D01*
X109983583Y-80027161D01*
X110104982Y-79977000D01*
X112360717Y-79977000D01*
X112360717Y-81000000D01*
X112404437Y-81232352D01*
X112541757Y-81445753D01*
X112751283Y-81588917D01*
X113000000Y-81639283D01*
X114873000Y-81639283D01*
X114873000Y-85123000D01*
X114263266Y-85123000D01*
X113835960Y-84695694D01*
X113786331Y-84575583D01*
X113525789Y-84314586D01*
X113185201Y-84173161D01*
X112816417Y-84172839D01*
X112475583Y-84313669D01*
X112214586Y-84574211D01*
X112073161Y-84914799D01*
X112072839Y-85283583D01*
X112213669Y-85624417D01*
X112474211Y-85885414D01*
X112595520Y-85935786D01*
X112757087Y-86097353D01*
X112475583Y-86213669D01*
X112214586Y-86474211D01*
X112073161Y-86814799D01*
X112072839Y-87183583D01*
X112213669Y-87524417D01*
X112239024Y-87549816D01*
X112214586Y-87574211D01*
X112073161Y-87914799D01*
X112072839Y-88283583D01*
X112203728Y-88600359D01*
X112073161Y-88914799D01*
X112072839Y-89283583D01*
X112213669Y-89624417D01*
X112474211Y-89885414D01*
X112616055Y-89944313D01*
X112864387Y-90110242D01*
X113081677Y-90153465D01*
X112973161Y-90414799D01*
X112972839Y-90783583D01*
X113113669Y-91124417D01*
X113374211Y-91385414D01*
X113714799Y-91526839D01*
X114083583Y-91527161D01*
X114204982Y-91477000D01*
X117388857Y-91477000D01*
X117373161Y-91514799D01*
X117372839Y-91883583D01*
X117513669Y-92224417D01*
X117774211Y-92485414D01*
X118114799Y-92626839D01*
X118483583Y-92627161D01*
X118604982Y-92577000D01*
X121694774Y-92577000D01*
X121814799Y-92626839D01*
X122183583Y-92627161D01*
X122524417Y-92486331D01*
X122785414Y-92225789D01*
X122890709Y-91972211D01*
X128122718Y-91972211D01*
X128369892Y-92570418D01*
X128827175Y-93028499D01*
X129424950Y-93276717D01*
X130072211Y-93277282D01*
X130670418Y-93030108D01*
X131128499Y-92572825D01*
X131376717Y-91975050D01*
X131376719Y-91972211D01*
X132622718Y-91972211D01*
X132869892Y-92570418D01*
X133327175Y-93028499D01*
X133924950Y-93276717D01*
X134572211Y-93277282D01*
X135170418Y-93030108D01*
X135628499Y-92572825D01*
X135876717Y-91975050D01*
X135877282Y-91327789D01*
X135630108Y-90729582D01*
X135172825Y-90271501D01*
X134575050Y-90023283D01*
X133927789Y-90022718D01*
X133329582Y-90269892D01*
X132871501Y-90727175D01*
X132623283Y-91324950D01*
X132622718Y-91972211D01*
X131376719Y-91972211D01*
X131377282Y-91327789D01*
X131130108Y-90729582D01*
X130672825Y-90271501D01*
X130075050Y-90023283D01*
X129427789Y-90022718D01*
X128829582Y-90269892D01*
X128371501Y-90727175D01*
X128123283Y-91324950D01*
X128122718Y-91972211D01*
X122890709Y-91972211D01*
X122926839Y-91885201D01*
X122927161Y-91516417D01*
X122786331Y-91175583D01*
X122710976Y-91100097D01*
X122785414Y-91025789D01*
X122926839Y-90685201D01*
X122927161Y-90316417D01*
X122786331Y-89975583D01*
X122710976Y-89900097D01*
X122785414Y-89825789D01*
X122926839Y-89485201D01*
X122927161Y-89116417D01*
X122786331Y-88775583D01*
X122660976Y-88650010D01*
X122785414Y-88525789D01*
X122926839Y-88185201D01*
X122927161Y-87816417D01*
X122786331Y-87475583D01*
X122525789Y-87214586D01*
X122185201Y-87073161D01*
X121816417Y-87072839D01*
X121475583Y-87213669D01*
X121466236Y-87223000D01*
X116911173Y-87223000D01*
X116926869Y-87185201D01*
X116927138Y-86877000D01*
X120100000Y-86877000D01*
X120435613Y-86810242D01*
X120720133Y-86620133D01*
X121404306Y-85935960D01*
X121524417Y-85886331D01*
X121785414Y-85625789D01*
X121926839Y-85285201D01*
X121927161Y-84916417D01*
X121786331Y-84575583D01*
X121525789Y-84314586D01*
X121185201Y-84173161D01*
X120816417Y-84172839D01*
X120475583Y-84313669D01*
X120214586Y-84574211D01*
X120164214Y-84695520D01*
X119736734Y-85123000D01*
X119127000Y-85123000D01*
X119127000Y-81639283D01*
X121000000Y-81639283D01*
X121232352Y-81595563D01*
X121445753Y-81458243D01*
X121588917Y-81248717D01*
X121639283Y-81000000D01*
X121639283Y-78000000D01*
X121595563Y-77767648D01*
X121458243Y-77554247D01*
X121248717Y-77411083D01*
X121000000Y-77360717D01*
X120879548Y-77360717D01*
X121363265Y-76877000D01*
X124794774Y-76877000D01*
X124914799Y-76926839D01*
X125283583Y-76927161D01*
X125624417Y-76786331D01*
X125885414Y-76525789D01*
X126026839Y-76185201D01*
X126027161Y-75816417D01*
X125886331Y-75475583D01*
X125625789Y-75214586D01*
X125285201Y-75073161D01*
X124916417Y-75072839D01*
X124795018Y-75123000D01*
X121000000Y-75123000D01*
X120664386Y-75189758D01*
X120550424Y-75265905D01*
X120379867Y-75379867D01*
X120379865Y-75379870D01*
X119127000Y-76632734D01*
X119127000Y-74639283D01*
X121000000Y-74639283D01*
X121232352Y-74595563D01*
X121445753Y-74458243D01*
X121487000Y-74397876D01*
X121674211Y-74585414D01*
X122014799Y-74726839D01*
X122383583Y-74727161D01*
X122504982Y-74677000D01*
X123316173Y-74677000D01*
X123316178Y-74677001D01*
X123316183Y-74677000D01*
X123994784Y-74677000D01*
X124114809Y-74726839D01*
X124483593Y-74727161D01*
X124824427Y-74586331D01*
X125085424Y-74325789D01*
X125096842Y-74298292D01*
X125264387Y-74410242D01*
X125398018Y-74436824D01*
X125614799Y-74526839D01*
X125983583Y-74527161D01*
X126324417Y-74386331D01*
X126585414Y-74125789D01*
X126726839Y-73785201D01*
X126727161Y-73416417D01*
X126586331Y-73075583D01*
X126325789Y-72814586D01*
X125985201Y-72673161D01*
X125913363Y-72673098D01*
X124013674Y-70773408D01*
X124224417Y-70686331D01*
X124485414Y-70425789D01*
X124626839Y-70085201D01*
X124627161Y-69716417D01*
X124486331Y-69375583D01*
X124225789Y-69114586D01*
X124104478Y-69064213D01*
X123377000Y-68336734D01*
X123377000Y-63500005D01*
X123377001Y-63500000D01*
X123310242Y-63164387D01*
X123120133Y-62879867D01*
X123120130Y-62879865D01*
X120879549Y-60639283D01*
X121000000Y-60639283D01*
X121232352Y-60595563D01*
X121445753Y-60458243D01*
X121588917Y-60248717D01*
X121639283Y-60000000D01*
X121639283Y-57000000D01*
X121595563Y-56767648D01*
X121458243Y-56554247D01*
X121248717Y-56411083D01*
X121000000Y-56360717D01*
X119127000Y-56360717D01*
X119127000Y-55627000D01*
X126550689Y-55627000D01*
X140823689Y-84173000D01*
X137167265Y-84173000D01*
X137263265Y-84077000D01*
X137794774Y-84077000D01*
X137914799Y-84126839D01*
X138283583Y-84127161D01*
X138624417Y-83986331D01*
X138885414Y-83725789D01*
X139026839Y-83385201D01*
X139027161Y-83016417D01*
X138886331Y-82675583D01*
X138625789Y-82414586D01*
X138285201Y-82273161D01*
X137916417Y-82272839D01*
X137795018Y-82323000D01*
X136900000Y-82323000D01*
X136564386Y-82389758D01*
X136450424Y-82465905D01*
X136279867Y-82579867D01*
X136279865Y-82579870D01*
X135079867Y-83779867D01*
X134889758Y-84064387D01*
X134823000Y-84400000D01*
X134823000Y-85794774D01*
X134773161Y-85914799D01*
X134772839Y-86283583D01*
X134913669Y-86624417D01*
X135174211Y-86885414D01*
X135514799Y-87026839D01*
X135883583Y-87027161D01*
X136224417Y-86886331D01*
X136485414Y-86625789D01*
X136626839Y-86285201D01*
X136627161Y-85916417D01*
X136577000Y-85795018D01*
X136577000Y-85679622D01*
X145823690Y-104173000D01*
X142000000Y-104173000D01*
X141974380Y-104178096D01*
X141948464Y-104174829D01*
X141836072Y-104205608D01*
X141721789Y-104228340D01*
X141700071Y-104242851D01*
X141674876Y-104249751D01*
X141582825Y-104321192D01*
X141485933Y-104385933D01*
X141471419Y-104407655D01*
X141450785Y-104423669D01*
X141393078Y-104524900D01*
X141328340Y-104621789D01*
X141323244Y-104647407D01*
X141310307Y-104670102D01*
X141295732Y-104785718D01*
X141273000Y-104900000D01*
X141278096Y-104925620D01*
X141274829Y-104951536D01*
X141305608Y-105063928D01*
X141328340Y-105178211D01*
X141342851Y-105199929D01*
X141349751Y-105225124D01*
X145966503Y-114458627D01*
X145655975Y-114543869D01*
X144795987Y-114974519D01*
X144448765Y-115244338D01*
X144231229Y-115626495D01*
X144176497Y-116062809D01*
X144292900Y-116486856D01*
X144562719Y-116834078D01*
X144944876Y-117051614D01*
X145381190Y-117106346D01*
X145805237Y-116989943D01*
X146665224Y-116559293D01*
X146918448Y-116362518D01*
X149700285Y-121926190D01*
X149394763Y-122010057D01*
X148534775Y-122440707D01*
X148187553Y-122710526D01*
X147970017Y-123092683D01*
X147915285Y-123528997D01*
X148031688Y-123953044D01*
X148202611Y-124173000D01*
X83176311Y-124173000D01*
X83772658Y-122980304D01*
X144655985Y-122980304D01*
X144772390Y-123404351D01*
X145042210Y-123751572D01*
X145424367Y-123969107D01*
X145860681Y-124023838D01*
X146284728Y-123907433D01*
X146552129Y-123773527D01*
X146899351Y-123503707D01*
X147116886Y-123121550D01*
X147171617Y-122685236D01*
X147055212Y-122261189D01*
X146785392Y-121913968D01*
X146403235Y-121696433D01*
X145966921Y-121641702D01*
X145542874Y-121758107D01*
X145275472Y-121892013D01*
X144928251Y-122161833D01*
X144710716Y-122543990D01*
X144655985Y-122980304D01*
X83772658Y-122980304D01*
X86471019Y-117583583D01*
X121772839Y-117583583D01*
X121913669Y-117924417D01*
X122174211Y-118185414D01*
X122514799Y-118326839D01*
X122883583Y-118327161D01*
X123004982Y-118277000D01*
X124536734Y-118277000D01*
X124964040Y-118704306D01*
X125013669Y-118824417D01*
X125274211Y-119085414D01*
X125439850Y-119154194D01*
X125373161Y-119314799D01*
X125372839Y-119683583D01*
X125513669Y-120024417D01*
X125774211Y-120285414D01*
X126114799Y-120426839D01*
X126483583Y-120427161D01*
X126824417Y-120286331D01*
X127085414Y-120025789D01*
X127226839Y-119685201D01*
X127226851Y-119671993D01*
X127849422Y-119049422D01*
X127881564Y-119001318D01*
X142663457Y-119001318D01*
X142779862Y-119425365D01*
X143049682Y-119772586D01*
X143431839Y-119990121D01*
X143868153Y-120044852D01*
X144292200Y-119928447D01*
X144559601Y-119794541D01*
X144906823Y-119524721D01*
X145124358Y-119142564D01*
X145179089Y-118706250D01*
X145062684Y-118282203D01*
X144792864Y-117934982D01*
X144410707Y-117717447D01*
X143974393Y-117662716D01*
X143550346Y-117779121D01*
X143282944Y-117913027D01*
X142935723Y-118182847D01*
X142718188Y-118565004D01*
X142663457Y-119001318D01*
X127881564Y-119001318D01*
X128017854Y-118797345D01*
X128077000Y-118500000D01*
X128077000Y-117334188D01*
X128085414Y-117325789D01*
X128226839Y-116985201D01*
X128227161Y-116616417D01*
X128086331Y-116275583D01*
X127863669Y-116052532D01*
X138377073Y-116052532D01*
X138475736Y-116319387D01*
X139085461Y-116545908D01*
X139735460Y-116521856D01*
X140224264Y-116319387D01*
X140322927Y-116052532D01*
X139350000Y-115079605D01*
X138377073Y-116052532D01*
X127863669Y-116052532D01*
X127825789Y-116014586D01*
X127485201Y-115873161D01*
X127116417Y-115872839D01*
X126775583Y-116013669D01*
X126514586Y-116274211D01*
X126373161Y-116614799D01*
X126372839Y-116983583D01*
X126513669Y-117324417D01*
X126523000Y-117333764D01*
X126523000Y-117712141D01*
X126325789Y-117514586D01*
X126204480Y-117464214D01*
X125520133Y-116779867D01*
X125235613Y-116589758D01*
X124900000Y-116523000D01*
X123005226Y-116523000D01*
X122885201Y-116473161D01*
X122516417Y-116472839D01*
X122175583Y-116613669D01*
X121914586Y-116874211D01*
X121773161Y-117214799D01*
X121772839Y-117583583D01*
X86471019Y-117583583D01*
X87651705Y-115222211D01*
X93022718Y-115222211D01*
X93269892Y-115820418D01*
X93727175Y-116278499D01*
X94324950Y-116526717D01*
X94972211Y-116527282D01*
X95570418Y-116280108D01*
X96028499Y-115822825D01*
X96276717Y-115225050D01*
X96277231Y-114635461D01*
X137704092Y-114635461D01*
X137728144Y-115285460D01*
X137930613Y-115774264D01*
X138197468Y-115872927D01*
X139170395Y-114900000D01*
X139529605Y-114900000D01*
X140502532Y-115872927D01*
X140769387Y-115774264D01*
X140995908Y-115164539D01*
X140971856Y-114514540D01*
X140769387Y-114025736D01*
X140502532Y-113927073D01*
X139529605Y-114900000D01*
X139170395Y-114900000D01*
X138197468Y-113927073D01*
X137930613Y-114025736D01*
X137704092Y-114635461D01*
X96277231Y-114635461D01*
X96277282Y-114577789D01*
X96030108Y-113979582D01*
X95798399Y-113747468D01*
X138377073Y-113747468D01*
X139350000Y-114720395D01*
X140322927Y-113747468D01*
X140224264Y-113480613D01*
X139614539Y-113254092D01*
X138964540Y-113278144D01*
X138475736Y-113480613D01*
X138377073Y-113747468D01*
X95798399Y-113747468D01*
X95572825Y-113521501D01*
X94975050Y-113273283D01*
X94327789Y-113272718D01*
X93729582Y-113519892D01*
X93271501Y-113977175D01*
X93023283Y-114574950D01*
X93022718Y-115222211D01*
X87651705Y-115222211D01*
X89181215Y-112163191D01*
X130237805Y-112163191D01*
X130409019Y-112577560D01*
X130725772Y-112894867D01*
X131139842Y-113066804D01*
X131588191Y-113067195D01*
X132002560Y-112895981D01*
X132319867Y-112579228D01*
X132491804Y-112165158D01*
X132492195Y-111716809D01*
X132320981Y-111302440D01*
X132004228Y-110985133D01*
X131590158Y-110813196D01*
X131141809Y-110812805D01*
X130727440Y-110984019D01*
X130410133Y-111300772D01*
X130238196Y-111714842D01*
X130237805Y-112163191D01*
X89181215Y-112163191D01*
X92451705Y-105622211D01*
X99672718Y-105622211D01*
X99919892Y-106220418D01*
X100377175Y-106678499D01*
X100974950Y-106926717D01*
X101622211Y-106927282D01*
X102220418Y-106680108D01*
X102491369Y-106409629D01*
X102590614Y-106509047D01*
X103114907Y-106726752D01*
X103682603Y-106727248D01*
X104207275Y-106510457D01*
X104399984Y-106318084D01*
X104590614Y-106509047D01*
X105114907Y-106726752D01*
X105682603Y-106727248D01*
X106207275Y-106510457D01*
X106399984Y-106318084D01*
X106590614Y-106509047D01*
X107114907Y-106726752D01*
X107682603Y-106727248D01*
X108207275Y-106510457D01*
X108308527Y-106409382D01*
X108577175Y-106678499D01*
X109174950Y-106926717D01*
X109822211Y-106927282D01*
X110420418Y-106680108D01*
X110878499Y-106222825D01*
X111126717Y-105625050D01*
X111127282Y-104977789D01*
X110880108Y-104379582D01*
X110422825Y-103921501D01*
X109825050Y-103673283D01*
X109177789Y-103672718D01*
X108579582Y-103919892D01*
X108308631Y-104190371D01*
X108209386Y-104090953D01*
X107685093Y-103873248D01*
X107117397Y-103872752D01*
X106592725Y-104089543D01*
X106400016Y-104281916D01*
X106277000Y-104158685D01*
X106277000Y-103400000D01*
X106210242Y-103064387D01*
X106020133Y-102779867D01*
X103723839Y-100483573D01*
X110172839Y-100483573D01*
X110313669Y-100824407D01*
X110574211Y-101085404D01*
X110695520Y-101135776D01*
X111422999Y-101863255D01*
X111422999Y-103499999D01*
X111489757Y-103835612D01*
X111679866Y-104120132D01*
X112923000Y-105363265D01*
X112923000Y-110894774D01*
X112873161Y-111014799D01*
X112872839Y-111383583D01*
X113013669Y-111724417D01*
X113274211Y-111985414D01*
X113614799Y-112126839D01*
X113983583Y-112127161D01*
X114324417Y-111986331D01*
X114585414Y-111725789D01*
X114726839Y-111385201D01*
X114727161Y-111016417D01*
X114677000Y-110895018D01*
X114677000Y-106983583D01*
X128072839Y-106983583D01*
X128213669Y-107324417D01*
X128474211Y-107585414D01*
X128814799Y-107726839D01*
X129183583Y-107727161D01*
X129494128Y-107598846D01*
X129709772Y-107814867D01*
X130123842Y-107986804D01*
X130572191Y-107987195D01*
X130986560Y-107815981D01*
X131303867Y-107499228D01*
X131364938Y-107352153D01*
X131425019Y-107497560D01*
X131741772Y-107814867D01*
X132155842Y-107986804D01*
X132604191Y-107987195D01*
X133018560Y-107815981D01*
X133335867Y-107499228D01*
X133507804Y-107085158D01*
X133508195Y-106636809D01*
X133336981Y-106222440D01*
X133020228Y-105905133D01*
X132606158Y-105733196D01*
X132157809Y-105732805D01*
X131743440Y-105904019D01*
X131426133Y-106220772D01*
X131365062Y-106367847D01*
X131304981Y-106222440D01*
X130990967Y-105907877D01*
X131629435Y-105269409D01*
X131659025Y-105225124D01*
X131797867Y-105017332D01*
X131857013Y-104719987D01*
X131857013Y-102014201D01*
X131865427Y-102005802D01*
X132006852Y-101665214D01*
X132007174Y-101296430D01*
X131866344Y-100955596D01*
X131605802Y-100694599D01*
X131265214Y-100553174D01*
X130896430Y-100552852D01*
X130555596Y-100693682D01*
X130480040Y-100769106D01*
X130325789Y-100614586D01*
X129985201Y-100473161D01*
X129616417Y-100472839D01*
X129275583Y-100613669D01*
X129014586Y-100874211D01*
X128873161Y-101214799D01*
X128872839Y-101583583D01*
X128923000Y-101704982D01*
X128923000Y-104394774D01*
X128873161Y-104514799D01*
X128872839Y-104883583D01*
X129013669Y-105224417D01*
X129245002Y-105456154D01*
X128828307Y-105872849D01*
X128816417Y-105872839D01*
X128475583Y-106013669D01*
X128214586Y-106274211D01*
X128073161Y-106614799D01*
X128072839Y-106983583D01*
X114677000Y-106983583D01*
X114677000Y-105000005D01*
X114677001Y-105000000D01*
X114610242Y-104664387D01*
X114510291Y-104514799D01*
X114420133Y-104379867D01*
X114420130Y-104379865D01*
X113917265Y-103877000D01*
X115094774Y-103877000D01*
X115214799Y-103926839D01*
X115583583Y-103927161D01*
X115924417Y-103786331D01*
X116185414Y-103525789D01*
X116326839Y-103185201D01*
X116327161Y-102816417D01*
X116186331Y-102475583D01*
X115925789Y-102214586D01*
X115610300Y-102083583D01*
X117672839Y-102083583D01*
X117813669Y-102424417D01*
X118074211Y-102685414D01*
X118414799Y-102826839D01*
X118783583Y-102827161D01*
X118904982Y-102777000D01*
X119736734Y-102777000D01*
X120064040Y-103104306D01*
X120113669Y-103224417D01*
X120374211Y-103485414D01*
X120714799Y-103626839D01*
X121083583Y-103627161D01*
X121123000Y-103610874D01*
X121123000Y-104094774D01*
X121073161Y-104214799D01*
X121072839Y-104583583D01*
X121213669Y-104924417D01*
X121474211Y-105185414D01*
X121814799Y-105326839D01*
X122183583Y-105327161D01*
X122524417Y-105186331D01*
X122785414Y-104925789D01*
X122926839Y-104585201D01*
X122927161Y-104216417D01*
X122877000Y-104095018D01*
X122877000Y-102405226D01*
X122926839Y-102285201D01*
X122927161Y-101916417D01*
X122786331Y-101575583D01*
X122525789Y-101314586D01*
X122185201Y-101173161D01*
X121816417Y-101172839D01*
X121475583Y-101313669D01*
X121214586Y-101574211D01*
X121155873Y-101715607D01*
X120720133Y-101279867D01*
X120435613Y-101089758D01*
X120100000Y-101023000D01*
X118905226Y-101023000D01*
X118785201Y-100973161D01*
X118416417Y-100972839D01*
X118075583Y-101113669D01*
X117814586Y-101374211D01*
X117673161Y-101714799D01*
X117672839Y-102083583D01*
X115610300Y-102083583D01*
X115585201Y-102073161D01*
X115216417Y-102072839D01*
X115095018Y-102123000D01*
X113305226Y-102123000D01*
X113185201Y-102073161D01*
X113176999Y-102073154D01*
X113176999Y-101927155D01*
X113183583Y-101927161D01*
X113304982Y-101877000D01*
X115694774Y-101877000D01*
X115814799Y-101926839D01*
X116183583Y-101927161D01*
X116524417Y-101786331D01*
X116785414Y-101525789D01*
X116926839Y-101185201D01*
X116927161Y-100816417D01*
X116786331Y-100475583D01*
X116525789Y-100214586D01*
X116185201Y-100073161D01*
X115816417Y-100072839D01*
X115695018Y-100123000D01*
X113305226Y-100123000D01*
X113185201Y-100073161D01*
X112816417Y-100072839D01*
X112475583Y-100213669D01*
X112364667Y-100324391D01*
X111935960Y-99895684D01*
X111886331Y-99775573D01*
X111625789Y-99514576D01*
X111285201Y-99373151D01*
X110916417Y-99372829D01*
X110575583Y-99513659D01*
X110314586Y-99774201D01*
X110173161Y-100114789D01*
X110172839Y-100483573D01*
X103723839Y-100483573D01*
X102835960Y-99595694D01*
X102786331Y-99475583D01*
X102525789Y-99214586D01*
X102185201Y-99073161D01*
X101816417Y-99072839D01*
X101475583Y-99213669D01*
X101214586Y-99474211D01*
X101073161Y-99814799D01*
X101072839Y-100183583D01*
X101213669Y-100524417D01*
X101474211Y-100785414D01*
X101595520Y-100835786D01*
X104523000Y-103763266D01*
X104523000Y-104159146D01*
X104400016Y-104281916D01*
X104209386Y-104090953D01*
X103685093Y-103873248D01*
X103117397Y-103872752D01*
X102592725Y-104089543D01*
X102491473Y-104190618D01*
X102222825Y-103921501D01*
X101625050Y-103673283D01*
X100977789Y-103672718D01*
X100379582Y-103919892D01*
X99921501Y-104377175D01*
X99673283Y-104974950D01*
X99672718Y-105622211D01*
X92451705Y-105622211D01*
X92650249Y-105225124D01*
X92657149Y-105199929D01*
X92671660Y-105178211D01*
X92694392Y-105063928D01*
X92725171Y-104951536D01*
X92721904Y-104925620D01*
X92727000Y-104900000D01*
X92704268Y-104785718D01*
X92689693Y-104670102D01*
X92676756Y-104647407D01*
X92671660Y-104621789D01*
X92606922Y-104524900D01*
X92549215Y-104423669D01*
X92528581Y-104407655D01*
X92514067Y-104385933D01*
X92417175Y-104321192D01*
X92325124Y-104249751D01*
X92299929Y-104242851D01*
X92278211Y-104228340D01*
X92163928Y-104205608D01*
X92051536Y-104174829D01*
X92025620Y-104178096D01*
X92000000Y-104173000D01*
X88176311Y-104173000D01*
X91026705Y-98472211D01*
X98122718Y-98472211D01*
X98369892Y-99070418D01*
X98827175Y-99528499D01*
X99424950Y-99776717D01*
X100072211Y-99777282D01*
X100670418Y-99530108D01*
X101128499Y-99072825D01*
X101376717Y-98475050D01*
X101376719Y-98472211D01*
X102622718Y-98472211D01*
X102869892Y-99070418D01*
X103327175Y-99528499D01*
X103924950Y-99776717D01*
X104572211Y-99777282D01*
X105170418Y-99530108D01*
X105628499Y-99072825D01*
X105876717Y-98475050D01*
X105876719Y-98472211D01*
X128122718Y-98472211D01*
X128369892Y-99070418D01*
X128827175Y-99528499D01*
X129424950Y-99776717D01*
X130072211Y-99777282D01*
X130670418Y-99530108D01*
X131128499Y-99072825D01*
X131376717Y-98475050D01*
X131376719Y-98472211D01*
X132622718Y-98472211D01*
X132869892Y-99070418D01*
X133327175Y-99528499D01*
X133924950Y-99776717D01*
X134572211Y-99777282D01*
X135170418Y-99530108D01*
X135628499Y-99072825D01*
X135876717Y-98475050D01*
X135877282Y-97827789D01*
X135630108Y-97229582D01*
X135172825Y-96771501D01*
X134575050Y-96523283D01*
X133927789Y-96522718D01*
X133329582Y-96769892D01*
X132871501Y-97227175D01*
X132623283Y-97824950D01*
X132622718Y-98472211D01*
X131376719Y-98472211D01*
X131377282Y-97827789D01*
X131130108Y-97229582D01*
X130672825Y-96771501D01*
X130075050Y-96523283D01*
X129427789Y-96522718D01*
X128829582Y-96769892D01*
X128371501Y-97227175D01*
X128123283Y-97824950D01*
X128122718Y-98472211D01*
X105876719Y-98472211D01*
X105877282Y-97827789D01*
X105630108Y-97229582D01*
X105172825Y-96771501D01*
X104575050Y-96523283D01*
X103927789Y-96522718D01*
X103329582Y-96769892D01*
X102871501Y-97227175D01*
X102623283Y-97824950D01*
X102622718Y-98472211D01*
X101376719Y-98472211D01*
X101377282Y-97827789D01*
X101130108Y-97229582D01*
X100672825Y-96771501D01*
X100075050Y-96523283D01*
X99427789Y-96522718D01*
X98829582Y-96769892D01*
X98371501Y-97227175D01*
X98123283Y-97824950D01*
X98122718Y-98472211D01*
X91026705Y-98472211D01*
X92871019Y-94783583D01*
X112072839Y-94783583D01*
X112213669Y-95124417D01*
X112474211Y-95385414D01*
X112814799Y-95526839D01*
X113183583Y-95527161D01*
X113304982Y-95477000D01*
X115694804Y-95477000D01*
X115814829Y-95526839D01*
X116183613Y-95527161D01*
X116524447Y-95386331D01*
X116785444Y-95125789D01*
X116926869Y-94785201D01*
X116926870Y-94783583D01*
X117272839Y-94783583D01*
X117413669Y-95124417D01*
X117674211Y-95385414D01*
X118014799Y-95526839D01*
X118383583Y-95527161D01*
X118504982Y-95477000D01*
X121294774Y-95477000D01*
X121414799Y-95526839D01*
X121783583Y-95527161D01*
X122124417Y-95386331D01*
X122385414Y-95125789D01*
X122526839Y-94785201D01*
X122527161Y-94416417D01*
X122386331Y-94075583D01*
X122125789Y-93814586D01*
X121785201Y-93673161D01*
X121416417Y-93672839D01*
X121295018Y-93723000D01*
X118505226Y-93723000D01*
X118385201Y-93673161D01*
X118016417Y-93672839D01*
X117675583Y-93813669D01*
X117414586Y-94074211D01*
X117273161Y-94414799D01*
X117272839Y-94783583D01*
X116926870Y-94783583D01*
X116927191Y-94416417D01*
X116786361Y-94075583D01*
X116525819Y-93814586D01*
X116185231Y-93673161D01*
X115816447Y-93672839D01*
X115695048Y-93723000D01*
X113305226Y-93723000D01*
X113185201Y-93673161D01*
X112816417Y-93672839D01*
X112475583Y-93813669D01*
X112214586Y-94074211D01*
X112073161Y-94414799D01*
X112072839Y-94783583D01*
X92871019Y-94783583D01*
X94276705Y-91972211D01*
X98122718Y-91972211D01*
X98369892Y-92570418D01*
X98827175Y-93028499D01*
X99424950Y-93276717D01*
X100072211Y-93277282D01*
X100670418Y-93030108D01*
X101128499Y-92572825D01*
X101376717Y-91975050D01*
X101376719Y-91972211D01*
X102622718Y-91972211D01*
X102869892Y-92570418D01*
X103327175Y-93028499D01*
X103924950Y-93276717D01*
X104572211Y-93277282D01*
X105170418Y-93030108D01*
X105628499Y-92572825D01*
X105876717Y-91975050D01*
X105877282Y-91327789D01*
X105630108Y-90729582D01*
X105172825Y-90271501D01*
X104575050Y-90023283D01*
X103927789Y-90022718D01*
X103329582Y-90269892D01*
X102871501Y-90727175D01*
X102623283Y-91324950D01*
X102622718Y-91972211D01*
X101376719Y-91972211D01*
X101377282Y-91327789D01*
X101130108Y-90729582D01*
X100672825Y-90271501D01*
X100075050Y-90023283D01*
X99427789Y-90022718D01*
X98829582Y-90269892D01*
X98371501Y-90727175D01*
X98123283Y-91324950D01*
X98122718Y-91972211D01*
X94276705Y-91972211D01*
X96671591Y-87182440D01*
X96874211Y-87385414D01*
X97214799Y-87526839D01*
X97583583Y-87527161D01*
X97924417Y-87386331D01*
X98185414Y-87125789D01*
X98235786Y-87004480D01*
X98920133Y-86320133D01*
X99110242Y-86035614D01*
X99177000Y-85700000D01*
X99177000Y-84200000D01*
X99110242Y-83864387D01*
X98920133Y-83579867D01*
X98577000Y-83236734D01*
X98577000Y-80400000D01*
X98527132Y-80149300D01*
X98527161Y-80116417D01*
X98514493Y-80085759D01*
X98510242Y-80064386D01*
X98498241Y-80046425D01*
X98386331Y-79775583D01*
X98125789Y-79514586D01*
X97785201Y-79373161D01*
X97416417Y-79372839D01*
X97075583Y-79513669D01*
X96814586Y-79774211D01*
X96673161Y-80114799D01*
X96672839Y-80483583D01*
X96813669Y-80824417D01*
X96823000Y-80833764D01*
X96823000Y-82723000D01*
X96005226Y-82723000D01*
X95885201Y-82673161D01*
X95516417Y-82672839D01*
X95175583Y-82813669D01*
X94914586Y-83074211D01*
X94773161Y-83414799D01*
X94772839Y-83783583D01*
X94913669Y-84124417D01*
X94962167Y-84173000D01*
X93176311Y-84173000D01*
X100731018Y-69063586D01*
X101465146Y-69063586D01*
X101605976Y-69404420D01*
X101866518Y-69665417D01*
X102207106Y-69806842D01*
X102575890Y-69807164D01*
X102916724Y-69666334D01*
X103177721Y-69405792D01*
X103228093Y-69284482D01*
X103620130Y-68892445D01*
X103620133Y-68892443D01*
X103810242Y-68607923D01*
X103858685Y-68364387D01*
X103877001Y-68272310D01*
X103877000Y-68272305D01*
X103877000Y-67605226D01*
X103926839Y-67485201D01*
X103927161Y-67116417D01*
X103786331Y-66775583D01*
X103525789Y-66514586D01*
X103185201Y-66373161D01*
X102816417Y-66372839D01*
X102475583Y-66513669D01*
X102214586Y-66774211D01*
X102073161Y-67114799D01*
X102072839Y-67483583D01*
X102123000Y-67604982D01*
X102123000Y-67909045D01*
X101988002Y-68044043D01*
X101867890Y-68093672D01*
X101606893Y-68354214D01*
X101465468Y-68694802D01*
X101465146Y-69063586D01*
X100731018Y-69063586D01*
X107449311Y-55627000D01*
X114873000Y-55627000D01*
X114873000Y-56360717D01*
M02*
