M48
;DRILL file {KiCad 4.0.0-rc1-stable} date 15/10/2016 23:45:27
;FORMAT={-:-/ absolute / inch / decimal}
FMAT,2
INCH,TZ
T1C0.012
T2C0.024
T3C0.026
T4C0.031
T5C0.039
T6C0.059
%
G90
G05
M72
T1
X3.7677Y-3.2913
X3.8346Y-3.4094
X3.8425Y-3.1614
X4.0157Y-3.937
X4.063Y-4.622
X4.1732Y-4.2441
X4.2244Y-4.8583
X4.2402Y-4.6732
X4.2835Y-3.7953
X4.315Y-2.9055
X4.3228Y-3.1142
X4.3425Y-2.7402
X4.4094Y-2.3228
X4.4409Y-3.8583
X4.4488Y-3.3504
X4.4488Y-3.4252
X4.4488Y-3.4685
X4.4488Y-3.5079
X4.4488Y-3.7244
X4.4488Y-3.9764
X4.4488Y-4.0551
X4.4843Y-3.5669
X4.5433Y-4.0551
X4.5669Y-3.9764
X4.5669Y-3.4252
X4.5669Y-3.7244
X4.5748Y-3.8583
X4.6181Y-4.5787
X4.6457Y-4.6063
X4.6496Y-4.0472
X4.6535Y-3.7244
X4.6535Y-4.4331
X4.6575Y-3.6102
X4.6772Y-4.1339
X4.6968Y-4.5
X4.7244Y-4.5276
X4.7638Y-3.3504
X4.7795Y-4.4488
X4.7874Y-3.7244
X4.8031Y-3.4646
X4.8031Y-3.5157
X4.8031Y-3.563
X4.8031Y-3.6102
X4.8031Y-4.0551
X4.8031Y-4.1339
X4.8031Y-4.8268
X4.811Y-2.9055
X4.8307Y-4.622
X4.8701Y-2.752
X4.8898Y-4.3937
X4.8937Y-2.9055
X4.9252Y-2.9921
X4.9528Y-2.8976
X4.9528Y-4.6575
X5.0394Y-4.5906
X5.0394Y-4.6467
X5.0787Y-4.2047
X5.0866Y-4.6467
X5.1102Y-3.9921
X5.1102Y-4.122
X5.1575Y-3.9921
X5.2677Y-4.2756
X5.3425Y-3.3898
X5.3465Y-4.7717
X5.437Y-3.2756
X5.5276Y-3.8661
X5.6457Y-4.7402
T4
X4.0709Y-4.1457
X4.1496Y-4.1457
X4.2283Y-4.1457
T5
X3.7264Y-4.5236
X3.9272Y-3.6083
X3.9272Y-3.8642
X4.1043Y-3.6083
X4.1043Y-3.8642
X5.1083Y-3.6083
X5.1083Y-3.8642
X5.1319Y-4.2071
X5.1719Y-4.4071
X5.2119Y-4.2071
X5.2854Y-3.6083
X5.2854Y-3.8642
X5.4862Y-4.5236
T6
X3.9882Y-4.1457
X4.311Y-4.1457
T2
X5.7251Y-4.5639G85X5.7497Y-4.5516
G05
X5.8723Y-4.8579G85X5.8969Y-4.8455
G05
T3
X5.6627Y-4.681G85X5.6697Y-4.6775
G05
X5.7411Y-4.8377G85X5.7482Y-4.8342
G05
T0
M30
