G04 #@! TF.FileFunction,Legend,Bot*
%FSLAX46Y46*%
G04 Gerber Fmt 4.6, Leading zero omitted, Abs format (unit mm)*
G04 Created by KiCad (PCBNEW 4.0.0-rc1-stable) date 15/10/2016 23:52:11*
%MOMM*%
G01*
G04 APERTURE LIST*
%ADD10C,0.100000*%
%ADD11C,0.300000*%
%ADD12C,0.200000*%
%ADD13C,2.000000*%
%ADD14C,1.600000*%
%ADD15C,1.000000*%
%ADD16C,1.000000*%
%ADD17R,3.000000X3.000000*%
G04 APERTURE END LIST*
D10*
D11*
X106892857Y-90792857D02*
X106964286Y-91007143D01*
X107035714Y-91078571D01*
X107178571Y-91150000D01*
X107392857Y-91150000D01*
X107535714Y-91078571D01*
X107607143Y-91007143D01*
X107678571Y-90864285D01*
X107678571Y-90292857D01*
X106178571Y-90292857D01*
X106178571Y-90792857D01*
X106250000Y-90935714D01*
X106321429Y-91007143D01*
X106464286Y-91078571D01*
X106607143Y-91078571D01*
X106750000Y-91007143D01*
X106821429Y-90935714D01*
X106892857Y-90792857D01*
X106892857Y-90292857D01*
X107678571Y-92007143D02*
X107607143Y-91864285D01*
X107535714Y-91792857D01*
X107392857Y-91721428D01*
X106964286Y-91721428D01*
X106821429Y-91792857D01*
X106750000Y-91864285D01*
X106678571Y-92007143D01*
X106678571Y-92221428D01*
X106750000Y-92364285D01*
X106821429Y-92435714D01*
X106964286Y-92507143D01*
X107392857Y-92507143D01*
X107535714Y-92435714D01*
X107607143Y-92364285D01*
X107678571Y-92221428D01*
X107678571Y-92007143D01*
X107678571Y-93364286D02*
X107607143Y-93221428D01*
X107535714Y-93150000D01*
X107392857Y-93078571D01*
X106964286Y-93078571D01*
X106821429Y-93150000D01*
X106750000Y-93221428D01*
X106678571Y-93364286D01*
X106678571Y-93578571D01*
X106750000Y-93721428D01*
X106821429Y-93792857D01*
X106964286Y-93864286D01*
X107392857Y-93864286D01*
X107535714Y-93792857D01*
X107607143Y-93721428D01*
X107678571Y-93578571D01*
X107678571Y-93364286D01*
X106678571Y-94292857D02*
X106678571Y-94864286D01*
X106178571Y-94507143D02*
X107464286Y-94507143D01*
X107607143Y-94578571D01*
X107678571Y-94721429D01*
X107678571Y-94864286D01*
X107678571Y-95578572D02*
X107607143Y-95435714D01*
X107464286Y-95364286D01*
X106178571Y-95364286D01*
X107678571Y-96364286D02*
X107607143Y-96221428D01*
X107535714Y-96150000D01*
X107392857Y-96078571D01*
X106964286Y-96078571D01*
X106821429Y-96150000D01*
X106750000Y-96221428D01*
X106678571Y-96364286D01*
X106678571Y-96578571D01*
X106750000Y-96721428D01*
X106821429Y-96792857D01*
X106964286Y-96864286D01*
X107392857Y-96864286D01*
X107535714Y-96792857D01*
X107607143Y-96721428D01*
X107678571Y-96578571D01*
X107678571Y-96364286D01*
X107678571Y-98150000D02*
X106892857Y-98150000D01*
X106750000Y-98078571D01*
X106678571Y-97935714D01*
X106678571Y-97650000D01*
X106750000Y-97507143D01*
X107607143Y-98150000D02*
X107678571Y-98007143D01*
X107678571Y-97650000D01*
X107607143Y-97507143D01*
X107464286Y-97435714D01*
X107321429Y-97435714D01*
X107178571Y-97507143D01*
X107107143Y-97650000D01*
X107107143Y-98007143D01*
X107035714Y-98150000D01*
X107678571Y-99507143D02*
X106178571Y-99507143D01*
X107607143Y-99507143D02*
X107678571Y-99364286D01*
X107678571Y-99078572D01*
X107607143Y-98935714D01*
X107535714Y-98864286D01*
X107392857Y-98792857D01*
X106964286Y-98792857D01*
X106821429Y-98864286D01*
X106750000Y-98935714D01*
X106678571Y-99078572D01*
X106678571Y-99364286D01*
X106750000Y-99507143D01*
X99564285Y-106178571D02*
X99564285Y-104678571D01*
X98992857Y-104678571D01*
X98849999Y-104750000D01*
X98778571Y-104821429D01*
X98707142Y-104964286D01*
X98707142Y-105178571D01*
X98778571Y-105321429D01*
X98849999Y-105392857D01*
X98992857Y-105464286D01*
X99564285Y-105464286D01*
X97849999Y-106178571D02*
X97992857Y-106107143D01*
X98064285Y-106035714D01*
X98135714Y-105892857D01*
X98135714Y-105464286D01*
X98064285Y-105321429D01*
X97992857Y-105250000D01*
X97849999Y-105178571D01*
X97635714Y-105178571D01*
X97492857Y-105250000D01*
X97421428Y-105321429D01*
X97349999Y-105464286D01*
X97349999Y-105892857D01*
X97421428Y-106035714D01*
X97492857Y-106107143D01*
X97635714Y-106178571D01*
X97849999Y-106178571D01*
X96849999Y-105178571D02*
X96564285Y-106178571D01*
X96278571Y-105464286D01*
X95992856Y-106178571D01*
X95707142Y-105178571D01*
X94564285Y-106107143D02*
X94707142Y-106178571D01*
X94992856Y-106178571D01*
X95135713Y-106107143D01*
X95207142Y-105964286D01*
X95207142Y-105392857D01*
X95135713Y-105250000D01*
X94992856Y-105178571D01*
X94707142Y-105178571D01*
X94564285Y-105250000D01*
X94492856Y-105392857D01*
X94492856Y-105535714D01*
X95207142Y-105678571D01*
X93849999Y-106178571D02*
X93849999Y-105178571D01*
X93849999Y-105464286D02*
X93778571Y-105321429D01*
X93707142Y-105250000D01*
X93564285Y-105178571D01*
X93421428Y-105178571D01*
D12*
X141900000Y-108500000D02*
X92100000Y-108500000D01*
X92100000Y-108500000D02*
X92100000Y-121300000D01*
X92100000Y-121300000D02*
X141900000Y-121300000D01*
X141900000Y-121300000D02*
X141900000Y-108500000D01*
X137000000Y-114900000D02*
X134000000Y-114900000D01*
X97000000Y-114900000D02*
X100000000Y-114900000D01*
X98500000Y-113400000D02*
X98500000Y-116400000D01*
X101200000Y-107350000D02*
X109600000Y-107350000D01*
X109600000Y-107350000D02*
X109600000Y-103250000D01*
X109600000Y-103250000D02*
X101200000Y-103250000D01*
X101200000Y-103250000D02*
X101200000Y-107350000D01*
X103400000Y-106300000D02*
X107400000Y-106300000D01*
X107400000Y-106300000D02*
X107400000Y-104300000D01*
X107400000Y-104300000D02*
X103400000Y-104300000D01*
X103400000Y-104300000D02*
X103400000Y-106300000D01*
X99100000Y-92000000D02*
X99100000Y-97800000D01*
X99100000Y-97800000D02*
X104900000Y-97800000D01*
X104900000Y-97800000D02*
X104900000Y-92000000D01*
X104900000Y-92000000D02*
X99100000Y-92000000D01*
X103700000Y-94900000D02*
G75*
G03X103700000Y-94900000I-1700000J0D01*
G01*
X129100000Y-92000000D02*
X129100000Y-97800000D01*
X129100000Y-97800000D02*
X134900000Y-97800000D01*
X134900000Y-97800000D02*
X134900000Y-92000000D01*
X134900000Y-92000000D02*
X129100000Y-92000000D01*
X133700000Y-94900000D02*
G75*
G03X133700000Y-94900000I-1700000J0D01*
G01*
%LPC*%
D13*
X139350000Y-114900000D03*
X94650000Y-114900000D03*
D14*
X105400000Y-105300000D03*
X103400000Y-105300000D03*
X107400000Y-105300000D03*
D13*
X109500000Y-105300000D03*
X101300000Y-105300000D03*
D15*
X143809504Y-118909754D02*
X144033042Y-118797814D01*
X145802032Y-122888740D02*
X146025570Y-122776800D01*
X145328237Y-115968398D02*
X146132975Y-115565414D01*
X149067025Y-123434586D02*
X149871763Y-123031602D01*
D16*
X131365000Y-111940000D03*
X132381000Y-106860000D03*
X130349000Y-106860000D03*
D13*
X99750000Y-91650000D03*
X104250000Y-91650000D03*
X104250000Y-98150000D03*
X99750000Y-98150000D03*
X129750000Y-91650000D03*
X134250000Y-91650000D03*
X134250000Y-98150000D03*
X129750000Y-98150000D03*
D17*
X114500000Y-58500000D03*
X114500000Y-65500000D03*
X114500000Y-72500000D03*
X114500000Y-79500000D03*
X119500000Y-79500000D03*
X119500000Y-72500000D03*
X119500000Y-65500000D03*
X119500000Y-58500000D03*
M02*
