G04 #@! TF.FileFunction,Copper,L1,Top,Signal*
%FSLAX46Y46*%
G04 Gerber Fmt 4.6, Leading zero omitted, Abs format (unit mm)*
G04 Created by KiCad (PCBNEW 4.0.0-rc1-stable) date 15/10/2016 23:52:11*
%MOMM*%
G01*
G04 APERTURE LIST*
%ADD10C,0.100000*%
%ADD11C,2.000000*%
%ADD12C,1.600000*%
%ADD13R,1.150000X1.450000*%
%ADD14R,1.450000X1.150000*%
%ADD15R,0.800000X1.700000*%
%ADD16C,1.000000*%
%ADD17R,0.950000X0.400000*%
%ADD18R,1.000000X0.600000*%
%ADD19C,0.787000*%
%ADD20R,1.350000X0.450000*%
%ADD21R,0.800000X0.800000*%
%ADD22C,0.600000*%
%ADD23C,0.300000*%
%ADD24C,0.200000*%
%ADD25C,0.500000*%
%ADD26C,0.254000*%
G04 APERTURE END LIST*
D10*
D11*
X139350000Y-114900000D03*
X94650000Y-114900000D03*
D12*
X105400000Y-105300000D03*
X103400000Y-105300000D03*
X107400000Y-105300000D03*
D11*
X109500000Y-105300000D03*
X101300000Y-105300000D03*
D13*
X123600000Y-122650000D03*
X125400000Y-122650000D03*
X138900000Y-98200000D03*
X137100000Y-98200000D03*
X108900000Y-68000000D03*
X107100000Y-68000000D03*
X129800000Y-122650000D03*
X128000000Y-122650000D03*
D14*
X107000000Y-96300000D03*
X107000000Y-98100000D03*
D13*
X104600000Y-109400000D03*
X106400000Y-109400000D03*
X104100000Y-122150000D03*
X105900000Y-122150000D03*
X105900000Y-119600000D03*
X104100000Y-119600000D03*
X104600000Y-117500000D03*
X106400000Y-117500000D03*
X124100000Y-113000000D03*
X125900000Y-113000000D03*
D14*
X134400000Y-119500000D03*
X134400000Y-121300000D03*
X132400000Y-121300000D03*
X132400000Y-119500000D03*
D15*
X106250000Y-114700000D03*
X104750000Y-114700000D03*
D10*
G36*
X145901243Y-120574349D02*
X144694135Y-121178824D01*
X144515031Y-120821163D01*
X145722139Y-120216688D01*
X145901243Y-120574349D01*
X145901243Y-120574349D01*
G37*
G36*
X145610200Y-119993148D02*
X144403092Y-120597623D01*
X144223988Y-120239962D01*
X145431096Y-119635487D01*
X145610200Y-119993148D01*
X145610200Y-119993148D01*
G37*
G36*
X146192287Y-121155549D02*
X144985179Y-121760024D01*
X144806075Y-121402363D01*
X146013183Y-120797888D01*
X146192287Y-121155549D01*
X146192287Y-121155549D01*
G37*
G36*
X146483330Y-121736749D02*
X145276222Y-122341224D01*
X145097118Y-121983563D01*
X146304226Y-121379088D01*
X146483330Y-121736749D01*
X146483330Y-121736749D01*
G37*
G36*
X145319157Y-119411948D02*
X144112049Y-120016423D01*
X143932945Y-119658762D01*
X145140053Y-119054287D01*
X145319157Y-119411948D01*
X145319157Y-119411948D01*
G37*
D16*
X143809504Y-118909754D02*
X144033042Y-118797814D01*
X145802032Y-122888740D02*
X146025570Y-122776800D01*
D10*
G36*
X148337507Y-118851091D02*
X146638614Y-119701833D01*
X145832647Y-118092355D01*
X147531540Y-117241613D01*
X148337507Y-118851091D01*
X148337507Y-118851091D01*
G37*
G36*
X149367353Y-120907645D02*
X147668460Y-121758387D01*
X146862493Y-120148909D01*
X148561386Y-119298167D01*
X149367353Y-120907645D01*
X149367353Y-120907645D01*
G37*
G36*
X147285273Y-116749828D02*
X145586380Y-117600571D01*
X144881159Y-116192278D01*
X146580052Y-115341535D01*
X147285273Y-116749828D01*
X147285273Y-116749828D01*
G37*
D16*
X145328237Y-115968398D02*
X146132975Y-115565414D01*
D10*
G36*
X150318841Y-122807722D02*
X148619948Y-123658465D01*
X147914727Y-122250172D01*
X149613620Y-121399429D01*
X150318841Y-122807722D01*
X150318841Y-122807722D01*
G37*
D16*
X149067025Y-123434586D02*
X149871763Y-123031602D01*
D17*
X106600000Y-112800000D03*
X106600000Y-112150000D03*
X106600000Y-111500000D03*
X104400000Y-111500000D03*
X104400000Y-112150000D03*
X104400000Y-112800000D03*
D18*
X107850000Y-120450000D03*
X107850000Y-122350000D03*
X110150000Y-121400000D03*
D19*
X132000000Y-110670000D03*
X130730000Y-110670000D03*
X132000000Y-109400000D03*
X130730000Y-109400000D03*
X132000000Y-108130000D03*
X130730000Y-108130000D03*
D20*
X124525000Y-114825000D03*
X124525000Y-115475000D03*
X124525000Y-116125000D03*
X124525000Y-116775000D03*
X124525000Y-117425000D03*
X124525000Y-118075000D03*
X124525000Y-118725000D03*
X124525000Y-119375000D03*
X124525000Y-120025000D03*
X124525000Y-120675000D03*
X130275000Y-120675000D03*
X130275000Y-120025000D03*
X130275000Y-119375000D03*
X130275000Y-118725000D03*
X130275000Y-118075000D03*
X130275000Y-117425000D03*
X130275000Y-116775000D03*
X130275000Y-116125000D03*
X130275000Y-115475000D03*
X130275000Y-114825000D03*
D21*
X103625000Y-69400000D03*
X100875000Y-69400000D03*
X100875000Y-70900000D03*
X103625000Y-70900000D03*
X92575000Y-102150000D03*
X89825000Y-102150000D03*
X89825000Y-103650000D03*
X92575000Y-103650000D03*
X136875000Y-83500000D03*
X139625000Y-83500000D03*
X139625000Y-82000000D03*
X136875000Y-82000000D03*
X97125000Y-82000000D03*
X94375000Y-82000000D03*
X94375000Y-83500000D03*
X97125000Y-83500000D03*
X141625000Y-103650000D03*
X144375000Y-103650000D03*
X144375000Y-102150000D03*
X141625000Y-102150000D03*
X130375000Y-70900000D03*
X133125000Y-70900000D03*
X133125000Y-69400000D03*
X130375000Y-69400000D03*
D13*
X107100000Y-70000000D03*
X108900000Y-70000000D03*
X107100000Y-72000000D03*
X108900000Y-72000000D03*
X95100000Y-101000000D03*
X96900000Y-101000000D03*
X132900000Y-85000000D03*
X131100000Y-85000000D03*
X95100000Y-103000000D03*
X96900000Y-103000000D03*
X132900000Y-83000000D03*
X131100000Y-83000000D03*
X95100000Y-105000000D03*
X96900000Y-105000000D03*
X132900000Y-81000000D03*
X131100000Y-81000000D03*
X99100000Y-81000000D03*
X100900000Y-81000000D03*
X99100000Y-83000000D03*
X100900000Y-83000000D03*
X99100000Y-85000000D03*
X100900000Y-85000000D03*
X138900000Y-105000000D03*
X137100000Y-105000000D03*
X126900000Y-72000000D03*
X125100000Y-72000000D03*
X138900000Y-103000000D03*
X137100000Y-103000000D03*
X126900000Y-70000000D03*
X125100000Y-70000000D03*
X138900000Y-101000000D03*
X137100000Y-101000000D03*
X126900000Y-68000000D03*
X125100000Y-68000000D03*
D11*
X99750000Y-91650000D03*
X104250000Y-91650000D03*
X104250000Y-98150000D03*
X99750000Y-98150000D03*
X129750000Y-91650000D03*
X134250000Y-91650000D03*
X134250000Y-98150000D03*
X129750000Y-98150000D03*
D22*
X125100000Y-76000000D03*
X109800000Y-79100000D03*
X113000000Y-94600000D03*
X121600000Y-94600000D03*
X118200000Y-94600000D03*
X116000030Y-94600000D03*
X102000000Y-100000000D03*
X129800000Y-101400000D03*
X129800000Y-104700000D03*
X97600000Y-80300000D03*
X95700000Y-83600000D03*
X97400000Y-86600000D03*
X138100000Y-83200000D03*
X135700000Y-86100000D03*
X129200000Y-118025010D03*
X140400000Y-98200000D03*
X103200000Y-117400000D03*
X106000000Y-107800000D03*
X124200000Y-111600000D03*
X122000000Y-122600000D03*
X135800000Y-121200000D03*
X143400000Y-120400000D03*
X108800000Y-96400000D03*
X133800000Y-108600000D03*
X112800000Y-98000000D03*
X118200000Y-112600000D03*
X121400000Y-113000000D03*
X116200000Y-98000000D03*
X107300000Y-123400000D03*
X107700000Y-118700000D03*
X112000000Y-59000000D03*
X118300000Y-91700000D03*
X122000000Y-91700000D03*
X116000000Y-101000000D03*
X113000000Y-101000000D03*
X110300000Y-69600000D03*
X122000000Y-90500000D03*
X113900000Y-90600000D03*
X115400000Y-103000000D03*
X113000000Y-103000000D03*
X109600000Y-73800000D03*
X122000000Y-89300000D03*
X113000000Y-89100000D03*
X125800000Y-73600000D03*
X118800000Y-105000000D03*
X122000000Y-105000000D03*
X121000000Y-85100000D03*
X113000000Y-85100000D03*
X118000000Y-117000000D03*
X120000000Y-115000000D03*
X123700000Y-69900000D03*
X118100000Y-102800000D03*
X122000000Y-103000000D03*
X116000030Y-87000000D03*
X113000000Y-87000000D03*
X117300000Y-116300000D03*
X119299990Y-114300000D03*
X124300010Y-73800000D03*
X122200000Y-73800000D03*
X122000000Y-88000000D03*
X113000000Y-88100000D03*
X125800000Y-118300000D03*
X122700000Y-117400000D03*
X128000000Y-118025010D03*
X128000000Y-116600000D03*
X129000000Y-106800000D03*
X131000000Y-101400000D03*
D23*
X130275000Y-114825000D02*
X130275000Y-112670412D01*
X130275000Y-112670412D02*
X129886491Y-112281903D01*
X129886491Y-112281903D02*
X129886491Y-110243509D01*
X129886491Y-110243509D02*
X130336501Y-109793499D01*
X130336501Y-109793499D02*
X130730000Y-109400000D01*
X130275000Y-115475000D02*
X131065002Y-115475000D01*
X131250001Y-113009003D02*
X130336501Y-112095503D01*
X131065002Y-115475000D02*
X131250001Y-115290001D01*
X130336501Y-111063499D02*
X130730000Y-110670000D01*
X131250001Y-115290001D02*
X131250001Y-113009003D01*
X130336501Y-112095503D02*
X130336501Y-111063499D01*
D24*
X145208137Y-120697756D02*
X145002244Y-120697756D01*
X145002244Y-120697756D02*
X144500000Y-121200000D01*
D23*
X130275000Y-116125000D02*
X136725000Y-116125000D01*
X136725000Y-116125000D02*
X141800000Y-121200000D01*
X141800000Y-121200000D02*
X144500000Y-121200000D01*
D24*
X145321044Y-121278956D02*
X144800000Y-121800000D01*
X144800000Y-121800000D02*
X144700000Y-121800000D01*
X145499181Y-121278956D02*
X145321044Y-121278956D01*
D23*
X144700000Y-121800000D02*
X141763590Y-121800000D01*
X141763590Y-121800000D02*
X136738590Y-116775000D01*
X131250000Y-116775000D02*
X130275000Y-116775000D01*
X136738590Y-116775000D02*
X131250000Y-116775000D01*
D25*
X134700000Y-75800000D02*
X125300000Y-75800000D01*
X125300000Y-75800000D02*
X125100000Y-76000000D01*
X97899999Y-78995774D02*
X97899999Y-75900001D01*
X97899999Y-80000001D02*
X97899999Y-78995774D01*
X97899999Y-78995774D02*
X109695774Y-78995774D01*
X109695774Y-78995774D02*
X109800000Y-79100000D01*
X143200000Y-99400000D02*
X138400000Y-94600000D01*
X138400000Y-94600000D02*
X130200000Y-94600000D01*
X143200000Y-101875000D02*
X143200000Y-99400000D01*
X144375000Y-102150000D02*
X143475000Y-102150000D01*
X143475000Y-102150000D02*
X143200000Y-101875000D01*
X113000000Y-94600000D02*
X97419453Y-94600000D01*
X97419453Y-94600000D02*
X97389834Y-94570381D01*
X121600000Y-94600000D02*
X129781283Y-94600000D01*
X129781283Y-94600000D02*
X130200000Y-94600000D01*
X129750000Y-98150000D02*
X129750000Y-94631283D01*
X129750000Y-94631283D02*
X129781283Y-94600000D01*
X130200000Y-94600000D02*
X132000000Y-92800000D01*
X132000000Y-90400000D02*
X135700000Y-86700000D01*
X132000000Y-92800000D02*
X132000000Y-90400000D01*
X135700000Y-86700000D02*
X135700000Y-86100000D01*
X129800000Y-100527998D02*
X129750000Y-100477998D01*
X129750000Y-100477998D02*
X129750000Y-98150000D01*
X116000030Y-94600000D02*
X118200000Y-94600000D01*
X97389834Y-94570381D02*
X97389834Y-86610166D01*
X97389834Y-98150000D02*
X97389834Y-94570381D01*
X99750000Y-98150000D02*
X100150000Y-98150000D01*
X100150000Y-98150000D02*
X102000000Y-100000000D01*
X132000000Y-110670000D02*
X134030000Y-110670000D01*
X134030000Y-110670000D02*
X135000000Y-109700000D01*
X135000000Y-109700000D02*
X135000000Y-108146998D01*
X135000000Y-108146998D02*
X132525097Y-105672095D01*
X132525097Y-105672095D02*
X128827905Y-105672095D01*
X127600000Y-106900000D02*
X128827905Y-105672095D01*
X128827905Y-105672095D02*
X129800000Y-104700000D01*
X125900000Y-113000000D02*
X125900000Y-108600000D01*
X125900000Y-108600000D02*
X127600000Y-106900000D01*
X129800000Y-101400000D02*
X129800000Y-100527998D01*
X97899999Y-75900001D02*
X100875000Y-72925000D01*
X100875000Y-72925000D02*
X100875000Y-70900000D01*
X97600000Y-80300000D02*
X97899999Y-80000001D01*
X95700000Y-83600000D02*
X94475000Y-83600000D01*
X94475000Y-83600000D02*
X94375000Y-83500000D01*
X97389834Y-98150000D02*
X98335787Y-98150000D01*
X92450000Y-98150000D02*
X97389834Y-98150000D01*
X97389834Y-86610166D02*
X97400000Y-86600000D01*
D23*
X89700000Y-100900000D02*
X89124999Y-101475001D01*
D25*
X92450000Y-98150000D02*
X89700000Y-100900000D01*
D23*
X89825000Y-103650000D02*
X89124999Y-103649999D01*
X89124999Y-103649999D02*
X89124999Y-101475001D01*
D25*
X98335787Y-98150000D02*
X99750000Y-98150000D01*
X138100000Y-83200000D02*
X138399999Y-82900001D01*
X138399999Y-82900001D02*
X138399999Y-81675001D01*
X138399999Y-81675001D02*
X138400000Y-81675000D01*
X134000000Y-71200000D02*
X134000000Y-70275000D01*
X134000000Y-70275000D02*
X133125000Y-69400000D01*
X134700000Y-71900000D02*
X134000000Y-71200000D01*
X134700000Y-75800000D02*
X134700000Y-71900000D01*
X138400000Y-79500000D02*
X134700000Y-75800000D01*
X138400000Y-81675000D02*
X138400000Y-79500000D01*
X139625000Y-82000000D02*
X138725000Y-82000000D01*
X138725000Y-82000000D02*
X138400000Y-81675000D01*
D23*
X134400000Y-119500000D02*
X134400000Y-118625000D01*
X134400000Y-118625000D02*
X133200000Y-117425000D01*
X133200000Y-117425000D02*
X131250000Y-117425000D01*
X130275000Y-117425000D02*
X131250000Y-117425000D01*
X131250000Y-117425000D02*
X132400000Y-118575000D01*
X132400000Y-118575000D02*
X132400000Y-118625000D01*
X132400000Y-118625000D02*
X132400000Y-119500000D01*
X124525000Y-117425000D02*
X126009295Y-117425000D01*
X126009295Y-117425000D02*
X130275000Y-117425000D01*
X125900000Y-113000000D02*
X125900000Y-117315705D01*
X125900000Y-117315705D02*
X126009295Y-117425000D01*
X130275000Y-118075000D02*
X129249990Y-118075000D01*
X129249990Y-118075000D02*
X129200000Y-118025010D01*
D25*
X138900000Y-98200000D02*
X140400000Y-98200000D01*
X104600000Y-117500000D02*
X103300000Y-117500000D01*
X103300000Y-117500000D02*
X103200000Y-117400000D01*
X106400000Y-109400000D02*
X106400000Y-108200000D01*
X106400000Y-108200000D02*
X106000000Y-107800000D01*
X124100000Y-113000000D02*
X124100000Y-111700000D01*
X124100000Y-111700000D02*
X124200000Y-111600000D01*
X123600000Y-122650000D02*
X122050000Y-122650000D01*
D23*
X122050000Y-122650000D02*
X122000000Y-122600000D01*
X134400000Y-121300000D02*
X135700000Y-121300000D01*
X135700000Y-121300000D02*
X135800000Y-121200000D01*
X144626051Y-119535355D02*
X144426611Y-119535355D01*
X144426611Y-119535355D02*
X144253082Y-119708884D01*
X144253082Y-119708884D02*
X144091116Y-119708884D01*
X144091116Y-119708884D02*
X143400000Y-120400000D01*
D25*
X107000000Y-96300000D02*
X108700000Y-96300000D01*
X108700000Y-96300000D02*
X108800000Y-96400000D01*
X132000000Y-108130000D02*
X133330000Y-108130000D01*
X133330000Y-108130000D02*
X133800000Y-108600000D01*
X104600000Y-117500000D02*
X104600000Y-118300000D01*
X104600000Y-118300000D02*
X104100000Y-118800000D01*
X104100000Y-118800000D02*
X104100000Y-119600000D01*
X106400000Y-109400000D02*
X106400000Y-111300000D01*
D24*
X106400000Y-111300000D02*
X106600000Y-111500000D01*
D25*
X104100000Y-119600000D02*
X104100000Y-120858422D01*
X104100000Y-120858422D02*
X104100000Y-122150000D01*
X107850000Y-120450000D02*
X107350000Y-120450000D01*
X107350000Y-120450000D02*
X106941578Y-120858422D01*
X106941578Y-120858422D02*
X104100000Y-120858422D01*
X132400000Y-121300000D02*
X134400000Y-121300000D01*
D23*
X125400000Y-122650000D02*
X128000000Y-122650000D01*
X128000000Y-122650000D02*
X128000000Y-121750000D01*
X128000000Y-121750000D02*
X129075000Y-120675000D01*
X129075000Y-120675000D02*
X130275000Y-120675000D01*
D25*
X107000000Y-98100000D02*
X112700000Y-98100000D01*
X112700000Y-98100000D02*
X112800000Y-98000000D01*
X117000000Y-99224264D02*
X117000000Y-111400000D01*
X117000000Y-111400000D02*
X118200000Y-112600000D01*
X116200000Y-98000000D02*
X116200000Y-98424264D01*
X116200000Y-98424264D02*
X117000000Y-99224264D01*
X124525000Y-114825000D02*
X123225000Y-114825000D01*
X123225000Y-114825000D02*
X121400000Y-113000000D01*
X104250000Y-98150000D02*
X106950000Y-98150000D01*
X106950000Y-98150000D02*
X107000000Y-98100000D01*
D23*
X104300000Y-98100000D02*
X104250000Y-98150000D01*
D25*
X129800000Y-122650000D02*
X132345115Y-122650000D01*
X132345115Y-122650000D02*
X144560000Y-122650000D01*
X110150000Y-121400000D02*
X111150000Y-121400000D01*
X130995115Y-124000000D02*
X132345115Y-122650000D01*
X111150000Y-121400000D02*
X113750000Y-124000000D01*
X113750000Y-124000000D02*
X130995115Y-124000000D01*
D23*
X109100000Y-119600000D02*
X110150000Y-120650000D01*
X110150000Y-120650000D02*
X110150000Y-121400000D01*
X105900000Y-119600000D02*
X109100000Y-119600000D01*
X145030000Y-122220000D02*
X144977821Y-122300010D01*
X144977821Y-122300010D02*
X145220000Y-122220000D01*
D25*
X144560000Y-122650000D02*
X144859990Y-122350010D01*
X144859990Y-122350010D02*
X144927821Y-122350010D01*
X144927821Y-122350010D02*
X144977821Y-122300010D01*
D24*
X145220000Y-122220000D02*
X145579844Y-121860156D01*
X145579844Y-121860156D02*
X145790224Y-121860156D01*
D23*
X107850000Y-122350000D02*
X106913411Y-122350000D01*
X106913411Y-122350000D02*
X106100000Y-122350000D01*
D25*
X107300000Y-123400000D02*
X106913411Y-123013411D01*
X106913411Y-123013411D02*
X106913411Y-122350000D01*
X107400000Y-105300000D02*
X107400000Y-110904998D01*
X107400000Y-110904998D02*
X107700000Y-111204998D01*
X107700000Y-111204998D02*
X107700000Y-118700000D01*
D23*
X106100000Y-122350000D02*
X105900000Y-122150000D01*
X106250000Y-113950000D02*
X106600000Y-113600000D01*
X106600000Y-113600000D02*
X106600000Y-113410000D01*
X106250000Y-114700000D02*
X106250000Y-113950000D01*
D25*
X106400000Y-117500000D02*
X106400000Y-116200000D01*
X106400000Y-116200000D02*
X106300000Y-116100000D01*
X94650000Y-114900000D02*
X95850000Y-116100000D01*
X95850000Y-116100000D02*
X106300000Y-116100000D01*
X106300000Y-116100000D02*
X106250000Y-116050000D01*
X106250000Y-116050000D02*
X106250000Y-114700000D01*
D23*
X106400000Y-115050000D02*
X106250000Y-114900000D01*
X106600000Y-113410000D02*
X106590000Y-113410000D01*
X106600000Y-112800000D02*
X106600000Y-113410000D01*
X106600000Y-112800000D02*
X104400000Y-112800000D01*
X103300000Y-112475000D02*
X103300000Y-113861545D01*
X104750000Y-114700000D02*
X104050000Y-114700000D01*
X103300000Y-113950000D02*
X103300000Y-113861545D01*
X104050000Y-114700000D02*
X103300000Y-113950000D01*
X104400000Y-112150000D02*
X103624999Y-112150001D01*
X103624999Y-112150001D02*
X103300000Y-112475000D01*
D25*
X104600000Y-109400000D02*
X104600000Y-106500000D01*
X104600000Y-106500000D02*
X103400000Y-105300000D01*
D23*
X104600000Y-108600000D02*
X104600000Y-109400000D01*
X104400000Y-111500000D02*
X104400000Y-109600000D01*
X104400000Y-109600000D02*
X104600000Y-109400000D01*
X104400000Y-111500000D02*
X105175000Y-111500000D01*
X105175000Y-111500000D02*
X105825000Y-112150000D01*
X105825000Y-112150000D02*
X106600000Y-112150000D01*
X104400000Y-69400000D02*
X105000000Y-70000000D01*
X105000000Y-70000000D02*
X107100000Y-70000000D01*
X103625000Y-69400000D02*
X104400000Y-69400000D01*
X101500000Y-68000000D02*
X100875000Y-68625000D01*
X100875000Y-68625000D02*
X100875000Y-69400000D01*
X107100000Y-68000000D02*
X101500000Y-68000000D01*
X104400000Y-70900000D02*
X105500000Y-72000000D01*
X105500000Y-72000000D02*
X107100000Y-72000000D01*
X103625000Y-70900000D02*
X104400000Y-70900000D01*
X92575000Y-102150000D02*
X93075000Y-102150000D01*
X93925000Y-103000000D02*
X95100000Y-103000000D01*
X93075000Y-102150000D02*
X93925000Y-103000000D01*
X95100000Y-101000000D02*
X91475000Y-101000000D01*
X91475000Y-101000000D02*
X90325000Y-102150000D01*
X90325000Y-102150000D02*
X89825000Y-102150000D01*
X92575000Y-103650000D02*
X93075000Y-103650000D01*
X93500000Y-104800000D02*
X93700000Y-105000000D01*
X93700000Y-105000000D02*
X95100000Y-105000000D01*
X93500000Y-104075000D02*
X93500000Y-104800000D01*
X93075000Y-103650000D02*
X93500000Y-104075000D01*
X135750000Y-83500000D02*
X135250000Y-83000000D01*
X135250000Y-83000000D02*
X135000000Y-83000000D01*
X136875000Y-83500000D02*
X135750000Y-83500000D01*
X135000000Y-83000000D02*
X132900000Y-83000000D01*
X139625000Y-83500000D02*
X139625000Y-84200000D01*
X139625000Y-84200000D02*
X139575000Y-84250000D01*
X139575000Y-84250000D02*
X136650000Y-84250000D01*
X136650000Y-84250000D02*
X135900000Y-85000000D01*
X135900000Y-85000000D02*
X132900000Y-85000000D01*
X135898627Y-81998627D02*
X134900000Y-81000000D01*
X136875000Y-82000000D02*
X135900000Y-82000000D01*
X135900000Y-82000000D02*
X135898627Y-81998627D01*
X134900000Y-81000000D02*
X132900000Y-81000000D01*
X98000000Y-82175000D02*
X98000000Y-82775000D01*
X98000000Y-82775000D02*
X98225000Y-83000000D01*
X98225000Y-83000000D02*
X99100000Y-83000000D01*
X97125000Y-82000000D02*
X97825000Y-82000000D01*
X97825000Y-82000000D02*
X98000000Y-82175000D01*
X94675000Y-81000000D02*
X99100000Y-81000000D01*
X94375000Y-82000000D02*
X94375000Y-81300000D01*
X94375000Y-81300000D02*
X94675000Y-81000000D01*
X98250000Y-84750000D02*
X98500000Y-85000000D01*
X98500000Y-85000000D02*
X99100000Y-85000000D01*
X98250000Y-84000000D02*
X98250000Y-84750000D01*
X98000000Y-83675000D02*
X98000000Y-83750000D01*
X98000000Y-83750000D02*
X98250000Y-84000000D01*
X97125000Y-83500000D02*
X97825000Y-83500000D01*
X97825000Y-83500000D02*
X98000000Y-83675000D01*
X140300000Y-103000000D02*
X140300000Y-103025000D01*
X140300000Y-103025000D02*
X140925000Y-103650000D01*
X140925000Y-103650000D02*
X141625000Y-103650000D01*
X138900000Y-103000000D02*
X140300000Y-103000000D01*
X140700000Y-104500000D02*
X140200000Y-105000000D01*
X140200000Y-105000000D02*
X138900000Y-105000000D01*
X144225000Y-104500000D02*
X140700000Y-104500000D01*
X144375000Y-103650000D02*
X144375000Y-104350000D01*
X144375000Y-104350000D02*
X144225000Y-104500000D01*
X141625000Y-102150000D02*
X140925000Y-102150000D01*
X140925000Y-102150000D02*
X139775000Y-101000000D01*
X139775000Y-101000000D02*
X138900000Y-101000000D01*
X127900000Y-70000000D02*
X126900000Y-70000000D01*
X127900000Y-70000000D02*
X128775000Y-70000000D01*
X128775000Y-70000000D02*
X129675000Y-70900000D01*
X129675000Y-70900000D02*
X130375000Y-70900000D01*
X126900000Y-72000000D02*
X132725000Y-72000000D01*
X132725000Y-72000000D02*
X133125000Y-71600000D01*
X133125000Y-71600000D02*
X133125000Y-70900000D01*
X126900000Y-68000000D02*
X129675000Y-68000000D01*
X129675000Y-68000000D02*
X130375000Y-68700000D01*
X130375000Y-68700000D02*
X130375000Y-69400000D01*
D25*
X109975000Y-68000000D02*
X109975000Y-61025000D01*
X109975000Y-61025000D02*
X112000000Y-59000000D01*
X111900020Y-69925020D02*
X109975000Y-68000000D01*
X111900020Y-69925020D02*
X111900020Y-80661516D01*
X111900020Y-80661516D02*
X115300020Y-84061516D01*
X115300020Y-84061516D02*
X115300020Y-91668439D01*
X115300020Y-91668439D02*
X115331581Y-91700000D01*
X116200552Y-102200552D02*
X115577052Y-101577052D01*
X121888505Y-118050001D02*
X115300020Y-111461516D01*
X115300020Y-104499980D02*
X116200552Y-103599448D01*
X115300020Y-111461516D02*
X115300020Y-104499980D01*
X116200552Y-103599448D02*
X116200552Y-102200552D01*
X115300020Y-101300020D02*
X115300020Y-91731561D01*
X118300000Y-91700000D02*
X115331581Y-91700000D01*
X115331581Y-91700000D02*
X115300020Y-91731561D01*
X131100000Y-85000000D02*
X130025000Y-85000000D01*
X130025000Y-85000000D02*
X123325000Y-91700000D01*
X123325000Y-91700000D02*
X122000000Y-91700000D01*
X115577052Y-101577052D02*
X115300020Y-101300020D01*
X116000000Y-101000000D02*
X115577052Y-101422948D01*
X115577052Y-101422948D02*
X115577052Y-101577052D01*
X109975000Y-68000000D02*
X108900000Y-68000000D01*
X96900000Y-101000000D02*
X113000000Y-101000000D01*
D23*
X124525000Y-118075000D02*
X123775000Y-118075000D01*
X123750001Y-118050001D02*
X121888505Y-118050001D01*
X123775000Y-118075000D02*
X123750001Y-118050001D01*
D25*
X109975000Y-70000000D02*
X109975000Y-69925000D01*
X109975000Y-69925000D02*
X110300000Y-69600000D01*
D23*
X110124573Y-70000000D02*
X109975000Y-70000000D01*
D25*
X111250010Y-80930758D02*
X111250010Y-71125437D01*
X111250010Y-71125437D02*
X110124573Y-70000000D01*
X114650010Y-90603474D02*
X114650010Y-84330758D01*
X114650010Y-84330758D02*
X111250010Y-80930758D01*
X122000000Y-90500000D02*
X122299999Y-90200001D01*
X122299999Y-90200001D02*
X122519251Y-90200001D01*
X122519251Y-90200001D02*
X129719252Y-83000000D01*
X129719252Y-83000000D02*
X131100000Y-83000000D01*
X114650010Y-102961651D02*
X114650010Y-90603474D01*
X114650010Y-90603474D02*
X113903474Y-90603474D01*
X113903474Y-90603474D02*
X113900000Y-90600000D01*
X96900000Y-103000000D02*
X97975000Y-103000000D01*
X112075000Y-102075000D02*
X113000000Y-103000000D01*
X97975000Y-103000000D02*
X98900000Y-102075000D01*
X98900000Y-102075000D02*
X112075000Y-102075000D01*
X114650010Y-111730758D02*
X114650010Y-102961651D01*
X115400000Y-103000000D02*
X114688359Y-103000000D01*
X114688359Y-103000000D02*
X114650010Y-102961651D01*
X121644252Y-118725000D02*
X114650010Y-111730758D01*
D23*
X109975000Y-70000000D02*
X108900000Y-70000000D01*
X124525000Y-118725000D02*
X121644252Y-118725000D01*
D25*
X110600000Y-81200000D02*
X110600000Y-73701991D01*
X110600000Y-73701991D02*
X110600000Y-72726531D01*
X109600000Y-73800000D02*
X110501991Y-73800000D01*
X110501991Y-73800000D02*
X110600000Y-73701991D01*
X113982908Y-103700001D02*
X113982908Y-92121515D01*
X113982908Y-92121515D02*
X113000000Y-91138607D01*
X113000000Y-91138607D02*
X113000000Y-89528922D01*
X113000000Y-89528922D02*
X113428922Y-89100000D01*
X113000000Y-89100000D02*
X113428922Y-89100000D01*
X113428922Y-89100000D02*
X113700001Y-88828921D01*
D23*
X109873469Y-72000000D02*
X108900000Y-72000000D01*
D25*
X110600000Y-72726531D02*
X109873469Y-72000000D01*
X113700001Y-84300001D02*
X110600000Y-81200000D01*
X113700001Y-88828921D02*
X113700001Y-84300001D01*
X125000000Y-86309066D02*
X125000000Y-86025000D01*
X125000000Y-86025000D02*
X130025000Y-81000000D01*
X130025000Y-81000000D02*
X131100000Y-81000000D01*
X122500000Y-88800000D02*
X122509066Y-88800000D01*
X122509066Y-88800000D02*
X125000000Y-86309066D01*
X122500000Y-88800000D02*
X122000000Y-89300000D01*
X114000000Y-112000000D02*
X114000000Y-103682909D01*
X96900000Y-105000000D02*
X96900000Y-104927998D01*
X98227999Y-103599999D02*
X112563997Y-103599999D01*
X112663999Y-103700001D02*
X113982908Y-103700001D01*
X96900000Y-104927998D02*
X98227999Y-103599999D01*
X112563997Y-103599999D02*
X112663999Y-103700001D01*
X113982908Y-103700001D02*
X114000000Y-103682909D01*
X121375000Y-119375000D02*
X114000000Y-112000000D01*
D23*
X124525000Y-119375000D02*
X121375000Y-119375000D01*
D25*
X125000000Y-72800000D02*
X125100000Y-72700000D01*
X125100000Y-72700000D02*
X125100000Y-72000000D01*
X125800000Y-73600000D02*
X125000000Y-72800000D01*
X125100000Y-72000000D02*
X124208548Y-72000000D01*
X120000000Y-85056581D02*
X120000000Y-84600000D01*
X123600000Y-72608548D02*
X124208548Y-72000000D01*
X120000000Y-84600000D02*
X123600000Y-81000000D01*
X123600000Y-81000000D02*
X123600000Y-72608548D01*
X133680540Y-105000000D02*
X137100000Y-105000000D01*
X122000000Y-105000000D02*
X127200000Y-105000000D01*
X128549990Y-103650010D02*
X132330550Y-103650010D01*
X127200000Y-105000000D02*
X128549990Y-103650010D01*
X132330550Y-103650010D02*
X133680540Y-105000000D01*
X120000000Y-85056581D02*
X120000000Y-104976821D01*
X120000000Y-104976821D02*
X120000000Y-115000000D01*
X118800000Y-105000000D02*
X119976821Y-105000000D01*
X119976821Y-105000000D02*
X120000000Y-104976821D01*
X121000000Y-85100000D02*
X120043419Y-85100000D01*
X120043419Y-85100000D02*
X120000000Y-85056581D01*
X100900000Y-81000000D02*
X108900000Y-81000000D01*
X108900000Y-81000000D02*
X113000000Y-85100000D01*
X118000000Y-117000000D02*
X121025000Y-120025000D01*
D23*
X121025000Y-120025000D02*
X124525000Y-120025000D01*
D25*
X125100000Y-70000000D02*
X123800000Y-70000000D01*
X123800000Y-70000000D02*
X123700000Y-69900000D01*
X125100000Y-70000000D02*
X124513400Y-70000000D01*
X122949990Y-80730758D02*
X122949990Y-71563410D01*
X122949990Y-71563410D02*
X124513400Y-70000000D01*
X119321613Y-84359135D02*
X122949990Y-80730758D01*
X119321613Y-87000000D02*
X119321613Y-84359135D01*
X119299990Y-114300000D02*
X119299990Y-107279540D01*
X119299990Y-107279540D02*
X118000000Y-105979550D01*
X118000000Y-105979550D02*
X118000000Y-103684320D01*
X118000000Y-103684320D02*
X118492160Y-103192160D01*
X118707840Y-103192160D02*
X119321613Y-102578387D01*
X118100000Y-102800000D02*
X118492160Y-103192160D01*
X118492160Y-103192160D02*
X118707840Y-103192160D01*
X119321613Y-102578387D02*
X119321613Y-102378387D01*
X119321613Y-102378387D02*
X119321613Y-87000000D01*
X137100000Y-103000000D02*
X122000000Y-103000000D01*
X116000030Y-87000000D02*
X119321613Y-87000000D01*
X119321613Y-87000000D02*
X119349990Y-87028377D01*
X100900000Y-83000000D02*
X109000000Y-83000000D01*
X109000000Y-83000000D02*
X113000000Y-87000000D01*
X117300000Y-116300000D02*
X117000001Y-116599999D01*
X117000001Y-116599999D02*
X117000001Y-117036003D01*
X117000001Y-117036003D02*
X120638998Y-120675000D01*
D23*
X120638998Y-120675000D02*
X123350000Y-120675000D01*
X123350000Y-120675000D02*
X124525000Y-120675000D01*
D25*
X119349990Y-114250000D02*
X119299990Y-114300000D01*
X124300010Y-73800000D02*
X124300010Y-83699990D01*
X124300010Y-83699990D02*
X120650010Y-87349990D01*
X120650010Y-87349990D02*
X120650010Y-88047729D01*
X122200000Y-70600000D02*
X122200000Y-73300000D01*
X122200000Y-73300000D02*
X122200000Y-73800000D01*
X122200000Y-69800000D02*
X122200000Y-70600000D01*
X122400000Y-69600000D02*
X122200000Y-69800000D01*
X124000000Y-68000000D02*
X122400000Y-69600000D01*
X124025000Y-68000000D02*
X124000000Y-68000000D01*
X128500000Y-102349990D02*
X127471294Y-101321284D01*
X127471294Y-101321284D02*
X120942136Y-101321284D01*
X120942136Y-101321284D02*
X120650010Y-101029158D01*
X131200000Y-102349990D02*
X128500000Y-102349990D01*
X132549990Y-101000000D02*
X131200000Y-102349990D01*
X137100000Y-101000000D02*
X132549990Y-101000000D01*
X120650010Y-114250010D02*
X120650010Y-101029158D01*
X120650010Y-101029158D02*
X120650010Y-88047729D01*
X120679168Y-101000000D02*
X120650010Y-101029158D01*
X122000000Y-88000000D02*
X120697739Y-88000000D01*
X120697739Y-88000000D02*
X120650010Y-88047729D01*
X122700000Y-117400000D02*
X122400000Y-117400000D01*
X122400000Y-117400000D02*
X120700001Y-115700001D01*
X120700001Y-115700001D02*
X120700001Y-114300001D01*
X120700001Y-114300001D02*
X120650010Y-114250010D01*
X100900000Y-85000000D02*
X109900000Y-85000000D01*
X109900000Y-85000000D02*
X113000000Y-88100000D01*
D23*
X129100000Y-120000000D02*
X129100000Y-120013590D01*
X129100000Y-120013590D02*
X129111410Y-120025000D01*
X129111410Y-120025000D02*
X129300000Y-120025000D01*
X129300000Y-120025000D02*
X130275000Y-120025000D01*
D25*
X127500000Y-120000000D02*
X129100000Y-120000000D01*
X125800000Y-118300000D02*
X127500000Y-120000000D01*
X125100000Y-68000000D02*
X124025000Y-68000000D01*
X128000000Y-118800000D02*
X128000000Y-118025010D01*
X128549990Y-119349990D02*
X129279988Y-119349990D01*
X129279988Y-119349990D02*
X129304998Y-119375000D01*
D23*
X129304998Y-119375000D02*
X130275000Y-119375000D01*
D25*
X128000000Y-118800000D02*
X128549990Y-119349990D01*
X129000000Y-106800000D02*
X129000000Y-115600000D01*
X129000000Y-115600000D02*
X128000000Y-116600000D01*
X134250000Y-98150000D02*
X131000000Y-101400000D01*
X137100000Y-98200000D02*
X134300000Y-98200000D01*
X134300000Y-98200000D02*
X134250000Y-98150000D01*
D26*
G36*
X109138758Y-120737602D02*
X109061083Y-120851283D01*
X109010717Y-121100000D01*
X109010717Y-121700000D01*
X109054437Y-121932352D01*
X109191757Y-122145753D01*
X109401283Y-122288917D01*
X109650000Y-122339283D01*
X110650000Y-122339283D01*
X110817500Y-122307766D01*
X112682735Y-124173000D01*
X107837771Y-124173000D01*
X108085414Y-123925789D01*
X108226839Y-123585201D01*
X108227097Y-123289283D01*
X108350000Y-123289283D01*
X108582352Y-123245563D01*
X108795753Y-123108243D01*
X108938917Y-122898717D01*
X108989283Y-122650000D01*
X108989283Y-122050000D01*
X108945563Y-121817648D01*
X108808243Y-121604247D01*
X108598717Y-121461083D01*
X108350000Y-121410717D01*
X107629549Y-121410717D01*
X107650983Y-121389283D01*
X108350000Y-121389283D01*
X108582352Y-121345563D01*
X108795753Y-121208243D01*
X108938917Y-120998717D01*
X108989283Y-120750000D01*
X108989283Y-120588127D01*
X109138758Y-120737602D01*
X109138758Y-120737602D01*
G37*
X109138758Y-120737602D02*
X109061083Y-120851283D01*
X109010717Y-121100000D01*
X109010717Y-121700000D01*
X109054437Y-121932352D01*
X109191757Y-122145753D01*
X109401283Y-122288917D01*
X109650000Y-122339283D01*
X110650000Y-122339283D01*
X110817500Y-122307766D01*
X112682735Y-124173000D01*
X107837771Y-124173000D01*
X108085414Y-123925789D01*
X108226839Y-123585201D01*
X108227097Y-123289283D01*
X108350000Y-123289283D01*
X108582352Y-123245563D01*
X108795753Y-123108243D01*
X108938917Y-122898717D01*
X108989283Y-122650000D01*
X108989283Y-122050000D01*
X108945563Y-121817648D01*
X108808243Y-121604247D01*
X108598717Y-121461083D01*
X108350000Y-121410717D01*
X107629549Y-121410717D01*
X107650983Y-121389283D01*
X108350000Y-121389283D01*
X108582352Y-121345563D01*
X108795753Y-121208243D01*
X108938917Y-120998717D01*
X108989283Y-120750000D01*
X108989283Y-120588127D01*
X109138758Y-120737602D01*
G36*
X147096842Y-122044632D02*
X147110864Y-122063068D01*
X147157228Y-122155654D01*
X147227746Y-122216739D01*
X147239973Y-122232814D01*
X147259996Y-122244674D01*
X147278876Y-122261029D01*
X147279582Y-122270869D01*
X147276780Y-122291474D01*
X147282599Y-122312963D01*
X147290383Y-122421559D01*
X147337468Y-122515586D01*
X147343109Y-122536417D01*
X148006434Y-123861046D01*
X148031688Y-123953044D01*
X148103700Y-124045714D01*
X148108716Y-124055731D01*
X148117184Y-124063066D01*
X148202611Y-124173000D01*
X132062381Y-124173000D01*
X132708380Y-123527000D01*
X144560000Y-123527000D01*
X144826504Y-123473989D01*
X144959453Y-123645075D01*
X144958887Y-123648564D01*
X144967102Y-123654919D01*
X145042210Y-123751572D01*
X145230936Y-123859000D01*
X145277980Y-123895390D01*
X145312584Y-123905477D01*
X145424367Y-123969107D01*
X145611334Y-123992560D01*
X145703100Y-124019309D01*
X145767959Y-124012207D01*
X145860681Y-124023838D01*
X145992699Y-123987598D01*
X146143281Y-123971109D01*
X146156060Y-123942754D01*
X146284728Y-123907433D01*
X146552129Y-123773527D01*
X146657480Y-123691661D01*
X146687841Y-123698414D01*
X146791253Y-123587708D01*
X146899351Y-123503707D01*
X146945576Y-123422500D01*
X146990115Y-123374820D01*
X147023668Y-123285311D01*
X147116886Y-123121550D01*
X147132894Y-122993934D01*
X147145546Y-122960183D01*
X147144588Y-122900711D01*
X147171617Y-122685236D01*
X147139215Y-122567201D01*
X147139048Y-122556820D01*
X147135916Y-122555183D01*
X147055212Y-122261189D01*
X146967659Y-122148520D01*
X147065852Y-121982746D01*
X147096842Y-122044632D01*
X147096842Y-122044632D01*
G37*
X147096842Y-122044632D02*
X147110864Y-122063068D01*
X147157228Y-122155654D01*
X147227746Y-122216739D01*
X147239973Y-122232814D01*
X147259996Y-122244674D01*
X147278876Y-122261029D01*
X147279582Y-122270869D01*
X147276780Y-122291474D01*
X147282599Y-122312963D01*
X147290383Y-122421559D01*
X147337468Y-122515586D01*
X147343109Y-122536417D01*
X148006434Y-123861046D01*
X148031688Y-123953044D01*
X148103700Y-124045714D01*
X148108716Y-124055731D01*
X148117184Y-124063066D01*
X148202611Y-124173000D01*
X132062381Y-124173000D01*
X132708380Y-123527000D01*
X144560000Y-123527000D01*
X144826504Y-123473989D01*
X144959453Y-123645075D01*
X144958887Y-123648564D01*
X144967102Y-123654919D01*
X145042210Y-123751572D01*
X145230936Y-123859000D01*
X145277980Y-123895390D01*
X145312584Y-123905477D01*
X145424367Y-123969107D01*
X145611334Y-123992560D01*
X145703100Y-124019309D01*
X145767959Y-124012207D01*
X145860681Y-124023838D01*
X145992699Y-123987598D01*
X146143281Y-123971109D01*
X146156060Y-123942754D01*
X146284728Y-123907433D01*
X146552129Y-123773527D01*
X146657480Y-123691661D01*
X146687841Y-123698414D01*
X146791253Y-123587708D01*
X146899351Y-123503707D01*
X146945576Y-123422500D01*
X146990115Y-123374820D01*
X147023668Y-123285311D01*
X147116886Y-123121550D01*
X147132894Y-122993934D01*
X147145546Y-122960183D01*
X147144588Y-122900711D01*
X147171617Y-122685236D01*
X147139215Y-122567201D01*
X147139048Y-122556820D01*
X147135916Y-122555183D01*
X147055212Y-122261189D01*
X146967659Y-122148520D01*
X147065852Y-121982746D01*
X147096842Y-122044632D01*
G36*
X150823690Y-124173000D02*
X150127291Y-124173000D01*
X150493528Y-123989602D01*
X150653913Y-123833446D01*
X150823690Y-124173000D01*
X150823690Y-124173000D01*
G37*
X150823690Y-124173000D02*
X150127291Y-124173000D01*
X150493528Y-123989602D01*
X150653913Y-123833446D01*
X150823690Y-124173000D01*
G36*
X99704525Y-104899712D02*
X99673283Y-104974950D01*
X99673275Y-104983826D01*
X99654092Y-105035461D01*
X99672789Y-105540746D01*
X99672718Y-105622211D01*
X99676107Y-105630413D01*
X99678144Y-105685460D01*
X99880613Y-106174264D01*
X99904465Y-106183083D01*
X99919892Y-106220418D01*
X100377175Y-106678499D01*
X100416684Y-106694905D01*
X100425736Y-106719387D01*
X100899712Y-106895475D01*
X100974950Y-106926717D01*
X100983826Y-106926725D01*
X101035461Y-106945908D01*
X101540746Y-106927211D01*
X101622211Y-106927282D01*
X101630413Y-106923893D01*
X101685460Y-106921856D01*
X102174264Y-106719387D01*
X102183083Y-106695535D01*
X102220418Y-106680108D01*
X102491369Y-106409629D01*
X102590614Y-106509047D01*
X103114907Y-106726752D01*
X103586899Y-106727164D01*
X103723000Y-106863265D01*
X103723000Y-108124254D01*
X103579247Y-108216757D01*
X103436083Y-108426283D01*
X103385717Y-108675000D01*
X103385717Y-110125000D01*
X103429437Y-110357352D01*
X103566757Y-110570753D01*
X103623000Y-110609182D01*
X103623000Y-110749254D01*
X103479247Y-110841757D01*
X103336083Y-111051283D01*
X103285717Y-111300000D01*
X103285717Y-111460168D01*
X103188493Y-111525131D01*
X103075577Y-111600579D01*
X102750578Y-111925578D01*
X102582146Y-112177655D01*
X102523000Y-112475000D01*
X102523000Y-113950000D01*
X102582146Y-114247345D01*
X102750578Y-114499422D01*
X103474156Y-115223000D01*
X96276719Y-115223000D01*
X96277282Y-114577789D01*
X96030108Y-113979582D01*
X95572825Y-113521501D01*
X94975050Y-113273283D01*
X94327789Y-113272718D01*
X93729582Y-113519892D01*
X93271501Y-113977175D01*
X93023283Y-114574950D01*
X93022718Y-115222211D01*
X93269892Y-115820418D01*
X93727175Y-116278499D01*
X94324950Y-116526717D01*
X94972211Y-116527282D01*
X95018069Y-116508334D01*
X95229865Y-116720130D01*
X95229867Y-116720133D01*
X95361734Y-116808243D01*
X95514386Y-116910242D01*
X95850000Y-116977000D01*
X102371904Y-116977000D01*
X102273161Y-117214799D01*
X102272839Y-117583583D01*
X102413669Y-117924417D01*
X102674211Y-118185414D01*
X102947242Y-118298787D01*
X102964386Y-118310242D01*
X102984432Y-118314229D01*
X103014799Y-118326839D01*
X103047970Y-118326868D01*
X103178568Y-118352846D01*
X103079247Y-118416757D01*
X102936083Y-118626283D01*
X102885717Y-118875000D01*
X102885717Y-120325000D01*
X102929437Y-120557352D01*
X103066757Y-120770753D01*
X103220546Y-120875833D01*
X103079247Y-120966757D01*
X102936083Y-121176283D01*
X102885717Y-121425000D01*
X102885717Y-122875000D01*
X102929437Y-123107352D01*
X103066757Y-123320753D01*
X103276283Y-123463917D01*
X103525000Y-123514283D01*
X104675000Y-123514283D01*
X104907352Y-123470563D01*
X104999360Y-123411357D01*
X105076283Y-123463917D01*
X105325000Y-123514283D01*
X106213591Y-123514283D01*
X106293278Y-123633544D01*
X106464040Y-123804305D01*
X106513669Y-123924417D01*
X106761819Y-124173000D01*
X83176311Y-124173000D01*
X92650249Y-105225124D01*
X92657149Y-105199929D01*
X92671660Y-105178211D01*
X92694392Y-105063928D01*
X92725171Y-104951536D01*
X92721904Y-104925620D01*
X92727000Y-104900000D01*
X92704268Y-104785718D01*
X92692111Y-104689283D01*
X92723000Y-104689283D01*
X92723000Y-104800000D01*
X92782146Y-105097345D01*
X92950578Y-105349422D01*
X93150578Y-105549422D01*
X93402655Y-105717854D01*
X93700000Y-105777000D01*
X93895501Y-105777000D01*
X93929437Y-105957352D01*
X94066757Y-106170753D01*
X94276283Y-106313917D01*
X94525000Y-106364283D01*
X95675000Y-106364283D01*
X95907352Y-106320563D01*
X95999360Y-106261357D01*
X96076283Y-106313917D01*
X96325000Y-106364283D01*
X97475000Y-106364283D01*
X97707352Y-106320563D01*
X97920753Y-106183243D01*
X98063917Y-105973717D01*
X98114283Y-105725000D01*
X98114283Y-104953981D01*
X98591265Y-104476999D01*
X99861568Y-104476999D01*
X99704525Y-104899712D01*
X99704525Y-104899712D01*
G37*
X99704525Y-104899712D02*
X99673283Y-104974950D01*
X99673275Y-104983826D01*
X99654092Y-105035461D01*
X99672789Y-105540746D01*
X99672718Y-105622211D01*
X99676107Y-105630413D01*
X99678144Y-105685460D01*
X99880613Y-106174264D01*
X99904465Y-106183083D01*
X99919892Y-106220418D01*
X100377175Y-106678499D01*
X100416684Y-106694905D01*
X100425736Y-106719387D01*
X100899712Y-106895475D01*
X100974950Y-106926717D01*
X100983826Y-106926725D01*
X101035461Y-106945908D01*
X101540746Y-106927211D01*
X101622211Y-106927282D01*
X101630413Y-106923893D01*
X101685460Y-106921856D01*
X102174264Y-106719387D01*
X102183083Y-106695535D01*
X102220418Y-106680108D01*
X102491369Y-106409629D01*
X102590614Y-106509047D01*
X103114907Y-106726752D01*
X103586899Y-106727164D01*
X103723000Y-106863265D01*
X103723000Y-108124254D01*
X103579247Y-108216757D01*
X103436083Y-108426283D01*
X103385717Y-108675000D01*
X103385717Y-110125000D01*
X103429437Y-110357352D01*
X103566757Y-110570753D01*
X103623000Y-110609182D01*
X103623000Y-110749254D01*
X103479247Y-110841757D01*
X103336083Y-111051283D01*
X103285717Y-111300000D01*
X103285717Y-111460168D01*
X103188493Y-111525131D01*
X103075577Y-111600579D01*
X102750578Y-111925578D01*
X102582146Y-112177655D01*
X102523000Y-112475000D01*
X102523000Y-113950000D01*
X102582146Y-114247345D01*
X102750578Y-114499422D01*
X103474156Y-115223000D01*
X96276719Y-115223000D01*
X96277282Y-114577789D01*
X96030108Y-113979582D01*
X95572825Y-113521501D01*
X94975050Y-113273283D01*
X94327789Y-113272718D01*
X93729582Y-113519892D01*
X93271501Y-113977175D01*
X93023283Y-114574950D01*
X93022718Y-115222211D01*
X93269892Y-115820418D01*
X93727175Y-116278499D01*
X94324950Y-116526717D01*
X94972211Y-116527282D01*
X95018069Y-116508334D01*
X95229865Y-116720130D01*
X95229867Y-116720133D01*
X95361734Y-116808243D01*
X95514386Y-116910242D01*
X95850000Y-116977000D01*
X102371904Y-116977000D01*
X102273161Y-117214799D01*
X102272839Y-117583583D01*
X102413669Y-117924417D01*
X102674211Y-118185414D01*
X102947242Y-118298787D01*
X102964386Y-118310242D01*
X102984432Y-118314229D01*
X103014799Y-118326839D01*
X103047970Y-118326868D01*
X103178568Y-118352846D01*
X103079247Y-118416757D01*
X102936083Y-118626283D01*
X102885717Y-118875000D01*
X102885717Y-120325000D01*
X102929437Y-120557352D01*
X103066757Y-120770753D01*
X103220546Y-120875833D01*
X103079247Y-120966757D01*
X102936083Y-121176283D01*
X102885717Y-121425000D01*
X102885717Y-122875000D01*
X102929437Y-123107352D01*
X103066757Y-123320753D01*
X103276283Y-123463917D01*
X103525000Y-123514283D01*
X104675000Y-123514283D01*
X104907352Y-123470563D01*
X104999360Y-123411357D01*
X105076283Y-123463917D01*
X105325000Y-123514283D01*
X106213591Y-123514283D01*
X106293278Y-123633544D01*
X106464040Y-123804305D01*
X106513669Y-123924417D01*
X106761819Y-124173000D01*
X83176311Y-124173000D01*
X92650249Y-105225124D01*
X92657149Y-105199929D01*
X92671660Y-105178211D01*
X92694392Y-105063928D01*
X92725171Y-104951536D01*
X92721904Y-104925620D01*
X92727000Y-104900000D01*
X92704268Y-104785718D01*
X92692111Y-104689283D01*
X92723000Y-104689283D01*
X92723000Y-104800000D01*
X92782146Y-105097345D01*
X92950578Y-105349422D01*
X93150578Y-105549422D01*
X93402655Y-105717854D01*
X93700000Y-105777000D01*
X93895501Y-105777000D01*
X93929437Y-105957352D01*
X94066757Y-106170753D01*
X94276283Y-106313917D01*
X94525000Y-106364283D01*
X95675000Y-106364283D01*
X95907352Y-106320563D01*
X95999360Y-106261357D01*
X96076283Y-106313917D01*
X96325000Y-106364283D01*
X97475000Y-106364283D01*
X97707352Y-106320563D01*
X97920753Y-106183243D01*
X98063917Y-105973717D01*
X98114283Y-105725000D01*
X98114283Y-104953981D01*
X98591265Y-104476999D01*
X99861568Y-104476999D01*
X99704525Y-104899712D01*
G36*
X112328385Y-104510243D02*
X112663999Y-104577001D01*
X113123000Y-104577001D01*
X113123000Y-112000000D01*
X113189758Y-112335613D01*
X113379867Y-112620133D01*
X116524274Y-115764540D01*
X116514586Y-115774211D01*
X116464214Y-115895521D01*
X116379868Y-115979866D01*
X116189759Y-116264386D01*
X116123001Y-116599999D01*
X116123001Y-117036003D01*
X116189759Y-117371616D01*
X116379868Y-117656136D01*
X120018865Y-121295133D01*
X120303385Y-121485242D01*
X120638998Y-121552001D01*
X120974611Y-121485242D01*
X121024361Y-121452000D01*
X122602180Y-121452000D01*
X122579247Y-121466757D01*
X122436083Y-121676283D01*
X122417207Y-121769498D01*
X122185201Y-121673161D01*
X121816417Y-121672839D01*
X121475583Y-121813669D01*
X121214586Y-122074211D01*
X121073161Y-122414799D01*
X121072839Y-122783583D01*
X121213084Y-123123000D01*
X114113265Y-123123000D01*
X111770133Y-120779867D01*
X111485613Y-120589758D01*
X111150000Y-120523000D01*
X110916158Y-120523000D01*
X110899470Y-120511597D01*
X110867854Y-120352655D01*
X110699422Y-120100578D01*
X109649422Y-119050578D01*
X109397345Y-118882146D01*
X109100000Y-118823000D01*
X108626893Y-118823000D01*
X108627161Y-118516417D01*
X108577000Y-118395018D01*
X108577000Y-111204998D01*
X108510242Y-110869385D01*
X108320133Y-110584865D01*
X108277000Y-110541732D01*
X108277000Y-106440854D01*
X108308527Y-106409382D01*
X108577175Y-106678499D01*
X108616684Y-106694905D01*
X108625736Y-106719387D01*
X109099712Y-106895475D01*
X109174950Y-106926717D01*
X109183826Y-106926725D01*
X109235461Y-106945908D01*
X109740746Y-106927211D01*
X109822211Y-106927282D01*
X109830413Y-106923893D01*
X109885460Y-106921856D01*
X110374264Y-106719387D01*
X110383083Y-106695535D01*
X110420418Y-106680108D01*
X110878499Y-106222825D01*
X110894905Y-106183316D01*
X110919387Y-106174264D01*
X111095475Y-105700288D01*
X111126717Y-105625050D01*
X111126725Y-105616174D01*
X111145908Y-105564539D01*
X111127211Y-105059254D01*
X111127282Y-104977789D01*
X111123893Y-104969587D01*
X111121856Y-104914540D01*
X110940621Y-104476999D01*
X112278632Y-104476999D01*
X112328385Y-104510243D01*
X112328385Y-104510243D01*
G37*
X112328385Y-104510243D02*
X112663999Y-104577001D01*
X113123000Y-104577001D01*
X113123000Y-112000000D01*
X113189758Y-112335613D01*
X113379867Y-112620133D01*
X116524274Y-115764540D01*
X116514586Y-115774211D01*
X116464214Y-115895521D01*
X116379868Y-115979866D01*
X116189759Y-116264386D01*
X116123001Y-116599999D01*
X116123001Y-117036003D01*
X116189759Y-117371616D01*
X116379868Y-117656136D01*
X120018865Y-121295133D01*
X120303385Y-121485242D01*
X120638998Y-121552001D01*
X120974611Y-121485242D01*
X121024361Y-121452000D01*
X122602180Y-121452000D01*
X122579247Y-121466757D01*
X122436083Y-121676283D01*
X122417207Y-121769498D01*
X122185201Y-121673161D01*
X121816417Y-121672839D01*
X121475583Y-121813669D01*
X121214586Y-122074211D01*
X121073161Y-122414799D01*
X121072839Y-122783583D01*
X121213084Y-123123000D01*
X114113265Y-123123000D01*
X111770133Y-120779867D01*
X111485613Y-120589758D01*
X111150000Y-120523000D01*
X110916158Y-120523000D01*
X110899470Y-120511597D01*
X110867854Y-120352655D01*
X110699422Y-120100578D01*
X109649422Y-119050578D01*
X109397345Y-118882146D01*
X109100000Y-118823000D01*
X108626893Y-118823000D01*
X108627161Y-118516417D01*
X108577000Y-118395018D01*
X108577000Y-111204998D01*
X108510242Y-110869385D01*
X108320133Y-110584865D01*
X108277000Y-110541732D01*
X108277000Y-106440854D01*
X108308527Y-106409382D01*
X108577175Y-106678499D01*
X108616684Y-106694905D01*
X108625736Y-106719387D01*
X109099712Y-106895475D01*
X109174950Y-106926717D01*
X109183826Y-106926725D01*
X109235461Y-106945908D01*
X109740746Y-106927211D01*
X109822211Y-106927282D01*
X109830413Y-106923893D01*
X109885460Y-106921856D01*
X110374264Y-106719387D01*
X110383083Y-106695535D01*
X110420418Y-106680108D01*
X110878499Y-106222825D01*
X110894905Y-106183316D01*
X110919387Y-106174264D01*
X111095475Y-105700288D01*
X111126717Y-105625050D01*
X111126725Y-105616174D01*
X111145908Y-105564539D01*
X111127211Y-105059254D01*
X111127282Y-104977789D01*
X111123893Y-104969587D01*
X111121856Y-104914540D01*
X110940621Y-104476999D01*
X112278632Y-104476999D01*
X112328385Y-104510243D01*
G36*
X126879867Y-120620133D02*
X127164387Y-120810242D01*
X127500000Y-120877000D01*
X127774156Y-120877000D01*
X127450578Y-121200578D01*
X127389188Y-121292456D01*
X127192648Y-121329437D01*
X126979247Y-121466757D01*
X126836083Y-121676283D01*
X126796247Y-121873000D01*
X126604499Y-121873000D01*
X126570563Y-121692648D01*
X126433243Y-121479247D01*
X126223717Y-121336083D01*
X125975000Y-121285717D01*
X125695308Y-121285717D01*
X125788917Y-121148717D01*
X125839283Y-120900000D01*
X125839283Y-120450000D01*
X125819776Y-120346329D01*
X125839283Y-120250000D01*
X125839283Y-119800000D01*
X125819776Y-119696329D01*
X125839283Y-119600000D01*
X125839283Y-119579549D01*
X126879867Y-120620133D01*
X126879867Y-120620133D01*
G37*
X126879867Y-120620133D02*
X127164387Y-120810242D01*
X127500000Y-120877000D01*
X127774156Y-120877000D01*
X127450578Y-121200578D01*
X127389188Y-121292456D01*
X127192648Y-121329437D01*
X126979247Y-121466757D01*
X126836083Y-121676283D01*
X126796247Y-121873000D01*
X126604499Y-121873000D01*
X126570563Y-121692648D01*
X126433243Y-121479247D01*
X126223717Y-121336083D01*
X125975000Y-121285717D01*
X125695308Y-121285717D01*
X125788917Y-121148717D01*
X125839283Y-120900000D01*
X125839283Y-120450000D01*
X125819776Y-120346329D01*
X125839283Y-120250000D01*
X125839283Y-119800000D01*
X125819776Y-119696329D01*
X125839283Y-119600000D01*
X125839283Y-119579549D01*
X126879867Y-120620133D01*
G36*
X131035717Y-121773000D02*
X130985682Y-121773000D01*
X130970563Y-121692648D01*
X130871875Y-121539283D01*
X130950000Y-121539283D01*
X131035717Y-121523154D01*
X131035717Y-121773000D01*
X131035717Y-121773000D01*
G37*
X131035717Y-121773000D02*
X130985682Y-121773000D01*
X130970563Y-121692648D01*
X130871875Y-121539283D01*
X130950000Y-121539283D01*
X131035717Y-121523154D01*
X131035717Y-121773000D01*
G36*
X140637746Y-121773000D02*
X136538121Y-121773000D01*
X136585414Y-121725789D01*
X136726839Y-121385201D01*
X136727161Y-121016417D01*
X136586331Y-120675583D01*
X136325789Y-120414586D01*
X135985201Y-120273161D01*
X135724201Y-120272933D01*
X135764283Y-120075000D01*
X135764283Y-118925000D01*
X135720563Y-118692648D01*
X135583243Y-118479247D01*
X135373717Y-118336083D01*
X135125000Y-118285717D01*
X135089832Y-118285717D01*
X134949422Y-118075578D01*
X134425844Y-117552000D01*
X136416746Y-117552000D01*
X140637746Y-121773000D01*
X140637746Y-121773000D01*
G37*
X140637746Y-121773000D02*
X136538121Y-121773000D01*
X136585414Y-121725789D01*
X136726839Y-121385201D01*
X136727161Y-121016417D01*
X136586331Y-120675583D01*
X136325789Y-120414586D01*
X135985201Y-120273161D01*
X135724201Y-120272933D01*
X135764283Y-120075000D01*
X135764283Y-118925000D01*
X135720563Y-118692648D01*
X135583243Y-118479247D01*
X135373717Y-118336083D01*
X135125000Y-118285717D01*
X135089832Y-118285717D01*
X134949422Y-118075578D01*
X134425844Y-117552000D01*
X136416746Y-117552000D01*
X140637746Y-121773000D01*
G36*
X145966067Y-114457755D02*
X145738326Y-114493684D01*
X145335957Y-114695176D01*
X145339539Y-114702329D01*
X145112424Y-114816059D01*
X145108842Y-114808906D01*
X144706472Y-115010398D01*
X144535112Y-115177240D01*
X144448765Y-115244338D01*
X144427093Y-115282410D01*
X144387191Y-115321260D01*
X144332282Y-115448971D01*
X144231229Y-115626495D01*
X144221043Y-115707693D01*
X144211176Y-115730643D01*
X144211586Y-115783082D01*
X144176497Y-116062809D01*
X144256013Y-116352481D01*
X144256815Y-116363665D01*
X144261836Y-116373691D01*
X144292900Y-116486856D01*
X144351434Y-116562182D01*
X145014762Y-117886816D01*
X145028786Y-117905254D01*
X145075148Y-117997837D01*
X145145663Y-118058919D01*
X145157893Y-118074999D01*
X145177921Y-118086862D01*
X145196796Y-118103213D01*
X145197502Y-118113053D01*
X145194700Y-118133657D01*
X145200519Y-118155145D01*
X145208303Y-118263743D01*
X145255389Y-118357771D01*
X145261029Y-118378600D01*
X145293166Y-118442776D01*
X145099535Y-118416447D01*
X145062684Y-118282203D01*
X144875621Y-118041479D01*
X144876187Y-118037990D01*
X144867972Y-118031635D01*
X144792864Y-117934982D01*
X144604138Y-117827554D01*
X144557094Y-117791164D01*
X144522490Y-117781077D01*
X144410707Y-117717447D01*
X144223740Y-117693994D01*
X144131974Y-117667245D01*
X144067115Y-117674347D01*
X143974393Y-117662716D01*
X143842375Y-117698956D01*
X143691793Y-117715445D01*
X143679014Y-117743800D01*
X143550346Y-117779121D01*
X143282944Y-117913027D01*
X143177594Y-117994893D01*
X143147233Y-117988140D01*
X143043821Y-118098845D01*
X142935723Y-118182847D01*
X142889498Y-118264054D01*
X142844959Y-118311734D01*
X142811406Y-118401243D01*
X142718188Y-118565004D01*
X142702180Y-118692620D01*
X142689528Y-118726371D01*
X142690486Y-118785843D01*
X142663457Y-119001318D01*
X142695859Y-119119353D01*
X142696026Y-119129734D01*
X142699158Y-119131371D01*
X142779862Y-119425365D01*
X142913890Y-119597841D01*
X142875583Y-119613669D01*
X142614586Y-119874211D01*
X142473161Y-120214799D01*
X142472979Y-120423000D01*
X142121844Y-120423000D01*
X137274422Y-115575578D01*
X137022345Y-115407146D01*
X136725000Y-115348000D01*
X132015464Y-115348000D01*
X132027001Y-115290001D01*
X132027001Y-115222211D01*
X137722718Y-115222211D01*
X137969892Y-115820418D01*
X138427175Y-116278499D01*
X139024950Y-116526717D01*
X139672211Y-116527282D01*
X140270418Y-116280108D01*
X140728499Y-115822825D01*
X140976717Y-115225050D01*
X140977282Y-114577789D01*
X140730108Y-113979582D01*
X140272825Y-113521501D01*
X139675050Y-113273283D01*
X139027789Y-113272718D01*
X138429582Y-113519892D01*
X137971501Y-113977175D01*
X137723283Y-114574950D01*
X137722718Y-115222211D01*
X132027001Y-115222211D01*
X132027001Y-113009003D01*
X132004195Y-112894349D01*
X132319867Y-112579228D01*
X132345445Y-112517630D01*
X132370217Y-112513352D01*
X132464208Y-112231617D01*
X132491804Y-112165158D01*
X132491818Y-112148856D01*
X132513112Y-112085028D01*
X132492132Y-111788764D01*
X132492195Y-111716809D01*
X132485970Y-111701743D01*
X132481217Y-111634625D01*
X132460252Y-111584010D01*
X132549824Y-111547000D01*
X134030000Y-111547000D01*
X134365613Y-111480242D01*
X134650133Y-111290133D01*
X135620133Y-110320133D01*
X135810242Y-110035613D01*
X135877000Y-109700000D01*
X135877000Y-108146998D01*
X135833064Y-107926119D01*
X135810242Y-107811384D01*
X135679969Y-107616417D01*
X135620133Y-107526865D01*
X135620130Y-107526863D01*
X133970268Y-105877000D01*
X135914318Y-105877000D01*
X135929437Y-105957352D01*
X136066757Y-106170753D01*
X136276283Y-106313917D01*
X136525000Y-106364283D01*
X137675000Y-106364283D01*
X137907352Y-106320563D01*
X137999360Y-106261357D01*
X138076283Y-106313917D01*
X138325000Y-106364283D01*
X139475000Y-106364283D01*
X139707352Y-106320563D01*
X139920753Y-106183243D01*
X140063917Y-105973717D01*
X140103753Y-105777000D01*
X140200000Y-105777000D01*
X140497345Y-105717854D01*
X140749422Y-105549422D01*
X141021844Y-105277000D01*
X141375689Y-105277000D01*
X145966067Y-114457755D01*
X145966067Y-114457755D01*
G37*
X145966067Y-114457755D02*
X145738326Y-114493684D01*
X145335957Y-114695176D01*
X145339539Y-114702329D01*
X145112424Y-114816059D01*
X145108842Y-114808906D01*
X144706472Y-115010398D01*
X144535112Y-115177240D01*
X144448765Y-115244338D01*
X144427093Y-115282410D01*
X144387191Y-115321260D01*
X144332282Y-115448971D01*
X144231229Y-115626495D01*
X144221043Y-115707693D01*
X144211176Y-115730643D01*
X144211586Y-115783082D01*
X144176497Y-116062809D01*
X144256013Y-116352481D01*
X144256815Y-116363665D01*
X144261836Y-116373691D01*
X144292900Y-116486856D01*
X144351434Y-116562182D01*
X145014762Y-117886816D01*
X145028786Y-117905254D01*
X145075148Y-117997837D01*
X145145663Y-118058919D01*
X145157893Y-118074999D01*
X145177921Y-118086862D01*
X145196796Y-118103213D01*
X145197502Y-118113053D01*
X145194700Y-118133657D01*
X145200519Y-118155145D01*
X145208303Y-118263743D01*
X145255389Y-118357771D01*
X145261029Y-118378600D01*
X145293166Y-118442776D01*
X145099535Y-118416447D01*
X145062684Y-118282203D01*
X144875621Y-118041479D01*
X144876187Y-118037990D01*
X144867972Y-118031635D01*
X144792864Y-117934982D01*
X144604138Y-117827554D01*
X144557094Y-117791164D01*
X144522490Y-117781077D01*
X144410707Y-117717447D01*
X144223740Y-117693994D01*
X144131974Y-117667245D01*
X144067115Y-117674347D01*
X143974393Y-117662716D01*
X143842375Y-117698956D01*
X143691793Y-117715445D01*
X143679014Y-117743800D01*
X143550346Y-117779121D01*
X143282944Y-117913027D01*
X143177594Y-117994893D01*
X143147233Y-117988140D01*
X143043821Y-118098845D01*
X142935723Y-118182847D01*
X142889498Y-118264054D01*
X142844959Y-118311734D01*
X142811406Y-118401243D01*
X142718188Y-118565004D01*
X142702180Y-118692620D01*
X142689528Y-118726371D01*
X142690486Y-118785843D01*
X142663457Y-119001318D01*
X142695859Y-119119353D01*
X142696026Y-119129734D01*
X142699158Y-119131371D01*
X142779862Y-119425365D01*
X142913890Y-119597841D01*
X142875583Y-119613669D01*
X142614586Y-119874211D01*
X142473161Y-120214799D01*
X142472979Y-120423000D01*
X142121844Y-120423000D01*
X137274422Y-115575578D01*
X137022345Y-115407146D01*
X136725000Y-115348000D01*
X132015464Y-115348000D01*
X132027001Y-115290001D01*
X132027001Y-115222211D01*
X137722718Y-115222211D01*
X137969892Y-115820418D01*
X138427175Y-116278499D01*
X139024950Y-116526717D01*
X139672211Y-116527282D01*
X140270418Y-116280108D01*
X140728499Y-115822825D01*
X140976717Y-115225050D01*
X140977282Y-114577789D01*
X140730108Y-113979582D01*
X140272825Y-113521501D01*
X139675050Y-113273283D01*
X139027789Y-113272718D01*
X138429582Y-113519892D01*
X137971501Y-113977175D01*
X137723283Y-114574950D01*
X137722718Y-115222211D01*
X132027001Y-115222211D01*
X132027001Y-113009003D01*
X132004195Y-112894349D01*
X132319867Y-112579228D01*
X132345445Y-112517630D01*
X132370217Y-112513352D01*
X132464208Y-112231617D01*
X132491804Y-112165158D01*
X132491818Y-112148856D01*
X132513112Y-112085028D01*
X132492132Y-111788764D01*
X132492195Y-111716809D01*
X132485970Y-111701743D01*
X132481217Y-111634625D01*
X132460252Y-111584010D01*
X132549824Y-111547000D01*
X134030000Y-111547000D01*
X134365613Y-111480242D01*
X134650133Y-111290133D01*
X135620133Y-110320133D01*
X135810242Y-110035613D01*
X135877000Y-109700000D01*
X135877000Y-108146998D01*
X135833064Y-107926119D01*
X135810242Y-107811384D01*
X135679969Y-107616417D01*
X135620133Y-107526865D01*
X135620130Y-107526863D01*
X133970268Y-105877000D01*
X135914318Y-105877000D01*
X135929437Y-105957352D01*
X136066757Y-106170753D01*
X136276283Y-106313917D01*
X136525000Y-106364283D01*
X137675000Y-106364283D01*
X137907352Y-106320563D01*
X137999360Y-106261357D01*
X138076283Y-106313917D01*
X138325000Y-106364283D01*
X139475000Y-106364283D01*
X139707352Y-106320563D01*
X139920753Y-106183243D01*
X140063917Y-105973717D01*
X140103753Y-105777000D01*
X140200000Y-105777000D01*
X140497345Y-105717854D01*
X140749422Y-105549422D01*
X141021844Y-105277000D01*
X141375689Y-105277000D01*
X145966067Y-114457755D01*
G36*
X127072839Y-118208593D02*
X127123000Y-118329992D01*
X127123000Y-118382734D01*
X126942266Y-118202000D01*
X127072845Y-118202000D01*
X127072839Y-118208593D01*
X127072839Y-118208593D01*
G37*
X127072839Y-118208593D02*
X127123000Y-118329992D01*
X127123000Y-118382734D01*
X126942266Y-118202000D01*
X127072845Y-118202000D01*
X127072839Y-118208593D01*
G36*
X128123000Y-115236735D02*
X127595694Y-115764040D01*
X127475583Y-115813669D01*
X127214586Y-116074211D01*
X127073161Y-116414799D01*
X127072957Y-116648000D01*
X126677000Y-116648000D01*
X126677000Y-114326274D01*
X126707352Y-114320563D01*
X126920753Y-114183243D01*
X127063917Y-113973717D01*
X127114283Y-113725000D01*
X127114283Y-112275000D01*
X127070563Y-112042648D01*
X126933243Y-111829247D01*
X126777000Y-111722490D01*
X126777000Y-108963266D01*
X128123000Y-107617266D01*
X128123000Y-115236735D01*
X128123000Y-115236735D01*
G37*
X128123000Y-115236735D02*
X127595694Y-115764040D01*
X127475583Y-115813669D01*
X127214586Y-116074211D01*
X127073161Y-116414799D01*
X127072957Y-116648000D01*
X126677000Y-116648000D01*
X126677000Y-114326274D01*
X126707352Y-114320563D01*
X126920753Y-114183243D01*
X127063917Y-113973717D01*
X127114283Y-113725000D01*
X127114283Y-112275000D01*
X127070563Y-112042648D01*
X126933243Y-111829247D01*
X126777000Y-111722490D01*
X126777000Y-108963266D01*
X128123000Y-107617266D01*
X128123000Y-115236735D01*
G36*
X122604865Y-115445130D02*
X122604867Y-115445133D01*
X122747297Y-115540301D01*
X122889387Y-115635242D01*
X123210717Y-115699160D01*
X123210717Y-115700000D01*
X123218720Y-115742530D01*
X123215000Y-115746250D01*
X123215000Y-115853750D01*
X123219227Y-115857977D01*
X123210717Y-115900000D01*
X123210717Y-116350000D01*
X123218720Y-116392530D01*
X123215000Y-116396250D01*
X123215000Y-116503750D01*
X123219227Y-116507977D01*
X123210717Y-116550000D01*
X123210717Y-116608328D01*
X122885201Y-116473161D01*
X122713276Y-116473011D01*
X121577001Y-115336735D01*
X121577001Y-114417267D01*
X122604865Y-115445130D01*
X122604865Y-115445130D01*
G37*
X122604865Y-115445130D02*
X122604867Y-115445133D01*
X122747297Y-115540301D01*
X122889387Y-115635242D01*
X123210717Y-115699160D01*
X123210717Y-115700000D01*
X123218720Y-115742530D01*
X123215000Y-115746250D01*
X123215000Y-115853750D01*
X123219227Y-115857977D01*
X123210717Y-115900000D01*
X123210717Y-116350000D01*
X123218720Y-116392530D01*
X123215000Y-116396250D01*
X123215000Y-116503750D01*
X123219227Y-116507977D01*
X123210717Y-116550000D01*
X123210717Y-116608328D01*
X122885201Y-116473161D01*
X122713276Y-116473011D01*
X121577001Y-115336735D01*
X121577001Y-114417267D01*
X122604865Y-115445130D01*
G36*
X121814799Y-105926839D02*
X122183583Y-105927161D01*
X122304982Y-105877000D01*
X127200000Y-105877000D01*
X127428108Y-105831626D01*
X125279867Y-107979867D01*
X125089758Y-108264387D01*
X125023000Y-108600000D01*
X125023000Y-111164329D01*
X124986331Y-111075583D01*
X124725789Y-110814586D01*
X124385201Y-110673161D01*
X124016417Y-110672839D01*
X123675583Y-110813669D01*
X123414586Y-111074211D01*
X123301212Y-111347245D01*
X123289758Y-111364387D01*
X123285771Y-111384431D01*
X123273161Y-111414799D01*
X123273132Y-111447971D01*
X123223000Y-111700000D01*
X123223000Y-111724254D01*
X123079247Y-111816757D01*
X122936083Y-112026283D01*
X122885717Y-112275000D01*
X122885717Y-113245451D01*
X122235960Y-112595694D01*
X122186331Y-112475583D01*
X121925789Y-112214586D01*
X121585201Y-112073161D01*
X121527010Y-112073110D01*
X121527010Y-105807338D01*
X121814799Y-105926839D01*
X121814799Y-105926839D01*
G37*
X121814799Y-105926839D02*
X122183583Y-105927161D01*
X122304982Y-105877000D01*
X127200000Y-105877000D01*
X127428108Y-105831626D01*
X125279867Y-107979867D01*
X125089758Y-108264387D01*
X125023000Y-108600000D01*
X125023000Y-111164329D01*
X124986331Y-111075583D01*
X124725789Y-110814586D01*
X124385201Y-110673161D01*
X124016417Y-110672839D01*
X123675583Y-110813669D01*
X123414586Y-111074211D01*
X123301212Y-111347245D01*
X123289758Y-111364387D01*
X123285771Y-111384431D01*
X123273161Y-111414799D01*
X123273132Y-111447971D01*
X123223000Y-111700000D01*
X123223000Y-111724254D01*
X123079247Y-111816757D01*
X122936083Y-112026283D01*
X122885717Y-112275000D01*
X122885717Y-113245451D01*
X122235960Y-112595694D01*
X122186331Y-112475583D01*
X121925789Y-112214586D01*
X121585201Y-112073161D01*
X121527010Y-112073110D01*
X121527010Y-105807338D01*
X121814799Y-105926839D01*
G36*
X118422990Y-107642805D02*
X118422990Y-111582725D01*
X117877000Y-111036734D01*
X117877000Y-107096816D01*
X118422990Y-107642805D01*
X118422990Y-107642805D01*
G37*
X118422990Y-107642805D02*
X118422990Y-111582725D01*
X117877000Y-111036734D01*
X117877000Y-107096816D01*
X118422990Y-107642805D01*
G36*
X105523000Y-110677510D02*
X105523000Y-110815992D01*
X105472345Y-110782146D01*
X105281653Y-110744215D01*
X105407352Y-110720563D01*
X105499360Y-110661357D01*
X105523000Y-110677510D01*
X105523000Y-110677510D01*
G37*
X105523000Y-110677510D02*
X105523000Y-110815992D01*
X105472345Y-110782146D01*
X105281653Y-110744215D01*
X105407352Y-110720563D01*
X105499360Y-110661357D01*
X105523000Y-110677510D01*
G36*
X133013669Y-109124417D02*
X133274211Y-109385414D01*
X133614799Y-109526839D01*
X133932618Y-109527116D01*
X133666734Y-109793000D01*
X132954041Y-109793000D01*
X132995728Y-109663113D01*
X133020323Y-109603881D01*
X133020338Y-109586433D01*
X133041817Y-109519510D01*
X133020621Y-109262030D01*
X133020677Y-109197901D01*
X133014015Y-109181777D01*
X133008248Y-109111727D01*
X132964869Y-109007000D01*
X132965153Y-109007000D01*
X133013669Y-109124417D01*
X133013669Y-109124417D01*
G37*
X133013669Y-109124417D02*
X133274211Y-109385414D01*
X133614799Y-109526839D01*
X133932618Y-109527116D01*
X133666734Y-109793000D01*
X132954041Y-109793000D01*
X132995728Y-109663113D01*
X133020323Y-109603881D01*
X133020338Y-109586433D01*
X133041817Y-109519510D01*
X133020621Y-109262030D01*
X133020677Y-109197901D01*
X133014015Y-109181777D01*
X133008248Y-109111727D01*
X132964869Y-109007000D01*
X132965153Y-109007000D01*
X133013669Y-109124417D01*
G36*
X129921794Y-108764849D02*
X129877000Y-108809564D01*
X129877000Y-108719976D01*
X129921794Y-108764849D01*
X129921794Y-108764849D01*
G37*
X129921794Y-108764849D02*
X129877000Y-108809564D01*
X129877000Y-108719976D01*
X129921794Y-108764849D01*
G36*
X106523000Y-106441315D02*
X106523000Y-107013428D01*
X106185201Y-106873161D01*
X105816417Y-106872839D01*
X105477000Y-107013084D01*
X105477000Y-106727068D01*
X105682603Y-106727248D01*
X106207275Y-106510457D01*
X106399984Y-106318084D01*
X106523000Y-106441315D01*
X106523000Y-106441315D01*
G37*
X106523000Y-106441315D02*
X106523000Y-107013428D01*
X106185201Y-106873161D01*
X105816417Y-106872839D01*
X105477000Y-107013084D01*
X105477000Y-106727068D01*
X105682603Y-106727248D01*
X106207275Y-106510457D01*
X106399984Y-106318084D01*
X106523000Y-106441315D01*
G36*
X132235369Y-104795095D02*
X130726918Y-104795095D01*
X130727152Y-104527010D01*
X131967284Y-104527010D01*
X132235369Y-104795095D01*
X132235369Y-104795095D01*
G37*
X132235369Y-104795095D02*
X130726918Y-104795095D01*
X130727152Y-104527010D01*
X131967284Y-104527010D01*
X132235369Y-104795095D01*
G36*
X121814799Y-103926839D02*
X122183583Y-103927161D01*
X122304982Y-103877000D01*
X127082734Y-103877000D01*
X126836734Y-104123000D01*
X122305226Y-104123000D01*
X122185201Y-104073161D01*
X121816417Y-104072839D01*
X121527010Y-104192420D01*
X121527010Y-103807338D01*
X121814799Y-103926839D01*
X121814799Y-103926839D01*
G37*
X121814799Y-103926839D02*
X122183583Y-103927161D01*
X122304982Y-103877000D01*
X127082734Y-103877000D01*
X126836734Y-104123000D01*
X122305226Y-104123000D01*
X122185201Y-104073161D01*
X121816417Y-104072839D01*
X121527010Y-104192420D01*
X121527010Y-103807338D01*
X121814799Y-103926839D01*
G36*
X91535717Y-102550000D02*
X91579437Y-102782352D01*
X91655212Y-102900110D01*
X91586083Y-103001283D01*
X91535717Y-103250000D01*
X91535717Y-104050000D01*
X91558861Y-104173000D01*
X90839375Y-104173000D01*
X90864283Y-104050000D01*
X90864283Y-103250000D01*
X90820563Y-103017648D01*
X90744788Y-102899890D01*
X90813917Y-102798717D01*
X90827703Y-102730638D01*
X90874422Y-102699422D01*
X91535717Y-102038127D01*
X91535717Y-102550000D01*
X91535717Y-102550000D01*
G37*
X91535717Y-102550000D02*
X91579437Y-102782352D01*
X91655212Y-102900110D01*
X91586083Y-103001283D01*
X91535717Y-103250000D01*
X91535717Y-104050000D01*
X91558861Y-104173000D01*
X90839375Y-104173000D01*
X90864283Y-104050000D01*
X90864283Y-103250000D01*
X90820563Y-103017648D01*
X90744788Y-102899890D01*
X90813917Y-102798717D01*
X90827703Y-102730638D01*
X90874422Y-102699422D01*
X91535717Y-102038127D01*
X91535717Y-102550000D01*
G36*
X88407145Y-103947344D02*
X88488540Y-104069160D01*
X88519687Y-104115775D01*
X88557923Y-104173000D01*
X88176311Y-104173000D01*
X88373560Y-103778502D01*
X88407145Y-103947344D01*
X88407145Y-103947344D01*
G37*
X88407145Y-103947344D02*
X88488540Y-104069160D01*
X88519687Y-104115775D01*
X88557923Y-104173000D01*
X88176311Y-104173000D01*
X88373560Y-103778502D01*
X88407145Y-103947344D01*
G36*
X145823690Y-104173000D02*
X145389375Y-104173000D01*
X145414283Y-104050000D01*
X145414283Y-103354186D01*
X145823690Y-104173000D01*
X145823690Y-104173000D01*
G37*
X145823690Y-104173000D02*
X145389375Y-104173000D01*
X145414283Y-104050000D01*
X145414283Y-103354186D01*
X145823690Y-104173000D01*
G36*
X135929437Y-103957352D02*
X135955503Y-103997860D01*
X135936083Y-104026283D01*
X135916497Y-104123000D01*
X134043806Y-104123000D01*
X133797806Y-103877000D01*
X135914318Y-103877000D01*
X135929437Y-103957352D01*
X135929437Y-103957352D01*
G37*
X135929437Y-103957352D02*
X135955503Y-103997860D01*
X135936083Y-104026283D01*
X135916497Y-104123000D01*
X134043806Y-104123000D01*
X133797806Y-103877000D01*
X135914318Y-103877000D01*
X135929437Y-103957352D01*
G36*
X119123000Y-104123000D02*
X119105226Y-104123000D01*
X118985201Y-104073161D01*
X118877000Y-104073067D01*
X118877000Y-104047585D01*
X118892072Y-104032514D01*
X119043453Y-104002402D01*
X119123000Y-103949251D01*
X119123000Y-104123000D01*
X119123000Y-104123000D01*
G37*
X119123000Y-104123000D02*
X119105226Y-104123000D01*
X118985201Y-104073161D01*
X118877000Y-104073067D01*
X118877000Y-104047585D01*
X118892072Y-104032514D01*
X119043453Y-104002402D01*
X119123000Y-103949251D01*
X119123000Y-104123000D01*
G36*
X140138656Y-103962500D02*
X140065843Y-104035313D01*
X140044497Y-104002140D01*
X140063917Y-103973717D01*
X140078392Y-103902236D01*
X140138656Y-103962500D01*
X140138656Y-103962500D01*
G37*
X140138656Y-103962500D02*
X140065843Y-104035313D01*
X140044497Y-104002140D01*
X140063917Y-103973717D01*
X140078392Y-103902236D01*
X140138656Y-103962500D01*
G36*
X142854865Y-102770130D02*
X142854867Y-102770133D01*
X143010433Y-102874078D01*
X143139387Y-102960242D01*
X143384520Y-103009003D01*
X143335717Y-103250000D01*
X143335717Y-103723000D01*
X142664283Y-103723000D01*
X142664283Y-103250000D01*
X142620563Y-103017648D01*
X142544788Y-102899890D01*
X142613917Y-102798717D01*
X142659307Y-102574573D01*
X142854865Y-102770130D01*
X142854865Y-102770130D01*
G37*
X142854865Y-102770130D02*
X142854867Y-102770133D01*
X143010433Y-102874078D01*
X143139387Y-102960242D01*
X143384520Y-103009003D01*
X143335717Y-103250000D01*
X143335717Y-103723000D01*
X142664283Y-103723000D01*
X142664283Y-103250000D01*
X142620563Y-103017648D01*
X142544788Y-102899890D01*
X142613917Y-102798717D01*
X142659307Y-102574573D01*
X142854865Y-102770130D01*
G36*
X135929437Y-101957352D02*
X135955503Y-101997860D01*
X135936083Y-102026283D01*
X135916497Y-102123000D01*
X132667256Y-102123000D01*
X132913256Y-101877000D01*
X135914318Y-101877000D01*
X135929437Y-101957352D01*
X135929437Y-101957352D01*
G37*
X135929437Y-101957352D02*
X135955503Y-101997860D01*
X135936083Y-102026283D01*
X135916497Y-102123000D01*
X132667256Y-102123000D01*
X132913256Y-101877000D01*
X135914318Y-101877000D01*
X135929437Y-101957352D01*
G36*
X118014799Y-95526839D02*
X118383583Y-95527161D01*
X118444613Y-95501944D01*
X118444613Y-101939355D01*
X118285201Y-101873161D01*
X117916417Y-101872839D01*
X117877000Y-101889126D01*
X117877000Y-99224269D01*
X117877001Y-99224264D01*
X117810242Y-98888651D01*
X117620133Y-98604131D01*
X117126904Y-98110902D01*
X117127161Y-97816417D01*
X116986331Y-97475583D01*
X116725789Y-97214586D01*
X116385201Y-97073161D01*
X116177020Y-97072979D01*
X116177020Y-95527155D01*
X116183613Y-95527161D01*
X116305012Y-95477000D01*
X117894774Y-95477000D01*
X118014799Y-95526839D01*
X118014799Y-95526839D01*
G37*
X118014799Y-95526839D02*
X118383583Y-95527161D01*
X118444613Y-95501944D01*
X118444613Y-101939355D01*
X118285201Y-101873161D01*
X117916417Y-101872839D01*
X117877000Y-101889126D01*
X117877000Y-99224269D01*
X117877001Y-99224264D01*
X117810242Y-98888651D01*
X117620133Y-98604131D01*
X117126904Y-98110902D01*
X117127161Y-97816417D01*
X116986331Y-97475583D01*
X116725789Y-97214586D01*
X116385201Y-97073161D01*
X116177020Y-97072979D01*
X116177020Y-95527155D01*
X116183613Y-95527161D01*
X116305012Y-95477000D01*
X117894774Y-95477000D01*
X118014799Y-95526839D01*
G36*
X93917441Y-101893597D02*
X93800844Y-101777000D01*
X93895501Y-101777000D01*
X93917441Y-101893597D01*
X93917441Y-101893597D01*
G37*
X93917441Y-101893597D02*
X93800844Y-101777000D01*
X93895501Y-101777000D01*
X93917441Y-101893597D01*
G36*
X128873000Y-96751952D02*
X128829582Y-96769892D01*
X128371501Y-97227175D01*
X128123283Y-97824950D01*
X128122718Y-98472211D01*
X128369892Y-99070418D01*
X128827175Y-99528499D01*
X128873000Y-99547527D01*
X128873000Y-100477998D01*
X128923000Y-100729363D01*
X128923000Y-101094774D01*
X128873161Y-101214799D01*
X128872936Y-101472990D01*
X128863266Y-101472990D01*
X128091427Y-100701151D01*
X127806907Y-100511042D01*
X127471294Y-100444284D01*
X121527010Y-100444284D01*
X121527010Y-95526937D01*
X121783583Y-95527161D01*
X121904982Y-95477000D01*
X128873000Y-95477000D01*
X128873000Y-96751952D01*
X128873000Y-96751952D01*
G37*
X128873000Y-96751952D02*
X128829582Y-96769892D01*
X128371501Y-97227175D01*
X128123283Y-97824950D01*
X128122718Y-98472211D01*
X128369892Y-99070418D01*
X128827175Y-99528499D01*
X128873000Y-99547527D01*
X128873000Y-100477998D01*
X128923000Y-100729363D01*
X128923000Y-101094774D01*
X128873161Y-101214799D01*
X128872936Y-101472990D01*
X128863266Y-101472990D01*
X128091427Y-100701151D01*
X127806907Y-100511042D01*
X127471294Y-100444284D01*
X121527010Y-100444284D01*
X121527010Y-95526937D01*
X121783583Y-95527161D01*
X121904982Y-95477000D01*
X128873000Y-95477000D01*
X128873000Y-96751952D01*
G36*
X142323000Y-99763266D02*
X142323000Y-101194757D01*
X142273717Y-101161083D01*
X142025000Y-101110717D01*
X141225000Y-101110717D01*
X141022638Y-101148794D01*
X140324422Y-100450578D01*
X140114283Y-100310168D01*
X140114283Y-100275000D01*
X140070563Y-100042648D01*
X139933243Y-99829247D01*
X139723717Y-99686083D01*
X139475000Y-99635717D01*
X138325000Y-99635717D01*
X138092648Y-99679437D01*
X138000640Y-99738643D01*
X137923717Y-99686083D01*
X137675000Y-99635717D01*
X136525000Y-99635717D01*
X136292648Y-99679437D01*
X136079247Y-99816757D01*
X135936083Y-100026283D01*
X135916497Y-100123000D01*
X133517266Y-100123000D01*
X133881564Y-99758702D01*
X133924950Y-99776717D01*
X134572211Y-99777282D01*
X135170418Y-99530108D01*
X135624317Y-99077000D01*
X135914318Y-99077000D01*
X135929437Y-99157352D01*
X136066757Y-99370753D01*
X136276283Y-99513917D01*
X136525000Y-99564283D01*
X137675000Y-99564283D01*
X137907352Y-99520563D01*
X137999360Y-99461357D01*
X138076283Y-99513917D01*
X138325000Y-99564283D01*
X139475000Y-99564283D01*
X139707352Y-99520563D01*
X139920753Y-99383243D01*
X140063917Y-99173717D01*
X140083503Y-99077000D01*
X140094774Y-99077000D01*
X140214799Y-99126839D01*
X140583583Y-99127161D01*
X140924417Y-98986331D01*
X141185414Y-98725789D01*
X141214786Y-98655052D01*
X142323000Y-99763266D01*
X142323000Y-99763266D01*
G37*
X142323000Y-99763266D02*
X142323000Y-101194757D01*
X142273717Y-101161083D01*
X142025000Y-101110717D01*
X141225000Y-101110717D01*
X141022638Y-101148794D01*
X140324422Y-100450578D01*
X140114283Y-100310168D01*
X140114283Y-100275000D01*
X140070563Y-100042648D01*
X139933243Y-99829247D01*
X139723717Y-99686083D01*
X139475000Y-99635717D01*
X138325000Y-99635717D01*
X138092648Y-99679437D01*
X138000640Y-99738643D01*
X137923717Y-99686083D01*
X137675000Y-99635717D01*
X136525000Y-99635717D01*
X136292648Y-99679437D01*
X136079247Y-99816757D01*
X135936083Y-100026283D01*
X135916497Y-100123000D01*
X133517266Y-100123000D01*
X133881564Y-99758702D01*
X133924950Y-99776717D01*
X134572211Y-99777282D01*
X135170418Y-99530108D01*
X135624317Y-99077000D01*
X135914318Y-99077000D01*
X135929437Y-99157352D01*
X136066757Y-99370753D01*
X136276283Y-99513917D01*
X136525000Y-99564283D01*
X137675000Y-99564283D01*
X137907352Y-99520563D01*
X137999360Y-99461357D01*
X138076283Y-99513917D01*
X138325000Y-99564283D01*
X139475000Y-99564283D01*
X139707352Y-99520563D01*
X139920753Y-99383243D01*
X140063917Y-99173717D01*
X140083503Y-99077000D01*
X140094774Y-99077000D01*
X140214799Y-99126839D01*
X140583583Y-99127161D01*
X140924417Y-98986331D01*
X141185414Y-98725789D01*
X141214786Y-98655052D01*
X142323000Y-99763266D01*
G36*
X144292548Y-101110717D02*
X144077000Y-101110717D01*
X144077000Y-100679620D01*
X144292548Y-101110717D01*
X144292548Y-101110717D01*
G37*
X144292548Y-101110717D02*
X144077000Y-101110717D01*
X144077000Y-100679620D01*
X144292548Y-101110717D01*
G36*
X139395451Y-96835717D02*
X138325000Y-96835717D01*
X138092648Y-96879437D01*
X138000640Y-96938643D01*
X137923717Y-96886083D01*
X137675000Y-96835717D01*
X136525000Y-96835717D01*
X136292648Y-96879437D01*
X136079247Y-97016757D01*
X135936083Y-97226283D01*
X135916497Y-97323000D01*
X135668708Y-97323000D01*
X135630108Y-97229582D01*
X135172825Y-96771501D01*
X134575050Y-96523283D01*
X133927789Y-96522718D01*
X133329582Y-96769892D01*
X132871501Y-97227175D01*
X132623283Y-97824950D01*
X132622718Y-98472211D01*
X132641666Y-98518068D01*
X130669491Y-100490243D01*
X130627000Y-100276631D01*
X130627000Y-99548048D01*
X130670418Y-99530108D01*
X131128499Y-99072825D01*
X131376717Y-98475050D01*
X131377282Y-97827789D01*
X131130108Y-97229582D01*
X130672825Y-96771501D01*
X130627000Y-96752473D01*
X130627000Y-95477000D01*
X138036734Y-95477000D01*
X139395451Y-96835717D01*
X139395451Y-96835717D01*
G37*
X139395451Y-96835717D02*
X138325000Y-96835717D01*
X138092648Y-96879437D01*
X138000640Y-96938643D01*
X137923717Y-96886083D01*
X137675000Y-96835717D01*
X136525000Y-96835717D01*
X136292648Y-96879437D01*
X136079247Y-97016757D01*
X135936083Y-97226283D01*
X135916497Y-97323000D01*
X135668708Y-97323000D01*
X135630108Y-97229582D01*
X135172825Y-96771501D01*
X134575050Y-96523283D01*
X133927789Y-96522718D01*
X133329582Y-96769892D01*
X132871501Y-97227175D01*
X132623283Y-97824950D01*
X132622718Y-98472211D01*
X132641666Y-98518068D01*
X130669491Y-100490243D01*
X130627000Y-100276631D01*
X130627000Y-99548048D01*
X130670418Y-99530108D01*
X131128499Y-99072825D01*
X131376717Y-98475050D01*
X131377282Y-97827789D01*
X131130108Y-97229582D01*
X130672825Y-96771501D01*
X130627000Y-96752473D01*
X130627000Y-95477000D01*
X138036734Y-95477000D01*
X139395451Y-96835717D01*
G36*
X98369892Y-99070418D02*
X98827175Y-99528499D01*
X99424950Y-99776717D01*
X100072211Y-99777282D01*
X100401115Y-99641381D01*
X100882734Y-100123000D01*
X98085682Y-100123000D01*
X98070563Y-100042648D01*
X97933243Y-99829247D01*
X97723717Y-99686083D01*
X97475000Y-99635717D01*
X96325000Y-99635717D01*
X96092648Y-99679437D01*
X96000640Y-99738643D01*
X95923717Y-99686083D01*
X95675000Y-99635717D01*
X94525000Y-99635717D01*
X94292648Y-99679437D01*
X94079247Y-99816757D01*
X93936083Y-100026283D01*
X93896247Y-100223000D01*
X91617266Y-100223000D01*
X92813265Y-99027000D01*
X98351952Y-99027000D01*
X98369892Y-99070418D01*
X98369892Y-99070418D01*
G37*
X98369892Y-99070418D02*
X98827175Y-99528499D01*
X99424950Y-99776717D01*
X100072211Y-99777282D01*
X100401115Y-99641381D01*
X100882734Y-100123000D01*
X98085682Y-100123000D01*
X98070563Y-100042648D01*
X97933243Y-99829247D01*
X97723717Y-99686083D01*
X97475000Y-99635717D01*
X96325000Y-99635717D01*
X96092648Y-99679437D01*
X96000640Y-99738643D01*
X95923717Y-99686083D01*
X95675000Y-99635717D01*
X94525000Y-99635717D01*
X94292648Y-99679437D01*
X94079247Y-99816757D01*
X93936083Y-100026283D01*
X93896247Y-100223000D01*
X91617266Y-100223000D01*
X92813265Y-99027000D01*
X98351952Y-99027000D01*
X98369892Y-99070418D01*
G36*
X105635717Y-95725000D02*
X105635717Y-96875000D01*
X105679437Y-97107352D01*
X105738643Y-97199360D01*
X105688326Y-97273000D01*
X105648048Y-97273000D01*
X105630108Y-97229582D01*
X105172825Y-96771501D01*
X104575050Y-96523283D01*
X103927789Y-96522718D01*
X103329582Y-96769892D01*
X102871501Y-97227175D01*
X102623283Y-97824950D01*
X102622718Y-98472211D01*
X102869892Y-99070418D01*
X103327175Y-99528499D01*
X103924950Y-99776717D01*
X104572211Y-99777282D01*
X105170418Y-99530108D01*
X105628499Y-99072825D01*
X105647527Y-99027000D01*
X105756429Y-99027000D01*
X105816757Y-99120753D01*
X106026283Y-99263917D01*
X106275000Y-99314283D01*
X107725000Y-99314283D01*
X107957352Y-99270563D01*
X108170753Y-99133243D01*
X108277510Y-98977000D01*
X112700000Y-98977000D01*
X112950700Y-98927132D01*
X112983583Y-98927161D01*
X113014242Y-98914493D01*
X113035613Y-98910242D01*
X113053573Y-98898242D01*
X113105908Y-98876617D01*
X113105908Y-100073092D01*
X112816417Y-100072839D01*
X112695018Y-100123000D01*
X102926893Y-100123000D01*
X102927161Y-99816417D01*
X102786331Y-99475583D01*
X102525789Y-99214586D01*
X102404480Y-99164214D01*
X101377012Y-98136746D01*
X101377282Y-97827789D01*
X101130108Y-97229582D01*
X100672825Y-96771501D01*
X100075050Y-96523283D01*
X99427789Y-96522718D01*
X98829582Y-96769892D01*
X98371501Y-97227175D01*
X98352473Y-97273000D01*
X98266834Y-97273000D01*
X98266834Y-95477000D01*
X105685938Y-95477000D01*
X105635717Y-95725000D01*
X105635717Y-95725000D01*
G37*
X105635717Y-95725000D02*
X105635717Y-96875000D01*
X105679437Y-97107352D01*
X105738643Y-97199360D01*
X105688326Y-97273000D01*
X105648048Y-97273000D01*
X105630108Y-97229582D01*
X105172825Y-96771501D01*
X104575050Y-96523283D01*
X103927789Y-96522718D01*
X103329582Y-96769892D01*
X102871501Y-97227175D01*
X102623283Y-97824950D01*
X102622718Y-98472211D01*
X102869892Y-99070418D01*
X103327175Y-99528499D01*
X103924950Y-99776717D01*
X104572211Y-99777282D01*
X105170418Y-99530108D01*
X105628499Y-99072825D01*
X105647527Y-99027000D01*
X105756429Y-99027000D01*
X105816757Y-99120753D01*
X106026283Y-99263917D01*
X106275000Y-99314283D01*
X107725000Y-99314283D01*
X107957352Y-99270563D01*
X108170753Y-99133243D01*
X108277510Y-98977000D01*
X112700000Y-98977000D01*
X112950700Y-98927132D01*
X112983583Y-98927161D01*
X113014242Y-98914493D01*
X113035613Y-98910242D01*
X113053573Y-98898242D01*
X113105908Y-98876617D01*
X113105908Y-100073092D01*
X112816417Y-100072839D01*
X112695018Y-100123000D01*
X102926893Y-100123000D01*
X102927161Y-99816417D01*
X102786331Y-99475583D01*
X102525789Y-99214586D01*
X102404480Y-99164214D01*
X101377012Y-98136746D01*
X101377282Y-97827789D01*
X101130108Y-97229582D01*
X100672825Y-96771501D01*
X100075050Y-96523283D01*
X99427789Y-96522718D01*
X98829582Y-96769892D01*
X98371501Y-97227175D01*
X98352473Y-97273000D01*
X98266834Y-97273000D01*
X98266834Y-95477000D01*
X105685938Y-95477000D01*
X105635717Y-95725000D01*
G36*
X96512834Y-97273000D02*
X92450000Y-97273000D01*
X92114386Y-97339758D01*
X92050948Y-97382146D01*
X91829867Y-97529867D01*
X91829865Y-97529870D01*
X91165887Y-98193848D01*
X96512834Y-87499954D01*
X96512834Y-97273000D01*
X96512834Y-97273000D01*
G37*
X96512834Y-97273000D02*
X92450000Y-97273000D01*
X92114386Y-97339758D01*
X92050948Y-97382146D01*
X91829867Y-97529867D01*
X91829865Y-97529870D01*
X91165887Y-98193848D01*
X96512834Y-87499954D01*
X96512834Y-97273000D01*
G36*
X142434113Y-97393847D02*
X139020133Y-93979867D01*
X138735613Y-93789758D01*
X138400000Y-93723000D01*
X132317265Y-93723000D01*
X132620130Y-93420135D01*
X132620133Y-93420133D01*
X132734095Y-93249576D01*
X132810242Y-93135614D01*
X132877000Y-92800000D01*
X132877000Y-92577538D01*
X133327175Y-93028499D01*
X133366684Y-93044905D01*
X133375736Y-93069387D01*
X133849712Y-93245475D01*
X133924950Y-93276717D01*
X133933826Y-93276725D01*
X133985461Y-93295908D01*
X134490746Y-93277211D01*
X134572211Y-93277282D01*
X134580413Y-93273893D01*
X134635460Y-93271856D01*
X135124264Y-93069387D01*
X135133083Y-93045535D01*
X135170418Y-93030108D01*
X135628499Y-92572825D01*
X135644905Y-92533316D01*
X135669387Y-92524264D01*
X135845475Y-92050288D01*
X135876717Y-91975050D01*
X135876725Y-91966174D01*
X135895908Y-91914539D01*
X135877211Y-91409254D01*
X135877282Y-91327789D01*
X135873893Y-91319587D01*
X135871856Y-91264540D01*
X135669387Y-90775736D01*
X135645535Y-90766917D01*
X135630108Y-90729582D01*
X135172825Y-90271501D01*
X135133316Y-90255095D01*
X135124264Y-90230613D01*
X134650288Y-90054525D01*
X134575050Y-90023283D01*
X134566174Y-90023275D01*
X134514539Y-90004092D01*
X134009254Y-90022789D01*
X133927789Y-90022718D01*
X133919587Y-90026107D01*
X133864540Y-90028144D01*
X133433636Y-90206630D01*
X136320133Y-87320133D01*
X136510242Y-87035614D01*
X136577000Y-86700000D01*
X136577000Y-86405226D01*
X136626839Y-86285201D01*
X136627161Y-85916417D01*
X136486331Y-85575583D01*
X136454824Y-85544020D01*
X136491074Y-85507770D01*
X142434113Y-97393847D01*
X142434113Y-97393847D01*
G37*
X142434113Y-97393847D02*
X139020133Y-93979867D01*
X138735613Y-93789758D01*
X138400000Y-93723000D01*
X132317265Y-93723000D01*
X132620130Y-93420135D01*
X132620133Y-93420133D01*
X132734095Y-93249576D01*
X132810242Y-93135614D01*
X132877000Y-92800000D01*
X132877000Y-92577538D01*
X133327175Y-93028499D01*
X133366684Y-93044905D01*
X133375736Y-93069387D01*
X133849712Y-93245475D01*
X133924950Y-93276717D01*
X133933826Y-93276725D01*
X133985461Y-93295908D01*
X134490746Y-93277211D01*
X134572211Y-93277282D01*
X134580413Y-93273893D01*
X134635460Y-93271856D01*
X135124264Y-93069387D01*
X135133083Y-93045535D01*
X135170418Y-93030108D01*
X135628499Y-92572825D01*
X135644905Y-92533316D01*
X135669387Y-92524264D01*
X135845475Y-92050288D01*
X135876717Y-91975050D01*
X135876725Y-91966174D01*
X135895908Y-91914539D01*
X135877211Y-91409254D01*
X135877282Y-91327789D01*
X135873893Y-91319587D01*
X135871856Y-91264540D01*
X135669387Y-90775736D01*
X135645535Y-90766917D01*
X135630108Y-90729582D01*
X135172825Y-90271501D01*
X135133316Y-90255095D01*
X135124264Y-90230613D01*
X134650288Y-90054525D01*
X134575050Y-90023283D01*
X134566174Y-90023275D01*
X134514539Y-90004092D01*
X134009254Y-90022789D01*
X133927789Y-90022718D01*
X133919587Y-90026107D01*
X133864540Y-90028144D01*
X133433636Y-90206630D01*
X136320133Y-87320133D01*
X136510242Y-87035614D01*
X136577000Y-86700000D01*
X136577000Y-86405226D01*
X136626839Y-86285201D01*
X136627161Y-85916417D01*
X136486331Y-85575583D01*
X136454824Y-85544020D01*
X136491074Y-85507770D01*
X142434113Y-97393847D01*
G36*
X108274211Y-97185414D02*
X108364728Y-97223000D01*
X108275746Y-97223000D01*
X108261357Y-97200640D01*
X108272757Y-97183957D01*
X108274211Y-97185414D01*
X108274211Y-97185414D01*
G37*
X108274211Y-97185414D02*
X108364728Y-97223000D01*
X108275746Y-97223000D01*
X108261357Y-97200640D01*
X108272757Y-97183957D01*
X108274211Y-97185414D01*
G36*
X112814799Y-95526839D02*
X113105908Y-95527093D01*
X113105908Y-97123283D01*
X112985201Y-97073161D01*
X112616417Y-97072839D01*
X112275583Y-97213669D01*
X112266236Y-97223000D01*
X109235671Y-97223000D01*
X109324417Y-97186331D01*
X109585414Y-96925789D01*
X109726839Y-96585201D01*
X109727161Y-96216417D01*
X109586331Y-95875583D01*
X109325789Y-95614586D01*
X109052755Y-95501212D01*
X109035613Y-95489758D01*
X109015569Y-95485771D01*
X108994446Y-95477000D01*
X112694774Y-95477000D01*
X112814799Y-95526839D01*
X112814799Y-95526839D01*
G37*
X112814799Y-95526839D02*
X113105908Y-95527093D01*
X113105908Y-97123283D01*
X112985201Y-97073161D01*
X112616417Y-97072839D01*
X112275583Y-97213669D01*
X112266236Y-97223000D01*
X109235671Y-97223000D01*
X109324417Y-97186331D01*
X109585414Y-96925789D01*
X109726839Y-96585201D01*
X109727161Y-96216417D01*
X109586331Y-95875583D01*
X109325789Y-95614586D01*
X109052755Y-95501212D01*
X109035613Y-95489758D01*
X109015569Y-95485771D01*
X108994446Y-95477000D01*
X112694774Y-95477000D01*
X112814799Y-95526839D01*
G36*
X134773161Y-85914799D02*
X134772839Y-86283583D01*
X134803046Y-86356688D01*
X131379867Y-89779867D01*
X131189758Y-90064387D01*
X131123000Y-90400000D01*
X131123000Y-90722462D01*
X130672825Y-90271501D01*
X130633316Y-90255095D01*
X130624264Y-90230613D01*
X130150288Y-90054525D01*
X130075050Y-90023283D01*
X130066174Y-90023275D01*
X130014539Y-90004092D01*
X129509254Y-90022789D01*
X129427789Y-90022718D01*
X129419587Y-90026107D01*
X129364540Y-90028144D01*
X128875736Y-90230613D01*
X128866917Y-90254465D01*
X128829582Y-90269892D01*
X128371501Y-90727175D01*
X128355095Y-90766684D01*
X128330613Y-90775736D01*
X128154525Y-91249712D01*
X128123283Y-91324950D01*
X128123275Y-91333826D01*
X128104092Y-91385461D01*
X128122789Y-91890746D01*
X128122718Y-91972211D01*
X128126107Y-91980413D01*
X128128144Y-92035460D01*
X128330613Y-92524264D01*
X128354465Y-92533083D01*
X128369892Y-92570418D01*
X128827175Y-93028499D01*
X128866684Y-93044905D01*
X128875736Y-93069387D01*
X129349712Y-93245475D01*
X129424950Y-93276717D01*
X129433826Y-93276725D01*
X129485461Y-93295908D01*
X129990746Y-93277211D01*
X130072211Y-93277282D01*
X130080413Y-93273893D01*
X130135460Y-93271856D01*
X130395654Y-93164080D01*
X129836734Y-93723000D01*
X129781288Y-93723000D01*
X129781283Y-93722999D01*
X129781278Y-93723000D01*
X121905226Y-93723000D01*
X121785201Y-93673161D01*
X121527010Y-93672936D01*
X121527010Y-92507338D01*
X121814799Y-92626839D01*
X122183583Y-92627161D01*
X122304982Y-92577000D01*
X123325000Y-92577000D01*
X123660613Y-92510242D01*
X123945133Y-92320133D01*
X130083246Y-86182020D01*
X130276283Y-86313917D01*
X130525000Y-86364283D01*
X131675000Y-86364283D01*
X131907352Y-86320563D01*
X131999360Y-86261357D01*
X132076283Y-86313917D01*
X132325000Y-86364283D01*
X133475000Y-86364283D01*
X133707352Y-86320563D01*
X133920753Y-86183243D01*
X134063917Y-85973717D01*
X134103753Y-85777000D01*
X134830380Y-85777000D01*
X134773161Y-85914799D01*
X134773161Y-85914799D01*
G37*
X134773161Y-85914799D02*
X134772839Y-86283583D01*
X134803046Y-86356688D01*
X131379867Y-89779867D01*
X131189758Y-90064387D01*
X131123000Y-90400000D01*
X131123000Y-90722462D01*
X130672825Y-90271501D01*
X130633316Y-90255095D01*
X130624264Y-90230613D01*
X130150288Y-90054525D01*
X130075050Y-90023283D01*
X130066174Y-90023275D01*
X130014539Y-90004092D01*
X129509254Y-90022789D01*
X129427789Y-90022718D01*
X129419587Y-90026107D01*
X129364540Y-90028144D01*
X128875736Y-90230613D01*
X128866917Y-90254465D01*
X128829582Y-90269892D01*
X128371501Y-90727175D01*
X128355095Y-90766684D01*
X128330613Y-90775736D01*
X128154525Y-91249712D01*
X128123283Y-91324950D01*
X128123275Y-91333826D01*
X128104092Y-91385461D01*
X128122789Y-91890746D01*
X128122718Y-91972211D01*
X128126107Y-91980413D01*
X128128144Y-92035460D01*
X128330613Y-92524264D01*
X128354465Y-92533083D01*
X128369892Y-92570418D01*
X128827175Y-93028499D01*
X128866684Y-93044905D01*
X128875736Y-93069387D01*
X129349712Y-93245475D01*
X129424950Y-93276717D01*
X129433826Y-93276725D01*
X129485461Y-93295908D01*
X129990746Y-93277211D01*
X130072211Y-93277282D01*
X130080413Y-93273893D01*
X130135460Y-93271856D01*
X130395654Y-93164080D01*
X129836734Y-93723000D01*
X129781288Y-93723000D01*
X129781283Y-93722999D01*
X129781278Y-93723000D01*
X121905226Y-93723000D01*
X121785201Y-93673161D01*
X121527010Y-93672936D01*
X121527010Y-92507338D01*
X121814799Y-92626839D01*
X122183583Y-92627161D01*
X122304982Y-92577000D01*
X123325000Y-92577000D01*
X123660613Y-92510242D01*
X123945133Y-92320133D01*
X130083246Y-86182020D01*
X130276283Y-86313917D01*
X130525000Y-86364283D01*
X131675000Y-86364283D01*
X131907352Y-86320563D01*
X131999360Y-86261357D01*
X132076283Y-86313917D01*
X132325000Y-86364283D01*
X133475000Y-86364283D01*
X133707352Y-86320563D01*
X133920753Y-86183243D01*
X134063917Y-85973717D01*
X134103753Y-85777000D01*
X134830380Y-85777000D01*
X134773161Y-85914799D01*
G36*
X112164040Y-88504306D02*
X112203728Y-88600359D01*
X112073161Y-88914799D01*
X112072839Y-89283583D01*
X112139642Y-89445258D01*
X112123000Y-89528922D01*
X112123000Y-91138607D01*
X112189758Y-91474220D01*
X112379867Y-91758740D01*
X113105908Y-92484781D01*
X113105908Y-93673092D01*
X112816417Y-93672839D01*
X112695018Y-93723000D01*
X98266834Y-93723000D01*
X98266834Y-92370288D01*
X98330613Y-92524264D01*
X98354465Y-92533083D01*
X98369892Y-92570418D01*
X98827175Y-93028499D01*
X98866684Y-93044905D01*
X98875736Y-93069387D01*
X99349712Y-93245475D01*
X99424950Y-93276717D01*
X99433826Y-93276725D01*
X99485461Y-93295908D01*
X99990746Y-93277211D01*
X100072211Y-93277282D01*
X100080413Y-93273893D01*
X100135460Y-93271856D01*
X100624264Y-93069387D01*
X100633083Y-93045535D01*
X100670418Y-93030108D01*
X101128499Y-92572825D01*
X101144905Y-92533316D01*
X101169387Y-92524264D01*
X101345475Y-92050288D01*
X101376717Y-91975050D01*
X101376725Y-91966174D01*
X101395908Y-91914539D01*
X101377211Y-91409254D01*
X101377231Y-91385461D01*
X102604092Y-91385461D01*
X102622789Y-91890746D01*
X102622718Y-91972211D01*
X102626107Y-91980413D01*
X102628144Y-92035460D01*
X102830613Y-92524264D01*
X102854465Y-92533083D01*
X102869892Y-92570418D01*
X103327175Y-93028499D01*
X103366684Y-93044905D01*
X103375736Y-93069387D01*
X103849712Y-93245475D01*
X103924950Y-93276717D01*
X103933826Y-93276725D01*
X103985461Y-93295908D01*
X104490746Y-93277211D01*
X104572211Y-93277282D01*
X104580413Y-93273893D01*
X104635460Y-93271856D01*
X105124264Y-93069387D01*
X105133083Y-93045535D01*
X105170418Y-93030108D01*
X105628499Y-92572825D01*
X105644905Y-92533316D01*
X105669387Y-92524264D01*
X105845475Y-92050288D01*
X105876717Y-91975050D01*
X105876725Y-91966174D01*
X105895908Y-91914539D01*
X105877211Y-91409254D01*
X105877282Y-91327789D01*
X105873893Y-91319587D01*
X105871856Y-91264540D01*
X105669387Y-90775736D01*
X105645535Y-90766917D01*
X105630108Y-90729582D01*
X105172825Y-90271501D01*
X105133316Y-90255095D01*
X105124264Y-90230613D01*
X104650288Y-90054525D01*
X104575050Y-90023283D01*
X104566174Y-90023275D01*
X104514539Y-90004092D01*
X104009254Y-90022789D01*
X103927789Y-90022718D01*
X103919587Y-90026107D01*
X103864540Y-90028144D01*
X103375736Y-90230613D01*
X103366917Y-90254465D01*
X103329582Y-90269892D01*
X102871501Y-90727175D01*
X102855095Y-90766684D01*
X102830613Y-90775736D01*
X102654525Y-91249712D01*
X102623283Y-91324950D01*
X102623275Y-91333826D01*
X102604092Y-91385461D01*
X101377231Y-91385461D01*
X101377282Y-91327789D01*
X101373893Y-91319587D01*
X101371856Y-91264540D01*
X101169387Y-90775736D01*
X101145535Y-90766917D01*
X101130108Y-90729582D01*
X100672825Y-90271501D01*
X100633316Y-90255095D01*
X100624264Y-90230613D01*
X100150288Y-90054525D01*
X100075050Y-90023283D01*
X100066174Y-90023275D01*
X100014539Y-90004092D01*
X99509254Y-90022789D01*
X99427789Y-90022718D01*
X99419587Y-90026107D01*
X99364540Y-90028144D01*
X98875736Y-90230613D01*
X98866917Y-90254465D01*
X98829582Y-90269892D01*
X98371501Y-90727175D01*
X98355095Y-90766684D01*
X98330613Y-90775736D01*
X98266834Y-90947409D01*
X98266834Y-86929709D01*
X98326839Y-86785201D01*
X98327161Y-86416417D01*
X98285587Y-86315801D01*
X98525000Y-86364283D01*
X99675000Y-86364283D01*
X99907352Y-86320563D01*
X99999360Y-86261357D01*
X100076283Y-86313917D01*
X100325000Y-86364283D01*
X101475000Y-86364283D01*
X101707352Y-86320563D01*
X101920753Y-86183243D01*
X102063917Y-85973717D01*
X102083503Y-85877000D01*
X109536734Y-85877000D01*
X112164040Y-88504306D01*
X112164040Y-88504306D01*
G37*
X112164040Y-88504306D02*
X112203728Y-88600359D01*
X112073161Y-88914799D01*
X112072839Y-89283583D01*
X112139642Y-89445258D01*
X112123000Y-89528922D01*
X112123000Y-91138607D01*
X112189758Y-91474220D01*
X112379867Y-91758740D01*
X113105908Y-92484781D01*
X113105908Y-93673092D01*
X112816417Y-93672839D01*
X112695018Y-93723000D01*
X98266834Y-93723000D01*
X98266834Y-92370288D01*
X98330613Y-92524264D01*
X98354465Y-92533083D01*
X98369892Y-92570418D01*
X98827175Y-93028499D01*
X98866684Y-93044905D01*
X98875736Y-93069387D01*
X99349712Y-93245475D01*
X99424950Y-93276717D01*
X99433826Y-93276725D01*
X99485461Y-93295908D01*
X99990746Y-93277211D01*
X100072211Y-93277282D01*
X100080413Y-93273893D01*
X100135460Y-93271856D01*
X100624264Y-93069387D01*
X100633083Y-93045535D01*
X100670418Y-93030108D01*
X101128499Y-92572825D01*
X101144905Y-92533316D01*
X101169387Y-92524264D01*
X101345475Y-92050288D01*
X101376717Y-91975050D01*
X101376725Y-91966174D01*
X101395908Y-91914539D01*
X101377211Y-91409254D01*
X101377231Y-91385461D01*
X102604092Y-91385461D01*
X102622789Y-91890746D01*
X102622718Y-91972211D01*
X102626107Y-91980413D01*
X102628144Y-92035460D01*
X102830613Y-92524264D01*
X102854465Y-92533083D01*
X102869892Y-92570418D01*
X103327175Y-93028499D01*
X103366684Y-93044905D01*
X103375736Y-93069387D01*
X103849712Y-93245475D01*
X103924950Y-93276717D01*
X103933826Y-93276725D01*
X103985461Y-93295908D01*
X104490746Y-93277211D01*
X104572211Y-93277282D01*
X104580413Y-93273893D01*
X104635460Y-93271856D01*
X105124264Y-93069387D01*
X105133083Y-93045535D01*
X105170418Y-93030108D01*
X105628499Y-92572825D01*
X105644905Y-92533316D01*
X105669387Y-92524264D01*
X105845475Y-92050288D01*
X105876717Y-91975050D01*
X105876725Y-91966174D01*
X105895908Y-91914539D01*
X105877211Y-91409254D01*
X105877282Y-91327789D01*
X105873893Y-91319587D01*
X105871856Y-91264540D01*
X105669387Y-90775736D01*
X105645535Y-90766917D01*
X105630108Y-90729582D01*
X105172825Y-90271501D01*
X105133316Y-90255095D01*
X105124264Y-90230613D01*
X104650288Y-90054525D01*
X104575050Y-90023283D01*
X104566174Y-90023275D01*
X104514539Y-90004092D01*
X104009254Y-90022789D01*
X103927789Y-90022718D01*
X103919587Y-90026107D01*
X103864540Y-90028144D01*
X103375736Y-90230613D01*
X103366917Y-90254465D01*
X103329582Y-90269892D01*
X102871501Y-90727175D01*
X102855095Y-90766684D01*
X102830613Y-90775736D01*
X102654525Y-91249712D01*
X102623283Y-91324950D01*
X102623275Y-91333826D01*
X102604092Y-91385461D01*
X101377231Y-91385461D01*
X101377282Y-91327789D01*
X101373893Y-91319587D01*
X101371856Y-91264540D01*
X101169387Y-90775736D01*
X101145535Y-90766917D01*
X101130108Y-90729582D01*
X100672825Y-90271501D01*
X100633316Y-90255095D01*
X100624264Y-90230613D01*
X100150288Y-90054525D01*
X100075050Y-90023283D01*
X100066174Y-90023275D01*
X100014539Y-90004092D01*
X99509254Y-90022789D01*
X99427789Y-90022718D01*
X99419587Y-90026107D01*
X99364540Y-90028144D01*
X98875736Y-90230613D01*
X98866917Y-90254465D01*
X98829582Y-90269892D01*
X98371501Y-90727175D01*
X98355095Y-90766684D01*
X98330613Y-90775736D01*
X98266834Y-90947409D01*
X98266834Y-86929709D01*
X98326839Y-86785201D01*
X98327161Y-86416417D01*
X98285587Y-86315801D01*
X98525000Y-86364283D01*
X99675000Y-86364283D01*
X99907352Y-86320563D01*
X99999360Y-86261357D01*
X100076283Y-86313917D01*
X100325000Y-86364283D01*
X101475000Y-86364283D01*
X101707352Y-86320563D01*
X101920753Y-86183243D01*
X102063917Y-85973717D01*
X102083503Y-85877000D01*
X109536734Y-85877000D01*
X112164040Y-88504306D01*
G36*
X118114799Y-92626839D02*
X118444613Y-92627127D01*
X118444613Y-93697831D01*
X118385201Y-93673161D01*
X118016417Y-93672839D01*
X117895018Y-93723000D01*
X116305256Y-93723000D01*
X116185231Y-93673161D01*
X116177020Y-93673154D01*
X116177020Y-92577000D01*
X117994774Y-92577000D01*
X118114799Y-92626839D01*
X118114799Y-92626839D01*
G37*
X118114799Y-92626839D02*
X118444613Y-92627127D01*
X118444613Y-93697831D01*
X118385201Y-93673161D01*
X118016417Y-93672839D01*
X117895018Y-93723000D01*
X116305256Y-93723000D01*
X116185231Y-93673161D01*
X116177020Y-93673154D01*
X116177020Y-92577000D01*
X117994774Y-92577000D01*
X118114799Y-92626839D01*
G36*
X118444613Y-90773126D02*
X118116417Y-90772839D01*
X117995018Y-90823000D01*
X116177020Y-90823000D01*
X116177020Y-87927155D01*
X116183613Y-87927161D01*
X116305012Y-87877000D01*
X118444613Y-87877000D01*
X118444613Y-90773126D01*
X118444613Y-90773126D01*
G37*
X118444613Y-90773126D02*
X118116417Y-90772839D01*
X117995018Y-90823000D01*
X116177020Y-90823000D01*
X116177020Y-87927155D01*
X116183613Y-87927161D01*
X116305012Y-87877000D01*
X118444613Y-87877000D01*
X118444613Y-90773126D01*
G36*
X137523000Y-79863266D02*
X137523000Y-81010938D01*
X137275000Y-80960717D01*
X136475000Y-80960717D01*
X136242648Y-81004437D01*
X136097002Y-81098158D01*
X135449422Y-80450578D01*
X135197345Y-80282146D01*
X134900000Y-80223000D01*
X134104499Y-80223000D01*
X134070563Y-80042648D01*
X133933243Y-79829247D01*
X133723717Y-79686083D01*
X133475000Y-79635717D01*
X132325000Y-79635717D01*
X132092648Y-79679437D01*
X132000640Y-79738643D01*
X131923717Y-79686083D01*
X131675000Y-79635717D01*
X130525000Y-79635717D01*
X130292648Y-79679437D01*
X130079247Y-79816757D01*
X129936083Y-80026283D01*
X129911944Y-80145488D01*
X129689387Y-80189758D01*
X129404867Y-80379867D01*
X124379867Y-85404867D01*
X124189758Y-85689387D01*
X124142666Y-85926135D01*
X122689858Y-87378942D01*
X122525789Y-87214586D01*
X122185201Y-87073161D01*
X122167121Y-87073145D01*
X124920140Y-84320125D01*
X124920143Y-84320123D01*
X125110252Y-84035603D01*
X125125817Y-83957352D01*
X125177011Y-83699990D01*
X125177010Y-83699985D01*
X125177010Y-76927068D01*
X125283583Y-76927161D01*
X125624417Y-76786331D01*
X125733939Y-76677000D01*
X134336734Y-76677000D01*
X137523000Y-79863266D01*
X137523000Y-79863266D01*
G37*
X137523000Y-79863266D02*
X137523000Y-81010938D01*
X137275000Y-80960717D01*
X136475000Y-80960717D01*
X136242648Y-81004437D01*
X136097002Y-81098158D01*
X135449422Y-80450578D01*
X135197345Y-80282146D01*
X134900000Y-80223000D01*
X134104499Y-80223000D01*
X134070563Y-80042648D01*
X133933243Y-79829247D01*
X133723717Y-79686083D01*
X133475000Y-79635717D01*
X132325000Y-79635717D01*
X132092648Y-79679437D01*
X132000640Y-79738643D01*
X131923717Y-79686083D01*
X131675000Y-79635717D01*
X130525000Y-79635717D01*
X130292648Y-79679437D01*
X130079247Y-79816757D01*
X129936083Y-80026283D01*
X129911944Y-80145488D01*
X129689387Y-80189758D01*
X129404867Y-80379867D01*
X124379867Y-85404867D01*
X124189758Y-85689387D01*
X124142666Y-85926135D01*
X122689858Y-87378942D01*
X122525789Y-87214586D01*
X122185201Y-87073161D01*
X122167121Y-87073145D01*
X124920140Y-84320125D01*
X124920143Y-84320123D01*
X125110252Y-84035603D01*
X125125817Y-83957352D01*
X125177011Y-83699990D01*
X125177010Y-83699985D01*
X125177010Y-76927068D01*
X125283583Y-76927161D01*
X125624417Y-76786331D01*
X125733939Y-76677000D01*
X134336734Y-76677000D01*
X137523000Y-79863266D01*
G36*
X97700578Y-85299422D02*
X97885717Y-85484561D01*
X97885717Y-85725000D01*
X97900606Y-85804129D01*
X97585201Y-85673161D01*
X97426300Y-85673022D01*
X97650249Y-85225124D01*
X97650448Y-85224397D01*
X97700578Y-85299422D01*
X97700578Y-85299422D01*
G37*
X97700578Y-85299422D02*
X97885717Y-85484561D01*
X97885717Y-85725000D01*
X97900606Y-85804129D01*
X97585201Y-85673161D01*
X97426300Y-85673022D01*
X97650249Y-85225124D01*
X97650448Y-85224397D01*
X97700578Y-85299422D01*
G36*
X123423010Y-83336725D02*
X121902647Y-84857088D01*
X121786331Y-84575583D01*
X121525789Y-84314586D01*
X121525712Y-84314554D01*
X123423010Y-82417256D01*
X123423010Y-83336725D01*
X123423010Y-83336725D01*
G37*
X123423010Y-83336725D02*
X121902647Y-84857088D01*
X121786331Y-84575583D01*
X121525789Y-84314586D01*
X121525712Y-84314554D01*
X123423010Y-82417256D01*
X123423010Y-83336725D01*
G36*
X135200578Y-84049422D02*
X135452655Y-84217854D01*
X135478526Y-84223000D01*
X134104499Y-84223000D01*
X134070563Y-84042648D01*
X134044497Y-84002140D01*
X134063917Y-83973717D01*
X134103753Y-83777000D01*
X134928156Y-83777000D01*
X135200578Y-84049422D01*
X135200578Y-84049422D01*
G37*
X135200578Y-84049422D02*
X135452655Y-84217854D01*
X135478526Y-84223000D01*
X134104499Y-84223000D01*
X134070563Y-84042648D01*
X134044497Y-84002140D01*
X134063917Y-83973717D01*
X134103753Y-83777000D01*
X134928156Y-83777000D01*
X135200578Y-84049422D01*
G36*
X93335717Y-83900000D02*
X93379437Y-84132352D01*
X93405593Y-84173000D01*
X93176311Y-84173000D01*
X93335717Y-83854188D01*
X93335717Y-83900000D01*
X93335717Y-83900000D01*
G37*
X93335717Y-83900000D02*
X93379437Y-84132352D01*
X93405593Y-84173000D01*
X93176311Y-84173000D01*
X93335717Y-83854188D01*
X93335717Y-83900000D01*
G36*
X140823689Y-84173000D02*
X140597325Y-84173000D01*
X140613917Y-84148717D01*
X140664283Y-83900000D01*
X140664283Y-83854188D01*
X140823689Y-84173000D01*
X140823689Y-84173000D01*
G37*
X140823689Y-84173000D02*
X140597325Y-84173000D01*
X140613917Y-84148717D01*
X140664283Y-83900000D01*
X140664283Y-83854188D01*
X140823689Y-84173000D01*
G36*
X129936083Y-84026283D02*
X129911944Y-84145488D01*
X129789717Y-84169801D01*
X129942227Y-84017291D01*
X129936083Y-84026283D01*
X129936083Y-84026283D01*
G37*
X129936083Y-84026283D02*
X129911944Y-84145488D01*
X129789717Y-84169801D01*
X129942227Y-84017291D01*
X129936083Y-84026283D01*
G36*
X108882734Y-84123000D02*
X102085682Y-84123000D01*
X102070563Y-84042648D01*
X102044497Y-84002140D01*
X102063917Y-83973717D01*
X102083503Y-83877000D01*
X108636734Y-83877000D01*
X108882734Y-84123000D01*
X108882734Y-84123000D01*
G37*
X108882734Y-84123000D02*
X102085682Y-84123000D01*
X102070563Y-84042648D01*
X102044497Y-84002140D01*
X102063917Y-83973717D01*
X102083503Y-83877000D01*
X108636734Y-83877000D01*
X108882734Y-84123000D01*
G36*
X132917548Y-68360717D02*
X132725000Y-68360717D01*
X132492648Y-68404437D01*
X132279247Y-68541757D01*
X132136083Y-68751283D01*
X132085717Y-69000000D01*
X132085717Y-69800000D01*
X132129437Y-70032352D01*
X132205212Y-70150110D01*
X132136083Y-70251283D01*
X132085717Y-70500000D01*
X132085717Y-71223000D01*
X131414283Y-71223000D01*
X131414283Y-70500000D01*
X131370563Y-70267648D01*
X131294788Y-70149890D01*
X131363917Y-70048717D01*
X131414283Y-69800000D01*
X131414283Y-69000000D01*
X131370563Y-68767648D01*
X131233243Y-68554247D01*
X131105669Y-68467079D01*
X131092854Y-68402655D01*
X130924422Y-68150578D01*
X130224422Y-67450578D01*
X129972345Y-67282146D01*
X129675000Y-67223000D01*
X128104499Y-67223000D01*
X128070563Y-67042648D01*
X127933243Y-66829247D01*
X127723717Y-66686083D01*
X127475000Y-66635717D01*
X126325000Y-66635717D01*
X126092648Y-66679437D01*
X126000640Y-66738643D01*
X125923717Y-66686083D01*
X125675000Y-66635717D01*
X124525000Y-66635717D01*
X124292648Y-66679437D01*
X124079247Y-66816757D01*
X123936083Y-67026283D01*
X123912993Y-67140306D01*
X123664387Y-67189758D01*
X123379867Y-67379867D01*
X123379865Y-67379870D01*
X121779867Y-68979867D01*
X121779865Y-68979870D01*
X121579867Y-69179867D01*
X121389758Y-69464387D01*
X121323000Y-69800000D01*
X121323000Y-73494774D01*
X121273161Y-73614799D01*
X121272839Y-73983583D01*
X121413669Y-74324417D01*
X121674211Y-74585414D01*
X122014799Y-74726839D01*
X122072990Y-74726890D01*
X122072990Y-80367492D01*
X119127000Y-83313482D01*
X119127000Y-55627000D01*
X126550689Y-55627000D01*
X132917548Y-68360717D01*
X132917548Y-68360717D01*
G37*
X132917548Y-68360717D02*
X132725000Y-68360717D01*
X132492648Y-68404437D01*
X132279247Y-68541757D01*
X132136083Y-68751283D01*
X132085717Y-69000000D01*
X132085717Y-69800000D01*
X132129437Y-70032352D01*
X132205212Y-70150110D01*
X132136083Y-70251283D01*
X132085717Y-70500000D01*
X132085717Y-71223000D01*
X131414283Y-71223000D01*
X131414283Y-70500000D01*
X131370563Y-70267648D01*
X131294788Y-70149890D01*
X131363917Y-70048717D01*
X131414283Y-69800000D01*
X131414283Y-69000000D01*
X131370563Y-68767648D01*
X131233243Y-68554247D01*
X131105669Y-68467079D01*
X131092854Y-68402655D01*
X130924422Y-68150578D01*
X130224422Y-67450578D01*
X129972345Y-67282146D01*
X129675000Y-67223000D01*
X128104499Y-67223000D01*
X128070563Y-67042648D01*
X127933243Y-66829247D01*
X127723717Y-66686083D01*
X127475000Y-66635717D01*
X126325000Y-66635717D01*
X126092648Y-66679437D01*
X126000640Y-66738643D01*
X125923717Y-66686083D01*
X125675000Y-66635717D01*
X124525000Y-66635717D01*
X124292648Y-66679437D01*
X124079247Y-66816757D01*
X123936083Y-67026283D01*
X123912993Y-67140306D01*
X123664387Y-67189758D01*
X123379867Y-67379867D01*
X123379865Y-67379870D01*
X121779867Y-68979867D01*
X121779865Y-68979870D01*
X121579867Y-69179867D01*
X121389758Y-69464387D01*
X121323000Y-69800000D01*
X121323000Y-73494774D01*
X121273161Y-73614799D01*
X121272839Y-73983583D01*
X121413669Y-74324417D01*
X121674211Y-74585414D01*
X122014799Y-74726839D01*
X122072990Y-74726890D01*
X122072990Y-80367492D01*
X119127000Y-83313482D01*
X119127000Y-55627000D01*
X126550689Y-55627000D01*
X132917548Y-68360717D01*
G36*
X96085717Y-82400000D02*
X96129437Y-82632352D01*
X96205212Y-82750110D01*
X96175442Y-82793680D01*
X95885201Y-82673161D01*
X95516417Y-82672839D01*
X95395018Y-82723000D01*
X95313161Y-82723000D01*
X95363917Y-82648717D01*
X95414283Y-82400000D01*
X95414283Y-81777000D01*
X96085717Y-81777000D01*
X96085717Y-82400000D01*
X96085717Y-82400000D01*
G37*
X96085717Y-82400000D02*
X96129437Y-82632352D01*
X96205212Y-82750110D01*
X96175442Y-82793680D01*
X95885201Y-82673161D01*
X95516417Y-82672839D01*
X95395018Y-82723000D01*
X95313161Y-82723000D01*
X95363917Y-82648717D01*
X95414283Y-82400000D01*
X95414283Y-81777000D01*
X96085717Y-81777000D01*
X96085717Y-82400000D01*
G36*
X114873000Y-82394230D02*
X112777020Y-80298250D01*
X112777020Y-69925020D01*
X112739344Y-69735613D01*
X112710262Y-69589406D01*
X112617500Y-69450578D01*
X112520153Y-69304887D01*
X112520150Y-69304885D01*
X110852000Y-67636734D01*
X110852000Y-61388266D01*
X112404305Y-59835961D01*
X112524417Y-59786331D01*
X112785414Y-59525789D01*
X112926839Y-59185201D01*
X112927161Y-58816417D01*
X112786331Y-58475583D01*
X112525789Y-58214586D01*
X112185201Y-58073161D01*
X111816417Y-58072839D01*
X111475583Y-58213669D01*
X111214586Y-58474211D01*
X111164213Y-58595522D01*
X109354867Y-60404867D01*
X109164758Y-60689387D01*
X109098000Y-61025000D01*
X109098000Y-66635717D01*
X108325000Y-66635717D01*
X108092648Y-66679437D01*
X108000640Y-66738643D01*
X107923717Y-66686083D01*
X107675000Y-66635717D01*
X106525000Y-66635717D01*
X106292648Y-66679437D01*
X106079247Y-66816757D01*
X105936083Y-67026283D01*
X105896247Y-67223000D01*
X101651311Y-67223000D01*
X107449311Y-55627000D01*
X114873000Y-55627000D01*
X114873000Y-82394230D01*
X114873000Y-82394230D01*
G37*
X114873000Y-82394230D02*
X112777020Y-80298250D01*
X112777020Y-69925020D01*
X112739344Y-69735613D01*
X112710262Y-69589406D01*
X112617500Y-69450578D01*
X112520153Y-69304887D01*
X112520150Y-69304885D01*
X110852000Y-67636734D01*
X110852000Y-61388266D01*
X112404305Y-59835961D01*
X112524417Y-59786331D01*
X112785414Y-59525789D01*
X112926839Y-59185201D01*
X112927161Y-58816417D01*
X112786331Y-58475583D01*
X112525789Y-58214586D01*
X112185201Y-58073161D01*
X111816417Y-58072839D01*
X111475583Y-58213669D01*
X111214586Y-58474211D01*
X111164213Y-58595522D01*
X109354867Y-60404867D01*
X109164758Y-60689387D01*
X109098000Y-61025000D01*
X109098000Y-66635717D01*
X108325000Y-66635717D01*
X108092648Y-66679437D01*
X108000640Y-66738643D01*
X107923717Y-66686083D01*
X107675000Y-66635717D01*
X106525000Y-66635717D01*
X106292648Y-66679437D01*
X106079247Y-66816757D01*
X105936083Y-67026283D01*
X105896247Y-67223000D01*
X101651311Y-67223000D01*
X107449311Y-55627000D01*
X114873000Y-55627000D01*
X114873000Y-82394230D01*
G36*
X135024156Y-82223000D02*
X134104499Y-82223000D01*
X134070563Y-82042648D01*
X134044497Y-82002140D01*
X134063917Y-81973717D01*
X134103753Y-81777000D01*
X134578156Y-81777000D01*
X135024156Y-82223000D01*
X135024156Y-82223000D01*
G37*
X135024156Y-82223000D02*
X134104499Y-82223000D01*
X134070563Y-82042648D01*
X134044497Y-82002140D01*
X134063917Y-81973717D01*
X134103753Y-81777000D01*
X134578156Y-81777000D01*
X135024156Y-82223000D01*
G36*
X108782734Y-82123000D02*
X102085682Y-82123000D01*
X102070563Y-82042648D01*
X102044497Y-82002140D01*
X102063917Y-81973717D01*
X102083503Y-81877000D01*
X108536734Y-81877000D01*
X108782734Y-82123000D01*
X108782734Y-82123000D01*
G37*
X108782734Y-82123000D02*
X102085682Y-82123000D01*
X102070563Y-82042648D01*
X102044497Y-82002140D01*
X102063917Y-81973717D01*
X102083503Y-81877000D01*
X108536734Y-81877000D01*
X108782734Y-82123000D01*
G36*
X109274211Y-79885414D02*
X109614799Y-80026839D01*
X109723000Y-80026933D01*
X109723000Y-80582734D01*
X109520133Y-80379867D01*
X109235613Y-80189758D01*
X108900000Y-80123000D01*
X102085682Y-80123000D01*
X102070563Y-80042648D01*
X101961252Y-79872774D01*
X109261593Y-79872774D01*
X109274211Y-79885414D01*
X109274211Y-79885414D01*
G37*
X109274211Y-79885414D02*
X109614799Y-80026839D01*
X109723000Y-80026933D01*
X109723000Y-80582734D01*
X109520133Y-80379867D01*
X109235613Y-80189758D01*
X108900000Y-80123000D01*
X102085682Y-80123000D01*
X102070563Y-80042648D01*
X101961252Y-79872774D01*
X109261593Y-79872774D01*
X109274211Y-79885414D01*
G36*
X97022999Y-79566161D02*
X96814586Y-79774211D01*
X96673161Y-80114799D01*
X96673067Y-80223000D01*
X95151311Y-80223000D01*
X97022999Y-76479624D01*
X97022999Y-79566161D01*
X97022999Y-79566161D01*
G37*
X97022999Y-79566161D02*
X96814586Y-79774211D01*
X96673161Y-80114799D01*
X96673067Y-80223000D01*
X95151311Y-80223000D01*
X97022999Y-76479624D01*
X97022999Y-79566161D01*
G36*
X102585717Y-69000000D02*
X102585717Y-69800000D01*
X102629437Y-70032352D01*
X102705212Y-70150110D01*
X102636083Y-70251283D01*
X102585717Y-70500000D01*
X102585717Y-71300000D01*
X102629437Y-71532352D01*
X102766757Y-71745753D01*
X102976283Y-71888917D01*
X103225000Y-71939283D01*
X104025000Y-71939283D01*
X104257352Y-71895563D01*
X104281305Y-71880149D01*
X104950578Y-72549422D01*
X105202655Y-72717854D01*
X105500000Y-72777000D01*
X105895501Y-72777000D01*
X105929437Y-72957352D01*
X106066757Y-73170753D01*
X106276283Y-73313917D01*
X106525000Y-73364283D01*
X107675000Y-73364283D01*
X107907352Y-73320563D01*
X107999360Y-73261357D01*
X108076283Y-73313917D01*
X108325000Y-73364283D01*
X108777185Y-73364283D01*
X108673161Y-73614799D01*
X108672839Y-73983583D01*
X108813669Y-74324417D01*
X109074211Y-74585414D01*
X109414799Y-74726839D01*
X109723000Y-74727108D01*
X109723000Y-78124190D01*
X109695774Y-78118774D01*
X98776999Y-78118774D01*
X98776999Y-76263267D01*
X101495130Y-73545135D01*
X101495133Y-73545133D01*
X101685242Y-73260613D01*
X101700632Y-73183243D01*
X101752001Y-72925000D01*
X101752000Y-72924995D01*
X101752000Y-71712512D01*
X101863917Y-71548717D01*
X101914283Y-71300000D01*
X101914283Y-70500000D01*
X101870563Y-70267648D01*
X101794788Y-70149890D01*
X101863917Y-70048717D01*
X101914283Y-69800000D01*
X101914283Y-69000000D01*
X101872323Y-68777000D01*
X102630875Y-68777000D01*
X102585717Y-69000000D01*
X102585717Y-69000000D01*
G37*
X102585717Y-69000000D02*
X102585717Y-69800000D01*
X102629437Y-70032352D01*
X102705212Y-70150110D01*
X102636083Y-70251283D01*
X102585717Y-70500000D01*
X102585717Y-71300000D01*
X102629437Y-71532352D01*
X102766757Y-71745753D01*
X102976283Y-71888917D01*
X103225000Y-71939283D01*
X104025000Y-71939283D01*
X104257352Y-71895563D01*
X104281305Y-71880149D01*
X104950578Y-72549422D01*
X105202655Y-72717854D01*
X105500000Y-72777000D01*
X105895501Y-72777000D01*
X105929437Y-72957352D01*
X106066757Y-73170753D01*
X106276283Y-73313917D01*
X106525000Y-73364283D01*
X107675000Y-73364283D01*
X107907352Y-73320563D01*
X107999360Y-73261357D01*
X108076283Y-73313917D01*
X108325000Y-73364283D01*
X108777185Y-73364283D01*
X108673161Y-73614799D01*
X108672839Y-73983583D01*
X108813669Y-74324417D01*
X109074211Y-74585414D01*
X109414799Y-74726839D01*
X109723000Y-74727108D01*
X109723000Y-78124190D01*
X109695774Y-78118774D01*
X98776999Y-78118774D01*
X98776999Y-76263267D01*
X101495130Y-73545135D01*
X101495133Y-73545133D01*
X101685242Y-73260613D01*
X101700632Y-73183243D01*
X101752001Y-72925000D01*
X101752000Y-72924995D01*
X101752000Y-71712512D01*
X101863917Y-71548717D01*
X101914283Y-71300000D01*
X101914283Y-70500000D01*
X101870563Y-70267648D01*
X101794788Y-70149890D01*
X101863917Y-70048717D01*
X101914283Y-69800000D01*
X101914283Y-69000000D01*
X101872323Y-68777000D01*
X102630875Y-68777000D01*
X102585717Y-69000000D01*
G36*
X137334113Y-77193847D02*
X135577000Y-75436734D01*
X135577000Y-73679621D01*
X137334113Y-77193847D01*
X137334113Y-77193847D01*
G37*
X137334113Y-77193847D02*
X135577000Y-75436734D01*
X135577000Y-73679621D01*
X137334113Y-77193847D01*
G36*
X133823000Y-72263265D02*
X133823000Y-74923000D01*
X125300005Y-74923000D01*
X125300000Y-74922999D01*
X125177010Y-74947464D01*
X125177010Y-74288043D01*
X125274211Y-74385414D01*
X125614799Y-74526839D01*
X125983583Y-74527161D01*
X126324417Y-74386331D01*
X126585414Y-74125789D01*
X126726839Y-73785201D01*
X126727161Y-73416417D01*
X126705620Y-73364283D01*
X127475000Y-73364283D01*
X127707352Y-73320563D01*
X127920753Y-73183243D01*
X128063917Y-72973717D01*
X128103753Y-72777000D01*
X132725000Y-72777000D01*
X133022345Y-72717854D01*
X133274422Y-72549422D01*
X133674422Y-72149422D01*
X133688335Y-72128600D01*
X133823000Y-72263265D01*
X133823000Y-72263265D01*
G37*
X133823000Y-72263265D02*
X133823000Y-74923000D01*
X125300005Y-74923000D01*
X125300000Y-74922999D01*
X125177010Y-74947464D01*
X125177010Y-74288043D01*
X125274211Y-74385414D01*
X125614799Y-74526839D01*
X125983583Y-74527161D01*
X126324417Y-74386331D01*
X126585414Y-74125789D01*
X126726839Y-73785201D01*
X126727161Y-73416417D01*
X126705620Y-73364283D01*
X127475000Y-73364283D01*
X127707352Y-73320563D01*
X127920753Y-73183243D01*
X128063917Y-72973717D01*
X128103753Y-72777000D01*
X132725000Y-72777000D01*
X133022345Y-72717854D01*
X133274422Y-72549422D01*
X133674422Y-72149422D01*
X133688335Y-72128600D01*
X133823000Y-72263265D01*
G36*
X99835717Y-71300000D02*
X99879437Y-71532352D01*
X99998000Y-71716604D01*
X99998000Y-72561735D01*
X97965888Y-74593846D01*
X99835717Y-70854188D01*
X99835717Y-71300000D01*
X99835717Y-71300000D01*
G37*
X99835717Y-71300000D02*
X99879437Y-71532352D01*
X99998000Y-71716604D01*
X99998000Y-72561735D01*
X97965888Y-74593846D01*
X99835717Y-70854188D01*
X99835717Y-71300000D01*
G36*
X105929437Y-70957352D02*
X105955503Y-70997860D01*
X105936083Y-71026283D01*
X105896247Y-71223000D01*
X105821844Y-71223000D01*
X105375844Y-70777000D01*
X105895501Y-70777000D01*
X105929437Y-70957352D01*
X105929437Y-70957352D01*
G37*
X105929437Y-70957352D02*
X105955503Y-70997860D01*
X105936083Y-71026283D01*
X105896247Y-71223000D01*
X105821844Y-71223000D01*
X105375844Y-70777000D01*
X105895501Y-70777000D01*
X105929437Y-70957352D01*
G36*
X128899156Y-71223000D02*
X128104499Y-71223000D01*
X128070563Y-71042648D01*
X128044497Y-71002140D01*
X128063917Y-70973717D01*
X128103753Y-70777000D01*
X128453156Y-70777000D01*
X128899156Y-71223000D01*
X128899156Y-71223000D01*
G37*
X128899156Y-71223000D02*
X128104499Y-71223000D01*
X128070563Y-71042648D01*
X128044497Y-71002140D01*
X128063917Y-70973717D01*
X128103753Y-70777000D01*
X128453156Y-70777000D01*
X128899156Y-71223000D01*
G36*
X129376207Y-68800051D02*
X129335717Y-69000000D01*
X129335717Y-69461873D01*
X129324422Y-69450578D01*
X129072345Y-69282146D01*
X128775000Y-69223000D01*
X128104499Y-69223000D01*
X128070563Y-69042648D01*
X128044497Y-69002140D01*
X128063917Y-68973717D01*
X128103753Y-68777000D01*
X129353156Y-68777000D01*
X129376207Y-68800051D01*
X129376207Y-68800051D01*
G37*
X129376207Y-68800051D02*
X129335717Y-69000000D01*
X129335717Y-69461873D01*
X129324422Y-69450578D01*
X129072345Y-69282146D01*
X128775000Y-69223000D01*
X128104499Y-69223000D01*
X128070563Y-69042648D01*
X128044497Y-69002140D01*
X128063917Y-68973717D01*
X128103753Y-68777000D01*
X129353156Y-68777000D01*
X129376207Y-68800051D01*
G36*
X105929437Y-68957352D02*
X105955503Y-68997860D01*
X105936083Y-69026283D01*
X105896247Y-69223000D01*
X105321844Y-69223000D01*
X104949422Y-68850578D01*
X104839304Y-68777000D01*
X105895501Y-68777000D01*
X105929437Y-68957352D01*
X105929437Y-68957352D01*
G37*
X105929437Y-68957352D02*
X105955503Y-68997860D01*
X105936083Y-69026283D01*
X105896247Y-69223000D01*
X105321844Y-69223000D01*
X104949422Y-68850578D01*
X104839304Y-68777000D01*
X105895501Y-68777000D01*
X105929437Y-68957352D01*
M02*
