  0
SECTION
  2
HEADER
  9
$ANGBASE
  50
0.0
  9
$ANGDIR
  70
  1
  9
$MEASUREMENT
  70
0
  0
ENDSEC
  0
SECTION
  2
TABLES
  0
TABLE
  2
LTYPE
  70
1
  0
LTYPE
  2
CONTINUOUS
  70
0
  3
Solid line
  72
65
  73
0
  40
0.0
  0
ENDTAB
  0
TABLE
  2
STYLE
  70
4
  0
STYLE
  2
KICAD
  70
0
  40
0
  41
1
  42
1
  50
0
  71
0
  3
isocp.shx
  0
STYLE
  2
KICADB
  70
0
  40
0
  41
1
  42
1
  50
0
  71
0
  3
isocp.shx
  0
STYLE
  2
KICADI
  70
0
  40
0
  41
1
  42
1
  50
15
  71
0
  3
isocp.shx
  0
STYLE
  2
KICADBI
  70
0
  40
0
  41
1
  42
1
  50
15
  71
0
  3
isocp.shx
  0
ENDTAB
  0
TABLE
  2
LAYER
  70
30
  0
LAYER
  2
BLACK
  70
0
  62
7
  6
CONTINUOUS
  0
LAYER
  2
GRAY1
  70
0
  62
251
  6
CONTINUOUS
  0
LAYER
  2
GRAY2
  70
0
  62
8
  6
CONTINUOUS
  0
LAYER
  2
GRAY3
  70
0
  62
9
  6
CONTINUOUS
  0
LAYER
  2
WHITE
  70
0
  62
7
  6
CONTINUOUS
  0
LAYER
  2
LYELLOW
  70
0
  62
51
  6
CONTINUOUS
  0
LAYER
  2
BLUE1
  70
0
  62
178
  6
CONTINUOUS
  0
LAYER
  2
GREEN1
  70
0
  62
98
  6
CONTINUOUS
  0
LAYER
  2
CYAN1
  70
0
  62
138
  6
CONTINUOUS
  0
LAYER
  2
RED1
  70
0
  62
18
  6
CONTINUOUS
  0
LAYER
  2
MAGENTA1
  70
0
  62
228
  6
CONTINUOUS
  0
LAYER
  2
BROWN1
  70
0
  62
58
  6
CONTINUOUS
  0
LAYER
  2
BLUE2
  70
0
  62
5
  6
CONTINUOUS
  0
LAYER
  2
GREEN2
  70
0
  62
3
  6
CONTINUOUS
  0
LAYER
  2
CYAN2
  70
0
  62
4
  6
CONTINUOUS
  0
LAYER
  2
RED2
  70
0
  62
1
  6
CONTINUOUS
  0
LAYER
  2
MAGENTA2
  70
0
  62
6
  6
CONTINUOUS
  0
LAYER
  2
BROWN2
  70
0
  62
54
  6
CONTINUOUS
  0
LAYER
  2
BLUE3
  70
0
  62
171
  6
CONTINUOUS
  0
LAYER
  2
GREEN3
  70
0
  62
91
  6
CONTINUOUS
  0
LAYER
  2
CYAN3
  70
0
  62
131
  6
CONTINUOUS
  0
LAYER
  2
RED3
  70
0
  62
11
  6
CONTINUOUS
  0
LAYER
  2
MAGENTA3
  70
0
  62
221
  6
CONTINUOUS
  0
LAYER
  2
YELLOW3
  70
0
  62
2
  6
CONTINUOUS
  0
LAYER
  2
BLUE4
  70
0
  62
5
  6
CONTINUOUS
  0
LAYER
  2
GREEN4
  70
0
  62
3
  6
CONTINUOUS
  0
LAYER
  2
CYAN4
  70
0
  62
4
  6
CONTINUOUS
  0
LAYER
  2
RED4
  70
0
  62
1
  6
CONTINUOUS
  0
LAYER
  2
MAGENTA4
  70
0
  62
6
  6
CONTINUOUS
  0
LAYER
  2
YELLOW4
  70
0
  62
2
  6
CONTINUOUS
  0
ENDTAB
  0
ENDSEC
  0
SECTION
  2
ENTITIES
0
LINE
8
Black
10
39.675
20
-149.725
11
38.525
21
-149.725
0
LINE
8
Black
10
38.525
20
-149.725
11
38.525
21
-148.275
0
LINE
8
Black
10
38.525
20
-148.275
11
39.675
21
-148.275
0
LINE
8
Black
10
39.675
20
-148.275
11
39.675
21
-149.725
0
LINE
8
Black
10
79.675
20
-149.725
11
78.525
21
-149.725
0
LINE
8
Black
10
78.525
20
-149.725
11
78.525
21
-148.275
0
LINE
8
Black
10
78.525
20
-148.275
11
79.675
21
-148.275
0
LINE
8
Black
10
79.675
20
-148.275
11
79.675
21
-149.725
0
LINE
8
Black
10
81.475
20
-149.725
11
80.325
21
-149.725
0
LINE
8
Black
10
80.325
20
-149.725
11
80.325
21
-148.275
0
LINE
8
Black
10
80.325
20
-148.275
11
81.475
21
-148.275
0
LINE
8
Black
10
81.475
20
-148.275
11
81.475
21
-149.725
0
LINE
8
Black
10
41.475
20
-149.725
11
40.325
21
-149.725
0
LINE
8
Black
10
40.325
20
-149.725
11
40.325
21
-148.275
0
LINE
8
Black
10
40.325
20
-148.275
11
41.475
21
-148.275
0
LINE
8
Black
10
41.475
20
-148.275
11
41.475
21
-149.725
0
LINE
8
Black
10
33.025
20
-149.15
11
32.225
21
-149.15
0
LINE
8
Black
10
32.225
20
-149.15
11
32.225
21
-148.35
0
LINE
8
Black
10
32.225
20
-148.35
11
33.025
21
-148.35
0
LINE
8
Black
10
33.025
20
-148.35
11
33.025
21
-149.15
0
LINE
8
Black
10
35.775
20
-149.15
11
34.975
21
-149.15
0
LINE
8
Black
10
34.975
20
-149.15
11
34.975
21
-148.35
0
LINE
8
Black
10
34.975
20
-148.35
11
35.775
21
-148.35
0
LINE
8
Black
10
35.775
20
-148.35
11
35.775
21
-149.15
0
LINE
8
Black
10
87.775
20
-149.15
11
86.975
21
-149.15
0
LINE
8
Black
10
86.975
20
-149.15
11
86.975
21
-148.35
0
LINE
8
Black
10
86.975
20
-148.35
11
87.775
21
-148.35
0
LINE
8
Black
10
87.775
20
-148.35
11
87.775
21
-149.15
0
LINE
8
Black
10
85.025
20
-149.15
11
84.225
21
-149.15
0
LINE
8
Black
10
84.225
20
-149.15
11
84.225
21
-148.35
0
LINE
8
Black
10
84.225
20
-148.35
11
85.025
21
-148.35
0
LINE
8
Black
10
85.025
20
-148.35
11
85.025
21
-149.15
0
LINE
8
Black
10
39.675
20
-147.725
11
38.525
21
-147.725
0
LINE
8
Black
10
38.525
20
-147.725
11
38.525
21
-146.275
0
LINE
8
Black
10
38.525
20
-146.275
11
39.675
21
-146.275
0
LINE
8
Black
10
39.675
20
-146.275
11
39.675
21
-147.725
0
LINE
8
Black
10
41.475
20
-147.725
11
40.325
21
-147.725
0
LINE
8
Black
10
40.325
20
-147.725
11
40.325
21
-146.275
0
LINE
8
Black
10
40.325
20
-146.275
11
41.475
21
-146.275
0
LINE
8
Black
10
41.475
20
-146.275
11
41.475
21
-147.725
0
LINE
8
Black
10
79.675
20
-147.725
11
78.525
21
-147.725
0
LINE
8
Black
10
78.525
20
-147.725
11
78.525
21
-146.275
0
LINE
8
Black
10
78.525
20
-146.275
11
79.675
21
-146.275
0
LINE
8
Black
10
79.675
20
-146.275
11
79.675
21
-147.725
0
LINE
8
Black
10
81.475
20
-147.725
11
80.325
21
-147.725
0
LINE
8
Black
10
80.325
20
-147.725
11
80.325
21
-146.275
0
LINE
8
Black
10
80.325
20
-146.275
11
81.475
21
-146.275
0
LINE
8
Black
10
81.475
20
-146.275
11
81.475
21
-147.725
0
LINE
8
Black
10
33.025
20
-147.65
11
32.225
21
-147.65
0
LINE
8
Black
10
32.225
20
-147.65
11
32.225
21
-146.85
0
LINE
8
Black
10
32.225
20
-146.85
11
33.025
21
-146.85
0
LINE
8
Black
10
33.025
20
-146.85
11
33.025
21
-147.65
0
LINE
8
Black
10
35.775
20
-147.65
11
34.975
21
-147.65
0
LINE
8
Black
10
34.975
20
-147.65
11
34.975
21
-146.85
0
LINE
8
Black
10
34.975
20
-146.85
11
35.775
21
-146.85
0
LINE
8
Black
10
35.775
20
-146.85
11
35.775
21
-147.65
0
LINE
8
Black
10
85.025
20
-147.65
11
84.225
21
-147.65
0
LINE
8
Black
10
84.225
20
-147.65
11
84.225
21
-146.85
0
LINE
8
Black
10
84.225
20
-146.85
11
85.025
21
-146.85
0
LINE
8
Black
10
85.025
20
-146.85
11
85.025
21
-147.65
0
LINE
8
Black
10
87.775
20
-147.65
11
86.975
21
-147.65
0
LINE
8
Black
10
86.975
20
-147.65
11
86.975
21
-146.85
0
LINE
8
Black
10
86.975
20
-146.85
11
87.775
21
-146.85
0
LINE
8
Black
10
87.775
20
-146.85
11
87.775
21
-147.65
0
LINE
8
Black
10
81.475
20
-145.725
11
80.325
21
-145.725
0
LINE
8
Black
10
80.325
20
-145.725
11
80.325
21
-144.275
0
LINE
8
Black
10
80.325
20
-144.275
11
81.475
21
-144.275
0
LINE
8
Black
10
81.475
20
-144.275
11
81.475
21
-145.725
0
LINE
8
Black
10
79.675
20
-145.725
11
78.525
21
-145.725
0
LINE
8
Black
10
78.525
20
-145.725
11
78.525
21
-144.275
0
LINE
8
Black
10
78.525
20
-144.275
11
79.675
21
-144.275
0
LINE
8
Black
10
79.675
20
-144.275
11
79.675
21
-145.725
0
LINE
8
Black
10
41.475
20
-145.725
11
40.325
21
-145.725
0
LINE
8
Black
10
40.325
20
-145.725
11
40.325
21
-144.275
0
LINE
8
Black
10
40.325
20
-144.275
11
41.475
21
-144.275
0
LINE
8
Black
10
41.475
20
-144.275
11
41.475
21
-145.725
0
LINE
8
Black
10
39.675
20
-145.725
11
38.525
21
-145.725
0
LINE
8
Black
10
38.525
20
-145.725
11
38.525
21
-144.275
0
LINE
8
Black
10
38.525
20
-144.275
11
39.675
21
-144.275
0
LINE
8
Black
10
39.675
20
-144.275
11
39.675
21
-145.725
0
LINE
8
Black
10
74.675
20
-129.725
11
73.525
21
-129.725
0
LINE
8
Black
10
73.525
20
-129.725
11
73.525
21
-128.275
0
LINE
8
Black
10
73.525
20
-128.275
11
74.675
21
-128.275
0
LINE
8
Black
10
74.675
20
-128.275
11
74.675
21
-129.725
0
LINE
8
Black
10
44.675
20
-129.725
11
43.525
21
-129.725
0
LINE
8
Black
10
43.525
20
-129.725
11
43.525
21
-128.275
0
LINE
8
Black
10
43.525
20
-128.275
11
44.675
21
-128.275
0
LINE
8
Black
10
44.675
20
-128.275
11
44.675
21
-129.725
0
LINE
8
Black
10
46.475
20
-129.725
11
45.325
21
-129.725
0
LINE
8
Black
10
45.325
20
-129.725
11
45.325
21
-128.275
0
LINE
8
Black
10
45.325
20
-128.275
11
46.475
21
-128.275
0
LINE
8
Black
10
46.475
20
-128.275
11
46.475
21
-129.725
0
LINE
8
Black
10
76.475
20
-129.725
11
75.325
21
-129.725
0
LINE
8
Black
10
75.325
20
-129.725
11
75.325
21
-128.275
0
LINE
8
Black
10
75.325
20
-128.275
11
76.475
21
-128.275
0
LINE
8
Black
10
76.475
20
-128.275
11
76.475
21
-129.725
0
LINE
8
Black
10
83.025
20
-128.9
11
82.225
21
-128.9
0
LINE
8
Black
10
82.225
20
-128.9
11
82.225
21
-128.1
0
LINE
8
Black
10
82.225
20
-128.1
11
83.025
21
-128.1
0
LINE
8
Black
10
83.025
20
-128.1
11
83.025
21
-128.9
0
LINE
8
Black
10
80.275
20
-128.9
11
79.475
21
-128.9
0
LINE
8
Black
10
79.475
20
-128.9
11
79.475
21
-128.1
0
LINE
8
Black
10
79.475
20
-128.1
11
80.275
21
-128.1
0
LINE
8
Black
10
80.275
20
-128.1
11
80.275
21
-128.9
0
LINE
8
Black
10
40.525
20
-128.9
11
39.725
21
-128.9
0
LINE
8
Black
10
39.725
20
-128.9
11
39.725
21
-128.1
0
LINE
8
Black
10
39.725
20
-128.1
11
40.525
21
-128.1
0
LINE
8
Black
10
40.525
20
-128.1
11
40.525
21
-128.9
0
LINE
8
Black
10
37.775
20
-128.9
11
36.975
21
-128.9
0
LINE
8
Black
10
36.975
20
-128.9
11
36.975
21
-128.1
0
LINE
8
Black
10
36.975
20
-128.1
11
37.775
21
-128.1
0
LINE
8
Black
10
37.775
20
-128.1
11
37.775
21
-128.9
0
LINE
8
Black
10
46.475
20
-127.725
11
45.325
21
-127.725
0
LINE
8
Black
10
45.325
20
-127.725
11
45.325
21
-126.275
0
LINE
8
Black
10
45.325
20
-126.275
11
46.475
21
-126.275
0
LINE
8
Black
10
46.475
20
-126.275
11
46.475
21
-127.725
0
LINE
8
Black
10
76.475
20
-127.725
11
75.325
21
-127.725
0
LINE
8
Black
10
75.325
20
-127.725
11
75.325
21
-126.275
0
LINE
8
Black
10
75.325
20
-126.275
11
76.475
21
-126.275
0
LINE
8
Black
10
76.475
20
-126.275
11
76.475
21
-127.725
0
LINE
8
Black
10
74.675
20
-127.725
11
73.525
21
-127.725
0
LINE
8
Black
10
73.525
20
-127.725
11
73.525
21
-126.275
0
LINE
8
Black
10
73.525
20
-126.275
11
74.675
21
-126.275
0
LINE
8
Black
10
74.675
20
-126.275
11
74.675
21
-127.725
0
LINE
8
Black
10
44.675
20
-127.725
11
43.525
21
-127.725
0
LINE
8
Black
10
43.525
20
-127.725
11
43.525
21
-126.275
0
LINE
8
Black
10
43.525
20
-126.275
11
44.675
21
-126.275
0
LINE
8
Black
10
44.675
20
-126.275
11
44.675
21
-127.725
0
LINE
8
Black
10
40.525
20
-127.4
11
39.725
21
-127.4
0
LINE
8
Black
10
39.725
20
-127.4
11
39.725
21
-126.6
0
LINE
8
Black
10
39.725
20
-126.6
11
40.525
21
-126.6
0
LINE
8
Black
10
40.525
20
-126.6
11
40.525
21
-127.4
0
LINE
8
Black
10
80.275
20
-127.4
11
79.475
21
-127.4
0
LINE
8
Black
10
79.475
20
-127.4
11
79.475
21
-126.6
0
LINE
8
Black
10
79.475
20
-126.6
11
80.275
21
-126.6
0
LINE
8
Black
10
80.275
20
-126.6
11
80.275
21
-127.4
0
LINE
8
Black
10
83.025
20
-127.4
11
82.225
21
-127.4
0
LINE
8
Black
10
82.225
20
-127.4
11
82.225
21
-126.6
0
LINE
8
Black
10
82.225
20
-126.6
11
83.025
21
-126.6
0
LINE
8
Black
10
83.025
20
-126.6
11
83.025
21
-127.4
0
LINE
8
Black
10
37.775
20
-127.4
11
36.975
21
-127.4
0
LINE
8
Black
10
36.975
20
-127.4
11
36.975
21
-126.6
0
LINE
8
Black
10
36.975
20
-126.6
11
37.775
21
-126.6
0
LINE
8
Black
10
37.775
20
-126.6
11
37.775
21
-127.4
0
LINE
8
Black
10
64
20
-126
11
61
21
-126
0
LINE
8
Black
10
61
20
-126
11
61
21
-123
0
LINE
8
Black
10
61
20
-123
11
64
21
-123
0
LINE
8
Black
10
64
20
-123
11
64
21
-126
0
LINE
8
Black
10
59
20
-126
11
56
21
-126
0
LINE
8
Black
10
56
20
-126
11
56
21
-123
0
LINE
8
Black
10
56
20
-123
11
59
21
-123
0
LINE
8
Black
10
59
20
-123
11
59
21
-126
0
LINE
8
Black
10
74.675
20
-125.725
11
73.525
21
-125.725
0
LINE
8
Black
10
73.525
20
-125.725
11
73.525
21
-124.275
0
LINE
8
Black
10
73.525
20
-124.275
11
74.675
21
-124.275
0
LINE
8
Black
10
74.675
20
-124.275
11
74.675
21
-125.725
0
LINE
8
Black
10
76.475
20
-125.725
11
75.325
21
-125.725
0
LINE
8
Black
10
75.325
20
-125.725
11
75.325
21
-124.275
0
LINE
8
Black
10
75.325
20
-124.275
11
76.475
21
-124.275
0
LINE
8
Black
10
76.475
20
-124.275
11
76.475
21
-125.725
0
LINE
8
Black
10
46.475
20
-125.725
11
45.325
21
-125.725
0
LINE
8
Black
10
45.325
20
-125.725
11
45.325
21
-124.275
0
LINE
8
Black
10
45.325
20
-124.275
11
46.475
21
-124.275
0
LINE
8
Black
10
46.475
20
-124.275
11
46.475
21
-125.725
0
LINE
8
Black
10
44.675
20
-125.725
11
43.525
21
-125.725
0
LINE
8
Black
10
43.525
20
-125.725
11
43.525
21
-124.275
0
LINE
8
Black
10
43.525
20
-124.275
11
44.675
21
-124.275
0
LINE
8
Black
10
44.675
20
-124.275
11
44.675
21
-125.725
0
LINE
8
Black
10
64
20
-119
11
61
21
-119
0
LINE
8
Black
10
61
20
-119
11
61
21
-116
0
LINE
8
Black
10
61
20
-116
11
64
21
-116
0
LINE
8
Black
10
64
20
-116
11
64
21
-119
0
LINE
8
Black
10
59
20
-119
11
56
21
-119
0
LINE
8
Black
10
56
20
-119
11
56
21
-116
0
LINE
8
Black
10
56
20
-116
11
59
21
-116
0
LINE
8
Black
10
59
20
-116
11
59
21
-119
0
LINE
8
Black
10
69.675
20
-117.725
11
68.525
21
-117.725
0
LINE
8
Black
10
68.525
20
-117.725
11
68.525
21
-116.275
0
LINE
8
Black
10
68.525
20
-116.275
11
69.675
21
-116.275
0
LINE
8
Black
10
69.675
20
-116.275
11
69.675
21
-117.725
0
LINE
8
Black
10
49.675
20
-117.725
11
48.525
21
-117.725
0
LINE
8
Black
10
48.525
20
-117.725
11
48.525
21
-116.275
0
LINE
8
Black
10
48.525
20
-116.275
11
49.675
21
-116.275
0
LINE
8
Black
10
49.675
20
-116.275
11
49.675
21
-117.725
0
LINE
8
Black
10
71.475
20
-117.725
11
70.325
21
-117.725
0
LINE
8
Black
10
70.325
20
-117.725
11
70.325
21
-116.275
0
LINE
8
Black
10
70.325
20
-116.275
11
71.475
21
-116.275
0
LINE
8
Black
10
71.475
20
-116.275
11
71.475
21
-117.725
0
LINE
8
Black
10
51.475
20
-117.725
11
50.325
21
-117.725
0
LINE
8
Black
10
50.325
20
-117.725
11
50.325
21
-116.275
0
LINE
8
Black
10
50.325
20
-116.275
11
51.475
21
-116.275
0
LINE
8
Black
10
51.475
20
-116.275
11
51.475
21
-117.725
0
LINE
8
Black
10
76.525
20
-116.4
11
75.725
21
-116.4
0
LINE
8
Black
10
75.725
20
-116.4
11
75.725
21
-115.6
0
LINE
8
Black
10
75.725
20
-115.6
11
76.525
21
-115.6
0
LINE
8
Black
10
76.525
20
-115.6
11
76.525
21
-116.4
0
LINE
8
Black
10
44.275
20
-116.4
11
43.475
21
-116.4
0
LINE
8
Black
10
43.475
20
-116.4
11
43.475
21
-115.6
0
LINE
8
Black
10
43.475
20
-115.6
11
44.275
21
-115.6
0
LINE
8
Black
10
44.275
20
-115.6
11
44.275
21
-116.4
0
LINE
8
Black
10
47.025
20
-116.4
11
46.225
21
-116.4
0
LINE
8
Black
10
46.225
20
-116.4
11
46.225
21
-115.6
0
LINE
8
Black
10
46.225
20
-115.6
11
47.025
21
-115.6
0
LINE
8
Black
10
47.025
20
-115.6
11
47.025
21
-116.4
0
LINE
8
Black
10
73.775
20
-116.4
11
72.975
21
-116.4
0
LINE
8
Black
10
72.975
20
-116.4
11
72.975
21
-115.6
0
LINE
8
Black
10
72.975
20
-115.6
11
73.775
21
-115.6
0
LINE
8
Black
10
73.775
20
-115.6
11
73.775
21
-116.4
0
LINE
8
Black
10
51.475
20
-115.725
11
50.325
21
-115.725
0
LINE
8
Black
10
50.325
20
-115.725
11
50.325
21
-114.275
0
LINE
8
Black
10
50.325
20
-114.275
11
51.475
21
-114.275
0
LINE
8
Black
10
51.475
20
-114.275
11
51.475
21
-115.725
0
LINE
8
Black
10
49.675
20
-115.725
11
48.525
21
-115.725
0
LINE
8
Black
10
48.525
20
-115.725
11
48.525
21
-114.275
0
LINE
8
Black
10
48.525
20
-114.275
11
49.675
21
-114.275
0
LINE
8
Black
10
49.675
20
-114.275
11
49.675
21
-115.725
0
LINE
8
Black
10
71.475
20
-115.725
11
70.325
21
-115.725
0
LINE
8
Black
10
70.325
20
-115.725
11
70.325
21
-114.275
0
LINE
8
Black
10
70.325
20
-114.275
11
71.475
21
-114.275
0
LINE
8
Black
10
71.475
20
-114.275
11
71.475
21
-115.725
0
LINE
8
Black
10
69.675
20
-115.725
11
68.525
21
-115.725
0
LINE
8
Black
10
68.525
20
-115.725
11
68.525
21
-114.275
0
LINE
8
Black
10
68.525
20
-114.275
11
69.675
21
-114.275
0
LINE
8
Black
10
69.675
20
-114.275
11
69.675
21
-115.725
0
LINE
8
Black
10
44.275
20
-114.9
11
43.475
21
-114.9
0
LINE
8
Black
10
43.475
20
-114.9
11
43.475
21
-114.1
0
LINE
8
Black
10
43.475
20
-114.1
11
44.275
21
-114.1
0
LINE
8
Black
10
44.275
20
-114.1
11
44.275
21
-114.9
0
LINE
8
Black
10
47.025
20
-114.9
11
46.225
21
-114.9
0
LINE
8
Black
10
46.225
20
-114.9
11
46.225
21
-114.1
0
LINE
8
Black
10
46.225
20
-114.1
11
47.025
21
-114.1
0
LINE
8
Black
10
47.025
20
-114.1
11
47.025
21
-114.9
0
LINE
8
Black
10
76.525
20
-114.9
11
75.725
21
-114.9
0
LINE
8
Black
10
75.725
20
-114.9
11
75.725
21
-114.1
0
LINE
8
Black
10
75.725
20
-114.1
11
76.525
21
-114.1
0
LINE
8
Black
10
76.525
20
-114.1
11
76.525
21
-114.9
0
LINE
8
Black
10
73.775
20
-114.9
11
72.975
21
-114.9
0
LINE
8
Black
10
72.975
20
-114.9
11
72.975
21
-114.1
0
LINE
8
Black
10
72.975
20
-114.1
11
73.775
21
-114.1
0
LINE
8
Black
10
73.775
20
-114.1
11
73.775
21
-114.9
0
LINE
8
Black
10
69.675
20
-113.725
11
68.525
21
-113.725
0
LINE
8
Black
10
68.525
20
-113.725
11
68.525
21
-112.275
0
LINE
8
Black
10
68.525
20
-112.275
11
69.675
21
-112.275
0
LINE
8
Black
10
69.675
20
-112.275
11
69.675
21
-113.725
0
LINE
8
Black
10
71.475
20
-113.725
11
70.325
21
-113.725
0
LINE
8
Black
10
70.325
20
-113.725
11
70.325
21
-112.275
0
LINE
8
Black
10
70.325
20
-112.275
11
71.475
21
-112.275
0
LINE
8
Black
10
71.475
20
-112.275
11
71.475
21
-113.725
0
LINE
8
Black
10
51.475
20
-113.725
11
50.325
21
-113.725
0
LINE
8
Black
10
50.325
20
-113.725
11
50.325
21
-112.275
0
LINE
8
Black
10
50.325
20
-112.275
11
51.475
21
-112.275
0
LINE
8
Black
10
51.475
20
-112.275
11
51.475
21
-113.725
0
LINE
8
Black
10
49.675
20
-113.725
11
48.525
21
-113.725
0
LINE
8
Black
10
48.525
20
-113.725
11
48.525
21
-112.275
0
LINE
8
Black
10
48.525
20
-112.275
11
49.675
21
-112.275
0
LINE
8
Black
10
49.675
20
-112.275
11
49.675
21
-113.725
0
LINE
8
Black
10
64
20
-112
11
61
21
-112
0
LINE
8
Black
10
61
20
-112
11
61
21
-109
0
LINE
8
Black
10
61
20
-109
11
64
21
-109
0
LINE
8
Black
10
64
20
-109
11
64
21
-112
0
LINE
8
Black
10
59
20
-112
11
56
21
-112
0
LINE
8
Black
10
56
20
-112
11
56
21
-109
0
LINE
8
Black
10
56
20
-109
11
59
21
-109
0
LINE
8
Black
10
59
20
-109
11
59
21
-112
0
LINE
8
Black
10
64
20
-105
11
61
21
-105
0
LINE
8
Black
10
61
20
-105
11
61
21
-102
0
LINE
8
Black
10
61
20
-102
11
64
21
-102
0
LINE
8
Black
10
64
20
-102
11
64
21
-105
0
LINE
8
Black
10
59
20
-105
11
56
21
-105
0
LINE
8
Black
10
56
20
-105
11
56
21
-102
0
LINE
8
Black
10
56
20
-102
11
59
21
-102
0
LINE
8
Black
10
59
20
-102
11
59
21
-105
  0
ENDSEC
  0
EOF
